<svg width="24" height="24" viewBox="0 0 24 24" fill="none" xmlns="http://www.w3.org/2000/svg">
<path d="M18.6667 8.66667C18.6667 16 22 15.3333 22 18.6667C22 18.6667 22 20 20.6667 20H3.33333C2 20 2 18.6667 2 18.6667C2 15.3333 5.33333 16 5.33333 8.66667C5.33333 4.98533 8.318 2 12 2C15.682 2 18.6667 4.98533 18.6667 8.66667Z" fill="#FFAC33"/>
<path d="M12 4C13.1046 4 14 3.10457 14 2C14 0.895431 13.1046 0 12 0C10.8954 0 10 0.895431 10 2C10 3.10457 10.8954 4 12 4Z" fill="#FFAC33"/>
<path d="M11.9997 24C12.7069 24 13.3852 23.7191 13.8853 23.219C14.3854 22.7189 14.6663 22.0406 14.6663 21.3333H9.33301C9.33301 22.0406 9.61396 22.7189 10.1141 23.219C10.6142 23.7191 11.2924 24 11.9997 24Z" fill="#FFAC33"/>
</svg>
