<svg width="40" height="40" viewBox="0 0 40 40" fill="none" xmlns="http://www.w3.org/2000/svg">
<g id="bi:filter">
<g id="Group">
<path id="Vector" fill-rule="evenodd" clip-rule="evenodd" d="M4 19.1715C4 18.8493 4.13073 18.5403 4.36343 18.3124C4.59613 18.0845 4.91174 17.9565 5.24083 17.9565H12.6858C13.0149 17.9565 13.3305 18.0845 13.5632 18.3124C13.7959 18.5403 13.9266 18.8493 13.9266 19.1715C13.9266 19.4938 13.7959 19.8028 13.5632 20.0307C13.3305 20.2586 13.0149 20.3866 12.6858 20.3866H5.24083C4.91174 20.3866 4.59613 20.2586 4.36343 20.0307C4.13073 19.8028 4 19.4938 4 19.1715ZM4.1101 26.7851C4.1101 26.4629 4.24083 26.1538 4.47353 25.9259C4.70623 25.6981 5.02184 25.5701 5.35093 25.5701H22.7225C23.0516 25.5701 23.3672 25.6981 23.5999 25.9259C23.8326 26.1538 23.9633 26.4629 23.9633 26.7851C23.9633 27.1073 23.8326 27.4164 23.5999 27.6442C23.3672 27.8721 23.0516 28.0001 22.7225 28.0001H5.35093C5.02184 28.0001 4.70623 27.8721 4.47353 27.6442C4.24083 27.4164 4.1101 27.1073 4.1101 26.7851ZM4.2202 11.2151C4.2202 10.8929 4.35093 10.5839 4.58363 10.356C4.81633 10.1281 5.13194 10.0001 5.46103 10.0001H32.7592C33.0883 10.0001 33.4039 10.1281 33.6366 10.356C33.8693 10.5839 34 10.8929 34 11.2151C34 11.5374 33.8693 11.8464 33.6366 12.0743C33.4039 12.3022 33.0883 12.4302 32.7592 12.4302H5.46103C5.13194 12.4302 4.81633 12.3022 4.58363 12.0743C4.35093 11.8464 4.2202 11.5374 4.2202 11.2151Z" fill="#040BC5"/>
</g>
</g>
</svg>
