<svg width="790" height="566" viewBox="0 0 790 566" fill="none" xmlns="http://www.w3.org/2000/svg">
<g filter="url(#filter0_d_681_10499)">
<rect x="64" y="61" width="662" height="438" rx="16" fill="white"/>
<g clip-path="url(#clip0_681_10499)">
<path d="M180.494 459.687L179.964 458.707C187.066 454.863 195.905 450.08 200.522 442.23C205.073 434.491 205.175 423.983 200.788 414.806C197.055 406.995 190.197 399.997 180.957 394.569C179.134 393.498 177.221 392.484 175.371 391.502C170.898 389.13 166.273 386.677 162.46 383.197C157.208 378.404 153.234 370.361 156.195 363.196C157.17 360.909 158.765 358.942 160.8 357.516C162.836 356.091 165.23 355.266 167.71 355.134L167.773 356.247C165.501 356.367 163.307 357.123 161.442 358.428C159.577 359.733 158.115 361.535 157.222 363.629C154.469 370.287 158.245 377.843 163.21 382.374C166.919 385.759 171.481 388.178 175.892 390.518C177.753 391.504 179.677 392.525 181.521 393.608C190.954 399.149 197.964 406.313 201.793 414.324C206.337 423.832 206.218 434.741 201.481 442.795C196.707 450.912 187.717 455.778 180.494 459.687Z" fill="#F1F1F1"/>
<path d="M174.769 361.008C180.151 361.008 184.515 358.888 184.515 356.272C184.515 353.655 180.151 351.535 174.769 351.535C169.387 351.535 165.024 353.655 165.024 356.272C165.024 358.888 169.387 361.008 174.769 361.008Z" fill="#F1F1F1"/>
<path d="M182.566 392.216C187.948 392.216 192.311 390.095 192.311 387.479C192.311 384.863 187.948 382.742 182.566 382.742C177.183 382.742 172.82 384.863 172.82 387.479C172.82 390.095 177.183 392.216 182.566 392.216Z" fill="#F1F1F1"/>
<path d="M164.745 397.231C170.128 397.231 174.491 395.11 174.491 392.494C174.491 389.878 170.128 387.758 164.745 387.758C159.363 387.758 155 389.878 155 392.494C155 395.11 159.363 397.231 164.745 397.231Z" fill="#F1F1F1"/>
<path d="M192.589 423.423C197.972 423.423 202.335 421.302 202.335 418.686C202.335 416.07 197.972 413.949 192.589 413.949C187.207 413.949 182.844 416.07 182.844 418.686C182.844 421.302 187.207 423.423 192.589 423.423Z" fill="#F1F1F1"/>
<path d="M212.08 423.423C217.462 423.423 221.825 421.302 221.825 418.686C221.825 416.07 217.462 413.949 212.08 413.949C206.698 413.949 202.335 416.07 202.335 418.686C202.335 421.302 206.698 423.423 212.08 423.423Z" fill="#F1F1F1"/>
<path d="M277.776 344.03H300.777C302.346 334.95 302.346 325.667 300.777 316.586H277.776C280.367 325.551 280.367 335.066 277.776 344.03Z" fill="#040BC5"/>
<path d="M206.794 452.98H213.11L216.115 428.6L206.793 428.601L206.794 452.98Z" fill="#FFB7B7"/>
<path d="M205.183 450.917L217.622 450.916C219.724 450.916 221.741 451.752 223.227 453.239C224.714 454.727 225.549 456.745 225.549 458.848V459.106L205.184 459.107L205.183 450.917Z" fill="#2F2E41"/>
<path d="M282.677 452.772L288.81 451.262L285.907 426.87L276.855 429.1L282.677 452.772Z" fill="#FFB7B7"/>
<path d="M280.62 451.154L292.698 448.179C294.74 447.676 296.898 448.006 298.696 449.095C300.495 450.184 301.788 451.943 302.29 453.986L302.352 454.236L282.576 459.107L280.62 451.154Z" fill="#2F2E41"/>
<path d="M202.91 447.167L204.222 440.449C204.222 440.449 206.637 414.511 223.97 388.624L229.612 360.503C229.612 360.503 227.937 339.217 244.109 327.695L249.094 324.258L266.575 325.261L270.612 347.38L278.747 399.716C278.747 399.716 280.846 399.913 281.633 405.965C283.233 408.507 284.18 411.405 284.389 414.401C284.389 414.401 288.552 425.894 289.667 434.356L289.536 442.636L280.745 447.323L262.423 395.47L249.318 366.481C249.318 366.481 243.011 386.905 233.35 404.403C233.35 404.403 220.117 433.064 217.474 438.887L214.587 448.417L202.91 447.167Z" fill="#2F2E41"/>
<path d="M261.357 279.75C268.257 279.75 273.851 274.152 273.851 267.247C273.851 260.342 268.257 254.744 261.357 254.744C254.456 254.744 248.862 260.342 248.862 267.247C248.862 274.152 254.456 279.75 261.357 279.75Z" fill="#FFB7B7"/>
<path d="M261.357 279.75C268.257 279.75 273.851 274.152 273.851 267.247C273.851 260.342 268.257 254.744 261.357 254.744C254.456 254.744 248.862 260.342 248.862 267.247C248.862 274.152 254.456 279.75 261.357 279.75Z" fill="#FFB8B8"/>
<path d="M244.145 327.829L248.27 317.519C245.356 308.073 245.534 297.943 248.78 288.606L249.569 287.955C256.443 282.29 262.477 283.321 268.076 290.252C268.978 291.378 270.033 292.373 271.209 293.208C273.679 294.942 277.597 304.362 272.424 309.883L268.285 334.041C268.721 347.379 259.05 342.356 244.145 327.829Z" fill="#3F3D56"/>
<path d="M280.77 342.07C280.686 341.406 280.458 340.769 280.102 340.202C279.745 339.636 279.269 339.155 278.706 338.793C278.144 338.431 277.509 338.197 276.846 338.107C276.184 338.017 275.509 338.073 274.871 338.272L268.175 330.24L262.304 333.121L271.92 344.332C272.325 345.383 273.101 346.249 274.102 346.766C275.103 347.282 276.258 347.414 277.349 347.135C278.44 346.856 279.39 346.186 280.021 345.253C280.651 344.32 280.918 343.187 280.77 342.07Z" fill="#FFB7B7"/>
<path d="M266.588 341.965L249.821 316.816L254.669 298.582C255.469 296.936 256.888 295.676 258.616 295.077C260.344 294.478 262.238 294.591 263.883 295.389C265.528 296.188 266.789 297.608 267.388 299.336C267.988 301.065 267.877 302.961 267.08 304.607L261.275 316.606L274.892 336.148L266.588 341.965Z" fill="#CCCCCC"/>
<path d="M239.085 264.508C245.705 264.508 251.072 259.138 251.072 252.513C251.072 245.888 245.705 240.518 239.085 240.518C232.465 240.518 227.098 245.888 227.098 252.513C227.098 259.138 232.465 264.508 239.085 264.508Z" fill="#2F2E41"/>
<path d="M228.746 262.446C230.297 263.568 232.095 264.302 233.988 264.587C235.881 264.871 237.815 264.698 239.627 264.081C241.439 263.464 243.078 262.422 244.405 261.042C245.733 259.662 246.71 257.983 247.257 256.147C247.05 257.793 246.505 259.377 245.655 260.801C244.806 262.225 243.67 263.457 242.321 264.419C240.971 265.382 239.437 266.054 237.815 266.393C236.193 266.732 234.518 266.731 232.897 266.39C231.275 266.049 229.742 265.375 228.394 264.411C227.045 263.447 225.911 262.214 225.064 260.789C224.216 259.364 223.672 257.779 223.467 256.133C223.263 254.488 223.401 252.818 223.874 251.228C223.605 253.364 223.916 255.532 224.773 257.506C225.63 259.479 227.003 261.186 228.746 262.446Z" fill="#2F2E41"/>
<path d="M276.051 262.459C273.959 258.71 273.158 257.144 270.46 254.864C268.074 252.848 265.139 252.256 262.772 254.167C259.972 252.956 256.856 252.681 253.887 253.384C250.918 254.086 248.255 255.728 246.293 258.066C244.331 260.404 243.175 263.312 242.997 266.36C242.819 269.407 243.627 272.431 245.303 274.982C246.979 277.533 249.432 279.475 252.298 280.52C255.165 281.564 258.291 281.656 261.214 280.78C264.136 279.905 266.699 278.11 268.52 275.661C270.342 273.212 271.326 270.241 271.326 267.188C271.323 266.652 271.291 266.117 271.229 265.584C273.287 265.295 273.994 262.748 276.051 262.459Z" fill="#2F2E41"/>
<path d="M336.17 460H166.322C166.174 460 166.033 459.941 165.928 459.837C165.824 459.732 165.765 459.591 165.765 459.443C165.765 459.295 165.824 459.153 165.928 459.049C166.033 458.944 166.174 458.885 166.322 458.885H336.17C336.318 458.885 336.459 458.944 336.564 459.049C336.668 459.153 336.727 459.295 336.727 459.443C336.727 459.591 336.668 459.732 336.564 459.837C336.459 459.941 336.318 460 336.17 460Z" fill="#CBCBCB"/>
<path d="M595.178 144.941H594.659V130.712C594.659 129.631 594.447 128.56 594.033 127.561C593.619 126.561 593.013 125.654 592.249 124.889C591.485 124.124 590.578 123.518 589.579 123.104C588.581 122.69 587.511 122.477 586.43 122.477H556.306C555.225 122.477 554.155 122.69 553.156 123.104C552.158 123.518 551.251 124.124 550.486 124.889C549.722 125.654 549.116 126.561 548.703 127.561C548.289 128.56 548.076 129.631 548.076 130.712V208.773C548.076 210.957 548.943 213.052 550.486 214.596C552.03 216.14 554.123 217.008 556.306 217.008H586.43C588.612 217.008 590.706 216.14 592.249 214.596C593.792 213.052 594.659 210.957 594.659 208.773V155.069H595.178V144.941Z" fill="#E5E5E5"/>
<path d="M586.419 124.619H582.486C582.667 125.063 582.736 125.544 582.687 126.021C582.639 126.498 582.473 126.955 582.206 127.353C581.939 127.75 581.578 128.076 581.156 128.302C580.733 128.527 580.262 128.645 579.783 128.645H562.525C562.046 128.645 561.575 128.527 561.152 128.302C560.73 128.076 560.369 127.75 560.102 127.353C559.835 126.955 559.67 126.498 559.621 126.021C559.572 125.544 559.641 125.063 559.822 124.619H556.149C554.519 124.619 552.956 125.267 551.804 126.421C550.651 127.574 550.004 129.138 550.004 130.769V208.716C550.004 210.347 550.651 211.911 551.804 213.064C552.956 214.218 554.519 214.866 556.149 214.866H586.419C587.226 214.866 588.025 214.707 588.77 214.397C589.516 214.088 590.194 213.635 590.764 213.064C591.335 212.493 591.788 211.815 592.096 211.069C592.405 210.323 592.564 209.523 592.564 208.716V130.769C592.564 129.962 592.405 129.162 592.096 128.416C591.788 127.67 591.335 126.992 590.764 126.421C590.194 125.85 589.516 125.397 588.77 125.088C588.025 124.778 587.226 124.619 586.419 124.619Z" fill="white"/>
<path d="M587.356 153.198H568.588V154.686H587.356V153.198Z" fill="#E5E5E5"/>
<path d="M587.356 157.91H568.588V159.398H587.356V157.91Z" fill="#E5E5E5"/>
<path d="M587.356 162.622H568.588V164.11H587.356V162.622Z" fill="#E5E5E5"/>
<path d="M564.965 154.117H555.899V163.19H564.965V154.117Z" fill="#E5E5E5"/>
<path d="M562.098 186.287C564.277 186.287 566.044 184.52 566.044 182.339C566.044 180.159 564.277 178.391 562.098 178.391C559.919 178.391 558.153 180.159 558.153 182.339C558.153 184.52 559.919 186.287 562.098 186.287Z" fill="#040BC5"/>
<path d="M572.619 185.565C574.4 185.565 575.843 184.121 575.843 182.339C575.843 180.557 574.4 179.113 572.619 179.113C570.839 179.113 569.395 180.557 569.395 182.339C569.395 184.121 570.839 185.565 572.619 185.565Z" fill="#040BC5"/>
<path d="M583.14 184.302C584.224 184.302 585.102 183.423 585.102 182.339C585.102 181.255 584.224 180.376 583.14 180.376C582.057 180.376 581.179 181.255 581.179 182.339C581.179 183.423 582.057 184.302 583.14 184.302Z" fill="#040BC5"/>
<path d="M457.68 212.733H388.526C386.887 212.731 385.316 212.078 384.157 210.919C382.998 209.759 382.346 208.186 382.344 206.546V106.187C382.346 104.546 382.998 102.974 384.157 101.814C385.316 100.654 386.887 100.002 388.526 100H457.68C459.319 100.002 460.89 100.654 462.049 101.814C463.208 102.974 463.86 104.546 463.862 106.187V206.546C463.86 208.186 463.208 209.759 462.049 210.919C460.89 212.078 459.319 212.731 457.68 212.733Z" fill="#E5E5E5"/>
<path d="M457.801 208.786H388.405C387.899 208.785 387.415 208.584 387.058 208.226C386.7 207.869 386.499 207.384 386.499 206.878V105.854C386.499 105.349 386.7 104.864 387.058 104.506C387.415 104.149 387.899 103.948 388.405 103.947H457.801C458.307 103.948 458.791 104.149 459.148 104.506C459.506 104.864 459.707 105.349 459.707 105.854V206.878C459.707 207.384 459.506 207.869 459.148 208.226C458.791 208.584 458.307 208.785 457.801 208.786Z" fill="white"/>
<path d="M422.84 102.421C423.13 102.421 423.366 102.185 423.366 101.895C423.366 101.604 423.13 101.368 422.84 101.368C422.55 101.368 422.314 101.604 422.314 101.895C422.314 102.185 422.55 102.421 422.84 102.421Z" fill="white"/>
<path d="M451.865 134.93H413.267V137.149H451.865V134.93Z" fill="#E5E5E5"/>
<path d="M451.865 141.958H413.267V144.177H451.865V141.958Z" fill="#E5E5E5"/>
<path d="M451.865 148.985H413.267V151.205H451.865V148.985Z" fill="#E5E5E5"/>
<path d="M407.863 136.301H394.341V149.833H407.863V136.301Z" fill="#E5E5E5"/>
<path d="M410.126 177.803C413.094 177.803 415.499 175.396 415.499 172.426C415.499 169.457 413.094 167.049 410.126 167.049C407.159 167.049 404.753 169.457 404.753 172.426C404.753 175.396 407.159 177.803 410.126 177.803Z" fill="#040BC5"/>
<path d="M424.454 176.82C426.879 176.82 428.844 174.853 428.844 172.426C428.844 170 426.879 168.033 424.454 168.033C422.029 168.033 420.063 170 420.063 172.426C420.063 174.853 422.029 176.82 424.454 176.82Z" fill="#040BC5"/>
<path d="M438.782 175.099C440.257 175.099 441.453 173.902 441.453 172.426C441.453 170.95 440.257 169.753 438.782 169.753C437.306 169.753 436.11 170.95 436.11 172.426C436.11 173.902 437.306 175.099 438.782 175.099Z" fill="#040BC5"/>
<path d="M589.172 222.017H385.138C384.401 222.017 383.67 222.162 382.989 222.445C382.308 222.727 381.688 223.141 381.167 223.663C380.645 224.185 380.232 224.804 379.95 225.486C379.667 226.168 379.522 226.899 379.522 227.637V341.402C379.522 342.892 380.114 344.322 381.167 345.376C382.22 346.43 383.649 347.022 385.138 347.022H589.172C590.662 347.022 592.09 346.43 593.143 345.376C594.196 344.322 594.788 342.892 594.788 341.402V227.637C594.788 226.146 594.196 224.717 593.143 223.663C592.09 222.609 590.662 222.017 589.172 222.017Z" fill="#3F3D56"/>
<path d="M587.259 231.949H387.051V344.967H587.259V231.949Z" fill="white"/>
<path d="M486.984 228.867C488.118 228.867 489.037 227.947 489.037 226.812C489.037 225.677 488.118 224.757 486.984 224.757C485.85 224.757 484.931 225.677 484.931 226.812C484.931 227.947 485.85 228.867 486.984 228.867Z" fill="white"/>
<path d="M600.409 342.912H580.87V341.503C580.87 341.467 580.863 341.43 580.849 341.396C580.835 341.362 580.815 341.332 580.789 341.306C580.763 341.28 580.732 341.259 580.698 341.245C580.664 341.231 580.628 341.224 580.591 341.224H573.892C573.856 341.224 573.819 341.231 573.785 341.245C573.752 341.259 573.721 341.28 573.695 341.306C573.669 341.332 573.648 341.362 573.634 341.396C573.62 341.43 573.613 341.467 573.613 341.503V342.912H569.426V341.503C569.426 341.467 569.419 341.43 569.405 341.396C569.391 341.362 569.37 341.332 569.344 341.306C569.319 341.28 569.288 341.259 569.254 341.245C569.22 341.231 569.184 341.224 569.147 341.224H562.448C562.411 341.224 562.375 341.231 562.341 341.245C562.307 341.259 562.277 341.28 562.251 341.306C562.225 341.332 562.204 341.362 562.19 341.396C562.176 341.43 562.169 341.467 562.169 341.503V342.912H557.982V341.503C557.982 341.467 557.975 341.43 557.961 341.396C557.947 341.362 557.926 341.332 557.9 341.306C557.874 341.28 557.844 341.259 557.81 341.245C557.776 341.231 557.74 341.224 557.703 341.224H551.004C550.967 341.224 550.931 341.231 550.897 341.245C550.863 341.259 550.832 341.28 550.806 341.306C550.78 341.332 550.76 341.362 550.746 341.396C550.732 341.43 550.725 341.467 550.725 341.503V342.912H546.538V341.503C546.538 341.467 546.53 341.43 546.516 341.396C546.502 341.362 546.482 341.332 546.456 341.306C546.43 341.28 546.399 341.259 546.365 341.245C546.332 341.231 546.295 341.224 546.259 341.224H539.56C539.523 341.224 539.487 341.231 539.453 341.245C539.419 341.259 539.388 341.28 539.362 341.306C539.336 341.332 539.316 341.362 539.302 341.396C539.288 341.43 539.28 341.467 539.28 341.503V342.912H535.093V341.503C535.093 341.467 535.086 341.43 535.072 341.396C535.058 341.362 535.038 341.332 535.012 341.306C534.986 341.28 534.955 341.259 534.921 341.245C534.887 341.231 534.851 341.224 534.814 341.224H528.115C528.079 341.224 528.042 341.231 528.008 341.245C527.975 341.259 527.944 341.28 527.918 341.306C527.892 341.332 527.871 341.362 527.857 341.396C527.843 341.43 527.836 341.467 527.836 341.503V342.912H523.649V341.503C523.649 341.467 523.642 341.43 523.628 341.396C523.614 341.362 523.593 341.332 523.568 341.306C523.542 341.28 523.511 341.259 523.477 341.245C523.443 341.231 523.407 341.224 523.37 341.224H516.671C516.634 341.224 516.598 341.231 516.564 341.245C516.53 341.259 516.5 341.28 516.474 341.306C516.448 341.332 516.427 341.362 516.413 341.396C516.399 341.43 516.392 341.467 516.392 341.503V342.912H512.205V341.503C512.205 341.467 512.198 341.43 512.184 341.396C512.17 341.362 512.149 341.332 512.123 341.306C512.097 341.28 512.067 341.259 512.033 341.245C511.999 341.231 511.963 341.224 511.926 341.224H459.45C459.413 341.224 459.377 341.231 459.343 341.245C459.309 341.259 459.278 341.28 459.252 341.306C459.227 341.332 459.206 341.362 459.192 341.396C459.178 341.43 459.171 341.467 459.171 341.503V342.912H454.984V341.503C454.984 341.467 454.977 341.43 454.963 341.396C454.948 341.362 454.928 341.332 454.902 341.306C454.876 341.28 454.845 341.259 454.811 341.245C454.778 341.231 454.741 341.224 454.705 341.224H448.006C447.969 341.224 447.933 341.231 447.899 341.245C447.865 341.259 447.834 341.28 447.808 341.306C447.782 341.332 447.762 341.362 447.748 341.396C447.734 341.43 447.726 341.467 447.726 341.503V342.912H443.54V341.503C443.54 341.467 443.532 341.43 443.518 341.396C443.504 341.362 443.484 341.332 443.458 341.306C443.432 341.28 443.401 341.259 443.367 341.245C443.333 341.231 443.297 341.224 443.26 341.224H436.561C436.525 341.224 436.488 341.231 436.455 341.245C436.421 341.259 436.39 341.28 436.364 341.306C436.338 341.332 436.317 341.362 436.303 341.396C436.289 341.43 436.282 341.467 436.282 341.503V342.912H432.095V341.503C432.095 341.467 432.088 341.43 432.074 341.396C432.06 341.362 432.039 341.332 432.014 341.306C431.988 341.28 431.957 341.259 431.923 341.245C431.889 341.231 431.853 341.224 431.816 341.224H425.117C425.08 341.224 425.044 341.231 425.01 341.245C424.976 341.259 424.946 341.28 424.92 341.306C424.894 341.332 424.873 341.362 424.859 341.396C424.845 341.43 424.838 341.467 424.838 341.503V342.912H420.651V341.503C420.651 341.467 420.644 341.43 420.63 341.396C420.616 341.362 420.595 341.332 420.569 341.306C420.543 341.28 420.513 341.259 420.479 341.245C420.445 341.231 420.409 341.224 420.372 341.224H413.673C413.636 341.224 413.6 341.231 413.566 341.245C413.532 341.259 413.501 341.28 413.475 341.306C413.45 341.332 413.429 341.362 413.415 341.396C413.401 341.43 413.394 341.467 413.394 341.503V342.912H409.207V341.503C409.207 341.467 409.2 341.43 409.186 341.396C409.172 341.362 409.151 341.332 409.125 341.306C409.099 341.28 409.068 341.259 409.034 341.245C409.001 341.231 408.964 341.224 408.928 341.224H402.229C402.155 341.224 402.084 341.253 402.031 341.306C401.979 341.358 401.949 341.429 401.949 341.503V342.912H397.763V341.503C397.763 341.467 397.755 341.43 397.741 341.396C397.727 341.362 397.707 341.332 397.681 341.306C397.655 341.28 397.624 341.259 397.59 341.245C397.556 341.231 397.52 341.224 397.483 341.224H390.784C390.71 341.224 390.639 341.253 390.587 341.306C390.535 341.358 390.505 341.429 390.505 341.503V342.912H377.665C376.786 342.912 375.914 343.085 375.102 343.422C374.289 343.759 373.55 344.253 372.928 344.876C372.306 345.498 371.813 346.237 371.476 347.05C371.14 347.864 370.966 348.736 370.966 349.616V352.647C370.966 354.425 371.672 356.13 372.928 357.388C374.185 358.645 375.889 359.351 377.665 359.351H600.409C602.186 359.351 603.89 358.645 605.146 357.388C606.403 356.13 607.108 354.425 607.108 352.647V349.616C607.108 348.736 606.935 347.864 606.599 347.05C606.262 346.237 605.768 345.498 605.146 344.876C604.524 344.253 603.786 343.759 602.973 343.422C602.16 343.085 601.289 342.912 600.409 342.912Z" fill="#3F3D56"/>
<path d="M531.783 242.71H467.04V245.117H531.783V242.71Z" fill="#CBCBCB"/>
<path d="M531.783 250.333H467.04V252.741H531.783V250.333Z" fill="#CBCBCB"/>
<path d="M531.783 257.957H467.04V260.364H531.783V257.957Z" fill="#CBCBCB"/>
<path d="M461.178 244.198H446.51V258.877H461.178V244.198Z" fill="#CBCBCB"/>
<path d="M486.999 323.912C501.176 323.912 512.668 312.411 512.668 298.224C512.668 284.037 501.176 272.537 486.999 272.537C472.822 272.537 461.329 284.037 461.329 298.224C461.329 312.411 472.822 323.912 486.999 323.912Z" fill="#040BC5"/>
<path d="M482.831 302.057H477.449L486.974 282.687L496.549 302.039H491.162V310.092H482.831V302.057Z" fill="white"/>
<path d="M351.496 205.334C355.148 201.055 360.165 198.169 365.699 197.167L363.241 195.101L365.87 194.873L369.235 197.703L366.407 201.071L363.777 201.299L365.672 199.044C360.094 200.152 355.137 203.323 351.789 207.924C348.441 212.525 346.948 218.22 347.607 223.873C348.265 229.526 351.027 234.724 355.343 238.431C359.659 242.139 365.211 244.083 370.895 243.878L370.961 245.712C366.213 245.883 361.518 244.666 357.45 242.211C353.381 239.755 350.115 236.167 348.051 231.885C345.986 227.603 345.213 222.812 345.824 218.097C346.436 213.382 348.407 208.947 351.496 205.334Z" fill="#E5E5E5"/>
<path d="M628.331 222.129C628.098 228.617 625.299 234.746 620.55 239.169C615.8 243.592 609.49 245.945 603.007 245.712L603.073 243.878C608.756 244.083 614.309 242.139 618.625 238.431C622.941 234.724 625.703 229.526 626.361 223.873C627.02 218.22 625.527 212.525 622.179 207.924C618.831 203.323 613.874 200.152 608.296 199.044L610.191 201.299L607.561 201.071L604.733 197.703L608.098 194.873L610.727 195.101L608.269 197.167C614.052 198.221 619.263 201.324 622.947 205.908C626.632 210.491 628.543 216.25 628.331 222.129Z" fill="#E5E5E5"/>
<path d="M633.443 359.69H340.525C340.377 359.69 340.235 359.632 340.131 359.527C340.027 359.423 339.968 359.281 339.968 359.133C339.968 358.985 340.027 358.844 340.131 358.739C340.235 358.635 340.377 358.576 340.525 358.576H633.443C633.591 358.576 633.732 358.635 633.837 358.739C633.941 358.844 634 358.985 634 359.133C634 359.281 633.941 359.423 633.837 359.527C633.732 359.632 633.591 359.69 633.443 359.69Z" fill="#CBCBCB"/>
</g>
</g>
<defs>
<filter id="filter0_d_681_10499" x="0" y="0" width="790" height="566" filterUnits="userSpaceOnUse" color-interpolation-filters="sRGB">
<feFlood flood-opacity="0" result="BackgroundImageFix"/>
<feColorMatrix in="SourceAlpha" type="matrix" values="0 0 0 0 0 0 0 0 0 0 0 0 0 0 0 0 0 0 127 0" result="hardAlpha"/>
<feMorphology radius="22" operator="dilate" in="SourceAlpha" result="effect1_dropShadow_681_10499"/>
<feOffset dy="3"/>
<feGaussianBlur stdDeviation="21"/>
<feComposite in2="hardAlpha" operator="out"/>
<feColorMatrix type="matrix" values="0 0 0 0 0 0 0 0 0 0 0 0 0 0 0 0 0 0 0.05 0"/>
<feBlend mode="normal" in2="BackgroundImageFix" result="effect1_dropShadow_681_10499"/>
<feBlend mode="normal" in="SourceGraphic" in2="effect1_dropShadow_681_10499" result="shape"/>
</filter>
<clipPath id="clip0_681_10499">
<rect width="479" height="360" fill="white" transform="translate(155 100)"/>
</clipPath>
</defs>
</svg>
