<svg width="790" height="566" viewBox="0 0 790 566" fill="none" xmlns="http://www.w3.org/2000/svg">
<g filter="url(#filter0_d_681_10090)">
<rect x="64" y="61" width="662" height="438" rx="16" fill="white"/>
<g clip-path="url(#clip0_681_10090)">
<path d="M180.845 260.77C168.332 260.77 156.331 255.798 147.483 246.949C138.634 238.1 133.664 226.097 133.664 213.583C133.664 201.068 138.634 189.065 147.483 180.216C156.331 171.367 168.332 166.395 180.845 166.395H610.264C622.777 166.395 634.778 171.367 643.626 180.216C652.474 189.065 657.445 201.068 657.445 213.583C657.445 226.097 652.474 238.1 643.626 246.949C634.778 255.798 622.777 260.77 610.264 260.77H180.845Z" fill="#E6E6E6"/>
<path d="M180.845 172.55C169.964 172.55 159.528 176.873 151.834 184.568C144.14 192.264 139.818 202.7 139.818 213.583C139.818 224.465 144.14 234.902 151.834 242.597C159.528 250.292 169.964 254.615 180.845 254.615H610.264C621.145 254.615 631.58 250.292 639.274 242.597C646.969 234.902 651.291 224.465 651.291 213.583C651.291 202.7 646.969 192.264 639.274 184.568C631.58 176.873 621.145 172.55 610.264 172.55H180.845Z" fill="white"/>
<path d="M225.747 172.55H224.38V254.615H225.747V172.55Z" fill="#E6E6E6"/>
<path d="M311.107 172.55H309.739V254.615H311.107V172.55Z" fill="#E6E6E6"/>
<path d="M396.58 172.55H395.212V254.615H396.58V172.55Z" fill="#E6E6E6"/>
<path d="M481.37 172.55H480.002V254.615H481.37V172.55Z" fill="#E6E6E6"/>
<path d="M566.843 172.55H565.476V254.615H566.843V172.55Z" fill="#E6E6E6"/>
<path d="M247.979 201.273C247.71 201.258 247.44 201.298 247.187 201.391C246.934 201.484 246.702 201.627 246.506 201.812C246.31 201.998 246.154 202.221 246.047 202.469C245.941 202.717 245.886 202.984 245.886 203.253C245.886 203.523 245.941 203.79 246.047 204.038C246.154 204.285 246.31 204.509 246.506 204.694C246.702 204.879 246.934 205.023 247.187 205.116C247.44 205.208 247.71 205.248 247.979 205.233H288.145C288.651 205.206 289.127 204.986 289.476 204.619C289.825 204.251 290.02 203.764 290.021 203.257C290.022 202.75 289.829 202.262 289.482 201.893C289.134 201.524 288.658 201.302 288.152 201.273H247.979Z" fill="#E6E6E6"/>
<path d="M247.979 211.531C247.71 211.516 247.44 211.556 247.187 211.649C246.934 211.742 246.702 211.885 246.506 212.07C246.31 212.256 246.154 212.479 246.047 212.727C245.941 212.975 245.886 213.242 245.886 213.511C245.886 213.781 245.941 214.048 246.047 214.296C246.154 214.543 246.31 214.767 246.506 214.952C246.702 215.138 246.934 215.281 247.187 215.374C247.44 215.466 247.71 215.506 247.979 215.491H288.145C288.651 215.464 289.127 215.244 289.476 214.877C289.825 214.509 290.02 214.022 290.021 213.515C290.022 213.008 289.829 212.52 289.482 212.151C289.134 211.782 288.658 211.56 288.152 211.531H247.979Z" fill="#E6E6E6"/>
<path d="M247.979 221.789C247.71 221.774 247.44 221.814 247.187 221.907C246.934 222 246.702 222.143 246.506 222.328C246.31 222.514 246.154 222.737 246.047 222.985C245.941 223.233 245.886 223.5 245.886 223.769C245.886 224.039 245.941 224.306 246.047 224.554C246.154 224.802 246.31 225.025 246.506 225.21C246.702 225.396 246.934 225.539 247.187 225.632C247.44 225.724 247.71 225.765 247.979 225.75H288.145C288.651 225.722 289.127 225.502 289.476 225.135C289.825 224.767 290.02 224.28 290.021 223.773C290.022 223.266 289.829 222.778 289.482 222.409C289.134 222.04 288.658 221.818 288.152 221.789H247.979Z" fill="#E6E6E6"/>
<path d="M332.769 201.273C332.5 201.258 332.23 201.298 331.977 201.391C331.724 201.484 331.492 201.627 331.296 201.812C331.1 201.998 330.944 202.221 330.837 202.469C330.731 202.717 330.676 202.984 330.676 203.253C330.676 203.523 330.731 203.79 330.837 204.038C330.944 204.285 331.1 204.509 331.296 204.694C331.492 204.879 331.724 205.023 331.977 205.116C332.23 205.208 332.5 205.248 332.769 205.233H372.935C373.204 205.248 373.473 205.208 373.727 205.116C373.98 205.023 374.212 204.879 374.408 204.694C374.604 204.509 374.76 204.285 374.866 204.038C374.973 203.79 375.028 203.523 375.028 203.253C375.028 202.984 374.973 202.717 374.866 202.469C374.76 202.221 374.604 201.998 374.408 201.812C374.212 201.627 373.98 201.484 373.727 201.391C373.473 201.298 373.204 201.258 372.935 201.273H332.769Z" fill="#040BC5"/>
<path d="M332.769 211.531C332.5 211.516 332.23 211.556 331.977 211.649C331.724 211.742 331.492 211.885 331.296 212.07C331.1 212.256 330.944 212.479 330.837 212.727C330.731 212.975 330.676 213.242 330.676 213.511C330.676 213.781 330.731 214.048 330.837 214.296C330.944 214.543 331.1 214.767 331.296 214.952C331.492 215.138 331.724 215.281 331.977 215.374C332.23 215.466 332.5 215.506 332.769 215.491H372.935C373.204 215.506 373.473 215.466 373.727 215.374C373.98 215.281 374.212 215.138 374.408 214.952C374.604 214.767 374.76 214.543 374.866 214.296C374.973 214.048 375.028 213.781 375.028 213.511C375.028 213.242 374.973 212.975 374.866 212.727C374.76 212.479 374.604 212.256 374.408 212.07C374.212 211.885 373.98 211.742 373.727 211.649C373.473 211.556 373.204 211.516 372.935 211.531H332.769Z" fill="#040BC5"/>
<path d="M332.769 221.789C332.5 221.774 332.23 221.814 331.977 221.907C331.724 222 331.492 222.143 331.296 222.328C331.1 222.514 330.944 222.737 330.837 222.985C330.731 223.233 330.676 223.5 330.676 223.769C330.676 224.039 330.731 224.306 330.837 224.554C330.944 224.802 331.1 225.025 331.296 225.21C331.492 225.396 331.724 225.539 331.977 225.632C332.23 225.724 332.5 225.765 332.769 225.75H372.935C373.441 225.721 373.917 225.5 374.265 225.132C374.613 224.764 374.807 224.276 374.807 223.769C374.807 223.263 374.613 222.775 374.265 222.407C373.917 222.038 373.441 221.817 372.935 221.789H332.769Z" fill="#040BC5"/>
<path d="M418.242 201.273C417.973 201.258 417.704 201.298 417.45 201.391C417.197 201.484 416.965 201.627 416.769 201.812C416.573 201.998 416.417 202.221 416.311 202.469C416.204 202.717 416.149 202.984 416.149 203.253C416.149 203.523 416.204 203.79 416.311 204.038C416.417 204.285 416.573 204.509 416.769 204.694C416.965 204.879 417.197 205.023 417.45 205.116C417.704 205.208 417.973 205.248 418.242 205.233H458.408C458.677 205.248 458.947 205.208 459.2 205.116C459.453 205.023 459.685 204.879 459.881 204.694C460.077 204.509 460.233 204.285 460.34 204.038C460.446 203.79 460.501 203.523 460.501 203.253C460.501 202.984 460.446 202.717 460.34 202.469C460.233 202.221 460.077 201.998 459.881 201.812C459.685 201.627 459.453 201.484 459.2 201.391C458.947 201.298 458.677 201.258 458.408 201.273H418.242Z" fill="#E6E6E6"/>
<path d="M418.242 211.531C417.973 211.516 417.704 211.556 417.45 211.649C417.197 211.742 416.965 211.885 416.769 212.07C416.573 212.256 416.417 212.479 416.311 212.727C416.204 212.975 416.149 213.242 416.149 213.511C416.149 213.781 416.204 214.048 416.311 214.296C416.417 214.543 416.573 214.767 416.769 214.952C416.965 215.138 417.197 215.281 417.45 215.374C417.704 215.466 417.973 215.506 418.242 215.491H458.408C458.677 215.506 458.947 215.466 459.2 215.374C459.453 215.281 459.685 215.138 459.881 214.952C460.077 214.767 460.233 214.543 460.34 214.296C460.446 214.048 460.501 213.781 460.501 213.511C460.501 213.242 460.446 212.975 460.34 212.727C460.233 212.479 460.077 212.256 459.881 212.07C459.685 211.885 459.453 211.742 459.2 211.649C458.947 211.556 458.677 211.516 458.408 211.531H418.242Z" fill="#E6E6E6"/>
<path d="M418.242 221.789C417.973 221.774 417.704 221.814 417.45 221.907C417.197 222 416.965 222.143 416.769 222.328C416.573 222.514 416.417 222.737 416.311 222.985C416.204 223.233 416.149 223.5 416.149 223.769C416.149 224.039 416.204 224.306 416.311 224.554C416.417 224.802 416.573 225.025 416.769 225.21C416.965 225.396 417.197 225.539 417.45 225.632C417.704 225.724 417.973 225.765 418.242 225.75H458.408C458.914 225.721 459.39 225.5 459.738 225.132C460.087 224.764 460.281 224.276 460.281 223.769C460.281 223.263 460.087 222.775 459.738 222.407C459.39 222.038 458.914 221.817 458.408 221.789H418.242Z" fill="#E6E6E6"/>
<path d="M503.374 201.273C503.105 201.258 502.835 201.298 502.582 201.391C502.329 201.484 502.097 201.627 501.901 201.812C501.705 201.998 501.549 202.221 501.442 202.469C501.336 202.717 501.281 202.984 501.281 203.253C501.281 203.523 501.336 203.79 501.442 204.038C501.549 204.285 501.705 204.509 501.901 204.694C502.097 204.879 502.329 205.023 502.582 205.116C502.835 205.208 503.105 205.248 503.374 205.233H543.54C543.809 205.248 544.078 205.208 544.332 205.116C544.585 205.023 544.817 204.879 545.013 204.694C545.209 204.509 545.365 204.285 545.471 204.038C545.578 203.79 545.633 203.523 545.633 203.253C545.633 202.984 545.578 202.717 545.471 202.469C545.365 202.221 545.209 201.998 545.013 201.812C544.817 201.627 544.585 201.484 544.332 201.391C544.078 201.298 543.809 201.258 543.54 201.273H503.374Z" fill="#E6E6E6"/>
<path d="M503.374 211.531C503.105 211.516 502.835 211.556 502.582 211.649C502.329 211.742 502.097 211.885 501.901 212.07C501.705 212.256 501.549 212.479 501.442 212.727C501.336 212.975 501.281 213.242 501.281 213.511C501.281 213.781 501.336 214.048 501.442 214.296C501.549 214.543 501.705 214.767 501.901 214.952C502.097 215.138 502.329 215.281 502.582 215.374C502.835 215.466 503.105 215.506 503.374 215.491H543.54C543.809 215.506 544.078 215.466 544.332 215.374C544.585 215.281 544.817 215.138 545.013 214.952C545.209 214.767 545.365 214.543 545.471 214.296C545.578 214.048 545.633 213.781 545.633 213.511C545.633 213.242 545.578 212.975 545.471 212.727C545.365 212.479 545.209 212.256 545.013 212.07C544.817 211.885 544.585 211.742 544.332 211.649C544.078 211.556 543.809 211.516 543.54 211.531H503.374Z" fill="#E6E6E6"/>
<path d="M503.374 221.789C503.105 221.774 502.835 221.814 502.582 221.907C502.329 222 502.097 222.143 501.901 222.328C501.705 222.514 501.549 222.737 501.442 222.985C501.336 223.233 501.281 223.5 501.281 223.769C501.281 224.039 501.336 224.306 501.442 224.554C501.549 224.802 501.705 225.025 501.901 225.21C502.097 225.396 502.329 225.539 502.582 225.632C502.835 225.724 503.105 225.765 503.374 225.75H543.54C544.046 225.721 544.522 225.5 544.87 225.132C545.218 224.764 545.412 224.276 545.412 223.769C545.412 223.263 545.218 222.775 544.87 222.407C544.522 222.038 544.046 221.817 543.54 221.789H503.374Z" fill="#E6E6E6"/>
<path d="M586.454 201.273C586.185 201.258 585.915 201.298 585.662 201.391C585.409 201.484 585.177 201.627 584.981 201.812C584.785 201.998 584.629 202.221 584.523 202.469C584.416 202.717 584.361 202.984 584.361 203.253C584.361 203.523 584.416 203.79 584.523 204.038C584.629 204.285 584.785 204.509 584.981 204.694C585.177 204.879 585.409 205.023 585.662 205.116C585.915 205.208 586.185 205.248 586.454 205.233H626.62C627.126 205.205 627.602 204.984 627.95 204.616C628.298 204.248 628.492 203.76 628.492 203.253C628.492 202.746 628.298 202.259 627.95 201.891C627.602 201.522 627.126 201.301 626.62 201.273H586.454Z" fill="#E6E6E6"/>
<path d="M586.454 211.531C586.185 211.516 585.915 211.556 585.662 211.649C585.409 211.742 585.177 211.885 584.981 212.07C584.785 212.256 584.629 212.479 584.523 212.727C584.416 212.975 584.361 213.242 584.361 213.511C584.361 213.781 584.416 214.048 584.523 214.296C584.629 214.543 584.785 214.767 584.981 214.952C585.177 215.138 585.409 215.281 585.662 215.374C585.915 215.466 586.185 215.506 586.454 215.491H626.62C627.126 215.463 627.602 215.242 627.95 214.874C628.298 214.506 628.492 214.018 628.492 213.511C628.492 213.004 628.298 212.517 627.95 212.149C627.602 211.78 627.126 211.559 626.62 211.531H586.454Z" fill="#E6E6E6"/>
<path d="M586.454 221.789C586.185 221.774 585.915 221.814 585.662 221.907C585.409 222 585.177 222.143 584.981 222.328C584.785 222.514 584.629 222.737 584.523 222.985C584.416 223.233 584.361 223.5 584.361 223.769C584.361 224.039 584.416 224.306 584.523 224.554C584.629 224.802 584.785 225.025 584.981 225.21C585.177 225.396 585.409 225.539 585.662 225.632C585.915 225.724 586.185 225.765 586.454 225.75H626.62C627.126 225.721 627.602 225.5 627.95 225.132C628.298 224.764 628.492 224.276 628.492 223.769C628.492 223.263 628.298 222.775 627.95 222.407C627.602 222.038 627.126 221.817 626.62 221.789H586.454Z" fill="#E6E6E6"/>
<path d="M162.506 201.273C162.236 201.258 161.967 201.298 161.714 201.391C161.46 201.484 161.229 201.627 161.033 201.812C160.837 201.998 160.681 202.221 160.574 202.469C160.467 202.717 160.412 202.984 160.412 203.253C160.412 203.523 160.467 203.79 160.574 204.038C160.681 204.285 160.837 204.509 161.033 204.694C161.229 204.879 161.46 205.023 161.714 205.116C161.967 205.208 162.236 205.248 162.506 205.233H202.671C203.178 205.206 203.654 204.986 204.003 204.619C204.352 204.251 204.547 203.764 204.548 203.257C204.549 202.75 204.356 202.262 204.008 201.893C203.661 201.524 203.185 201.302 202.679 201.273H162.506Z" fill="#E6E6E6"/>
<path d="M162.506 211.531C162.236 211.516 161.967 211.556 161.714 211.649C161.46 211.742 161.229 211.885 161.033 212.07C160.837 212.256 160.681 212.479 160.574 212.727C160.467 212.975 160.412 213.242 160.412 213.511C160.412 213.781 160.467 214.048 160.574 214.296C160.681 214.543 160.837 214.767 161.033 214.952C161.229 215.138 161.46 215.281 161.714 215.374C161.967 215.466 162.236 215.506 162.506 215.491H202.671C203.178 215.464 203.654 215.244 204.003 214.877C204.352 214.509 204.547 214.022 204.548 213.515C204.549 213.008 204.356 212.52 204.008 212.151C203.661 211.782 203.185 211.56 202.679 211.531H162.506Z" fill="#E6E6E6"/>
<path d="M162.506 221.789C162.236 221.774 161.967 221.814 161.714 221.907C161.46 222 161.229 222.143 161.033 222.328C160.837 222.514 160.681 222.737 160.574 222.985C160.467 223.233 160.412 223.5 160.412 223.769C160.412 224.039 160.467 224.306 160.574 224.554C160.681 224.802 160.837 225.025 161.033 225.21C161.229 225.396 161.46 225.539 161.714 225.632C161.967 225.724 162.236 225.765 162.506 225.75H202.671C203.178 225.722 203.654 225.502 204.003 225.135C204.352 224.767 204.547 224.28 204.548 223.773C204.549 223.266 204.356 222.778 204.008 222.409C203.661 222.04 203.185 221.818 202.679 221.789H162.506Z" fill="#E6E6E6"/>
<path d="M352.898 164.807C370.791 164.807 385.297 150.299 385.297 132.403C385.297 114.507 370.791 100 352.898 100C335.004 100 320.498 114.507 320.498 132.403C320.498 150.299 335.004 164.807 352.898 164.807Z" fill="#040BC5"/>
<path d="M352.898 185.08L342.767 167.531L332.636 149.982H373.156L363.028 167.531L352.898 185.08Z" fill="#040BC5"/>
<path d="M689.624 232.96C700.324 232.96 708.999 224.284 708.999 213.582C708.999 202.88 700.324 194.205 689.624 194.205C678.923 194.205 670.249 202.88 670.249 213.582C670.249 224.284 678.923 232.96 689.624 232.96Z" fill="#040BC5"/>
<path d="M353.16 143.827C359.58 143.827 364.784 138.622 364.784 132.202C364.784 125.781 359.58 120.576 353.16 120.576C346.74 120.576 341.535 125.781 341.535 132.202C341.535 138.622 346.74 143.827 353.16 143.827Z" fill="white"/>
<path d="M688.635 220.246C688.359 220.246 688.095 220.136 687.9 219.941L682.293 214.334C682.099 214.139 681.989 213.874 681.989 213.599C681.989 213.323 682.099 213.059 682.294 212.864C682.489 212.67 682.753 212.56 683.028 212.56C683.304 212.56 683.568 212.67 683.763 212.865L688.517 217.619L696.943 206.13C697.024 206.02 697.125 205.927 697.242 205.856C697.359 205.785 697.489 205.738 697.623 205.718C697.758 205.697 697.896 205.703 698.029 205.736C698.161 205.768 698.286 205.826 698.396 205.907C698.506 205.988 698.599 206.09 698.67 206.207C698.741 206.323 698.788 206.453 698.809 206.588C698.829 206.723 698.823 206.861 698.791 206.993C698.758 207.126 698.7 207.251 698.619 207.361L689.477 219.829C689.388 219.95 689.274 220.05 689.143 220.123C689.013 220.196 688.868 220.24 688.718 220.251C688.687 220.245 688.661 220.246 688.635 220.246Z" fill="white"/>
<path d="M95.9513 220.087C95.7458 220.087 95.5448 220.026 95.3739 219.912C95.203 219.798 95.0697 219.636 94.9911 219.446C94.9125 219.256 94.892 219.047 94.9322 218.845C94.9724 218.644 95.0715 218.458 95.2169 218.313L106.29 207.239C106.486 207.049 106.749 206.943 107.022 206.945C107.295 206.946 107.556 207.056 107.749 207.249C107.942 207.442 108.052 207.703 108.053 207.976C108.055 208.25 107.949 208.512 107.759 208.708L96.6857 219.782C96.5894 219.879 96.4749 219.955 96.3489 220.008C96.2229 220.06 96.0878 220.087 95.9513 220.087Z" fill="#040BC5"/>
<path d="M107.024 220.087C106.887 220.087 106.752 220.06 106.626 220.008C106.5 219.956 106.386 219.879 106.289 219.783L95.2169 208.709C95.0264 208.513 94.9206 208.25 94.9224 207.977C94.9242 207.704 95.0335 207.443 95.2266 207.25C95.4197 207.056 95.681 206.947 95.9541 206.945C96.2272 206.944 96.49 207.049 96.6856 207.24L107.758 218.314C107.904 218.459 108.003 218.644 108.043 218.846C108.083 219.047 108.063 219.256 107.984 219.446C107.905 219.636 107.772 219.799 107.601 219.913C107.43 220.027 107.229 220.088 107.024 220.088V220.087Z" fill="#040BC5"/>
<path d="M530.584 454.083H356.902C356.72 454.083 356.547 454.011 356.418 453.883C356.29 453.755 356.218 453.581 356.218 453.399C356.218 453.218 356.29 453.044 356.418 452.916C356.547 452.787 356.72 452.715 356.902 452.715H530.584C530.765 452.715 530.939 452.787 531.067 452.916C531.196 453.044 531.268 453.218 531.268 453.399C531.268 453.581 531.196 453.755 531.067 453.883C530.939 454.011 530.765 454.083 530.584 454.083Z" fill="#E6E6E6"/>
<path d="M101.488 233C97.6336 233 93.8658 231.857 90.661 229.715C87.4563 227.574 84.9584 224.53 83.4834 220.968C82.0084 217.407 81.6225 213.488 82.3745 209.707C83.1264 205.926 84.9825 202.453 87.7079 199.728C90.4333 197.002 93.9058 195.146 97.6861 194.394C101.466 193.642 105.385 194.027 108.946 195.503C112.507 196.978 115.55 199.476 117.692 202.681C119.833 205.886 120.976 209.655 120.976 213.509C120.976 218.679 118.923 223.636 115.268 227.291C111.613 230.946 106.656 233 101.488 233ZM101.488 196.071C98.0393 196.071 94.6681 197.093 91.8007 199.01C88.9333 200.926 86.6984 203.649 85.3787 206.836C84.0589 210.022 83.7136 213.529 84.3864 216.912C85.0592 220.294 86.7199 223.402 89.1584 225.841C91.597 228.279 94.7039 229.94 98.0863 230.613C101.469 231.286 104.975 230.941 108.161 229.621C111.347 228.301 114.07 226.066 115.986 223.198C117.902 220.33 118.925 216.959 118.925 213.509C118.925 208.884 117.087 204.449 113.818 201.178C110.548 197.908 106.112 196.071 101.488 196.071Z" fill="#E6E6E6"/>
<path d="M416.178 317.306L418.021 325.292C418.021 325.292 417.405 343.722 422.32 341.879C427.235 340.036 426.006 324.064 426.006 324.064L421.706 316.078L416.178 317.306Z" fill="#FFB8B8"/>
<path d="M443.512 229.766C450.297 229.766 455.797 224.265 455.797 217.479C455.797 210.694 450.297 205.193 443.512 205.193C436.727 205.193 431.227 210.694 431.227 217.479C431.227 224.265 436.727 229.766 443.512 229.766Z" fill="#9F616A"/>
<path d="M453.031 220.858L454.262 238.673L438.906 240.516C438.906 240.516 438.906 225.772 437.675 223.929C436.444 222.086 453.031 220.858 453.031 220.858Z" fill="#9F616A"/>
<path d="M432.49 244.687L418.977 244.061C418.977 244.061 414.676 245.286 411.592 256.956C408.509 268.625 407.88 287.668 407.88 287.668L415.221 322.077L424.436 320.856L420.78 287.68L426.941 265.57L432.49 244.687Z" fill="#E6E6E6"/>
<path d="M471.185 248.404L477.845 250.487C477.845 250.487 483.46 258.86 483.456 263.16C483.452 267.46 485.88 300.021 485.88 300.021L469.887 326.423L464.985 313.518L474.827 296.94L466.86 276.659L471.185 248.404Z" fill="#E6E6E6"/>
<path d="M425.699 309.013L469.861 305.127C469.861 305.127 474.224 332.972 473.609 344.029C472.995 355.087 472.378 372.288 472.378 372.288L477.292 447.234L458.251 444.777L455.794 382.731L447.811 348.943L438.598 391.946L432.453 447.234L415.868 445.391L421.397 378.43C421.397 378.43 416.485 318.227 425.699 309.013Z" fill="#090814"/>
<path d="M419.557 442.319L414.028 444.162C414.028 444.162 402.358 441.091 405.427 449.08C408.496 457.069 417.098 455.837 417.098 455.837C417.098 455.837 427.54 463.824 431.839 457.68L429.383 444.78L419.557 442.319Z" fill="#090814"/>
<path d="M464.396 442.319L458.868 444.162C458.868 444.162 447.197 441.091 450.266 449.08C453.335 457.069 461.937 455.837 461.937 455.837C461.937 455.837 472.379 463.824 476.679 457.68L474.222 444.78L464.396 442.319Z" fill="#090814"/>
<path d="M418.975 244.058L438.873 235.651C438.873 235.651 448.381 228.326 453.95 233.752L456.449 237.333C456.449 237.333 478.554 245.95 478.548 252.711L469.922 286.491C469.922 286.491 471.241 303.382 469.922 306.51L455.738 310.213L447.946 311.065L425.092 310.213C425.092 310.213 423.273 303.729 426.276 293.358L425.092 274.78L418.975 244.058Z" fill="#E6E6E6"/>
<path d="M451.854 225.772C451.854 225.772 463.607 217.376 457.451 207.301C453.18 200.311 444.33 200.864 439.309 201.858C437.957 202.108 436.685 202.683 435.604 203.533C434.523 204.384 433.665 205.485 433.104 206.741C432.265 208.7 432.265 210.659 435.623 210.659C442.339 210.659 438.981 215.696 438.981 215.696C438.981 215.696 443.458 216.815 442.339 220.733C441.22 224.651 451.854 225.772 451.854 225.772Z" fill="#090814"/>
</g>
</g>
<defs>
<filter id="filter0_d_681_10090" x="0" y="0" width="790" height="566" filterUnits="userSpaceOnUse" color-interpolation-filters="sRGB">
<feFlood flood-opacity="0" result="BackgroundImageFix"/>
<feColorMatrix in="SourceAlpha" type="matrix" values="0 0 0 0 0 0 0 0 0 0 0 0 0 0 0 0 0 0 127 0" result="hardAlpha"/>
<feMorphology radius="22" operator="dilate" in="SourceAlpha" result="effect1_dropShadow_681_10090"/>
<feOffset dy="3"/>
<feGaussianBlur stdDeviation="21"/>
<feComposite in2="hardAlpha" operator="out"/>
<feColorMatrix type="matrix" values="0 0 0 0 0 0 0 0 0 0 0 0 0 0 0 0 0 0 0.05 0"/>
<feBlend mode="normal" in2="BackgroundImageFix" result="effect1_dropShadow_681_10090"/>
<feBlend mode="normal" in="SourceGraphic" in2="effect1_dropShadow_681_10090" result="shape"/>
</filter>
<clipPath id="clip0_681_10090">
<rect width="627" height="360" fill="white" transform="translate(82 100)"/>
</clipPath>
</defs>
</svg>
