<svg width="790" height="566" viewBox="0 0 790 566" fill="none" xmlns="http://www.w3.org/2000/svg">
<g filter="url(#filter0_d_681_10142)">
<rect x="64" y="61" width="662" height="438" rx="16" fill="white"/>
<g clip-path="url(#clip0_681_10142)">
<path d="M566.043 449.338L556.647 449.338L552.177 413.101L566.045 413.102L566.043 449.338Z" fill="#FFB6B6"/>
<path d="M566.374 459.139L537.479 459.138V458.772C537.479 452.562 542.514 447.528 548.725 447.528L554.004 443.524L563.852 447.528L566.374 447.529L566.374 459.139Z" fill="#2F2E41"/>
<path d="M524.385 449.338L514.989 449.338L510.519 413.101L524.387 413.102L524.385 449.338Z" fill="#FFB6B6"/>
<path d="M524.716 459.139L495.821 459.138V458.772C495.821 452.562 500.856 447.528 507.068 447.528L512.347 443.524L522.194 447.528L524.717 447.529L524.716 459.139Z" fill="#2F2E41"/>
<path d="M519.908 247.111L574.12 248.252C574.12 248.252 583.866 264.227 576.425 286.763L577.259 293.039L573.835 302.738L572.123 332.406L573.835 336.971L572.693 345.529C572.693 345.529 577.259 402.012 565.846 430.539L552.15 429.968L547.014 355.54L549.867 350.093L549.297 347.811L542.449 313.579L535.601 331.265V341.092L529.324 348.381C529.324 348.381 531.606 415.705 525.329 429.398H509.996L504.215 338.112L509.921 285.052L508.78 281.628L510.492 279.917L509.351 274.211L519.908 247.111Z" fill="#2F2E41"/>
<path d="M543.019 142.988L559.568 138.994L564.134 149.834C564.134 149.834 587.753 162.386 588.895 179.502C588.895 179.502 592.096 193.195 589.242 199.471C586.389 205.747 574.405 225.716 574.405 225.716C574.405 225.716 585.248 260.519 582.395 262.23C579.541 263.942 511.633 260.519 511.633 257.096C511.633 253.672 522.935 217.728 522.935 217.728L525.329 156.11L540.737 150.405L543.019 142.988Z" fill="#3F3D56"/>
<path d="M587.138 283.434C583.674 281.689 582.281 277.467 584.026 274.004C584.202 273.656 584.409 273.334 584.631 273.029L575.423 209.906L588.172 210.314L594.841 271.817C597.258 273.867 598.059 277.369 596.57 280.324C594.825 283.787 590.602 285.179 587.138 283.434Z" fill="#FFB6B6"/>
<path d="M466.17 253.642C464.776 250.024 466.579 245.96 470.199 244.566C470.563 244.425 470.932 244.326 471.302 244.249L506.876 191.294L516.049 200.156L479.681 250.206C480.095 253.347 478.337 256.48 475.249 257.67C471.63 259.064 467.565 257.261 466.17 253.642Z" fill="#FFB6B6"/>
<path d="M563.907 193.985C560.305 181.613 566.288 168.99 579.176 169.051C582.901 169.068 585.795 170.149 586.598 173.14C589.405 183.611 590.936 199.416 590.936 199.416L594.266 216.244L592.249 219.738L596.454 231.016L594.414 236.351L593.973 263.596L583.702 263.025L572.384 242.255L568.056 239.683C568.056 239.683 571.531 206.1 564.619 196.431L563.907 193.985Z" fill="#3F3D56"/>
<path d="M517.897 163.536C523.903 152.135 539.28 149.434 548.508 158.43C551.176 161.03 552.506 163.818 551.005 166.527C545.748 176.008 533.564 186.216 533.564 186.216L518.56 210.333L514.681 211.445L509.87 222.477L499.56 234.597L485.903 241.797L477.914 233.81L479.611 223.542L500.17 196.154C500.17 196.154 514.962 177.546 516.71 165.79L517.897 163.536Z" fill="#3F3D56"/>
<path d="M546.164 139.653C546.542 139.699 546.919 139.733 547.294 139.75C548.46 139.814 549.612 139.747 550.723 139.559C554.097 139.019 557.162 137.421 559.527 135.078C562.027 132.605 563.739 129.306 564.201 125.549C565.285 116.681 558.969 108.604 550.1 107.52C541.358 106.446 533.389 112.559 532.117 121.223C532.097 121.357 532.077 121.486 532.062 121.619C530.979 130.492 537.289 138.565 546.164 139.653Z" fill="#FFB6B6"/>
<path d="M528.47 120.629C530.768 121.765 534.522 118.194 535.959 120.249C536.193 119.805 536.451 119.375 536.706 118.969C536.936 118.606 537.266 117.83 537.648 117.697C537.165 118.862 537.271 120.441 537.773 121.793C540.039 122.639 543.006 120.765 545.103 118.548C548.397 115.073 553.775 123.986 552.503 128.598C554.122 126.622 557.633 127.737 558.823 129.996C560.013 132.249 558.003 134.055 557.573 136.569L560.818 136.157C562.865 134.163 562.721 130.805 564.407 128.495C567.223 124.628 568.314 120.684 566.197 116.694C564.32 113.166 564.144 108.6 560.7 106.566C562.205 105.83 556.853 106.979 558.282 104.582C559.718 102.189 552.065 101.899 551.566 103.181C549.379 100.564 547.173 98.8386 544.483 100.935C541.841 102.998 542.114 105.167 539.011 104.972C537.555 104.882 537.715 107.596 536.849 108.78C535.989 109.957 532.644 110.712 532.481 110.587C531.597 109.895 528.591 115.779 528.591 115.779C528.591 115.779 526.154 119.478 528.47 120.629Z" fill="#2F2E41"/>
<path d="M325.977 223.32C380.34 223.32 424.41 267.381 424.41 321.733C424.41 376.085 380.34 420.146 325.977 420.146C271.614 420.146 196.377 366.258 227.544 321.733C258.71 277.208 271.614 223.32 325.977 223.32Z" fill="#F2F2F2"/>
<path d="M457.722 228.002C456.84 228.002 456.122 228.72 456.122 229.602V280.809C456.122 281.691 456.84 282.409 457.722 282.409C458.605 282.409 459.323 281.691 459.323 280.809V229.602C459.323 228.72 458.605 228.002 457.722 228.002Z" fill="#3F3D56"/>
<path d="M188.832 189.597C187.949 189.597 187.231 190.315 187.231 191.197V203.999C187.231 204.882 187.949 205.599 188.832 205.599C189.715 205.599 190.433 204.882 190.433 203.999V191.197C190.433 190.315 189.715 189.597 188.832 189.597Z" fill="#3F3D56"/>
<path d="M188.832 228.002C187.949 228.002 187.231 228.72 187.231 229.602V254.405C187.231 255.288 187.949 256.006 188.832 256.006C189.715 256.006 190.433 255.288 190.433 254.405V229.602C190.433 228.72 189.715 228.002 188.832 228.002Z" fill="#3F3D56"/>
<path d="M188.832 263.207C187.949 263.207 187.231 263.925 187.231 264.807V289.611C187.231 290.493 187.949 291.211 188.832 291.211C189.715 291.211 190.433 290.493 190.433 289.611V264.807C190.433 263.925 189.715 263.207 188.832 263.207Z" fill="#3F3D56"/>
<path d="M332.379 139.19C331.496 139.19 330.779 139.908 330.779 140.791V165.594C330.779 166.476 331.496 167.194 332.379 167.194C333.262 167.194 333.98 166.476 333.98 165.594V140.791C333.98 139.908 333.262 139.19 332.379 139.19Z" fill="#3F3D56"/>
<path d="M577.578 446.132C579.232 446.235 580.145 444.182 578.894 442.985L578.77 442.49C578.786 442.45 578.803 442.411 578.819 442.371C580.491 438.385 586.158 438.413 587.816 442.405C589.287 445.948 591.16 449.497 591.621 453.243C591.828 454.897 591.735 456.581 591.368 458.204C594.816 450.674 596.63 442.453 596.63 434.184C596.63 432.107 596.516 430.029 596.284 427.957C596.092 426.262 595.829 424.577 595.488 422.908C593.643 413.885 589.647 405.291 583.884 398.113C581.113 396.599 578.803 394.232 577.407 391.395C576.906 390.372 576.513 389.271 576.327 388.15C576.642 388.191 577.516 383.39 577.278 383.096C577.717 382.429 578.504 382.098 578.984 381.447C581.37 378.212 584.659 378.777 586.375 383.173C590.042 385.023 590.078 388.092 587.828 391.044C586.396 392.921 586.199 395.462 584.943 397.472C585.073 397.638 585.207 397.798 585.336 397.963C587.706 401.002 589.755 404.268 591.483 407.699C590.995 403.886 591.716 399.292 592.945 396.33C594.344 392.956 596.966 390.114 599.275 387.197C602.049 383.693 607.737 385.222 608.225 389.664C608.23 389.707 608.235 389.75 608.239 389.793C607.896 389.986 607.56 390.192 607.232 390.409C605.36 391.647 606.007 394.549 608.225 394.891L608.275 394.899C608.151 396.134 607.939 397.359 607.629 398.563C610.592 410.017 604.196 414.189 595.064 414.376C594.862 414.479 594.666 414.583 594.464 414.681C595.39 417.286 596.129 419.957 596.677 422.665C597.168 425.058 597.509 427.476 597.7 429.905C597.938 432.97 597.917 436.05 597.659 439.109L597.674 439C598.331 435.631 600.16 432.484 602.817 430.303C606.775 427.053 612.367 425.856 616.636 423.243C618.692 421.985 621.326 423.61 620.967 425.993L620.949 426.107C620.314 426.365 619.693 426.665 619.094 427.001C618.751 427.194 618.415 427.4 618.087 427.617C616.214 428.855 616.861 431.757 619.08 432.099L619.13 432.107C619.166 432.112 619.197 432.117 619.233 432.122C618.143 434.711 616.623 437.114 614.721 439.187C612.869 449.186 604.913 450.134 596.403 447.222H596.398C595.467 451.274 594.108 455.233 592.361 459.005H577.94C577.888 458.845 577.841 458.679 577.795 458.519C579.128 458.602 580.472 458.524 581.785 458.282C580.715 456.969 579.645 455.646 578.575 454.333C578.55 454.307 578.529 454.282 578.508 454.256C577.965 453.584 577.418 452.917 576.875 452.246L576.875 452.245C576.841 450.182 577.088 448.127 577.578 446.132Z" fill="#F2F2F2"/>
<path d="M169 459.048C169 459.576 169.424 460 169.952 460H619.935C620.464 460 620.888 459.576 620.888 459.048C620.888 458.52 620.464 458.096 619.935 458.096H169.952C169.424 458.096 169 458.52 169 459.048Z" fill="#CCCCCC"/>
<path d="M282.939 315.1H227.544V313.499H282.939C287.751 313.499 291.666 309.585 291.666 304.773V267.326H293.267V304.773C293.267 310.467 288.634 315.1 282.939 315.1Z" fill="#040BC5"/>
<path d="M388.638 396.274H262.647V397.875H388.638V396.274Z" fill="#040BC5"/>
<path d="M468.575 304.4H401.279C397.647 304.4 394.693 301.446 394.693 297.815V231.353C394.693 227.722 397.647 224.769 401.279 224.769H468.575C472.207 224.769 475.161 227.722 475.161 231.353V297.815C475.161 301.446 472.207 304.4 468.575 304.4Z" fill="#E6E6E6"/>
<path d="M413.812 226.73C404.336 226.73 396.655 234.41 396.655 243.883V296.405C396.655 299.737 399.357 302.438 402.689 302.438H443.839C460.054 302.438 473.199 289.296 473.199 273.084V232.763C473.199 229.432 470.497 226.73 467.165 226.73L413.812 226.73Z" fill="white"/>
<path d="M452.951 246.045H416.762C416.072 246.045 415.51 245.483 415.51 244.793C415.51 244.102 416.072 243.541 416.762 243.541H452.951C453.641 243.541 454.203 244.102 454.203 244.793C454.203 245.483 453.641 246.045 452.951 246.045Z" fill="#E6E6E6"/>
<path d="M452.951 272.739H416.762C416.072 272.739 415.51 272.177 415.51 271.487C415.51 270.797 416.072 270.235 416.762 270.235H452.951C453.641 270.235 454.203 270.797 454.203 271.487C454.203 272.177 453.641 272.739 452.951 272.739Z" fill="#E6E6E6"/>
<path d="M467.646 259.401H402.067C401.376 259.401 400.815 258.839 400.815 258.149C400.815 257.458 401.376 256.897 402.067 256.897H467.646C468.337 256.897 468.898 257.458 468.898 258.149C468.898 258.839 468.337 259.401 467.646 259.401Z" fill="#E6E6E6"/>
<path d="M468.316 283.593H444.625C443.935 283.593 443.373 283.031 443.373 282.341C443.373 281.651 443.935 281.089 444.625 281.089H468.316C469.006 281.089 469.568 281.651 469.568 282.341C469.568 283.031 469.006 283.593 468.316 283.593Z" fill="#E6E6E6"/>
<path d="M327.222 436.82H273.785C270.901 436.82 268.555 434.475 268.555 431.592V378.817C268.555 375.933 270.901 373.588 273.785 373.588H327.222C330.106 373.588 332.452 375.933 332.452 378.817V431.592C332.452 434.475 330.106 436.82 327.222 436.82Z" fill="#E6E6E6"/>
<path d="M283.736 375.146C276.212 375.146 270.113 381.244 270.113 388.767V430.472C270.113 433.118 272.258 435.263 274.904 435.263H307.58C320.456 435.263 330.894 424.827 330.894 411.954V379.937C330.894 377.291 328.748 375.146 326.102 375.146L283.736 375.146Z" fill="white"/>
<path d="M314.815 390.483H286.079C285.531 390.483 285.085 390.037 285.085 389.489C285.085 388.94 285.531 388.495 286.079 388.495H314.815C315.364 388.495 315.81 388.94 315.81 389.489C315.81 390.037 315.364 390.483 314.815 390.483Z" fill="#E6E6E6"/>
<path d="M314.815 411.68H286.079C285.531 411.68 285.085 411.234 285.085 410.686C285.085 410.138 285.531 409.692 286.079 409.692H314.815C315.364 409.692 315.81 410.138 315.81 410.686C315.81 411.234 315.364 411.68 314.815 411.68Z" fill="#E6E6E6"/>
<path d="M326.485 401.088H274.41C273.862 401.088 273.416 400.642 273.416 400.094C273.416 399.546 273.862 399.1 274.41 399.1H326.485C327.033 399.1 327.479 399.546 327.479 400.094C327.479 400.642 327.033 401.088 326.485 401.088Z" fill="#E6E6E6"/>
<path d="M327.016 420.299H308.204C307.656 420.299 307.21 419.853 307.21 419.304C307.21 418.756 307.656 418.311 308.204 418.311H327.016C327.565 418.311 328.011 418.756 328.011 419.304C328.011 419.853 327.565 420.299 327.016 420.299Z" fill="#E6E6E6"/>
<path d="M289.873 266.922H250.353C248.22 266.922 246.485 265.188 246.485 263.055V224.026C246.485 221.894 248.22 220.159 250.353 220.159H289.873C292.005 220.159 293.74 221.894 293.74 224.026V263.055C293.74 265.188 292.005 266.922 289.873 266.922Z" fill="#E6E6E6"/>
<path d="M257.713 221.312C252.148 221.312 247.638 225.821 247.638 231.385V262.228C247.638 264.184 249.224 265.77 251.181 265.77H275.346C284.869 265.77 292.588 258.053 292.588 248.533V224.854C292.588 222.898 291.001 221.312 289.044 221.312L257.713 221.312Z" fill="white"/>
<path d="M280.697 232.653H259.446C259.04 232.653 258.71 232.323 258.71 231.918C258.71 231.513 259.04 231.183 259.446 231.183H280.697C281.103 231.183 281.432 231.513 281.432 231.918C281.432 232.323 281.103 232.653 280.697 232.653Z" fill="#E6E6E6"/>
<path d="M280.697 248.33H259.446C259.04 248.33 258.71 248 258.71 247.594C258.71 247.189 259.04 246.859 259.446 246.859H280.697C281.103 246.859 281.432 247.189 281.432 247.594C281.432 248 281.103 248.33 280.697 248.33Z" fill="#E6E6E6"/>
<path d="M289.327 240.497H250.816C250.41 240.497 250.08 240.167 250.08 239.761C250.08 239.356 250.41 239.026 250.816 239.026H289.327C289.733 239.026 290.062 239.356 290.062 239.761C290.062 240.167 289.733 240.497 289.327 240.497Z" fill="#E6E6E6"/>
<path d="M289.72 254.704H275.808C275.402 254.704 275.073 254.374 275.073 253.968C275.073 253.563 275.402 253.233 275.808 253.233H289.72C290.126 253.233 290.455 253.563 290.455 253.968C290.455 254.374 290.126 254.704 289.72 254.704Z" fill="#E6E6E6"/>
<path d="M405.204 316.133C409.623 316.133 413.206 312.551 413.206 308.132C413.206 303.713 409.623 300.131 405.204 300.131C400.784 300.131 397.201 303.713 397.201 308.132C397.201 312.551 400.784 316.133 405.204 316.133Z" fill="#040BC5"/>
<path d="M292.366 275.327C296.785 275.327 300.368 271.745 300.368 267.326C300.368 262.907 296.785 259.325 292.366 259.325C287.946 259.325 284.363 262.907 284.363 267.326C284.363 271.745 287.946 275.327 292.366 275.327Z" fill="#040BC5"/>
<path d="M330.779 384.942C335.198 384.942 338.781 381.359 338.781 376.941C338.781 372.522 335.198 368.939 330.779 368.939C326.359 368.939 322.776 372.522 322.776 376.941C322.776 381.359 326.359 384.942 330.779 384.942Z" fill="#040BC5"/>
<path d="M348.065 163.091C353.574 163.091 358.039 158.72 358.039 153.329C358.039 147.937 353.574 143.567 348.065 143.567C342.557 143.567 338.091 147.937 338.091 153.329C338.091 158.72 342.557 163.091 348.065 163.091Z" fill="#F2F2F2"/>
<path d="M428.022 149.989H374.336C372.495 149.989 370.996 148.491 370.996 146.65C370.996 144.808 372.495 143.31 374.336 143.31H428.022C429.864 143.31 431.363 144.808 431.363 146.65C431.363 148.491 429.864 149.989 428.022 149.989Z" fill="#F2F2F2"/>
<path d="M469.919 161.292H374.336C372.495 161.292 370.996 159.794 370.996 157.953C370.996 156.111 372.495 154.613 374.336 154.613H469.919C471.761 154.613 473.259 156.111 473.259 157.953C473.259 159.794 471.761 161.292 469.919 161.292Z" fill="#F2F2F2"/>
<path d="M203.699 204.118C207.264 204.118 210.154 201.29 210.154 197.801C210.154 194.311 207.264 191.483 203.699 191.483C200.134 191.483 197.244 194.311 197.244 197.801C197.244 201.29 200.134 204.118 203.699 204.118Z" fill="#F2F2F2"/>
<path d="M255.446 195.639H220.701C219.509 195.639 218.54 194.669 218.54 193.478C218.54 192.286 219.509 191.316 220.701 191.316H255.446C256.638 191.316 257.608 192.286 257.608 193.478C257.608 194.669 256.638 195.639 255.446 195.639Z" fill="#F2F2F2"/>
<path d="M282.561 202.954H220.701C219.509 202.954 218.54 201.985 218.54 200.793C218.54 199.601 219.509 198.632 220.701 198.632H282.561C283.753 198.632 284.723 199.601 284.723 200.793C284.723 201.985 283.753 202.954 282.561 202.954Z" fill="#F2F2F2"/>
<path d="M397.364 428.947C400.929 428.947 403.819 426.119 403.819 422.63C403.819 419.141 400.929 416.312 397.364 416.312C393.799 416.312 390.909 419.141 390.909 422.63C390.909 426.119 393.799 428.947 397.364 428.947Z" fill="#F2F2F2"/>
<path d="M449.111 420.469H414.366C413.174 420.469 412.204 419.499 412.204 418.307C412.204 417.116 413.174 416.146 414.366 416.146H449.111C450.303 416.146 451.273 417.116 451.273 418.307C451.273 419.499 450.303 420.469 449.111 420.469Z" fill="#F2F2F2"/>
<path d="M476.226 427.784H414.366C413.174 427.784 412.205 426.814 412.205 425.623C412.205 424.431 413.174 423.461 414.366 423.461H476.226C477.418 423.461 478.388 424.431 478.388 425.623C478.388 426.814 477.418 427.784 476.226 427.784Z" fill="#F2F2F2"/>
<path d="M319.775 224.793H318.174V300.803H319.775V224.793Z" fill="#E6E6E6"/>
<path d="M318.974 305.603C321.626 305.603 323.776 303.454 323.776 300.803C323.776 298.151 321.626 296.002 318.974 296.002C316.323 296.002 314.173 298.151 314.173 300.803C314.173 303.454 316.323 305.603 318.974 305.603Z" fill="#E6E6E6"/>
<path d="M391.799 360.811C394.451 360.811 396.601 358.661 396.601 356.01C396.601 353.359 394.451 351.209 391.799 351.209C389.147 351.209 386.997 353.359 386.997 356.01C386.997 358.661 389.147 360.811 391.799 360.811Z" fill="#E6E6E6"/>
<path d="M262.155 295.202C264.807 295.202 266.957 293.053 266.957 290.401C266.957 287.75 264.807 285.601 262.155 285.601C259.504 285.601 257.354 287.75 257.354 290.401C257.354 293.053 259.504 295.202 262.155 295.202Z" fill="#E6E6E6"/>
<path d="M260.381 290.409L234.122 291.204L234.17 292.804L260.429 292.009L260.381 290.409Z" fill="#E6E6E6"/>
<path d="M430.861 374.388H391.043V356.01H392.643V372.788H430.861V374.388Z" fill="#E6E6E6"/>
<path d="M260.184 347.621C262.836 347.621 264.986 345.471 264.986 342.82C264.986 340.169 262.836 338.02 260.184 338.02C257.533 338.02 255.383 340.169 255.383 342.82C255.383 345.471 257.533 347.621 260.184 347.621Z" fill="#E6E6E6"/>
<path d="M298.772 361.199H258.954V342.82H260.555V359.598H298.772V361.199Z" fill="#E6E6E6"/>
<path d="M420.609 324.554H229.358V326.154H420.609V324.554Z" fill="#E6E6E6"/>
</g>
</g>
<defs>
<filter id="filter0_d_681_10142" x="0" y="0" width="790" height="566" filterUnits="userSpaceOnUse" color-interpolation-filters="sRGB">
<feFlood flood-opacity="0" result="BackgroundImageFix"/>
<feColorMatrix in="SourceAlpha" type="matrix" values="0 0 0 0 0 0 0 0 0 0 0 0 0 0 0 0 0 0 127 0" result="hardAlpha"/>
<feMorphology radius="22" operator="dilate" in="SourceAlpha" result="effect1_dropShadow_681_10142"/>
<feOffset dy="3"/>
<feGaussianBlur stdDeviation="21"/>
<feComposite in2="hardAlpha" operator="out"/>
<feColorMatrix type="matrix" values="0 0 0 0 0 0 0 0 0 0 0 0 0 0 0 0 0 0 0.05 0"/>
<feBlend mode="normal" in2="BackgroundImageFix" result="effect1_dropShadow_681_10142"/>
<feBlend mode="normal" in="SourceGraphic" in2="effect1_dropShadow_681_10142" result="shape"/>
</filter>
<clipPath id="clip0_681_10142">
<rect width="452" height="360" fill="white" transform="translate(169 100)"/>
</clipPath>
</defs>
</svg>
