<svg width="790" height="566" viewBox="0 0 790 566" fill="none" xmlns="http://www.w3.org/2000/svg">
<g filter="url(#filter0_d_681_10246)">
<rect x="64" y="61" width="662" height="438" rx="16" fill="white"/>
<g clip-path="url(#clip0_681_10246)">
<path d="M486.108 407.277C484.44 407.277 482.808 407.772 481.421 408.699C480.033 409.626 478.952 410.943 478.313 412.484C477.675 414.025 477.507 415.721 477.833 417.357C478.159 418.993 478.962 420.496 480.142 421.675C481.322 422.855 482.826 423.658 484.462 423.983C486.099 424.309 487.796 424.142 489.337 423.504C490.879 422.865 492.197 421.784 493.124 420.397C494.051 419.01 494.546 417.38 494.546 415.711C494.546 413.475 493.657 411.329 492.075 409.748C490.492 408.166 488.346 407.277 486.108 407.277ZM486.108 420.902C485.081 420.902 484.078 420.597 483.224 420.027C482.37 419.457 481.704 418.646 481.311 417.698C480.918 416.749 480.815 415.706 481.016 414.699C481.216 413.692 481.711 412.767 482.437 412.041C483.163 411.315 484.088 410.821 485.095 410.621C486.103 410.421 487.147 410.523 488.095 410.916C489.044 411.309 489.855 411.974 490.426 412.828C490.996 413.681 491.301 414.685 491.301 415.711C491.301 417.088 490.754 418.408 489.78 419.382C488.806 420.355 487.486 420.902 486.108 420.902Z" fill="#F2F2F2"/>
<path d="M453.656 400.789H486.108V432.895C486.108 434.016 485.663 435.091 484.87 435.883C484.077 436.676 483.002 437.121 481.881 437.121H457.883C456.762 437.121 455.687 436.676 454.894 435.883C454.101 435.091 453.656 434.016 453.656 432.895V400.789Z" fill="#F2F2F2"/>
<path d="M525.42 437.855H97.5773C97.4126 437.815 97.2662 437.721 97.1614 437.588C97.0567 437.455 96.9998 437.291 96.9998 437.121C96.9998 436.952 97.0567 436.787 97.1614 436.654C97.2662 436.521 97.4126 436.427 97.5773 436.387H525.42C525.585 436.427 525.731 436.521 525.836 436.654C525.941 436.787 525.998 436.952 525.998 437.121C525.998 437.291 525.941 437.455 525.836 437.588C525.731 437.721 525.585 437.815 525.42 437.855Z" fill="#CACACA"/>
<path d="M636.789 214.149H501.192C500.473 214.148 499.783 213.862 499.275 213.354C498.766 212.846 498.48 212.156 498.479 211.437V185.893H499.564V211.437C499.564 211.869 499.736 212.282 500.041 212.587C500.347 212.893 500.76 213.064 501.192 213.065H636.789C637.221 213.064 637.635 212.893 637.94 212.587C638.245 212.282 638.417 211.869 638.417 211.437V185.711H639.503V211.437C639.502 212.156 639.216 212.846 638.707 213.354C638.198 213.862 637.509 214.148 636.789 214.149Z" fill="#3F3D56"/>
<path d="M685.945 185.348H367.307V186.433H685.945V185.348Z" fill="#3F3D56"/>
<path d="M367.329 195.136C372.485 195.136 376.664 190.959 376.664 185.806C376.664 180.653 372.485 176.476 367.329 176.476C362.174 176.476 357.995 180.653 357.995 185.806C357.995 190.959 362.174 195.136 367.329 195.136Z" fill="#040BC5"/>
<path d="M462.182 195.136C467.337 195.136 471.516 190.959 471.516 185.806C471.516 180.653 467.337 176.476 462.182 176.476C457.027 176.476 452.848 180.653 452.848 185.806C452.848 190.959 457.027 195.136 462.182 195.136Z" fill="#040BC5"/>
<path d="M526.555 222.56C531.71 222.56 535.889 218.383 535.889 213.23C535.889 208.077 531.71 203.899 526.555 203.899C521.4 203.899 517.221 208.077 517.221 213.23C517.221 218.383 521.4 222.56 526.555 222.56Z" fill="#3F3D56"/>
<path d="M575.492 222.56C580.647 222.56 584.826 218.383 584.826 213.23C584.826 208.077 580.647 203.899 575.492 203.899C570.337 203.899 566.158 208.077 566.158 213.23C566.158 218.383 570.337 222.56 575.492 222.56Z" fill="#CCCCCC"/>
<path d="M551.778 195.136C556.934 195.136 561.113 190.959 561.113 185.806C561.113 180.653 556.934 176.476 551.778 176.476C546.623 176.476 542.444 180.653 542.444 185.806C542.444 190.959 546.623 195.136 551.778 195.136Z" fill="#040BC5"/>
<path d="M684.666 195.136C689.821 195.136 694 190.959 694 185.806C694 180.653 689.821 176.476 684.666 176.476C679.511 176.476 675.332 180.653 675.332 185.806C675.332 190.959 679.511 195.136 684.666 195.136Z" fill="#040BC5"/>
<path d="M638.96 195.136C644.115 195.136 648.294 190.959 648.294 185.806C648.294 180.653 644.115 176.476 638.96 176.476C633.805 176.476 629.626 180.653 629.626 185.806C629.626 190.959 633.805 195.136 638.96 195.136Z" fill="#040BC5"/>
<path d="M535.003 100H517.69V111.927H535.003V100Z" fill="#3F3D56"/>
<path d="M376.055 100H358.741V111.927H376.055V100Z" fill="#040BC5"/>
<path d="M434.697 100H417.384V111.927H434.697V100Z" fill="#CCCCCC"/>
<path d="M396.274 186.432C396.13 186.432 395.992 186.375 395.89 186.273C395.789 186.171 395.731 186.033 395.731 185.89V159.116C395.732 158.397 396.019 157.707 396.527 157.199C397.036 156.69 397.725 156.404 398.445 156.403H424.857C425.001 156.403 425.139 156.46 425.24 156.562C425.342 156.664 425.399 156.802 425.399 156.946C425.399 157.09 425.342 157.228 425.24 157.329C425.139 157.431 425.001 157.488 424.857 157.488H398.445C398.013 157.489 397.599 157.66 397.294 157.965C396.989 158.27 396.817 158.684 396.817 159.116V185.89C396.817 186.033 396.76 186.171 396.658 186.273C396.556 186.375 396.418 186.432 396.274 186.432Z" fill="#3F3D56"/>
<path d="M426.098 166.074C431.253 166.074 435.432 161.897 435.432 156.744C435.432 151.591 431.253 147.414 426.098 147.414C420.943 147.414 416.764 151.591 416.764 156.744C416.764 161.897 420.943 166.074 426.098 166.074Z" fill="#E6E6E6"/>
<path d="M605.184 185.89H604.098V159.116C604.099 158.397 604.386 157.707 604.894 157.199C605.403 156.69 606.092 156.404 606.812 156.403H633.224V157.488H606.812C606.38 157.489 605.966 157.66 605.661 157.965C605.356 158.27 605.184 158.684 605.184 159.116V185.89Z" fill="#3F3D56"/>
<path d="M634.465 166.074C639.62 166.074 643.799 161.897 643.799 156.744C643.799 151.591 639.62 147.414 634.465 147.414C629.31 147.414 625.131 151.591 625.131 156.744C625.131 161.897 629.31 166.074 634.465 166.074Z" fill="#E6E6E6"/>
<path d="M191.502 431.948C190.15 428.871 188.867 425.333 190.22 422.259C191.102 420.446 192.618 419.019 194.482 418.249C196.326 417.498 198.27 417.018 200.253 416.827C206.475 416.011 212.771 415.925 219.013 416.57C219.469 420.172 218.507 423.826 217.68 427.306C216.929 430.511 216.5 430.985 213.192 431.151C211.052 431.268 192.009 433.082 191.502 431.948Z" fill="#FBBEBE"/>
<path d="M323.438 361.749C325.573 360.935 327.926 361.23 330.215 361.538C337.582 362.544 345.058 363.576 351.887 366.517C355.093 367.889 358.145 369.722 360.312 372.42C362.235 374.849 363.357 377.824 364.424 380.753L366.886 387.495C367.933 390.029 368.654 392.685 369.033 395.4C369.802 403.469 364.282 411.077 357.338 415.268C350.394 419.46 342.218 420.953 334.255 422.517C326.292 424.08 318.297 425.811 310.365 427.644C306.666 428.604 302.913 429.342 299.125 429.855C290.636 430.817 281.762 429.4 273.696 432.204C270.49 433.326 267.342 434.993 264.015 435.768C261.804 436.233 259.569 436.573 257.32 436.787L242.054 438.53C238.95 438.945 235.824 439.185 232.693 439.248C226.025 439.248 219.465 437.671 212.99 436.091C212.302 435.971 211.646 435.706 211.067 435.316C210.039 434.508 209.818 433.079 209.672 431.784C209.018 426.054 208.445 420.318 207.953 414.575C207.799 412.71 207.684 410.692 208.704 409.122C209.986 407.199 212.487 406.596 214.769 406.224C224.448 404.642 234.253 403.961 244.058 404.192C247.784 400.469 253.926 400.449 258.805 398.424C260.6 397.6 262.337 396.656 264.005 395.598C272.733 390.507 282.487 387.427 292.557 386.58C294.529 386.52 296.488 386.24 298.398 385.747C302.174 384.572 305.617 381.382 309.496 382.164C309.977 380.838 310.311 379.062 311.42 378.152C311.971 377.684 312.65 377.37 313.157 376.87C314.228 375.787 314.324 374.081 314.164 372.569C314.004 371.058 313.645 369.506 314.035 368.032C314.198 367.473 314.437 366.941 314.747 366.448C316.666 363.133 319.571 361.428 323.438 361.749Z" fill="#464353"/>
<path opacity="0.05" d="M323.438 361.749C325.573 360.935 327.926 361.23 330.215 361.538C337.582 362.544 345.058 363.576 351.887 366.517C355.093 367.889 358.145 369.722 360.312 372.42C362.235 374.849 363.357 377.824 364.424 380.753L366.886 387.495C367.933 390.029 368.654 392.685 369.033 395.4C369.802 403.469 364.282 411.077 357.338 415.268C350.394 419.46 342.218 420.953 334.255 422.517C326.292 424.08 318.297 425.811 310.365 427.644C306.666 428.604 302.913 429.342 299.125 429.855C290.636 430.817 281.762 429.4 273.696 432.204C270.49 433.326 267.342 434.993 264.015 435.768C261.804 436.233 259.569 436.573 257.32 436.787L242.054 438.53C238.95 438.945 235.824 439.185 232.693 439.248C226.025 439.248 219.465 437.671 212.99 436.091C212.302 435.971 211.646 435.706 211.067 435.316C210.039 434.508 209.818 433.079 209.672 431.784C209.018 426.054 208.445 420.318 207.953 414.575C207.799 412.71 207.684 410.692 208.704 409.122C209.986 407.199 212.487 406.596 214.769 406.224C224.448 404.642 234.253 403.961 244.058 404.192C247.784 400.469 253.926 400.449 258.805 398.424C260.6 397.6 262.337 396.656 264.005 395.598C272.733 390.507 282.487 387.427 292.557 386.58C294.529 386.52 296.488 386.24 298.398 385.747C302.174 384.572 305.617 381.382 309.496 382.164C309.977 380.838 310.311 379.062 311.42 378.152C311.971 377.684 312.65 377.37 313.157 376.87C314.228 375.787 314.324 374.081 314.164 372.569C314.004 371.058 313.645 369.506 314.035 368.032C314.198 367.473 314.437 366.941 314.747 366.448C316.666 363.133 319.571 361.428 323.438 361.749Z" fill="black"/>
<path d="M197.401 435.913C193.436 440.508 189.938 442.152 183.725 442.002C179.903 441.912 176.086 441.713 172.274 441.406C169.668 441.123 167.047 441.001 164.426 441.039C156.513 441.346 148.877 444.967 140.984 444.333C139.817 444.241 138.663 444.026 137.541 443.692C135.751 443.199 134.132 442.218 132.867 440.86C131.438 439.062 130.521 436.912 130.212 434.636C128.103 423.138 133.884 410.615 144.011 404.761C145.332 403.908 146.835 403.375 148.398 403.204C149.931 403.198 151.446 403.531 152.835 404.178L152.931 404.216C157.045 405.908 160.78 408.401 163.921 411.549C164.398 412.094 164.967 412.552 165.602 412.901C166.235 413.14 166.907 413.266 167.584 413.272L176.009 413.804C177.437 413.847 178.856 414.043 180.241 414.388C181.769 414.921 183.256 415.563 184.691 416.31C189.224 418.336 194.251 418.874 199.15 419.656C199.622 419.683 200.072 419.863 200.432 420.17C200.627 420.413 200.763 420.698 200.829 421.003C201.517 423.579 201.565 426.284 200.968 428.882C200.372 431.48 199.148 433.893 197.405 435.911L197.401 435.913Z" fill="#3F3D56"/>
<path d="M316.102 420.169C320.815 420.04 326.104 419.802 329.567 422.975C332.871 425.975 333.304 430.923 333.522 435.381L333.773 440.553C333.968 442.125 333.8 443.721 333.279 445.218C332.151 447.782 329.054 449.019 326.23 448.872C323.406 448.724 320.805 447.487 318.222 446.372C311.207 443.351 303.902 441.052 296.422 439.508C296.666 435.932 297.072 432.373 297.64 428.831C298.031 426.376 298.095 422.268 299.736 420.23C301.474 418.077 303.737 419.243 306.097 419.643C309.408 420.148 312.761 420.326 316.106 420.175L316.102 420.169Z" fill="#FFB9B9"/>
<path d="M399.435 451.959C397.28 455.952 393.1 458.438 388.612 459.463C387.485 459.718 386.34 459.881 385.187 459.951C379.513 460.303 373.909 458.733 368.44 457.182L361.018 455.089C359.741 454.688 358.433 454.396 357.106 454.218C355.301 454.097 353.488 454.16 351.695 454.404C342.919 455.22 334.073 454.823 325.406 453.224C324.681 453.146 323.984 452.898 323.373 452.5C322.838 451.975 322.363 451.393 321.956 450.763C319.937 448.334 317.763 446.917 320.154 443.716C321.532 441.858 324.091 440.927 325.161 438.794C326.232 436.661 325.546 433.628 324.911 431.423C324.045 428.379 321.199 427.065 320.179 424.271C319.416 422.162 320.698 419.714 322.628 418.567C324.558 417.419 326.943 417.33 329.168 417.624C331.393 417.918 333.574 418.547 335.811 418.72C342.389 419.245 349.115 415.857 355.431 417.766C356.822 418.188 358.137 418.862 359.547 419.234C362.297 419.848 365.169 419.6 367.772 418.522C368.695 418.177 369.599 417.76 370.497 417.348C372.228 416.447 374.072 415.78 375.979 415.366C382.141 414.308 387.854 418.571 392.501 422.73C394.097 424.054 395.509 425.584 396.701 427.281C397.896 429.341 398.762 431.575 399.266 433.902C400.965 439.832 402.372 446.511 399.435 451.959Z" fill="#3F3D56"/>
<path d="M248.599 411.194C299.237 411.194 340.288 399.717 340.288 385.558C340.288 371.4 299.237 359.922 248.599 359.922C197.961 359.922 156.911 371.4 156.911 385.558C156.911 399.717 197.961 411.194 248.599 411.194Z" fill="#464353"/>
<path opacity="0.1" d="M248.599 411.194C299.237 411.194 340.288 399.717 340.288 385.558C340.288 371.4 299.237 359.922 248.599 359.922C197.961 359.922 156.911 371.4 156.911 385.558C156.911 399.717 197.961 411.194 248.599 411.194Z" fill="black"/>
<path d="M265.039 250.224C261.897 256.295 256.677 261.036 250.33 263.583C246.584 264.948 242.64 265.696 238.654 265.801C234.3 265.999 229.858 265.718 225.767 264.23C220.278 262.243 215.719 258.18 212.302 253.444C208.884 248.707 206.531 243.298 204.486 237.844C203.408 235.005 202.382 231.98 202.889 228.981C206.194 228.23 209.807 227.129 211.513 224.199C212.969 221.686 212.565 218.675 211.725 215.803C211.487 214.989 211.211 214.182 210.936 213.406C210.295 211.547 208.083 208.016 209.654 206.427C210.635 205.42 214.745 204.908 216.162 204.254C220.528 202.241 224.554 199.331 229.35 198.376C233.498 197.55 237.782 198.325 241.923 199.184C242.473 199.264 243.001 199.453 243.475 199.742C244.016 200.197 244.417 200.797 244.63 201.472C245.81 204.343 246.502 207.516 247.451 210.508C248.438 213.643 249.707 216.584 252.087 218.808C253.939 220.545 256.3 221.635 258.608 222.692L264.288 225.294C265.299 225.672 266.215 226.265 266.975 227.031C267.717 228.052 268.161 229.259 268.257 230.518C269.275 237.262 268.149 244.155 265.038 250.226L265.039 250.224Z" fill="#FFB9B9"/>
<path d="M226.158 218.28C242.447 218.28 255.652 205.081 255.652 188.798C255.652 172.516 242.447 159.316 226.158 159.316C209.869 159.316 196.664 172.516 196.664 188.798C196.664 205.081 209.869 218.28 226.158 218.28Z" fill="#FFB9B9"/>
<path d="M316.018 284.481L313.594 269.804C312.369 262.44 311.106 254.934 307.683 248.301C305.432 243.955 292.096 236.111 291.013 234.982C288.218 232.085 273.903 226.817 270.893 224.933C267.882 223.049 264.128 221.728 260.794 222.933C260.256 228.67 259.684 234.531 257.249 239.757C255.663 243.158 253.336 246.161 250.44 248.547C247.544 250.933 244.15 252.642 240.508 253.548C236.867 254.455 233.068 254.537 229.39 253.788C225.713 253.038 222.249 251.477 219.253 249.218C213.54 244.917 209.879 238.281 208.173 231.342C207.756 229.65 207.282 227.708 205.724 226.933C204.035 226.087 202.012 227.112 200.595 228.356C198.03 230.657 168.228 245.605 166.92 247.441C165.612 249.276 164.997 251.556 164.355 253.76C171.363 269.36 177.775 284.979 184.783 300.579C185.111 301.167 185.286 301.828 185.29 302.501C185.149 303.2 184.851 303.858 184.418 304.424C180.981 309.942 181.09 316.883 181.469 323.369C181.848 329.855 182.309 336.707 179.413 342.52C178.624 344.115 177.598 345.577 176.848 347.173C175.091 350.788 174.456 362.35 175.482 366.233H320.44C317.676 358.638 318.728 343.397 319.305 335.335C319.709 329.694 318.664 324.061 318.215 318.421C317.231 306.906 317.927 295.979 316.018 284.481Z" fill="#040BC5"/>
<path d="M153.25 301.272C152.995 303.127 152.97 305.006 153.177 306.867L155.017 333.318C155.19 335.813 155.363 338.297 155.594 340.784C156.035 345.61 156.696 350.4 157.517 355.179C157.535 355.859 157.822 356.503 158.315 356.971C158.808 357.439 159.467 357.692 160.146 357.675C168.257 359.393 176.637 359.322 184.915 358.855C197.545 358.15 210.158 356.541 222.806 356.816C226.064 356.89 229.856 356.816 231.834 354.253C233.813 351.69 232.661 347.542 230.084 345.472C227.506 343.402 224.006 342.909 220.697 342.909C216.317 342.864 211.938 343.486 207.572 343.23C203.577 342.871 199.623 342.144 195.762 341.057L184.862 338.346C185.279 335.043 186.535 331.938 187.726 328.804C189.867 323.247 191.867 317.505 191.906 311.554C191.945 305.603 189.703 299.338 184.821 295.929C180.808 293.128 175.642 292.609 170.748 292.724C167.189 292.827 161.041 291.974 157.79 293.365C155.218 294.485 153.731 298.753 153.25 301.272Z" fill="#FFB9B9"/>
<path d="M191.56 368.197C191.56 368.838 190.554 368.197 190.464 367.511C189.759 362.326 185.642 358.051 180.844 355.975C176.046 353.898 170.585 353.789 165.391 354.283C157.534 355.026 148.722 358.032 145.849 365.37C145.169 367.088 144.861 368.947 144.027 370.594C143.104 372.401 141.598 373.843 140.597 375.599C138.872 378.637 138.802 382.361 139.422 385.796C141.096 394.962 147.367 402.8 154.965 408.228C162.563 413.657 171.443 416.9 180.299 419.826C203.714 427.543 227.736 433.276 252.113 436.964C256.062 437.56 260.05 438.111 263.834 439.38C267.219 440.514 270.386 442.213 273.695 443.546C281.389 446.635 289.667 447.737 297.867 448.821C299.262 449 300.868 449.128 301.9 448.18C303.234 446.943 302.792 444.789 302.414 443.014C301.022 436.264 302.19 429.238 305.691 423.3C307.063 420.993 308.848 418.628 308.589 415.955C308.281 412.84 305.178 410.635 302.087 410.135C298.997 409.636 295.855 410.373 292.752 410.776C291.688 411.021 290.573 410.91 289.578 410.462C289.117 410.151 288.699 409.781 288.334 409.361C286.196 407.3 283.46 405.968 280.518 405.557C277.576 405.146 274.58 405.677 271.958 407.073C270.811 407.714 269.073 406.285 267.881 405.747L254.397 399.645C238.902 392.64 223.338 385.603 206.95 381.168C205.642 380.911 204.399 380.395 203.295 379.65C202.481 379.009 201.9 378.137 201.147 377.425C199.512 375.884 197.236 375.265 195.272 374.169C193.309 373.073 191.109 370.396 191.56 368.197Z" fill="#464353"/>
<path d="M163.993 254.236C163.368 254.89 162.884 255.664 162.57 256.511C157.387 268.187 154.325 280.692 153.529 293.441C153.543 294.062 153.399 294.678 153.112 295.229C152.829 295.596 152.513 295.937 152.17 296.248C151.858 296.618 151.625 297.048 151.486 297.511C151.346 297.974 151.304 298.461 151.36 298.942C151.417 299.423 151.571 299.886 151.814 300.305C152.057 300.723 152.383 301.088 152.773 301.375C153.831 299.382 156.364 298.732 158.614 298.561C169.392 297.709 179.92 302.721 190.73 302.342C189.967 299.708 188.87 297.177 188.249 294.51C185.498 282.673 192.361 269.784 188.152 258.382C187.312 256.1 185.908 253.857 183.696 252.857C182.781 252.488 181.822 252.234 180.843 252.101C178.112 251.608 172.675 249.499 170.033 250.346C169.059 250.66 168.674 251.576 167.866 252.127C166.636 252.915 165.009 253.205 163.993 254.236Z" fill="#040BC5"/>
<path d="M320.207 277.565H188.93C185.697 277.565 183.077 280.184 183.077 283.415V362.724C183.077 365.955 185.697 368.574 188.93 368.574H320.207C323.439 368.574 326.06 365.955 326.06 362.724V283.415C326.06 280.184 323.439 277.565 320.207 277.565Z" fill="#464353"/>
<path d="M254.247 326.916C256.372 326.916 258.095 325.194 258.095 323.07C258.095 320.946 256.372 319.225 254.247 319.225C252.123 319.225 250.4 320.946 250.4 323.07C250.4 325.194 252.123 326.916 254.247 326.916Z" fill="white"/>
<path d="M196.576 172.197C199.548 166.592 203.324 155.421 209.323 153.349C212.655 152.245 216.098 151.512 219.59 151.163L229.786 155.082L224.237 150.768C225.317 150.704 226.397 150.652 227.476 150.61L234.355 153.253L230.836 150.516C237.249 150.45 243.869 151.118 248.839 155.02C253.076 158.347 257.274 170.948 257.952 176.294C258.678 181.404 258.424 186.607 257.204 191.622L255.462 193.278C254.852 191.882 254.394 190.424 254.095 188.929C253.47 186.137 252.271 183.506 250.572 181.203C248.874 178.9 246.715 176.976 244.231 175.554L244.137 175.5C241.215 173.856 237.669 173.932 234.318 174.053L218.403 174.625C214.574 174.763 210.451 175.005 207.466 177.406C205.45 179.027 204.242 181.42 203.093 183.738C201.61 186.731 198.711 198.018 198.711 198.018C198.711 198.018 197.072 195.889 196.288 197.474C195.028 193.336 194.261 189.064 194.005 184.747C193.753 180.41 194.639 176.084 196.575 172.195L196.576 172.197Z" fill="#090814"/>
</g>
</g>
<defs>
<filter id="filter0_d_681_10246" x="0" y="0" width="790" height="566" filterUnits="userSpaceOnUse" color-interpolation-filters="sRGB">
<feFlood flood-opacity="0" result="BackgroundImageFix"/>
<feColorMatrix in="SourceAlpha" type="matrix" values="0 0 0 0 0 0 0 0 0 0 0 0 0 0 0 0 0 0 127 0" result="hardAlpha"/>
<feMorphology radius="22" operator="dilate" in="SourceAlpha" result="effect1_dropShadow_681_10246"/>
<feOffset dy="3"/>
<feGaussianBlur stdDeviation="21"/>
<feComposite in2="hardAlpha" operator="out"/>
<feColorMatrix type="matrix" values="0 0 0 0 0 0 0 0 0 0 0 0 0 0 0 0 0 0 0.05 0"/>
<feBlend mode="normal" in2="BackgroundImageFix" result="effect1_dropShadow_681_10246"/>
<feBlend mode="normal" in="SourceGraphic" in2="effect1_dropShadow_681_10246" result="shape"/>
</filter>
<clipPath id="clip0_681_10246">
<rect width="597" height="360" fill="white" transform="translate(97 100)"/>
</clipPath>
</defs>
</svg>
