<svg width="24" height="24" viewBox="0 0 24 24" fill="none" xmlns="http://www.w3.org/2000/svg">
<rect width="24" height="24" rx="12" fill="white"/>
<path fill-rule="evenodd" clip-rule="evenodd" d="M4 12.0448C4 16.0221 6.88867 19.3294 10.6667 20.0001V14.2221H8.66667V12.0001H10.6667V10.2221C10.6667 8.22209 11.9553 7.11142 13.778 7.11142C14.3553 7.11142 14.978 7.20009 15.5553 7.28876V9.33343H14.5333C13.5553 9.33343 13.3333 9.82209 13.3333 10.4448V12.0001H15.4667L15.1113 14.2221H13.3333V20.0001C17.1113 19.3294 20 16.0228 20 12.0448C20 7.62009 16.4 4.00009 12 4.00009C7.6 4.00009 4 7.62009 4 12.0448Z" fill="#103FA6"/>
</svg>
