<svg width="42" height="29" viewBox="0 0 42 29" fill="none" xmlns="http://www.w3.org/2000/svg">
<line x1="1" y1="17" x2="41" y2="17" stroke="#00ED6D" stroke-dasharray="2 2"/>
<path d="M1 28.5L3.38743 11.7409C3.88726 8.23287 4.83386 7.2671 5.55986 9.53952L7.47539 15.533C7.86632 16.7544 8.33822 17.0811 8.77941 16.442L11.3372 12.7067C11.8677 11.9256 12.4401 12.5789 12.859 14.4394L14.3668 21.143C14.903 23.5291 15.6792 23.8558 16.2852 21.981L19.0691 13.3458C19.5913 11.7267 20.2503 11.7267 20.7724 13.36L22.3333 18.2599C22.9058 20.0494 23.6373 19.879 24.1707 17.8054L28.2223 2.18256C28.778 0.037968 29.5375 -0.0614504 30.1155 1.91271L34.5218 16.9817C34.7899 17.9049 35.1082 18.3877 35.4293 18.3877H37.638C38.0709 18.3877 38.4841 17.5214 38.7885 15.9591L41 4.71063" stroke="#00ED6D" stroke-linecap="round" stroke-linejoin="round"/>
</svg>
