<svg width="80" height="80" viewBox="0 0 80 80" fill="none" xmlns="http://www.w3.org/2000/svg">
<g clip-path="url(#clip0_290_2559)">
<path d="M39.0074 0H40.8418C42.3793 0.11875 43.9121 0.375 45.3762 0.867188C49.6293 2.25625 53.2699 5.23906 55.7387 8.94063C56.5762 10.1828 57.2355 11.5328 57.9246 12.8594C58.9855 14.8984 60.0418 16.9438 60.9371 19.0625C62.0137 21.6437 62.7949 24.3766 62.9527 27.1797C63.2199 31.1531 62.5027 35.1734 60.9371 38.8312C63.5965 38.8391 66.2543 38.8281 68.9121 38.8312C69.4527 38.7984 70.0699 39.0516 70.2152 39.6188C70.3684 40.3594 70.273 41.1234 70.2918 41.875C70.2965 52.1813 70.2809 62.4875 70.2996 72.7937C70.8168 72.8016 71.3402 72.7719 71.8512 72.8656C72.2293 72.9375 72.5527 73.2422 72.6449 73.6172C72.7387 74.0172 72.723 74.4328 72.7277 74.8438C72.7121 75.9375 72.7168 77.0312 72.7277 78.125C72.7152 78.5219 72.7418 78.9359 72.6012 79.3141C72.448 79.5875 72.1965 79.7828 71.9777 80H8.14961C7.86367 79.8219 7.53242 79.6453 7.39648 79.3188C7.26211 78.9359 7.28086 78.5234 7.27148 78.125C7.28242 77.0312 7.28711 75.9375 7.27148 74.8438C7.27461 74.4328 7.26055 74.0172 7.3543 73.6156C7.44492 73.2406 7.76992 72.9359 8.14805 72.8656C8.66055 72.7719 9.18242 72.8016 9.69961 72.7937C9.7168 69.2016 9.70586 65.6109 9.70273 62.0188C9.72148 61.6469 9.7168 61.2219 9.98867 60.9312C10.2324 60.7016 10.5465 60.5719 10.8355 60.4141C11.148 60.5594 11.4949 60.6594 11.748 60.9031C12.0402 61.1969 12.0434 61.6375 12.0559 62.0234C12.048 65.6172 12.0527 69.2109 12.0512 72.8047C13.2277 72.8078 14.4043 72.8063 15.5809 72.8063C25.8043 72.8063 36.0262 72.8094 46.2496 72.8047C46.8434 72.8219 47.4574 72.7359 48.0387 72.8969C48.523 73.05 48.673 73.5781 48.8402 74C49.709 74.0031 50.5777 74.0031 51.4465 74.0031C51.6199 73.5828 51.7684 73.0531 52.2512 72.8953C52.7887 72.7453 53.3559 72.8156 53.9074 72.8031C58.5871 72.8094 63.2668 72.8078 67.948 72.8047C67.948 62.2625 67.948 51.7203 67.948 41.1781C50.4621 41.175 32.9777 41.1766 15.4918 41.1781C14.3449 41.1766 13.198 41.175 12.0527 41.1781C12.0527 46.2047 12.048 51.2312 12.0543 56.2578C12.0434 56.6094 12.0402 56.9969 11.8105 57.2875C11.5715 57.5938 11.1746 57.6859 10.8371 57.8406C10.5496 57.6875 10.2387 57.5641 9.99492 57.3438C9.71836 57.0578 9.72305 56.6312 9.70273 56.2625C9.71055 51.3625 9.70898 46.4625 9.70586 41.5625C9.7168 40.9156 9.64336 40.2562 9.78242 39.6188C9.9293 39.05 10.5465 38.7984 11.0871 38.8312C13.7449 38.8281 16.4027 38.8391 19.0605 38.8312C17.1059 34.2812 16.4871 29.1531 17.4074 24.2797C18.2715 19.8578 20.5152 15.8938 22.5543 11.9297C23.2449 10.5781 23.9809 9.24375 24.8918 8.02656C27.5027 4.46562 31.2777 1.70938 35.5684 0.578125C36.6918 0.273438 37.8496 0.115625 39.0074 0ZM37.559 2.58594C36.6605 2.67031 35.7918 2.93594 34.9418 3.225C31.4137 4.47656 28.3965 6.975 26.3184 10.0688C25.3715 11.4656 24.6543 12.9984 23.8543 14.4812C22.1715 17.6828 20.4246 20.9375 19.7402 24.5266C21.0465 23.9141 22.3324 23.2531 23.6887 22.7578L23.7059 22.6828C23.9996 22.5922 24.2918 22.4969 24.5777 22.3875C28.5637 20.8406 32.7684 19.8328 37.034 19.5062C37.4043 19.4844 37.8152 19.4641 38.1277 19.7016C38.4324 19.9047 38.5277 20.2797 38.6746 20.5953C38.5777 21.1953 38.173 21.8063 37.5059 21.8172C34.7715 22.0188 32.0605 22.4906 29.4199 23.2297C29.4168 23.575 29.4137 23.9219 29.4105 24.2672C31.1449 24.2516 32.884 24.3125 34.6168 24.2438C35.4684 24.3375 36.3496 24.1531 37.184 24.3844C38.159 24.7156 38.6105 25.7547 38.7715 26.6969C39.5902 26.6984 40.409 26.6984 41.2277 26.6969C41.3855 25.7188 41.8871 24.6344 42.923 24.35C43.7824 24.1766 44.6684 24.3297 45.5371 24.2469C47.2168 24.3109 48.9043 24.2531 50.5871 24.2672C50.584 23.9109 50.5824 23.5562 50.5824 23.2C48.0355 22.5062 45.4277 22.0234 42.7949 21.8438C42.4355 21.8125 42.0387 21.7766 41.7668 21.5094C41.4965 21.2797 41.4387 20.9109 41.3246 20.5953C41.4871 20.1578 41.698 19.6516 42.2027 19.5312C42.7902 19.4219 43.3887 19.5469 43.9762 19.5875C49.6449 20.1406 55.1402 21.9219 60.2371 24.4281C59.6043 21.1844 58.0996 18.2063 56.5762 15.3031C55.9652 14.1422 55.3605 12.9781 54.7387 11.8219C52.9824 8.56563 50.284 5.79531 46.9902 4.08906C44.5105 2.80938 41.684 2.15937 38.8934 2.39219C38.448 2.43594 37.9887 2.44531 37.559 2.58594ZM23.8855 25.1891C23.7652 25.8734 23.7855 26.5688 23.7996 27.2594C23.7949 27.7563 23.7621 28.2578 23.8543 28.7484C24.0121 29.5375 24.6824 30.1938 25.473 30.3375C25.9996 30.4297 26.5355 30.3938 27.0668 30.3938C27.0715 28.9469 27.0715 27.5 27.0684 26.0531C27.073 25.3609 27.073 24.6672 27.0652 23.975C25.9887 24.3344 24.9355 24.7625 23.8855 25.1891ZM52.934 23.9281C52.9262 24.6297 52.9262 25.3297 52.9309 26.0312C52.9277 27.4844 52.9262 28.9391 52.9324 30.3938C53.4621 30.3938 53.9996 30.4297 54.5262 30.3359C55.3699 30.1844 56.0699 29.4453 56.1715 28.5922C56.2277 28.1391 56.2043 27.6828 56.2012 27.2281C56.1934 26.5938 56.2621 25.9484 56.1293 25.3234C56.1105 25.0875 55.8496 25.0312 55.6777 24.9438C54.7699 24.5875 53.859 24.2359 52.934 23.9281ZM58.5559 26.2359C58.5309 27.0641 58.5793 27.8937 58.5215 28.7203C58.3887 30.3578 57.2434 31.8422 55.7152 32.4297C54.8465 32.7875 53.8871 32.7406 52.9668 32.7406C52.9418 33.7984 52.9512 34.8625 52.759 35.9078C52.6027 36.9156 52.2699 37.8844 51.909 38.8344C54.0512 38.8266 56.1918 38.8484 58.334 38.8234C60.1043 35.2625 60.8949 31.2172 60.5949 27.2516C59.9184 26.9062 59.2449 26.5547 58.5559 26.2359ZM19.3887 27.3828C19.1387 31.3062 19.8855 35.3266 21.6887 38.8328C22.7934 38.8359 23.8996 38.8406 25.0043 38.8266C26.0309 38.8406 27.0559 38.8375 28.0824 38.8281C27.7262 37.8797 27.3949 36.9141 27.2387 35.9078C27.0465 34.8641 27.0543 33.7984 27.0324 32.7406C26.2668 32.7375 25.4887 32.7766 24.7418 32.5828C24.1512 32.4281 23.6309 32.0953 23.0902 31.825C22.9465 31.5844 22.734 31.3969 22.5527 31.1875C21.8621 30.4531 21.4918 29.4469 21.4605 28.4469C21.4387 27.7422 21.4605 27.0391 21.4371 26.3359C20.734 26.6453 20.0574 27.0078 19.3887 27.3828ZM29.4262 26.6203C29.3809 27.4375 29.3793 28.2563 29.4152 29.0734C30.5918 29.1625 31.7715 29.125 32.9496 29.1078C34.098 29.1359 35.2465 29.1375 36.3949 29.1094C36.4105 28.2859 36.4105 27.4625 36.4137 26.6406C35.3199 26.5078 34.2184 26.6 33.1199 26.5891C31.8887 26.6375 30.6574 26.5938 29.4262 26.6203ZM43.6152 26.6141C43.5793 27.4453 43.5809 28.2766 43.6059 29.1094C45.9309 29.1281 48.2574 29.1516 50.5809 29.0969C50.5934 28.2703 50.5949 27.4438 50.5762 26.6172C48.2559 26.6094 45.9355 26.6156 43.6152 26.6141ZM38.7715 29.0438C38.6324 29.6719 38.4574 30.3281 37.9965 30.8031C37.6059 31.2563 37.0027 31.4719 36.4137 31.4656C35.2621 31.4781 34.1105 31.4625 32.9605 31.4688C31.7746 31.4703 30.5902 31.4641 29.4043 31.4734C29.1918 33.975 29.4668 36.6109 30.7293 38.825C33.3574 38.8391 35.9871 38.8219 38.6168 38.8422C38.248 38.6594 37.8746 38.4813 37.5434 38.2359C36.4902 37.4578 35.834 36.1484 35.8996 34.8344C35.9293 34.3047 36.3793 33.8469 36.9027 33.7859C37.409 33.7094 37.959 34.0094 38.1309 34.4984C38.2512 34.8844 38.2512 35.3 38.398 35.6781C38.6762 36.2922 39.3277 36.7188 40.0043 36.7062C40.6762 36.7125 41.3293 36.2922 41.5996 35.6781C41.7465 35.2984 41.7465 34.8844 41.8668 34.4969C42.0387 34.0078 42.5902 33.7094 43.0965 33.7859C43.6199 33.8469 44.0668 34.3063 44.0996 34.8344C44.1637 36.1844 43.4699 37.5328 42.3637 38.3C42.0559 38.5125 41.7152 38.675 41.3809 38.8422C44.0121 38.8187 46.6418 38.8438 49.273 38.8297C50.5199 36.6063 50.8152 33.975 50.5887 31.4688C48.309 31.4672 46.0293 31.4688 43.7512 31.4703C43.1496 31.4844 42.5074 31.3406 42.0824 30.8859C41.5684 30.4078 41.3668 29.7094 41.2277 29.0453C40.409 29.0391 39.5902 29.0391 38.7715 29.0438ZM48.8262 74.0687C48.6293 74.4797 48.4246 74.9938 47.9215 75.0922C47.2668 75.2094 46.5965 75.1359 45.9371 75.15C34.9996 75.1562 24.0621 75.1391 13.1246 75.1594C11.9621 75.1422 10.7996 75.1422 9.63711 75.1578C9.61367 75.9891 9.61367 76.8203 9.63555 77.6516C10.798 77.6609 11.9605 77.6609 13.123 77.6516C32.2043 77.6609 51.2855 77.6578 70.3668 77.6531C70.3809 76.8203 70.3809 75.9891 70.3668 75.1562C64.5105 75.1375 58.6543 75.1625 52.798 75.1453C52.1199 75.2141 51.6637 74.6547 51.473 74.0719C50.5902 74.0609 49.709 74.0625 48.8262 74.0687Z" fill="black"/>
<path d="M34.7369 46.1578C35.2088 45.9781 35.7901 46.1422 36.0838 46.5562C36.3448 46.8953 36.2948 47.3468 36.3573 47.7484C36.4713 48.9468 37.2573 50.039 38.326 50.5812C39.3557 51.1172 40.6432 51.1172 41.6713 50.5812C42.6323 50.0937 43.3651 49.1656 43.5854 48.1062C43.6698 47.7062 43.6604 47.2922 43.7479 46.8922C43.8916 46.3656 44.4604 46.0172 44.9948 46.0953C45.5401 46.1484 46.001 46.6343 46.0135 47.1843C46.0776 48.8828 45.3244 50.5422 44.1151 51.7156C44.8416 52.1547 45.4963 52.7093 46.0229 53.3781C46.6635 53.3781 47.3041 53.414 47.9448 53.3687C48.3666 53.3406 48.7619 53.064 48.9385 52.6812C49.0744 52.3187 49.0666 51.9172 49.2213 51.564C49.4307 51.1797 49.8666 50.9359 50.3041 50.9672C50.8635 50.9812 51.3651 51.4593 51.4041 52.0187C51.4885 53.5109 50.4979 54.9672 49.1057 55.489C48.476 55.75 47.7838 55.7328 47.1151 55.7359C47.2432 56.575 47.2682 57.425 47.2432 58.2734C48.4791 58.2859 49.7151 58.2578 50.951 58.2828C51.4401 58.2703 51.8869 58.6187 52.0323 59.0781C52.2026 59.5781 51.9823 60.1765 51.5229 60.439C51.2104 60.6343 50.826 60.6125 50.4729 60.6234C49.3963 60.6187 48.3198 60.614 47.2432 60.6234C47.2666 61.4578 47.2448 62.2937 47.1182 63.1203C47.7916 63.1172 48.4901 63.1015 49.1229 63.3703C50.5198 63.9 51.5119 65.3797 51.3963 66.8812C51.3338 67.475 50.7479 67.9453 50.1557 67.8843C49.6104 67.8562 49.1354 67.4031 49.0963 66.8578C49.0557 66.3062 48.8041 65.7078 48.2291 65.539C47.5198 65.3922 46.7854 65.4984 46.0666 65.4656C45.3276 66.3672 44.3932 67.1312 43.2823 67.5203C42.3869 67.864 41.4166 67.9093 40.4698 67.8968C39.2135 67.8859 37.9119 67.9859 36.7166 67.5203C35.6057 67.1328 34.6698 66.3687 33.9323 65.4656C33.2963 65.4797 32.6588 65.439 32.0244 65.4875C31.6369 65.5156 31.2885 65.764 31.0979 66.0953C30.8744 66.539 30.9807 67.1125 30.6291 67.4984C30.2713 67.9109 29.6119 68.0125 29.1494 67.7187C28.8041 67.514 28.5838 67.1234 28.5901 66.7218C28.5619 65.3125 29.4713 63.9531 30.7682 63.414C31.4276 63.1062 32.1698 63.114 32.8807 63.1203C32.7526 62.2937 32.7291 61.4578 32.7541 60.6234C31.6244 60.6109 30.4932 60.6234 29.3635 60.6203C28.9869 60.6203 28.576 60.5797 28.2916 60.3047C27.7901 59.8765 27.7854 59.0203 28.2791 58.5843C28.5604 58.2906 28.9869 58.2687 29.3682 58.2718C30.4979 58.2734 31.626 58.2781 32.7541 58.2734C32.7291 57.425 32.7541 56.575 32.8838 55.7359C32.2151 55.7328 31.5229 55.75 30.8932 55.4906C29.4557 54.9547 28.4291 53.4078 28.6166 51.8687C28.7682 51.0531 29.8698 50.6734 30.4901 51.225C30.8948 51.5125 30.8885 52.0422 30.9979 52.4765C31.0932 52.9672 31.5635 53.3343 32.0526 53.3687C32.6932 53.414 33.3338 53.3797 33.9744 53.3781C34.5041 52.7109 35.1557 52.1531 35.8869 51.7187C34.6744 50.5453 33.9182 48.8828 33.9838 47.1843C33.9963 46.7297 34.3119 46.3109 34.7369 46.1578ZM35.2854 55.825C38.4276 55.839 41.5713 55.839 44.7135 55.825C44.2041 54.4562 42.8916 53.4047 41.4151 53.3437C40.4713 53.3218 39.5276 53.3218 38.5838 53.3437C37.1088 53.4047 35.7916 54.4562 35.2854 55.825ZM35.1213 58.175C35.0869 59.1468 35.1119 60.1203 35.101 61.0937C35.0994 61.6484 35.0838 62.214 35.2276 62.7578C35.5151 63.8218 36.2635 64.775 37.2823 65.2265C37.7604 65.4531 38.2948 65.5062 38.8151 65.5718C38.8432 63.1093 38.8213 60.6453 38.826 58.1812C37.5916 58.1718 36.3557 58.1797 35.1213 58.175ZM41.1729 58.1812C41.176 60.6453 41.1588 63.1109 41.1823 65.575C41.6604 65.5109 42.1526 65.464 42.601 65.2703C43.6651 64.8328 44.4994 63.8781 44.7791 62.7609C44.9135 62.2156 44.8979 61.65 44.8979 61.0937C44.8869 60.1203 44.9119 59.1484 44.8776 58.175C43.6432 58.1797 42.4073 58.1718 41.1729 58.1812Z" fill="black"/>
<path d="M37.5592 2.58591C37.9889 2.44529 38.4482 2.43591 38.8936 2.39216C41.6842 2.15935 44.5107 2.80935 46.9904 4.08904C50.2842 5.79529 52.9826 8.5656 54.7389 11.8219C55.3607 12.9781 55.9654 14.1422 56.5764 15.3031C58.0998 18.2062 59.6045 21.1844 60.2373 24.4281C55.1404 21.9219 49.6451 20.1406 43.9764 19.5875C43.3889 19.5469 42.7904 19.4219 42.2029 19.5312C41.6982 19.6515 41.4873 20.1578 41.3248 20.5953C40.442 20.5672 39.5576 20.5687 38.6748 20.5953C38.5279 20.2797 38.4326 19.9047 38.1279 19.7015C37.8154 19.464 37.4045 19.4844 37.0342 19.5062C32.7686 19.8328 28.5639 20.8406 24.5779 22.3875C24.292 22.4969 23.9998 22.5922 23.7061 22.6828C24.0451 21.0703 24.6654 19.5344 25.4139 18.0719C26.1404 16.6625 26.8186 15.2281 27.5842 13.839C28.1639 12.7906 28.6451 11.6906 29.2482 10.6547C30.1029 9.16716 31.1514 7.79373 32.3232 6.54373C33.2732 5.60935 34.3092 4.75779 35.4139 4.01404C36.1514 3.57029 36.8826 3.11873 37.5592 2.58591Z" fill="#98BCE5"/>
<path d="M34.9418 3.225C35.7918 2.93594 36.6605 2.67031 37.559 2.58594C36.8824 3.11875 36.1512 3.57031 35.4137 4.01406C34.309 4.75781 33.273 5.60938 32.323 6.54375C31.1512 7.79375 30.1027 9.16719 29.248 10.6547C28.6449 11.6906 28.1637 12.7906 27.584 13.8391C26.8184 15.2281 26.1402 16.6625 25.4137 18.0719C24.6652 19.5344 24.0449 21.0703 23.7059 22.6828L23.6887 22.7578C22.3324 23.2531 21.0465 23.9141 19.7402 24.5266C20.4246 20.9375 22.1715 17.6828 23.8543 14.4813C24.6543 12.9984 25.3715 11.4656 26.3184 10.0688C28.3965 6.975 31.4137 4.47656 34.9418 3.225Z" fill="#7BACDF"/>
<path d="M38.6752 20.5953C39.558 20.5688 40.4424 20.5672 41.3252 20.5953C41.4393 20.911 41.4971 21.2797 41.7674 21.5094C42.0393 21.7766 42.4361 21.8125 42.7955 21.8438C45.4283 22.0235 48.0361 22.5063 50.583 23.2C50.583 23.5563 50.5846 23.911 50.5877 24.2672C48.9049 24.2532 47.2174 24.311 45.5377 24.2469C44.0564 23.7625 42.4908 23.7735 40.9533 23.6922C39.5533 23.6172 38.1549 23.7516 36.7564 23.811C36.0236 23.8407 35.3174 24.0438 34.6174 24.2438C32.8846 24.3125 31.1455 24.2516 29.4111 24.2672C29.4143 23.9219 29.4174 23.575 29.4205 23.2297C32.0611 22.4907 34.7721 22.0188 37.5064 21.8172C38.1736 21.8063 38.5783 21.1953 38.6752 20.5953Z" fill="#FFDFCF"/>
<path d="M29.4049 31.4734C30.5908 31.4641 31.7752 31.4703 32.9611 31.4688C32.9861 33.2609 32.7783 35.1047 33.3252 36.8422C33.5205 37.4656 33.733 38.0844 33.9127 38.7141C32.8517 38.7703 31.7892 38.7578 30.7299 38.825C29.4674 36.6109 29.1924 33.975 29.4049 31.4734Z" fill="#FFDFCF"/>
<path d="M36.7563 23.8109C38.1547 23.7515 39.5531 23.6172 40.9531 23.6922C42.4906 23.7734 44.0562 23.7625 45.5375 24.2469C44.6687 24.3297 43.7828 24.1765 42.9234 24.35C41.8875 24.6344 41.3859 25.7187 41.2281 26.6969C40.4094 26.6984 39.5906 26.6984 38.7719 26.6969C38.6109 25.7547 38.1594 24.7156 37.1844 24.3844C36.35 24.1531 35.4688 24.3375 34.6172 24.2437C35.3172 24.0437 36.0234 23.8406 36.7563 23.8109Z" fill="#FFEEE6"/>
<path d="M38.7717 29.0437C39.5904 29.0391 40.4092 29.0391 41.2279 29.0453C41.367 29.7094 41.5686 30.4078 42.0826 30.8859C42.5076 31.3406 43.1498 31.4844 43.7514 31.4703C46.0295 31.4687 48.3092 31.4672 50.5889 31.4687C50.8154 33.975 50.5201 36.6062 49.2732 38.8297C46.642 38.8437 44.0123 38.8187 41.3811 38.8422C41.7154 38.675 42.0561 38.5125 42.3639 38.3C43.4701 37.5328 44.1639 36.1844 44.0998 34.8344C44.067 34.3062 43.6201 33.8469 43.0967 33.7859C42.5904 33.7094 42.0389 34.0078 41.867 34.4969C41.7467 34.8844 41.7467 35.2984 41.5998 35.6781C41.3295 36.2922 40.6764 36.7125 40.0045 36.7062C39.3279 36.7187 38.6764 36.2922 38.3982 35.6781C38.2514 35.3 38.2514 34.8844 38.1311 34.4984C37.9592 34.0094 37.4092 33.7094 36.9029 33.7859C36.3795 33.8469 35.9295 34.3047 35.8998 34.8344C35.8342 36.1484 36.4904 37.4578 37.5436 38.2359C37.8748 38.4812 38.2482 38.6594 38.617 38.8422C35.9873 38.8219 33.3576 38.8391 30.7295 38.825C31.7889 38.7578 32.8514 38.7703 33.9123 38.7141C33.7326 38.0844 33.5201 37.4656 33.3248 36.8422C32.7779 35.1047 32.9857 33.2609 32.9607 31.4687C34.1107 31.4625 35.2623 31.4781 36.4139 31.4656C37.0029 31.4719 37.6061 31.2562 37.9967 30.8031C38.4576 30.3281 38.6326 29.6719 38.7717 29.0437Z" fill="#FFEEE6"/>
<path d="M23.8858 25.189C24.9358 24.7625 25.9889 24.3344 27.0655 23.975C27.0733 24.6672 27.0733 25.3609 27.0686 26.0531C25.9748 26.4469 24.9076 26.9094 23.7998 27.2594C23.7858 26.5687 23.7655 25.8734 23.8858 25.189Z" fill="#FFB09E"/>
<path d="M52.9341 23.9281C53.8591 24.2359 54.77 24.5875 55.6778 24.9437C55.8497 25.0312 56.1106 25.0875 56.1294 25.3234C56.2622 25.9484 56.1934 26.5937 56.2012 27.2281C55.1106 26.8297 54.0403 26.375 52.9309 26.0312C52.9262 25.3297 52.9262 24.6297 52.9341 23.9281Z" fill="#FFB09E"/>
<path d="M23.7995 27.2594C24.9073 26.9094 25.9745 26.4469 27.0683 26.0531C27.0714 27.5 27.0714 28.9469 27.0667 30.3937C26.5355 30.3937 25.9995 30.4297 25.473 30.3375C24.6823 30.1937 24.012 29.5375 23.8542 28.7484C23.762 28.2578 23.7948 27.7562 23.7995 27.2594Z" fill="#FFCEBF"/>
<path d="M52.9305 26.0312C54.0398 26.375 55.1102 26.8297 56.2008 27.2281C56.2039 27.6828 56.2273 28.1391 56.1711 28.5922C56.0695 29.4453 55.3695 30.1844 54.5258 30.3359C53.9992 30.4297 53.4617 30.3937 52.932 30.3937C52.9258 28.9391 52.9273 27.4844 52.9305 26.0312Z" fill="#FFCEBF"/>
<path d="M58.5561 26.236C59.2451 26.5547 59.9186 26.9063 60.5951 27.2516C60.8951 31.2172 60.1045 35.2625 58.3342 38.8235C56.192 38.8485 54.0514 38.8266 51.9092 38.8344C52.2701 37.8844 52.6029 36.9156 52.7592 35.9078C52.9514 34.8625 52.942 33.7985 52.967 32.7406C53.8873 32.7406 54.8467 32.7875 55.7154 32.4297C57.2436 31.8422 58.3889 30.3578 58.5217 28.7203C58.5795 27.8938 58.5311 27.0641 58.5561 26.236Z" fill="#548EB5"/>
<path d="M23.0898 31.825C23.6305 32.0953 24.1508 32.4281 24.7414 32.5828C25.4883 32.7766 26.2664 32.7375 27.032 32.7406C27.0539 33.7984 27.0461 34.8641 27.2383 35.9078C27.3945 36.9141 27.7258 37.8797 28.082 38.8281C27.0555 38.8375 26.0305 38.8406 25.0039 38.8266C24.0695 36.5891 23.2633 34.2609 23.0898 31.825Z" fill="#548EB5"/>
<path d="M48.8262 74.0687C49.709 74.0625 50.5902 74.0609 51.473 74.0719C51.6637 74.6547 52.1199 75.214 52.7981 75.1453C58.6543 75.1625 64.5106 75.1375 70.3668 75.1562C70.3809 75.9891 70.3809 76.8203 70.3668 77.6531C51.2856 77.6578 32.2043 77.6609 13.123 77.6516C13.134 76.8203 13.134 75.989 13.1246 75.1594C24.0621 75.139 34.9996 75.1562 45.9371 75.15C46.5965 75.1359 47.2668 75.2094 47.9215 75.0922C48.4246 74.9937 48.6293 74.4797 48.8262 74.0687Z" fill="#548EB5"/>
<path d="M19.3897 27.3828C20.0584 27.0078 20.735 26.6453 21.4381 26.3359C21.4616 27.0391 21.4397 27.7422 21.4616 28.4469C21.4928 29.4469 21.8631 30.4531 22.5537 31.1875C22.735 31.3969 22.9475 31.5844 23.0912 31.825C23.2647 34.2609 24.0709 36.5891 25.0053 38.8266C23.9006 38.8406 22.7944 38.8359 21.6897 38.8328C19.8866 35.3266 19.1397 31.3062 19.3897 27.3828Z" fill="#497090"/>
<path d="M9.6379 75.1578C10.8004 75.1422 11.9629 75.1422 13.1254 75.1594C13.1348 75.9891 13.1348 76.8203 13.1238 77.6516C11.9613 77.661 10.7988 77.661 9.63633 77.6516C9.61446 76.8203 9.61446 75.9891 9.6379 75.1578Z" fill="#497090"/>
<path d="M29.4267 26.6203C30.658 26.5937 31.8892 26.6375 33.1205 26.589C34.2189 26.6 35.3205 26.5078 36.4142 26.6406C35.2674 26.6828 34.1205 26.6125 32.9752 26.6937C32.9346 27.4984 32.9252 28.3031 32.9502 29.1078C31.7721 29.125 30.5924 29.1625 29.4158 29.0734C29.3799 28.2562 29.3814 27.4375 29.4267 26.6203Z" fill="#333333"/>
<path d="M43.6155 26.6141C45.9358 26.6156 48.2561 26.6094 50.5765 26.6172C50.5952 27.4437 50.5936 28.2703 50.5811 29.0969C48.2577 29.1516 45.9311 29.1281 43.6061 29.1094C43.5811 28.2766 43.5796 27.4453 43.6155 26.6141Z" fill="#606060"/>
<path d="M32.9753 26.6937C34.1206 26.6125 35.2675 26.6828 36.4144 26.6406C36.4113 27.4625 36.4113 28.2859 36.3956 29.1094C35.2472 29.1375 34.0988 29.1359 32.9503 29.1078C32.9253 28.3031 32.9347 27.4984 32.9753 26.6937Z" fill="#606060"/>
<path d="M12.0531 41.1781C13.1984 41.175 14.3453 41.1766 15.4922 41.1781C15.5484 42.8156 15.5141 44.4547 15.5219 46.0938C15.5203 54.4781 15.5266 62.8641 15.5188 71.25C15.525 71.7688 15.5516 72.2875 15.5813 72.8063C14.4047 72.8063 13.2281 72.8078 12.0516 72.8047C12.0531 69.2109 12.0484 65.6172 12.0563 62.0234C12.0438 61.6375 12.0406 61.1969 11.7484 60.9031C11.4953 60.6594 11.1484 60.5594 10.8359 60.4141C10.8438 59.5563 10.8422 58.6984 10.8375 57.8406C11.175 57.6859 11.5719 57.5938 11.8109 57.2875C12.0406 56.9969 12.0438 56.6094 12.0547 56.2578C12.0484 51.2313 12.0531 46.2047 12.0531 41.1781Z" fill="#D8ECFE"/>
<path d="M15.4922 41.1781C32.9781 41.1766 50.4625 41.175 67.9484 41.1781C67.9484 51.7203 67.9484 62.2625 67.9484 72.8047C63.2672 72.8078 58.5875 72.8094 53.9078 72.8031C53.3563 72.8156 52.7891 72.7453 52.2516 72.8953C51.7688 73.0531 51.6203 73.5828 51.4469 74.0031C50.5781 74.0031 49.7094 74.0031 48.8406 74C48.6734 73.5781 48.5234 73.05 48.0391 72.8969C47.4578 72.736 46.8438 72.8219 46.25 72.8047C36.0266 72.8094 25.8047 72.8063 15.5812 72.8063C15.5516 72.2875 15.525 71.7688 15.5187 71.25C15.5266 62.8641 15.5203 54.4781 15.5219 46.0938C15.5141 44.4547 15.5484 42.8156 15.4922 41.1781ZM34.7375 46.1578C34.3125 46.3109 33.9969 46.7297 33.9844 47.1844C33.9188 48.8828 34.675 50.5453 35.8875 51.7188C35.1563 52.1531 34.5047 52.7109 33.975 53.3781C33.3344 53.3797 32.6938 53.4141 32.0531 53.3688C31.5641 53.3344 31.0938 52.9672 30.9984 52.4766C30.8891 52.0422 30.8953 51.5125 30.4906 51.225C29.8703 50.6734 28.7688 51.0531 28.6172 51.8688C28.4297 53.4078 29.4563 54.9547 30.8938 55.4906C31.5234 55.75 32.2156 55.7328 32.8844 55.7359C32.7547 56.575 32.7297 57.425 32.7547 58.2734C31.6266 58.2781 30.4984 58.2734 29.3688 58.2719C28.9875 58.2688 28.5609 58.2906 28.2797 58.5844C27.7859 59.0203 27.7906 59.8766 28.2922 60.3047C28.5766 60.5797 28.9875 60.6203 29.3641 60.6203C30.4937 60.6234 31.625 60.6109 32.7547 60.6234C32.7297 61.4578 32.7531 62.2938 32.8813 63.1203C32.1703 63.1141 31.4281 63.1063 30.7688 63.4141C29.4719 63.9531 28.5625 65.3125 28.5906 66.7219C28.5844 67.1234 28.8047 67.5141 29.15 67.7188C29.6125 68.0125 30.2719 67.9109 30.6297 67.4984C30.9813 67.1125 30.875 66.5391 31.0984 66.0953C31.2891 65.7641 31.6375 65.5156 32.025 65.4875C32.6594 65.4391 33.2969 65.4797 33.9328 65.4656C34.6703 66.3688 35.6063 67.1328 36.7172 67.5203C37.9125 67.986 39.2141 67.886 40.4703 67.8969C41.4172 67.9094 42.3875 67.8641 43.2828 67.5203C44.3938 67.1313 45.3281 66.3672 46.0672 65.4656C46.7859 65.4985 47.5203 65.3922 48.2297 65.5391C48.8047 65.7078 49.0563 66.3063 49.0969 66.8578C49.1359 67.4031 49.6109 67.8563 50.1563 67.8844C50.7484 67.9453 51.3344 67.475 51.3969 66.8813C51.5125 65.3797 50.5203 63.9 49.1234 63.3703C48.4906 63.1016 47.7922 63.1172 47.1188 63.1203C47.2453 62.2938 47.2672 61.4578 47.2438 60.6234C48.3203 60.6141 49.3969 60.6188 50.4734 60.6234C50.8266 60.6125 51.2109 60.6344 51.5234 60.4391C51.9828 60.1766 52.2031 59.5781 52.0328 59.0781C51.8875 58.6188 51.4406 58.2703 50.9516 58.2828C49.7156 58.2578 48.4797 58.2859 47.2438 58.2734C47.2688 57.425 47.2438 56.575 47.1156 55.7359C47.7844 55.7328 48.4766 55.75 49.1063 55.4891C50.4984 54.9672 51.4891 53.5109 51.4047 52.0188C51.3656 51.4594 50.8641 50.9813 50.3047 50.9672C49.8672 50.9359 49.4313 51.1797 49.2219 51.5641C49.0672 51.9172 49.075 52.3188 48.9391 52.6813C48.7625 53.0641 48.3672 53.3406 47.9453 53.3688C47.3047 53.4141 46.6641 53.3781 46.0234 53.3781C45.4969 52.7094 44.8422 52.1547 44.1156 51.7156C45.325 50.5422 46.0781 48.8828 46.0141 47.1844C46.0016 46.6344 45.5406 46.1484 44.9953 46.0953C44.4609 46.0172 43.8922 46.3656 43.7484 46.8922C43.6609 47.2922 43.6703 47.7063 43.5859 48.1063C43.3656 49.1656 42.6328 50.0938 41.6719 50.5813C40.6438 51.1172 39.3563 51.1172 38.3266 50.5813C37.2578 50.0391 36.4719 48.9469 36.3578 47.7484C36.2953 47.3469 36.3453 46.8953 36.0844 46.5563C35.7906 46.1422 35.2094 45.9781 34.7375 46.1578Z" fill="#F5FCFF"/>
<path d="M35.2861 55.825C35.7924 54.4562 37.1096 53.4047 38.5846 53.3437C39.5283 53.3219 40.4721 53.3219 41.4158 53.3437C42.8924 53.4047 44.2049 54.4562 44.7143 55.825C41.5721 55.8391 38.4283 55.8391 35.2861 55.825Z" fill="#F07281"/>
<path d="M35.1221 58.175C36.3565 58.1797 37.5925 58.1719 38.8268 58.1812C38.8221 60.6453 38.844 63.1094 38.8159 65.5719C38.2956 65.5062 37.7612 65.4531 37.2831 65.2266C36.2643 64.775 35.5159 63.8219 35.2284 62.7578C35.0846 62.214 35.1003 61.6484 35.1018 61.0937C35.1128 60.1203 35.0878 59.1469 35.1221 58.175Z" fill="#F07281"/>
<path d="M41.1741 58.1812C42.4084 58.1719 43.6444 58.1797 44.8788 58.175C44.9131 59.1484 44.8881 60.1203 44.8991 61.0937C44.8991 61.65 44.9147 62.2156 44.7803 62.7609C44.5006 63.8781 43.6663 64.8328 42.6022 65.2703C42.1538 65.4641 41.6616 65.5109 41.1834 65.575C41.16 63.1109 41.1772 60.6453 41.1741 58.1812Z" fill="#F07281"/>
</g>
<defs>
<clipPath id="clip0_290_2559">
<rect width="80" height="80" fill="white"/>
</clipPath>
</defs>
</svg>
