<svg width="40" height="40" viewBox="0 0 40 40" fill="none" xmlns="http://www.w3.org/2000/svg">
<path d="M29.1561 18.75C29.2186 18.8437 29.3749 18.7812 29.3749 18.6875C29.5624 17 30.0624 12.3437 33.3749 11.3437C34.4374 11.0312 35.4999 11.7812 35.6249 12.75C35.8436 14.3125 34.0624 18.3437 34.2186 22.0312C34.2499 22.625 35.2499 28.9062 32.5936 32.625C29.9374 36.3437 23.6249 40.125 17.3436 34.375C14.0936 31.4062 14.0936 30.2187 10.0624 26.0625C9.24987 25.25 5.99987 21.6875 5.12487 20.5937C3.96862 19.125 5.81237 17.1875 7.21862 18.1875C7.87487 18.6562 13.6874 23.5312 13.9061 23.75C14.3436 24.125 14.8749 23.5937 14.5624 23.2187C10.9999 18.5312 7.56237 14.3125 6.62487 12.6875C5.68737 11.0625 7.93737 9.31249 9.24987 10.7187C10.1561 11.6562 16.8749 19.5 17.1874 19.8437C17.4999 20.1875 18.0311 19.75 17.8436 19.3125C17.6249 18.9062 12.1874 9.43749 11.2186 7.28124C10.3749 5.37499 13.1874 3.59374 14.4999 5.56249C15.5624 7.12499 21.4999 17 21.7186 17.3437C21.9999 17.8437 22.6249 17.5312 22.3749 16.9687C22.1874 16.5625 18.5311 6.56249 18.2499 5.53124C17.7499 3.71874 20.3436 2.21874 21.5624 4.28124C23.2186 7.12499 26.4999 15.8125 29.1561 18.75Z" fill="#FFCA28"/>
<mask id="mask0_111_1132" style="mask-type:luminance" maskUnits="userSpaceOnUse" x="4" y="3" width="32" height="35">
<path d="M29.1561 18.75C29.2186 18.8437 29.3749 18.7812 29.3749 18.6875C29.5624 17 30.0624 12.3437 33.3749 11.3437C34.4374 11.0312 35.4999 11.7812 35.6249 12.75C35.8436 14.3125 34.0624 18.3437 34.2186 22.0312C34.2499 22.625 35.2499 28.9062 32.5936 32.625C29.9374 36.3437 23.6249 40.125 17.3436 34.375C14.0936 31.4062 14.0936 30.2187 10.0624 26.0625C9.24987 25.25 5.99987 21.6875 5.12487 20.5937C3.96862 19.125 5.81237 17.1875 7.21862 18.1875C7.87487 18.6562 13.6874 23.5312 13.9061 23.75C14.3436 24.125 14.8749 23.5937 14.5624 23.2187C10.9999 18.5312 7.56237 14.3125 6.62487 12.6875C5.68737 11.0625 7.93737 9.31249 9.24987 10.7187C10.1561 11.6562 16.8749 19.5 17.1874 19.8437C17.4999 20.1875 18.0311 19.75 17.8436 19.3125C17.6249 18.9062 12.1874 9.43749 11.2186 7.28124C10.3749 5.37499 13.1874 3.59374 14.4999 5.56249C15.5624 7.12499 21.4999 17 21.7186 17.3437C21.9999 17.8437 22.6249 17.5312 22.3749 16.9687C22.1874 16.5625 18.5311 6.56249 18.2499 5.53124C17.7499 3.71874 20.3436 2.21874 21.5624 4.28124C23.2186 7.12499 26.4999 15.8125 29.1561 18.75Z" fill="white"/>
</mask>
<g mask="url(#mask0_111_1132)">
<path d="M28.4997 18.8125C24.6247 21.9687 22.906 26.4687 26.0935 31.1562C26.3747 31.5625 26.9685 31.1875 26.7185 30.7187C25.406 28.375 24.4372 24.1562 28.9685 19.75C29.4997 20 30.1247 19.4687 30.156 19C30.4997 16.0625 30.8435 13.625 33.031 12.25C33.8747 11.7187 34.9685 12.0937 35.031 13.375C35.031 13.375 35.7185 13.4375 35.9997 13.4687C36.156 12.8125 36.4685 11.625 36.4685 11.5937C36.4685 11.5625 32.781 10.1875 32.781 10.1875L29.5622 13.375L28.4997 18.8125ZM22.2497 17.5312C22.6872 17.3125 23.0622 16.9687 22.8747 16.5C22.6872 16 19.2185 6.56249 18.9997 5.84374C18.5622 4.53124 19.656 3.49999 20.6247 3.93749C21.156 4.18749 21.406 3.34374 21.1247 3.21874C20.8435 3.09374 20.1872 2.49999 18.8747 3.15624C16.531 4.34374 17.906 6.96874 18.531 8.49999C19.156 10.0312 22.2497 17.5312 22.2497 17.5312ZM17.7185 19.875C18.2497 19.5 18.656 19.1875 18.1872 18.4375C17.8747 17.9375 12.5935 8.34374 12.0622 7.40624C11.281 6.06249 12.906 4.87499 13.8122 5.71874C14.2185 6.09374 14.8435 5.28124 14.531 4.96874C14.2185 4.65624 13.1247 3.74999 11.7497 4.65624C10.3747 5.56249 10.3435 6.65624 10.531 7.12499C10.6872 7.59374 17.7185 19.875 17.7185 19.875ZM14.5935 23.7187C14.9685 23.1562 15.2185 22.875 14.6872 22.1562C14.156 21.4375 7.84346 13.1875 7.4997 12.7187C6.62471 11.5625 7.90595 10.5625 8.53095 10.9062C9.1247 11.25 9.46846 10.2812 8.96846 10.0312C8.46846 9.78124 7.65596 9.49999 6.90596 10.0312C6.15596 10.5625 5.71846 11.6562 5.84346 12.2812C5.93721 12.9062 14.5935 23.7187 14.5935 23.7187Z" fill="#FAA700"/>
<path d="M29.0002 35.5C23.9377 37.9062 20.1564 36.0312 17.7189 33.6562C14.9377 30.9375 13.6252 28.4375 11.7814 26.75C11.1564 26.1562 6.21893 20.9062 5.62518 20C5.15643 19.25 6.09393 17.9687 7.12518 18.6875C7.78143 19.125 8.09393 18.1875 7.65643 17.9375C7.21893 17.6875 6.25018 17.1562 5.21893 17.9375C4.18768 18.6875 4.15643 20.0312 4.40643 20.4687C4.65643 20.9062 19.8439 38.3437 19.8439 38.3437L26.0314 38.1875L29.3439 36.1562L29.0002 35.5Z" fill="#FAA700"/>
</g>
<mask id="mask1_111_1132" style="mask-type:luminance" maskUnits="userSpaceOnUse" x="4" y="3" width="32" height="35">
<path d="M29.1561 18.75C29.2186 18.8437 29.3749 18.7812 29.3749 18.6875C29.5624 17 30.0624 12.3437 33.3749 11.3437C34.4374 11.0312 35.4999 11.7812 35.6249 12.75C35.8436 14.3125 34.0624 18.3437 34.2186 22.0312C34.2499 22.625 35.2499 28.9062 32.5936 32.625C29.9374 36.3437 23.6249 40.125 17.3436 34.375C14.0936 31.4062 14.0936 30.2187 10.0624 26.0625C9.24987 25.25 5.99987 21.6875 5.12487 20.5937C3.96862 19.125 5.81237 17.1875 7.21862 18.1875C7.87487 18.6562 13.6874 23.5312 13.9061 23.75C14.3436 24.125 14.8749 23.5937 14.5624 23.2187C10.9999 18.5312 7.56237 14.3125 6.62487 12.6875C5.68737 11.0625 7.93737 9.31249 9.24987 10.7187C10.1561 11.6562 16.8749 19.5 17.1874 19.8437C17.4999 20.1875 18.0311 19.75 17.8436 19.3125C17.6249 18.9062 12.1874 9.43749 11.2186 7.28124C10.3749 5.37499 13.1874 3.59374 14.4999 5.56249C15.5624 7.12499 21.4999 17 21.7186 17.3437C21.9999 17.8437 22.6249 17.5312 22.3749 16.9687C22.1874 16.5625 18.5311 6.56249 18.2499 5.53124C17.7499 3.71874 20.3436 2.21874 21.5624 4.28124C23.2186 7.12499 26.4999 15.8125 29.1561 18.75Z" fill="white"/>
</mask>
<g mask="url(#mask1_111_1132)">
<path d="M34.8438 11.25C35.0001 11.6562 35.1876 12.375 35.0001 13.3437C34.2813 16.9687 33.0938 19.0937 33.4688 23C34.1563 30.5 31.5313 36.1875 22.5001 37.3125C21.5938 37.4375 21.8438 38.125 22.3126 38.0625C22.5313 38.0312 28.9688 36.875 28.9688 36.875C28.9688 36.875 34.9376 31.7812 34.9376 31.7187C34.9376 31.6562 36.4376 12.2187 36.4376 12.2187L34.8438 11.25ZM19.2188 3.28125C19.6251 3.34375 20.5001 3.6875 21.1251 4.90625C21.7501 6.125 24.8126 13.1562 25.2188 13.9062C25.6251 14.6562 27.2813 18.375 28.6251 19.5C29.0626 19.8437 29.2813 19.25 29.2813 19.25L29.3126 18.2812L22.0626 1.78125L19.6563 1.875L19.2188 3.28125ZM22.2501 17.5312C21.6563 17.8125 21.2188 18.0625 20.7813 17.375C20.5001 16.875 17.4688 11.6875 13.6563 5.625C13.3438 5.15625 12.6251 4.75 12.0626 4.96875C11.5001 5.21875 11.3751 4.5 11.6563 4.34375C11.9376 4.1875 13.6876 3.21875 14.8751 5.21875C16.0626 7.21875 22.2501 17.5312 22.2501 17.5312ZM17.7188 19.875C17.2501 20.2187 16.7813 20.6562 16.1876 19.9375C15.6251 19.25 9.21884 11.625 8.84384 11.1562C8.46884 10.6875 7.68759 10.2812 7.09384 10.6562C6.68759 10.9062 6.31259 10.1562 6.56259 9.96875C6.81259 9.78125 8.21884 8.53125 9.15634 9.59375C10.0938 10.6562 17.7188 19.875 17.7188 19.875ZM14.5938 23.7188C14.1876 24.1562 13.7501 24.4062 13.1563 23.9687C12.5626 23.5312 7.25009 19.0625 6.90634 18.75C6.56259 18.4375 5.56259 17.9687 4.81259 18.7187C4.53134 19 4.03134 18.5312 4.31259 18.25C4.59384 17.9375 6.12509 16.375 7.34384 17.4062C8.56259 18.4375 14.5938 23.7188 14.5938 23.7188Z" fill="#B55E19"/>
</g>
<path d="M3.31277 25.4062C4.28152 28.2812 5.75027 30.0625 8.15652 31.6875C8.59402 32 8.34402 32.625 7.84402 32.4062C5.59402 31.5 3.09402 29.5 2.50027 25.5312C2.40652 25 3.15652 24.9062 3.31277 25.4062ZM5.18777 23.6875C6.15652 26.5625 7.62527 28.3437 10.0315 29.9687C10.469 30.2812 10.219 30.9062 9.71902 30.6875C7.46902 29.7812 4.96902 27.7812 4.37527 23.8125C4.31277 23.2812 5.03152 23.1875 5.18777 23.6875ZM29.219 10.8125C28.469 7.87499 27.094 5.99999 24.8128 4.24999C24.3753 3.93749 24.6878 3.31249 25.1878 3.53124C27.3753 4.56249 29.7503 6.74999 30.0628 10.75C30.094 11.2812 29.344 11.3437 29.219 10.8125ZM31.2503 9.31249C30.5003 6.37499 29.1253 4.49999 26.844 2.74999C26.4065 2.43749 26.719 1.81249 27.219 2.03124C29.4065 3.06249 31.7815 5.24999 32.094 9.24999C32.1253 9.74999 31.4065 9.81249 31.2503 9.31249Z" fill="#B0BEC5"/>
</svg>
