<svg width="450" height="250" viewBox="0 0 450 250" fill="none" xmlns="http://www.w3.org/2000/svg">
<path d="M387.768 90.5113C391.509 88.0012 392.507 82.9337 389.997 79.1927C387.486 75.4517 382.419 74.4539 378.678 76.9639C374.937 79.474 373.939 84.5415 376.449 88.2825C378.959 92.0235 384.027 93.0214 387.768 90.5113Z" fill="#E0E0E0"/>
<path d="M359.006 92.4217C363.804 92.4217 367.694 88.5321 367.694 83.734C367.694 78.936 363.804 75.0464 359.006 75.0464C354.208 75.0464 350.318 78.936 350.318 83.734C350.318 88.5321 354.208 92.4217 359.006 92.4217Z" fill="#E0E0E0"/>
<path d="M340.397 77.5797C345.488 77.5797 349.615 73.4526 349.615 68.3615C349.615 63.2705 345.488 59.1433 340.397 59.1433C335.306 59.1433 331.179 63.2705 331.179 68.3615C331.179 73.4526 335.306 77.5797 340.397 77.5797Z" fill="#E0E0E0"/>
<path d="M336.617 54.3684C341.935 54.3684 346.246 50.0572 346.246 44.739C346.246 39.4208 341.935 35.1096 336.617 35.1096C331.299 35.1096 326.987 39.4208 326.987 44.739C326.987 50.0572 331.299 54.3684 336.617 54.3684Z" fill="#E0E0E0"/>
<path d="M348.415 34.0088C353.913 34.0088 358.37 29.5521 358.37 24.0544C358.37 18.5568 353.913 14.1001 348.415 14.1001C342.918 14.1001 338.461 18.5568 338.461 24.0544C338.461 29.5521 342.918 34.0088 348.415 34.0088Z" fill="#E0E0E0"/>
<path d="M371.075 26.7271C377.067 26.7271 381.925 21.8696 381.925 15.8775C381.925 9.88538 377.067 5.02783 371.075 5.02783C365.083 5.02783 360.226 9.88538 360.226 15.8775C360.226 21.8696 365.083 26.7271 371.075 26.7271Z" fill="#E0E0E0"/>
<path d="M408.855 69.9573C409.85 65.7213 407.222 61.4812 402.986 60.4868C398.75 59.4925 394.51 62.1204 393.515 66.3565C392.521 70.5926 395.149 74.8327 399.385 75.827C403.621 76.8214 407.861 74.1934 408.855 69.9573Z" fill="#E0E0E0"/>
<path d="M405.423 51.782C409.459 51.782 412.731 48.51 412.731 44.4738C412.731 40.4375 409.459 37.1655 405.423 37.1655C401.386 37.1655 398.114 40.4375 398.114 44.4738C398.114 48.51 401.386 51.782 405.423 51.782Z" fill="#E0E0E0"/>
<path d="M393.266 30.4607C396.954 30.4607 399.944 27.4708 399.944 23.7825C399.944 20.0942 396.954 17.1042 393.266 17.1042C389.578 17.1042 386.588 20.0942 386.588 23.7825C386.588 27.4708 389.578 30.4607 393.266 30.4607Z" fill="#E0E0E0"/>
<path d="M113.404 18.1853C114.144 18.0221 114.905 17.9817 115.658 18.066C117.418 18.2373 119.09 18.9138 120.474 20.014C121.858 21.1142 122.894 22.5911 123.457 24.2667C123.99 25.8452 124.089 27.538 123.743 29.1676C123.351 30.9773 122.427 32.6287 121.09 33.9094C119.666 35.2983 117.833 36.1931 115.861 36.4617C113.89 36.7303 111.885 36.3587 110.141 35.4015C108.517 34.514 107.194 33.1635 106.341 31.5219C105.573 30.0427 105.218 28.3842 105.313 26.7205C105.393 25.2768 105.814 23.8726 106.54 22.622C107.579 20.7974 109.22 19.3908 111.182 18.6429C111.882 18.3624 112.624 18.1988 113.377 18.1588C113.377 18.2251 112.581 18.2848 111.255 18.822C109.386 19.6197 107.838 21.0206 106.858 22.8011C106.137 24.0977 105.751 25.5541 105.736 27.0378C105.721 28.5215 106.077 29.9854 106.772 31.2964C107.164 32.0516 107.67 32.7426 108.271 33.3457C108.895 33.988 109.621 34.5234 110.419 34.9307C112.068 35.8302 113.962 36.179 115.823 35.926C117.684 35.6731 119.416 34.8317 120.765 33.5247C122.028 32.3148 122.903 30.7566 123.278 29.0482C123.615 27.5081 123.538 25.9062 123.053 24.406C122.628 23.0897 121.899 21.8922 120.924 20.911C119.505 19.4539 117.636 18.5191 115.619 18.2583C114.882 18.1969 114.143 18.1726 113.404 18.1853Z" fill="#E0E0E0"/>
<path d="M116.859 6.5266C116.859 6.5266 116.813 6.43375 116.733 6.22817L116.375 5.33287C116.05 4.50389 115.592 3.30354 114.989 1.75833L115.082 1.81138L106.686 2.99847L106.799 2.8791C106.673 4.42431 106.527 6.14195 106.374 7.97896V8.07181L106.288 8.1116C104.595 8.81936 103.004 9.75175 101.559 10.8837L101.48 10.95L101.38 10.9036L96.7381 8.79467L96.9636 8.73499L91.8505 15.4928V15.2408L95.1664 19.1602L95.2526 19.2597L95.1996 19.379C94.5055 21.0786 94.0394 22.8626 93.8135 24.6845V24.8237L93.6809 24.8702L88.8861 26.6674L89.0386 26.422C89.3967 29.0747 89.788 31.9065 90.1859 34.8179L89.9671 34.6123L95.0669 35.0566H95.2194L95.2791 35.1959C95.9833 36.8807 96.9089 38.4641 98.0313 39.9045L98.1242 40.0238L98.0579 40.1631C97.3947 41.6287 96.6718 43.2204 95.9357 44.8054L95.8627 44.4937L102.607 49.6267H102.282L106.208 46.3108L106.328 46.2113L106.474 46.271C108.162 46.9659 109.935 47.4342 111.746 47.6637C111.839 47.7366 111.534 47.4979 111.958 47.8361V47.9157L112.018 48.0616L112.131 48.3667L112.356 48.9702L112.8 50.1705C113.105 50.973 113.397 51.7688 113.696 52.5646L113.417 52.3988L121.82 51.2581L121.594 51.4902C121.744 49.7748 121.895 48.0749 122.045 46.3904V46.2379L122.191 46.1782C123.878 45.4762 125.463 44.5529 126.906 43.4326L127.026 43.3398L127.165 43.3994L131.807 45.5282L131.509 45.6078L136.648 38.8633V39.1683C135.534 37.842 134.433 36.5156 133.332 35.2357L133.24 35.1229L133.299 34.9969C133.998 33.2981 134.469 31.514 134.699 29.6915V29.5589L134.825 29.5124L139.626 27.7285L139.487 27.9606C139.089 25.0028 138.717 22.2108 138.366 19.5581L138.545 19.7305L133.445 19.2663H133.332L133.286 19.1668C132.609 17.5185 131.722 15.9648 130.647 14.5445L130.587 14.4582L130.627 14.3654C131.403 12.6743 132.106 11.1556 132.769 9.72313L132.815 9.90882L126.09 4.74264H126.236L122.257 8.00549H122.218H122.171C120.887 7.46873 119.555 7.05568 118.192 6.77197L117.184 6.58628L116.846 6.51996C116.961 6.51092 117.076 6.51092 117.191 6.51996C117.416 6.51996 117.754 6.58628 118.212 6.6725C119.576 6.9178 120.909 7.30682 122.191 7.83306H122.105C123.173 6.9245 124.446 5.84352 126.011 4.51716L126.077 4.45747L126.157 4.51053L132.921 9.61702L133.021 9.68997L132.968 9.80271C132.305 11.2484 131.641 12.7738 130.859 14.445V14.2659C132.009 15.7357 132.957 17.3527 133.677 19.074L133.525 18.9612L138.625 19.3989H138.784V19.5581C139.149 22.2108 139.527 24.9962 139.938 27.954V28.1264L139.779 28.1861L134.984 29.9833L135.13 29.8042C134.896 31.6604 134.419 33.4777 133.71 35.2092L133.671 34.9704C134.754 36.2481 135.859 37.5546 136.987 38.8898L137.113 39.0357L136.993 39.1882L131.867 45.9394L131.747 46.0986L131.568 46.0124L126.926 43.8968H127.185C125.705 45.0466 124.08 45.9944 122.35 46.7153L122.509 46.5031C122.363 48.1876 122.211 49.8853 122.065 51.603V51.8086H121.859L113.464 52.9559H113.258L113.185 52.7569L112.29 50.3695L111.839 49.1625L111.613 48.559L111.501 48.2606L111.441 48.108V48.0351V47.9953C111.865 48.3335 111.56 48.0881 111.653 48.1611C109.796 47.9276 107.979 47.4481 106.248 46.7352L106.52 46.6954L102.587 50.0113L102.428 50.144L102.269 50.018L95.498 44.9181L95.3322 44.7987L95.4184 44.6131L97.5472 39.9708L97.5804 40.2294C96.4326 38.7499 95.487 37.1241 94.7685 35.3948L94.9741 35.5474L89.8742 35.0964H89.6819V34.9041C89.284 31.9861 88.906 29.1411 88.5479 26.5016V26.3159L88.7203 26.2562L93.5151 24.4656L93.3758 24.6513C93.6076 22.7955 94.0895 20.9796 94.8083 19.253V19.4719L91.5189 15.4994L91.4128 15.3734L91.5123 15.2474C93.2852 12.8953 94.994 10.6516 96.6387 8.51614L96.7249 8.39676L96.8641 8.45645L101.506 10.5919H101.327C102.802 9.44874 104.423 8.50961 106.149 7.7999L106.056 7.92591C106.222 6.0889 106.381 4.37126 106.527 2.82605V2.71994H106.633L115.035 1.63232H115.102V1.69201L116.388 5.26655C116.527 5.65783 116.634 5.92973 116.713 6.195C116.774 6.29997 116.822 6.41114 116.859 6.5266Z" fill="#E0E0E0"/>
<path fill-rule="evenodd" clip-rule="evenodd" d="M76.2656 55.4893C78.8609 55.8132 81.4012 56.4823 83.8193 57.4788L89.3701 52.8366L98.9265 60.1316L95.9223 66.7169C97.5265 68.7843 98.8511 71.0543 99.8616 73.4681L107.07 74.1313L108.682 85.9956L101.898 88.529C101.577 91.1248 100.908 93.6655 99.908 96.0826L104.55 101.633L97.2951 111.17L90.7031 108.166C88.6382 109.774 86.3677 111.099 83.9519 112.105L83.2887 119.314L71.4112 120.925L68.8778 114.141C66.2827 113.816 63.7425 113.147 61.3242 112.151L55.7734 116.794L46.2368 109.539L49.241 102.946C47.6351 100.881 46.3125 98.6109 45.3084 96.1953L38.093 95.5321L36.4814 83.6546L43.2658 81.1212C43.5874 78.5256 44.2566 75.9849 45.2553 73.5676L40.6131 68.0168L47.8683 58.4802L54.4603 61.4844C56.5262 59.8799 58.7966 58.5574 61.2114 57.5518L61.8746 50.3364L73.7522 48.7249L76.2656 55.4893ZM71.3913 71.976C68.8706 72.3165 66.5076 73.3969 64.601 75.0806C62.6944 76.7642 61.33 78.9755 60.6803 81.4346C60.0306 83.8938 60.1248 86.4905 60.951 88.8961C61.7771 91.3017 63.2982 93.4083 65.3217 94.9494C67.3453 96.4905 69.7804 97.3968 72.3191 97.5538C74.8578 97.7108 77.3861 97.1114 79.5841 95.8313C81.7821 94.5513 83.5511 92.6482 84.6673 90.3626C85.7836 88.0771 86.197 85.5119 85.8552 82.9914C85.3922 79.6205 83.612 76.5706 80.9047 74.5097C78.1974 72.4488 74.7836 71.5448 71.4112 71.9959L71.3913 71.976Z" fill="#E0E0E0"/>
<path d="M449.636 249.801C449.636 249.901 348.972 249.974 224.818 249.974C100.664 249.974 0 249.874 0 249.801C0 249.728 100.644 249.629 224.818 249.629C348.992 249.629 449.636 249.682 449.636 249.801Z" fill="#263238"/>
<path d="M368.795 53.6455H98.1049C92.7684 53.6455 88.4424 57.9716 88.4424 63.308V235.768C88.4424 241.105 92.7684 245.431 98.1049 245.431H368.795C374.132 245.431 378.458 241.105 378.458 235.768V63.308C378.458 57.9716 374.132 53.6455 368.795 53.6455Z" fill="#455A64"/>
<path d="M77.1084 233.042H391.317V238.023C391.317 241.154 390.073 244.156 387.859 246.37C385.645 248.584 382.643 249.828 379.512 249.828H88.913C85.7822 249.828 82.7797 248.584 80.5659 246.37C78.3521 244.156 77.1084 241.154 77.1084 238.023V233.042Z" fill="#455A64"/>
<path d="M369.862 61.2654H96.2275V223.227H369.862V61.2654Z" fill="#263238"/>
<path d="M204.863 231.245L208.763 237.446H263.628L267.249 231.245H204.863Z" fill="#263238"/>
<path d="M362.621 66.75H104.034C102.836 66.75 101.865 67.7209 101.865 68.9186V220.542C101.865 221.739 102.836 222.71 104.034 222.71H362.621C363.819 222.71 364.79 221.739 364.79 220.542V68.9186C364.79 67.7209 363.819 66.75 362.621 66.75Z" fill="#EBEBEB"/>
<path d="M364.511 222.936H101.587L101.865 78.4021H364.511V222.936Z" fill="#FAFAFA"/>
<path d="M123.424 72.7717C123.424 73.1878 123.301 73.5945 123.07 73.9404C122.838 74.2862 122.51 74.5557 122.125 74.7146C121.74 74.8735 121.317 74.9148 120.909 74.8331C120.501 74.7515 120.127 74.5506 119.833 74.2559C119.539 73.9612 119.34 73.586 119.259 73.1778C119.179 72.7695 119.222 72.3466 119.382 71.9626C119.542 71.5786 119.812 71.2507 120.159 71.0205C120.505 70.7903 120.913 70.6681 121.329 70.6694C121.604 70.6694 121.877 70.7239 122.132 70.8296C122.387 70.9353 122.618 71.0903 122.813 71.2856C123.008 71.4809 123.162 71.7127 123.267 71.9677C123.372 72.2227 123.425 72.496 123.424 72.7717Z" fill="#263238"/>
<path d="M110.699 72.7717C110.699 73.1878 110.575 73.5945 110.344 73.9404C110.113 74.2862 109.784 74.5557 109.399 74.7146C109.015 74.8735 108.592 74.9148 108.184 74.8331C107.776 74.7515 107.401 74.5506 107.108 74.2559C106.814 73.9612 106.614 73.586 106.534 73.1778C106.453 72.7695 106.496 72.3466 106.656 71.9626C106.816 71.5786 107.087 71.2507 107.433 71.0205C107.78 70.7903 108.187 70.6681 108.603 70.6694C108.879 70.6694 109.152 70.7239 109.407 70.8296C109.661 70.9353 109.893 71.0903 110.087 71.2856C110.282 71.4809 110.436 71.7127 110.541 71.9677C110.646 72.2227 110.7 72.496 110.699 72.7717Z" fill="#263238"/>
<path d="M116.813 72.7717C116.813 73.1875 116.69 73.594 116.459 73.9397C116.228 74.2854 115.899 74.5549 115.515 74.714C115.131 74.8731 114.708 74.9147 114.301 74.8336C113.893 74.7525 113.518 74.5523 113.224 74.2583C112.93 73.9642 112.73 73.5897 112.649 73.1819C112.568 72.774 112.609 72.3513 112.768 71.9672C112.928 71.5831 113.197 71.2547 113.543 71.0237C113.888 70.7927 114.295 70.6694 114.711 70.6694C115.268 70.6694 115.803 70.8909 116.197 71.2852C116.591 71.6794 116.813 72.2142 116.813 72.7717Z" fill="#263238"/>
<path d="M375.964 231.232C375.964 231.338 311.596 231.418 232.213 231.418C152.831 231.418 88.4424 231.338 88.4424 231.232C88.4424 231.126 152.771 231.046 232.213 231.046C311.656 231.046 375.964 231.139 375.964 231.232Z" fill="#263238"/>
<path d="M325.357 150.158H146.689C144.591 150.158 142.578 149.325 141.095 147.841C139.611 146.357 138.777 144.345 138.777 142.247C138.777 140.148 139.611 138.134 141.094 136.65C142.578 135.165 144.59 134.33 146.689 134.328H325.357C327.455 134.33 329.468 135.165 330.951 136.65C332.435 138.134 333.268 140.148 333.268 142.247C333.268 144.345 332.435 146.357 330.951 147.841C329.467 149.325 327.455 150.158 325.357 150.158Z" fill="#EBEBEB"/>
<path d="M239.004 150.158H229.461C228.407 150.167 227.363 149.967 226.387 149.568C225.412 149.17 224.525 148.583 223.779 147.839C223.032 147.096 222.441 146.212 222.039 145.238C221.637 144.264 221.432 143.22 221.436 142.167C221.421 141.134 221.613 140.108 222.002 139.151C222.39 138.193 222.966 137.323 223.696 136.593C224.426 135.862 225.296 135.285 226.253 134.896C227.21 134.507 228.235 134.314 229.269 134.328L239.004 134.368C241.14 134.403 243.177 135.278 244.672 136.803C246.168 138.329 247.003 140.382 246.995 142.518C246.995 146.929 243.388 150.158 239.004 150.158Z" fill="#E0E0E0"/>
<mask id="mask0_536_7794" style="mask-type:luminance" maskUnits="userSpaceOnUse" x="138" y="134" width="104" height="17">
<path d="M236.3 150.158H146.691C144.593 150.158 142.58 149.325 141.097 147.841C139.613 146.357 138.779 144.345 138.779 142.247C138.779 140.148 139.613 138.134 141.096 136.65C142.58 135.165 144.592 134.33 146.691 134.328H236.3C237.804 134.328 239.246 134.926 240.309 135.989C241.373 137.052 241.97 138.494 241.97 139.998V144.488C241.97 145.992 241.373 147.434 240.309 148.497C239.246 149.561 237.804 150.158 236.3 150.158Z" fill="white"/>
</mask>
<g mask="url(#mask0_536_7794)">
<path d="M234.051 150.158H146.69C144.592 150.158 142.579 149.325 141.096 147.841C139.612 146.357 138.778 144.345 138.778 142.247C138.778 140.148 139.612 138.134 141.095 136.65C142.579 135.165 144.591 134.33 146.69 134.328H234.051C236.151 134.328 238.165 135.162 239.65 136.647C241.135 138.132 241.969 140.146 241.969 142.247C241.969 143.286 241.764 144.315 241.366 145.276C240.968 146.236 240.385 147.109 239.65 147.843C238.914 148.578 238.041 149.161 237.081 149.558C236.12 149.955 235.09 150.159 234.051 150.158Z" fill="#FF725E"/>
<g opacity="0.2">
<path d="M149.715 134.328L159.384 150.158H166.221L156.168 134.328H149.715Z" fill="white"/>
</g>
<g opacity="0.2">
<path d="M135.084 134.328L144.753 150.158H151.591L141.537 134.328H135.084Z" fill="white"/>
</g>
<g opacity="0.2">
<path d="M163.867 134.328L173.53 150.158H180.374L170.32 134.328H163.867Z" fill="white"/>
</g>
<g opacity="0.2">
<path d="M178.019 134.328L187.681 150.158H194.525L184.471 134.328H178.019Z" fill="white"/>
</g>
<g opacity="0.2">
<path d="M192.165 134.328L201.834 150.158H208.672L198.618 134.328H192.165Z" fill="white"/>
</g>
<g opacity="0.2">
<path d="M206.316 134.328L215.979 150.158H222.823L212.769 134.328H206.316Z" fill="white"/>
</g>
<g opacity="0.2">
<path d="M220.47 134.328L230.132 150.158H236.976L226.922 134.328H220.47Z" fill="white"/>
</g>
<g opacity="0.2">
<path d="M234.614 134.328L244.283 150.158H251.121L241.067 134.328H234.614Z" fill="white"/>
</g>
</g>
<path d="M202.942 235.423C205.331 235.423 206.719 236.613 206.719 238.671C206.719 240.73 205.35 242.071 202.942 242.071H200.751V244.904H199.146V235.423H202.942ZM200.751 240.636H202.876C204.34 240.636 205.171 240.003 205.171 238.747C205.171 237.491 204.34 236.858 202.876 236.858H200.751V240.636Z" fill="#FF725E"/>
<path d="M208.541 244.942V234.837H210.109V244.942H208.541Z" fill="#FF725E"/>
<path d="M219.118 241.92H213.66C213.751 242.442 214.028 242.913 214.439 243.246C214.851 243.58 215.369 243.753 215.898 243.733C216.278 243.736 216.654 243.662 217.004 243.516C217.355 243.37 217.672 243.155 217.938 242.883L218.769 243.771C218.384 244.174 217.918 244.491 217.402 244.701C216.886 244.911 216.332 245.009 215.775 244.989C215.285 245.022 214.793 244.951 214.333 244.779C213.873 244.608 213.454 244.34 213.105 243.995C212.756 243.649 212.484 243.233 212.308 242.775C212.132 242.316 212.055 241.825 212.083 241.335C212.059 240.847 212.137 240.36 212.311 239.904C212.486 239.448 212.754 239.034 213.098 238.687C213.442 238.341 213.854 238.07 214.309 237.891C214.763 237.713 215.25 237.631 215.737 237.652C218.325 237.671 219.269 239.314 219.118 241.92ZM217.758 240.778C217.759 240.519 217.706 240.263 217.604 240.025C217.501 239.788 217.351 239.574 217.162 239.397C216.974 239.22 216.751 239.083 216.507 238.996C216.264 238.908 216.005 238.872 215.747 238.889C215.219 238.87 214.704 239.056 214.31 239.408C213.916 239.76 213.673 240.251 213.631 240.778H217.758Z" fill="#FF725E"/>
<path d="M225.36 244.055C225.06 244.384 224.689 244.64 224.275 244.804C223.861 244.967 223.415 245.034 222.971 244.999C222.653 245.035 222.332 245.003 222.027 244.907C221.722 244.81 221.441 244.651 221.202 244.439C220.962 244.228 220.77 243.968 220.637 243.677C220.504 243.386 220.434 243.071 220.431 242.751C220.431 241.439 221.375 240.598 223.16 240.579H225.341V240.362C225.341 239.418 224.765 238.908 223.623 238.908C222.853 238.93 222.108 239.187 221.488 239.644L220.846 238.558C221.759 237.922 222.85 237.591 223.963 237.614C225.851 237.614 226.871 238.558 226.881 240.154V244.876H225.351L225.36 244.055ZM225.36 242.402V241.731H223.405C222.386 241.731 221.913 242.005 221.913 242.676C221.913 243.346 222.442 243.752 223.311 243.752C224.406 243.771 225.266 243.186 225.341 242.392L225.36 242.402Z" fill="#FF725E"/>
<path d="M233.954 238.379L233.378 239.531C232.754 239.138 232.037 238.916 231.3 238.889C230.696 238.889 230.243 239.096 230.243 239.616C230.243 240.947 234.086 240.22 234.077 242.846C234.077 244.328 232.755 244.989 231.3 244.989C230.243 245.008 229.213 244.654 228.392 243.988L228.949 242.874C229.632 243.434 230.483 243.75 231.366 243.771C232.037 243.771 232.556 243.535 232.556 242.997C232.556 241.514 228.779 242.345 228.779 239.729C228.779 238.265 230.054 237.642 231.442 237.642C232.333 237.637 233.207 237.893 233.954 238.379Z" fill="#FF725E"/>
<path d="M242.284 241.92H236.826C236.919 242.441 237.196 242.911 237.607 243.244C238.018 243.577 238.535 243.751 239.064 243.734C239.444 243.736 239.82 243.662 240.17 243.516C240.521 243.37 240.838 243.155 241.104 242.884L241.935 243.771C241.55 244.175 241.085 244.492 240.569 244.702C240.053 244.912 239.498 245.01 238.941 244.99C238.451 245.022 237.959 244.951 237.499 244.779C237.039 244.608 236.62 244.34 236.271 243.995C235.922 243.649 235.65 243.233 235.474 242.775C235.298 242.316 235.221 241.825 235.249 241.335C235.226 240.848 235.305 240.361 235.48 239.906C235.656 239.451 235.923 239.037 236.267 238.691C236.611 238.344 237.022 238.073 237.476 237.894C237.93 237.716 238.416 237.633 238.903 237.652C241.444 237.671 242.473 239.314 242.284 241.92ZM240.924 240.778C240.925 240.52 240.873 240.265 240.771 240.028C240.669 239.791 240.519 239.577 240.332 239.4C240.144 239.223 239.922 239.087 239.68 238.999C239.438 238.911 239.18 238.873 238.922 238.889C238.393 238.87 237.877 239.056 237.482 239.408C237.086 239.759 236.841 240.25 236.797 240.778H240.924Z" fill="#FF725E"/>
<path d="M256.214 244.942L253.956 237.519L251.671 244.942H250.009L246.864 235.423H248.545L250.859 243.157L253.154 235.442H254.731L257.045 243.176L259.339 235.442H260.992L257.819 244.961L256.214 244.942Z" fill="#FF725E"/>
<path d="M266.025 244.055C265.726 244.384 265.355 244.641 264.941 244.805C264.526 244.969 264.08 245.035 263.636 244.999C263.318 245.035 262.997 245.003 262.692 244.907C262.387 244.811 262.106 244.651 261.867 244.439C261.627 244.228 261.435 243.968 261.302 243.677C261.169 243.386 261.099 243.071 261.096 242.751C261.096 241.439 262.04 240.598 263.825 240.579H266.016V240.362C266.016 239.418 265.43 238.908 264.288 238.908C263.518 238.93 262.773 239.187 262.153 239.644L261.511 238.558C262.425 237.924 263.515 237.593 264.628 237.614C266.516 237.614 267.536 238.558 267.546 240.154V244.876H266.006L266.025 244.055ZM266.025 242.402V241.731H264.07C263.051 241.731 262.569 242.005 262.569 242.676C262.569 243.346 263.098 243.752 263.967 243.752C265.071 243.771 265.931 243.186 266.016 242.392L266.025 242.402Z" fill="#FF725E"/>
<path d="M271.616 235.64C271.616 235.827 271.561 236.01 271.457 236.165C271.353 236.32 271.206 236.441 271.033 236.513C270.861 236.584 270.671 236.603 270.488 236.566C270.304 236.53 270.136 236.44 270.004 236.308C269.872 236.176 269.782 236.008 269.746 235.824C269.709 235.641 269.728 235.451 269.799 235.279C269.871 235.106 269.992 234.959 270.147 234.855C270.303 234.751 270.485 234.696 270.672 234.696C270.922 234.696 271.163 234.795 271.34 234.972C271.517 235.149 271.616 235.39 271.616 235.64ZM269.935 244.942V237.671H271.484V244.904L269.935 244.942Z" fill="#FF725E"/>
<path d="M278.16 244.479C277.624 244.814 277.007 244.997 276.375 245.008C276.097 245.03 275.817 244.989 275.556 244.89C275.295 244.79 275.06 244.634 274.867 244.433C274.673 244.232 274.527 243.99 274.439 243.725C274.35 243.461 274.321 243.18 274.354 242.902V239.125H273.334V237.954H274.354V235.971H275.931V237.954H278.065V239.125H275.931V242.591C275.931 243.337 276.214 243.535 276.705 243.535C277.086 243.516 277.458 243.409 277.791 243.223L278.16 244.479Z" fill="#FF725E"/>
<path d="M204.281 125.529V116.373H205.905V124.157H209.713V125.529H204.281ZM213.804 125.697C213.235 125.697 212.703 125.557 212.208 125.277C211.713 124.987 211.312 124.577 211.004 124.045C210.696 123.503 210.542 122.855 210.542 122.099C210.542 121.333 210.696 120.685 211.004 120.153C211.312 119.611 211.713 119.201 212.208 118.921C212.703 118.631 213.235 118.487 213.804 118.487C214.383 118.487 214.919 118.631 215.414 118.921C215.909 119.201 216.31 119.611 216.618 120.153C216.926 120.685 217.08 121.333 217.08 122.099C217.08 122.855 216.926 123.503 216.618 124.045C216.31 124.577 215.909 124.987 215.414 125.277C214.919 125.557 214.383 125.697 213.804 125.697ZM213.804 124.381C214.308 124.381 214.705 124.171 214.994 123.751C215.283 123.331 215.428 122.78 215.428 122.099C215.428 121.408 215.283 120.853 214.994 120.433C214.705 120.013 214.308 119.803 213.804 119.803C213.3 119.803 212.903 120.013 212.614 120.433C212.334 120.853 212.194 121.408 212.194 122.099C212.194 122.78 212.334 123.331 212.614 123.751C212.903 124.171 213.3 124.381 213.804 124.381ZM220.176 125.697C219.578 125.697 219.088 125.51 218.706 125.137C218.332 124.763 218.146 124.278 218.146 123.681C218.146 122.943 218.468 122.374 219.112 121.973C219.756 121.562 220.782 121.282 222.192 121.133C222.182 120.769 222.084 120.456 221.898 120.195C221.72 119.924 221.398 119.789 220.932 119.789C220.596 119.789 220.264 119.854 219.938 119.985C219.62 120.115 219.308 120.274 219 120.461L218.412 119.383C218.794 119.14 219.224 118.93 219.7 118.753C220.185 118.575 220.698 118.487 221.24 118.487C222.098 118.487 222.738 118.743 223.158 119.257C223.587 119.761 223.802 120.493 223.802 121.455V125.529H222.472L222.36 124.773H222.304C221.996 125.034 221.664 125.253 221.31 125.431C220.964 125.608 220.586 125.697 220.176 125.697ZM220.694 124.437C220.974 124.437 221.226 124.371 221.45 124.241C221.683 124.101 221.93 123.914 222.192 123.681V122.141C221.258 122.262 220.61 122.444 220.246 122.687C219.882 122.92 219.7 123.209 219.7 123.555C219.7 123.863 219.793 124.087 219.98 124.227C220.166 124.367 220.404 124.437 220.694 124.437ZM228.136 125.697C227.278 125.697 226.592 125.379 226.078 124.745C225.565 124.11 225.308 123.228 225.308 122.099C225.308 121.352 225.444 120.708 225.714 120.167C225.994 119.625 226.358 119.21 226.806 118.921C227.254 118.631 227.726 118.487 228.22 118.487C228.612 118.487 228.944 118.557 229.214 118.697C229.494 118.827 229.765 119.009 230.026 119.243L229.97 118.137V115.645H231.58V125.529H230.25L230.138 124.787H230.082C229.83 125.039 229.536 125.253 229.2 125.431C228.864 125.608 228.51 125.697 228.136 125.697ZM228.528 124.367C229.042 124.367 229.522 124.11 229.97 123.597V120.391C229.737 120.176 229.504 120.027 229.27 119.943C229.037 119.859 228.804 119.817 228.57 119.817C228.132 119.817 227.754 120.017 227.436 120.419C227.128 120.811 226.974 121.366 226.974 122.085C226.974 122.822 227.11 123.387 227.38 123.779C227.651 124.171 228.034 124.367 228.528 124.367ZM233.631 125.529V118.655H235.241V125.529H233.631ZM234.443 117.451C234.153 117.451 233.92 117.367 233.743 117.199C233.565 117.031 233.477 116.807 233.477 116.527C233.477 116.256 233.565 116.037 233.743 115.869C233.92 115.701 234.153 115.617 234.443 115.617C234.732 115.617 234.965 115.701 235.143 115.869C235.32 116.037 235.409 116.256 235.409 116.527C235.409 116.807 235.32 117.031 235.143 117.199C234.965 117.367 234.732 117.451 234.443 117.451ZM237.295 125.529V118.655H238.625L238.737 119.579H238.793C239.101 119.28 239.437 119.023 239.801 118.809C240.165 118.594 240.58 118.487 241.047 118.487C241.784 118.487 242.321 118.725 242.657 119.201C242.993 119.677 243.161 120.349 243.161 121.217V125.529H241.551V121.427C241.551 120.857 241.467 120.456 241.299 120.223C241.131 119.989 240.855 119.873 240.473 119.873C240.174 119.873 239.908 119.947 239.675 120.097C239.451 120.237 239.194 120.447 238.905 120.727V125.529H237.295ZM247.523 128.567C246.981 128.567 246.491 128.501 246.053 128.371C245.623 128.24 245.283 128.039 245.031 127.769C244.788 127.507 244.667 127.176 244.667 126.775C244.667 126.205 244.993 125.715 245.647 125.305V125.249C245.469 125.137 245.32 124.987 245.199 124.801C245.087 124.614 245.031 124.381 245.031 124.101C245.031 123.83 245.105 123.587 245.255 123.373C245.413 123.149 245.591 122.967 245.787 122.827V122.771C245.553 122.593 245.343 122.346 245.157 122.029C244.979 121.711 244.891 121.352 244.891 120.951C244.891 120.419 245.017 119.971 245.269 119.607C245.521 119.243 245.852 118.967 246.263 118.781C246.683 118.585 247.131 118.487 247.607 118.487C247.793 118.487 247.971 118.505 248.139 118.543C248.316 118.571 248.475 118.608 248.615 118.655H251.079V119.845H249.819C249.931 119.975 250.024 120.143 250.099 120.349C250.173 120.545 250.211 120.764 250.211 121.007C250.211 121.511 250.094 121.94 249.861 122.295C249.627 122.64 249.315 122.901 248.923 123.079C248.531 123.256 248.092 123.345 247.607 123.345C247.457 123.345 247.303 123.331 247.145 123.303C246.986 123.275 246.827 123.228 246.669 123.163C246.566 123.256 246.482 123.349 246.417 123.443C246.361 123.536 246.333 123.662 246.333 123.821C246.333 124.017 246.412 124.171 246.571 124.283C246.739 124.395 247.033 124.451 247.453 124.451H248.671C249.501 124.451 250.127 124.586 250.547 124.857C250.976 125.118 251.191 125.547 251.191 126.145C251.191 126.593 251.041 126.999 250.743 127.363C250.444 127.736 250.019 128.03 249.469 128.245C248.918 128.459 248.269 128.567 247.523 128.567ZM247.607 122.337C247.933 122.337 248.213 122.215 248.447 121.973C248.68 121.73 248.797 121.389 248.797 120.951C248.797 120.521 248.68 120.19 248.447 119.957C248.223 119.714 247.943 119.593 247.607 119.593C247.271 119.593 246.986 119.709 246.753 119.943C246.519 120.176 246.403 120.512 246.403 120.951C246.403 121.389 246.519 121.73 246.753 121.973C246.986 122.215 247.271 122.337 247.607 122.337ZM247.775 127.517C248.325 127.517 248.773 127.405 249.119 127.181C249.464 126.957 249.637 126.7 249.637 126.411C249.637 126.14 249.529 125.958 249.315 125.865C249.109 125.771 248.811 125.725 248.419 125.725H247.481C247.107 125.725 246.795 125.692 246.543 125.627C246.188 125.897 246.011 126.201 246.011 126.537C246.011 126.845 246.169 127.083 246.487 127.251C246.804 127.428 247.233 127.517 247.775 127.517ZM253.312 125.697C253.023 125.697 252.776 125.594 252.57 125.389C252.365 125.183 252.262 124.922 252.262 124.605C252.262 124.287 252.365 124.026 252.57 123.821C252.776 123.615 253.023 123.513 253.312 123.513C253.611 123.513 253.858 123.615 254.054 123.821C254.25 124.026 254.348 124.287 254.348 124.605C254.348 124.922 254.25 125.183 254.054 125.389C253.858 125.594 253.611 125.697 253.312 125.697ZM257.168 125.697C256.878 125.697 256.631 125.594 256.426 125.389C256.22 125.183 256.118 124.922 256.118 124.605C256.118 124.287 256.22 124.026 256.426 123.821C256.631 123.615 256.878 123.513 257.168 123.513C257.466 123.513 257.714 123.615 257.91 123.821C258.106 124.026 258.204 124.287 258.204 124.605C258.204 124.922 258.106 125.183 257.91 125.389C257.714 125.594 257.466 125.697 257.168 125.697ZM261.023 125.697C260.734 125.697 260.486 125.594 260.281 125.389C260.076 125.183 259.973 124.922 259.973 124.605C259.973 124.287 260.076 124.026 260.281 123.821C260.486 123.615 260.734 123.513 261.023 123.513C261.322 123.513 261.569 123.615 261.765 123.821C261.961 124.026 262.059 124.287 262.059 124.605C262.059 124.922 261.961 125.183 261.765 125.389C261.569 125.594 261.322 125.697 261.023 125.697Z" fill="#333333"/>
<path d="M179.086 249.489L203.995 249.224L202.025 240.311L179.762 238.66L179.086 249.489Z" fill="#B78876"/>
<path d="M191.659 238.361L203.198 239.117C203.198 239.117 207.841 227.644 209.989 227.578L209.326 250L191.301 249.556L191.659 238.361Z" fill="#FF725E"/>
<path d="M202.018 246.021C202.078 246.239 202.216 246.427 202.405 246.55C202.595 246.672 202.823 246.72 203.046 246.684C203.265 246.633 203.456 246.5 203.579 246.313C203.703 246.125 203.749 245.897 203.71 245.676C203.642 245.451 203.493 245.259 203.292 245.137C203.092 245.014 202.853 244.97 202.622 245.013C202.398 245.089 202.212 245.249 202.105 245.46C201.997 245.67 201.975 245.914 202.045 246.14" fill="#E0E0E0"/>
<path d="M209.32 250L207.503 249.887L208.829 228.427C208.829 228.427 209.294 227.445 209.996 227.578L209.32 250Z" fill="#E0E0E0"/>
<path d="M203.093 238.752C203.206 238.752 203.239 239.303 203.571 239.853C203.902 240.404 204.36 240.702 204.313 240.802C204.267 240.901 203.65 240.722 203.246 240.052C202.841 239.383 202.994 238.726 203.093 238.752Z" fill="#263238"/>
<path d="M204.134 236.425C204.24 236.425 204.412 236.882 204.863 237.267C205.314 237.652 205.805 237.778 205.798 237.884C205.792 237.99 205.168 238.05 204.618 237.559C204.068 237.068 204.034 236.425 204.134 236.425Z" fill="#263238"/>
<path d="M206.992 235.171C206.992 235.277 206.462 235.41 205.865 235.112C205.268 234.813 205.056 234.296 205.149 234.25C205.242 234.203 205.547 234.535 206.038 234.773C206.528 235.012 206.986 235.065 206.992 235.171Z" fill="#263238"/>
<path d="M200.447 238.872C200.54 238.918 200.374 239.416 200.4 240.033C200.427 240.649 200.606 241.147 200.506 241.2C200.407 241.253 200.035 240.775 200.022 240.046C200.009 239.316 200.36 238.812 200.447 238.872Z" fill="#263238"/>
<path d="M198.112 238.759C198.201 239.129 198.187 239.517 198.072 239.88C197.991 240.284 197.859 240.676 197.681 241.047C197.571 241.274 197.449 241.496 197.316 241.71C197.244 241.833 197.152 241.943 197.044 242.035C196.964 242.105 196.864 242.145 196.758 242.151C196.652 242.157 196.548 242.128 196.46 242.068C196.385 242.012 196.325 241.939 196.283 241.855C196.242 241.771 196.221 241.678 196.222 241.584C196.226 241.442 196.25 241.301 196.295 241.166C196.36 240.938 196.447 240.716 196.553 240.503C196.734 240.127 196.974 239.783 197.263 239.482C197.76 238.978 198.178 238.819 198.198 238.852C198.218 238.885 197.88 239.144 197.468 239.661C197.227 239.963 197.027 240.295 196.872 240.649C196.782 240.864 196.708 241.086 196.653 241.312C196.586 241.551 196.58 241.75 196.653 241.816C196.726 241.883 196.712 241.816 196.779 241.816C196.857 241.743 196.926 241.66 196.984 241.571C197.114 241.384 197.231 241.189 197.336 240.987C197.519 240.644 197.67 240.284 197.787 239.913C197.865 239.521 197.974 239.135 198.112 238.759Z" fill="#263238"/>
<path d="M198.292 238.905C197.966 239.11 197.582 239.203 197.198 239.17C196.783 239.178 196.37 239.112 195.978 238.978C195.746 238.901 195.524 238.798 195.314 238.673C195.168 238.609 195.041 238.509 194.945 238.381C194.85 238.253 194.79 238.102 194.771 237.943C194.776 237.843 194.809 237.747 194.867 237.665C194.924 237.583 195.003 237.519 195.095 237.479C195.229 237.426 195.37 237.393 195.513 237.38C195.85 237.338 196.192 237.364 196.519 237.457C196.846 237.549 197.151 237.705 197.417 237.917C197.98 238.368 198.08 238.832 198.08 238.839C198.08 238.845 197.828 238.487 197.277 238.136C196.961 237.93 196.603 237.797 196.23 237.745C196.01 237.713 195.786 237.713 195.566 237.745C195.321 237.745 195.129 237.851 195.149 237.943C195.168 238.036 195.321 238.249 195.507 238.348C195.698 238.465 195.9 238.563 196.11 238.64C196.468 238.776 196.843 238.861 197.224 238.892C197.841 238.952 198.252 238.845 198.292 238.905Z" fill="#263238"/>
<path d="M24.2196 242.506L22.3163 249.801L0.961914 249.609C0.961914 249.609 3.88654 247.4 14.6102 247.56L15.6514 242.506H24.2196Z" fill="#B78876"/>
<path d="M46.0779 143.692C45.447 142.491 44.9339 141.232 44.5459 139.932C44.1566 138.634 44.1566 137.251 44.5459 135.953C44.7561 135.305 45.1207 134.717 45.6082 134.241C46.0957 133.766 46.6916 133.415 47.3445 133.221C48.1536 133.022 49.0356 133.114 49.8049 132.783C50.7002 132.405 51.2639 131.536 51.9337 130.84C53.0032 129.744 54.3995 129.025 55.9128 128.791C56.6953 128.637 57.5054 128.71 58.2472 129.003C58.6164 129.154 58.9414 129.397 59.1918 129.707C59.4423 130.018 59.6101 130.387 59.6797 130.78C60.5748 130.383 61.5178 130.104 62.485 129.951C63.4622 129.803 64.4587 130.041 65.2637 130.614C65.6536 130.912 65.9379 131.328 66.0751 131.799C66.2123 132.27 66.1952 132.773 66.0263 133.234C66.4297 133.007 66.903 132.939 67.354 133.042C67.8051 133.145 68.2018 133.412 68.4668 133.791C68.7186 134.179 68.8526 134.632 68.8526 135.094C68.8526 135.557 68.7186 136.009 68.4668 136.397C67.8251 137.25 66.9015 137.847 65.8605 138.082C64.9263 138.312 63.9528 138.335 63.0089 138.148" fill="#263238"/>
<path d="M56.6292 172.487C58.4694 172.262 60.1454 171.317 61.2911 169.859C62.4368 168.402 62.9591 166.55 62.7438 164.708C62.4918 162.566 62.2729 160.782 62.2729 160.782C62.2729 160.782 67.6712 159.655 67.459 154.21C67.2468 148.766 65.675 136.304 65.675 136.304C62.5136 135.131 59.0964 134.823 55.7762 135.412C52.456 136.001 49.353 137.465 46.7876 139.653L46.0117 140.317L48.7904 166.24C48.8858 167.169 49.1654 168.069 49.6131 168.888C50.0607 169.707 50.6673 170.429 51.3973 171.011C52.1273 171.593 52.966 172.023 53.8644 172.276C54.7628 172.53 55.7028 172.602 56.6292 172.487Z" fill="#B78876"/>
<path d="M62.2727 160.703C59.7628 160.875 57.2584 160.298 55.0771 159.045C55.0771 159.045 56.9539 162.878 62.3721 162.109L62.2727 160.703Z" fill="#AA6550"/>
<path d="M46.9738 145.934C46.8743 145.901 43.1737 145.019 43.4854 148.732C43.7971 152.446 47.4645 151.385 47.4645 151.266C47.4645 151.146 46.9738 145.934 46.9738 145.934Z" fill="#B78876"/>
<path d="M46.2038 149.953C46.2038 149.953 46.1441 150.006 46.038 150.065C45.8883 150.142 45.7153 150.158 45.5539 150.112C45.3008 149.981 45.0875 149.784 44.9359 149.543C44.7843 149.301 44.7 149.024 44.6918 148.739C44.6575 148.421 44.6937 148.1 44.7979 147.797C44.8234 147.679 44.8771 147.568 44.9544 147.474C45.0318 147.381 45.1305 147.307 45.2422 147.26C45.3152 147.235 45.3945 147.236 45.4668 147.263C45.5392 147.289 45.6003 147.34 45.6401 147.406C45.6998 147.505 45.6799 147.578 45.6998 147.585C45.7197 147.592 45.7794 147.519 45.6998 147.366C45.6728 147.276 45.6139 147.198 45.534 147.147C45.4807 147.112 45.421 147.089 45.3583 147.077C45.2957 147.066 45.2314 147.067 45.1693 147.081C45.0129 147.118 44.8691 147.196 44.7526 147.306C44.6361 147.417 44.551 147.557 44.5061 147.711C44.3772 148.047 44.3295 148.408 44.3668 148.765C44.3762 149.098 44.4839 149.42 44.6763 149.692C44.8687 149.963 45.1371 150.172 45.4478 150.291C45.5497 150.314 45.6557 150.313 45.7571 150.288C45.8585 150.262 45.9525 150.213 46.0314 150.145C46.2038 150.045 46.2171 149.959 46.2038 149.953Z" fill="#AA6550"/>
<path d="M64.4218 145.297C64.4313 145.499 64.363 145.697 64.2309 145.85C64.0989 146.003 63.9132 146.099 63.7122 146.119C63.6137 146.131 63.5137 146.124 63.4182 146.097C63.3227 146.07 63.2335 146.024 63.1557 145.963C63.078 145.901 63.0133 145.824 62.9654 145.737C62.9174 145.651 62.8872 145.555 62.8766 145.456C62.8637 145.254 62.9308 145.054 63.0635 144.9C63.1961 144.747 63.3838 144.651 63.5862 144.634C63.6848 144.621 63.7851 144.628 63.881 144.655C63.9769 144.681 64.0664 144.727 64.1444 144.789C64.2223 144.851 64.287 144.927 64.3347 145.015C64.3823 145.102 64.412 145.198 64.4218 145.297Z" fill="#263238"/>
<path d="M65.0322 144.024C64.946 144.13 64.3292 143.725 63.4936 143.772C62.658 143.818 62.0678 144.263 61.9749 144.163C61.8821 144.064 62.0147 143.938 62.2733 143.725C62.6227 143.456 63.0464 143.301 63.487 143.281C63.9207 143.259 64.3504 143.375 64.7139 143.613C64.9924 143.798 65.0786 143.977 65.0322 144.024Z" fill="#263238"/>
<path d="M56.4573 145.682C56.4668 145.883 56.3986 146.081 56.2665 146.234C56.1345 146.387 55.9488 146.484 55.7477 146.504C55.6492 146.516 55.5493 146.508 55.4538 146.481C55.3583 146.454 55.269 146.409 55.1913 146.347C55.1136 146.285 55.0489 146.209 55.0009 146.122C54.953 146.035 54.9228 145.939 54.9121 145.841C54.8975 145.638 54.964 145.437 55.097 145.283C55.23 145.129 55.4187 145.034 55.6217 145.018C55.7203 145.006 55.8202 145.014 55.9157 145.041C56.0112 145.068 56.1004 145.114 56.1782 145.175C56.2559 145.237 56.3206 145.314 56.3686 145.4C56.4165 145.487 56.4467 145.583 56.4573 145.682Z" fill="#263238"/>
<path d="M56.822 144.601C56.7292 144.707 56.119 144.296 55.2834 144.342C54.4478 144.389 53.851 144.839 53.7581 144.74C53.6653 144.641 53.7979 144.508 54.0566 144.302C54.4051 144.032 54.8293 143.876 55.2702 143.858C55.7064 143.832 56.1391 143.949 56.5037 144.19C56.769 144.355 56.8684 144.548 56.822 144.601Z" fill="#263238"/>
<path d="M60.1711 150.649C60.5974 150.485 61.0433 150.378 61.4974 150.331C61.7096 150.297 61.9086 150.244 61.9351 150.098C61.9472 149.877 61.8866 149.658 61.7627 149.475C61.5372 148.964 61.2985 148.434 61.0465 147.877C60.3898 146.531 59.8442 145.134 59.415 143.699C60.1861 144.989 60.8515 146.34 61.4046 147.737L62.0678 149.342C62.2154 149.594 62.2694 149.89 62.2203 150.178C62.1942 150.254 62.1506 150.323 62.093 150.38C62.0354 150.436 61.9655 150.478 61.8887 150.503C61.7731 150.543 61.6527 150.568 61.5306 150.576C61.0819 150.654 60.6255 150.679 60.1711 150.649Z" fill="#263238"/>
<path d="M57.7365 151.352C57.8757 151.352 57.9221 152.241 58.7312 152.851C59.5403 153.461 60.5019 153.302 60.5152 153.428C60.5284 153.554 60.3096 153.62 59.8984 153.647C59.3676 153.685 58.8405 153.532 58.4129 153.215C58.0019 152.911 57.724 152.46 57.637 151.955C57.5839 151.577 57.6967 151.345 57.7365 151.352Z" fill="#263238"/>
<path d="M64.6543 142.565C64.5151 142.764 63.9315 142.598 63.2351 142.625C62.5388 142.651 61.9618 142.817 61.8159 142.625C61.7496 142.532 61.8159 142.333 62.0812 142.14C62.4119 141.904 62.8084 141.776 63.2152 141.776C63.6247 141.758 64.029 141.872 64.3692 142.101C64.6212 142.28 64.714 142.472 64.6543 142.565Z" fill="#263238"/>
<path d="M55.5816 141.63C55.4887 141.736 55.2765 141.709 54.9914 141.663C54.647 141.608 54.2988 141.582 53.9502 141.583C53.6025 141.594 53.2564 141.633 52.9156 141.703C52.6371 141.756 52.4249 141.789 52.332 141.703C52.2392 141.616 52.332 141.364 52.5906 141.106C52.9629 140.795 53.432 140.624 53.917 140.622C54.3959 140.613 54.8636 140.768 55.2434 141.059C55.5882 141.291 55.6612 141.53 55.5816 141.63Z" fill="#263238"/>
<path d="M66.0333 137.976C63.4474 138.818 60.6609 138.818 58.0751 137.976C55.2035 137.047 51.9937 136.868 51.3836 137.511C50.7735 138.155 51.0586 140.927 48.5319 142.154C48.5319 142.154 49.5201 147.38 47.3979 147.512C45.2757 147.645 45.342 139.309 45.342 139.309L50.0838 136.026L55.5086 134.123L60.7411 133.32L65.8409 134.076L66.0333 137.976Z" fill="#263238"/>
<path d="M74.0245 171.897L90.3653 187.19L116.229 169.536L124.307 178.821L99.4641 198.716C96.9718 200.939 93.7879 202.232 90.4515 202.377C88.1955 202.475 85.9479 202.043 83.8889 201.116C81.8298 200.188 80.0164 198.792 78.5938 197.038L69.8398 189.651L74.0245 171.897Z" fill="#FF725E"/>
<path d="M58.8447 165.325L74.0249 171.897L73.5209 176.102L80.5837 204.115L88.2634 209.719L81.9035 219.063C80.4712 221.158 78.5997 222.917 76.419 224.216L61.2785 233.222C59.8577 233.74 58.2929 233.7 56.9006 233.109C55.5082 232.518 54.3922 231.421 53.778 230.038L40.3884 199.658L26.9324 241.392C26.5111 242.701 25.64 243.819 24.4735 244.547C23.307 245.275 21.9204 245.567 20.5593 245.371L15.2538 244.595C14.8265 244.532 14.417 244.381 14.0521 244.149C13.6872 243.918 13.3749 243.613 13.1354 243.254C12.8959 242.894 12.7347 242.488 12.6621 242.063C12.5894 241.637 12.6071 241.2 12.7138 240.782L27.7614 182.276C28.5532 179.237 29.844 176.351 31.5813 173.734C33.1989 171.322 35.3717 169.333 37.9174 167.934C40.4632 166.535 43.3074 165.768 46.2111 165.697L58.8447 165.325Z" fill="#FF725E"/>
<path d="M64.1622 165.763L63.5985 162.719L47.5098 161.638V165.683C47.6225 166.837 49.4993 166.492 51.2501 167.215L59.1287 168.787C61.0519 168.94 65.1504 168.23 64.1622 165.763Z" fill="#FF725E"/>
<path d="M80.7425 204.247C80.5755 203.903 80.4358 203.546 80.3247 203.179C80.0794 202.516 79.7411 201.482 79.3366 200.222C78.5342 197.715 77.4996 194.253 76.5048 190.34C75.51 186.428 74.7275 182.886 74.2235 180.306C73.9715 179.013 73.7858 177.965 73.6664 177.236C73.5836 176.863 73.5348 176.483 73.5205 176.102C73.6393 176.464 73.7324 176.834 73.799 177.209C73.9715 177.985 74.197 179.013 74.4622 180.253C75.0259 182.826 75.8416 186.368 76.8364 190.254C77.8312 194.14 78.826 197.629 79.5753 200.155C79.9335 201.376 80.2385 202.377 80.4574 203.14C80.5795 203.501 80.6748 203.872 80.7425 204.247Z" fill="#263238"/>
<path d="M45.2495 185.817C45.0848 186.53 44.863 187.229 44.5864 187.906C44.1089 189.273 43.512 190.99 42.8488 192.88C42.1856 194.77 41.5888 196.488 41.1113 197.854C40.9024 198.553 40.6477 199.238 40.3486 199.903C40.4587 199.181 40.6363 198.47 40.8792 197.781C41.2638 196.455 41.8408 194.711 42.5239 192.768C43.2069 190.824 43.8502 189.08 44.3542 187.82C44.5956 187.129 44.8951 186.459 45.2495 185.817Z" fill="#263238"/>
<g opacity="0.2">
<path d="M40.334 199.724C41.6294 202.656 42.9182 205.587 44.2003 208.518C44.3801 209.002 44.6427 209.451 44.9762 209.844C45.1465 210.042 45.3642 210.194 45.609 210.284C45.8538 210.375 46.1176 210.401 46.3756 210.362C47.3305 210.143 47.5693 208.916 47.6024 207.941C47.8279 201.528 47.6024 194.963 45.3675 188.941C45.2084 188.503 44.9099 187.986 44.4457 188.046C43.9815 188.105 43.8356 188.576 43.7228 188.974L40.5794 200.248" fill="black"/>
</g>
<g opacity="0.2">
<path d="M82.0819 200.328C82.3387 200.168 82.5475 199.942 82.6865 199.674C82.8254 199.405 82.8892 199.104 82.8711 198.803C82.8249 198.2 82.6628 197.612 82.3936 197.072C80.6372 192.972 78.2742 189.161 75.3838 185.764L78.5604 197.038L82.0819 200.328Z" fill="black"/>
</g>
<path d="M31.8801 195.274C31.8403 195.274 31.9996 191.441 32.2385 186.713C32.4775 181.984 32.6899 178.158 32.7297 178.158C32.7695 178.158 32.6102 181.998 32.3779 186.719C32.1456 191.441 31.9199 195.281 31.8801 195.274Z" fill="#E0E0E0"/>
<path d="M34.8641 181.984C34.8951 182.085 34.9085 182.19 34.9039 182.296C34.9201 182.585 34.9201 182.875 34.9039 183.165C34.8005 185.091 34.1392 186.946 33.0005 188.503C32.8308 188.735 32.647 188.957 32.4501 189.166C32.3829 189.247 32.3073 189.32 32.2246 189.385C32.2246 189.385 32.5098 189.034 32.8878 188.437C33.9664 186.862 34.6176 185.034 34.7779 183.131C34.8641 182.435 34.8442 181.984 34.8641 181.984Z" fill="#E0E0E0"/>
<path d="M29.4391 182.515C29.4391 182.515 29.4988 182.913 29.6182 183.536C29.7833 184.355 30.0368 185.153 30.3742 185.917C30.7167 186.675 31.1439 187.391 31.6475 188.052C32.0388 188.563 32.3107 188.848 32.3107 188.868C32.2329 188.815 32.1617 188.752 32.0984 188.682C31.9171 188.503 31.7466 188.312 31.5878 188.112C31.0537 187.459 30.6078 186.739 30.2614 185.97C29.9139 185.201 29.6708 184.389 29.5386 183.556C29.4945 183.306 29.4657 183.054 29.4524 182.8C29.4392 182.706 29.4348 182.61 29.4391 182.515Z" fill="#E0E0E0"/>
<path d="M34.1814 179.716C34.1915 179.8 34.1915 179.884 34.1814 179.968C34.1952 180.189 34.1952 180.41 34.1814 180.631C34.116 181.373 33.9738 182.107 33.757 182.82C33.5435 183.538 33.2545 184.232 32.8948 184.889C32.7916 185.09 32.6765 185.285 32.55 185.472C32.5079 185.545 32.4566 185.612 32.3975 185.671C32.3975 185.671 32.5566 185.353 32.8086 184.842C33.1347 184.191 33.4075 183.515 33.6243 182.82C33.8307 182.107 33.9814 181.38 34.0753 180.645C34.0942 180.333 34.1296 180.023 34.1814 179.716Z" fill="#E0E0E0"/>
<path d="M30.6789 180.167C30.6789 180.167 30.6789 180.572 30.6789 181.228C30.6992 182.077 30.8058 182.921 30.9972 183.748C31.1959 184.57 31.4758 185.37 31.8328 186.136C32.1113 186.726 32.3169 187.078 32.297 187.091C32.235 187.019 32.1795 186.941 32.1312 186.859C32.0317 186.7 31.8991 186.474 31.7466 186.196C31.3617 185.428 31.0679 184.618 30.8712 183.782C30.6784 182.947 30.5828 182.092 30.586 181.235C30.5867 180.976 30.6022 180.717 30.6324 180.459C30.6322 180.36 30.6479 180.261 30.6789 180.167Z" fill="#E0E0E0"/>
<path d="M31.7865 178.914C31.7865 178.914 31.7268 179.153 31.6803 179.537C31.6285 180.036 31.6554 180.539 31.76 181.029C32.0321 182.177 32.4237 183.065 32.4237 183.085C32.3105 182.905 32.2149 182.714 32.1383 182.515C31.929 182.046 31.7667 181.557 31.6538 181.056C31.5394 180.551 31.5259 180.028 31.614 179.517C31.6301 179.307 31.6888 179.101 31.7865 178.914Z" fill="#E0E0E0"/>
<path d="M29.7441 187.608C29.7839 187.608 30.1686 188.331 30.8052 189.127C31.4419 189.922 32.0785 190.453 32.052 190.506C31.8888 190.42 31.7391 190.31 31.6077 190.181C30.9508 189.59 30.3952 188.896 29.963 188.125C29.8649 187.965 29.7911 187.79 29.7441 187.608Z" fill="#E0E0E0"/>
<path d="M34.9301 188.49C34.8403 188.676 34.7266 188.85 34.5919 189.007C34.2897 189.406 33.9642 189.787 33.617 190.148C33.2662 190.508 32.8918 190.845 32.4962 191.156C32.3422 191.294 32.1731 191.414 31.9922 191.514C32.1237 191.354 32.2728 191.21 32.4365 191.083C32.7151 190.824 33.0997 190.466 33.5042 190.048C33.9088 189.631 34.2536 189.239 34.5056 188.948C34.6317 188.781 34.7739 188.628 34.9301 188.49Z" fill="#E0E0E0"/>
<path d="M20.6184 238.149C20.5786 238.149 20.7379 234.316 20.9768 229.587C21.2157 224.859 21.4281 221.032 21.468 221.032C21.5078 221.032 21.3485 224.865 21.1096 229.594C20.8706 234.322 20.6582 238.149 20.6184 238.149Z" fill="#E0E0E0"/>
<path d="M23.6031 224.852C23.6167 224.958 23.6167 225.065 23.6031 225.171C23.6233 225.46 23.6233 225.75 23.6031 226.039C23.4997 227.966 22.8384 229.821 21.6997 231.378C21.5305 231.61 21.3467 231.832 21.1493 232.041C21.0831 232.125 21.0074 232.2 20.9238 232.267C20.9238 232.267 21.209 231.915 21.6202 231.312C22.1554 230.53 22.5879 229.683 22.9067 228.792C23.2239 227.899 23.4267 226.97 23.5102 226.026C23.6031 225.31 23.5765 224.852 23.6031 224.852Z" fill="#E0E0E0"/>
<path d="M18.1783 225.389C18.1783 225.389 18.238 225.781 18.3574 226.411C18.6801 228.051 19.3743 229.596 20.3867 230.927C20.778 231.438 21.0499 231.723 21.0499 231.736C20.9706 231.685 20.8991 231.622 20.8377 231.55C20.6544 231.375 20.4838 231.186 20.327 230.987C19.2534 229.676 18.5463 228.104 18.2778 226.431C18.2336 226.178 18.2048 225.924 18.1916 225.668C18.1785 225.576 18.1741 225.482 18.1783 225.389Z" fill="#E0E0E0"/>
<path d="M22.9123 222.611C22.9123 222.611 22.9123 222.697 22.9123 222.856C22.9123 223.015 22.9123 223.247 22.9123 223.519C22.7928 225.016 22.3589 226.472 21.639 227.79C21.4997 228.042 21.3803 228.241 21.2941 228.374C21.2497 228.445 21.1986 228.511 21.1416 228.573C21.1416 228.573 21.3008 228.254 21.5528 227.744C21.8792 227.079 22.152 226.389 22.3685 225.681C22.5768 224.972 22.7254 224.246 22.8128 223.513C22.8791 222.942 22.8924 222.611 22.9123 222.611Z" fill="#E0E0E0"/>
<path d="M19.4189 223.048C19.4189 223.048 19.4189 223.453 19.4189 224.103C19.4388 224.951 19.5455 225.796 19.7372 226.623C19.931 227.451 20.2064 228.257 20.5596 229.03C20.8381 229.62 21.0437 229.965 21.0238 229.979C21.0039 229.992 20.9575 229.906 20.858 229.746C20.7153 229.534 20.5868 229.313 20.4734 229.083C20.0856 228.317 19.7917 227.506 19.598 226.669C19.4022 225.832 19.3065 224.975 19.3128 224.116C19.3139 223.857 19.3294 223.598 19.3592 223.34C19.3629 223.24 19.3831 223.142 19.4189 223.048Z" fill="#E0E0E0"/>
<path d="M20.559 221.788C20.559 221.788 20.4993 222.02 20.4528 222.405C20.3978 222.906 20.4247 223.412 20.5325 223.904C20.798 225.051 21.1962 225.933 21.1962 225.953C21.0785 225.777 20.9827 225.588 20.9108 225.389C20.7025 224.92 20.5403 224.431 20.4263 223.93C20.3135 223.425 20.2978 222.903 20.3798 222.392C20.3961 222.18 20.4572 221.975 20.559 221.788Z" fill="#E0E0E0"/>
<path d="M18.4834 230.476C18.5166 230.476 18.9078 231.199 19.5445 232.001C20.1811 232.804 20.8178 233.328 20.7913 233.381C20.6271 233.294 20.4773 233.182 20.3469 233.049C20.0173 232.755 19.7133 232.433 19.4384 232.088C19.1601 231.741 18.9137 231.371 18.7022 230.98C18.6006 230.826 18.5266 230.655 18.4834 230.476Z" fill="#E0E0E0"/>
<path d="M23.6689 231.358C23.5772 231.545 23.4637 231.721 23.3307 231.882C23.028 232.278 22.7024 232.657 22.3558 233.016C22.0024 233.381 21.6234 233.72 21.2218 234.031C21.0713 234.171 20.9016 234.289 20.7178 234.382C20.8507 234.225 20.9997 234.083 21.1621 233.958C21.4406 233.699 21.8253 233.341 22.2298 232.923C22.6344 232.505 22.9792 232.107 23.2246 231.822C23.3571 231.653 23.5059 231.498 23.6689 231.358Z" fill="#E0E0E0"/>
<path d="M45.1565 183.151C45.1167 183.151 45.276 179.318 45.5083 174.59C45.7406 169.861 45.9662 166.035 46.0061 166.035C46.0459 166.035 45.88 169.868 45.6477 174.596C45.4153 179.325 45.1963 183.151 45.1565 183.151Z" fill="#E0E0E0"/>
<path d="M48.1412 169.855C48.1506 169.961 48.1506 170.067 48.1412 170.173C48.1614 170.462 48.1614 170.753 48.1412 171.042C48.0378 172.968 47.3765 174.823 46.2378 176.38C46.0666 176.611 45.8828 176.833 45.6874 177.044C45.6212 177.127 45.5455 177.203 45.4619 177.269C45.4619 177.269 45.7471 176.918 46.1583 176.314C47.2383 174.74 47.8876 172.911 48.0417 171.009C48.1345 170.306 48.1146 169.855 48.1412 169.855Z" fill="#E0E0E0"/>
<path d="M42.7162 170.392C42.7162 170.392 42.7692 170.783 42.8952 171.413C43.0538 172.23 43.3052 173.027 43.6446 173.787C43.9907 174.547 44.42 175.265 44.9245 175.929C45.3158 176.433 45.5877 176.725 45.5877 176.738C45.5115 176.686 45.4424 176.623 45.3821 176.553C45.1997 176.374 45.027 176.186 44.8649 175.989C44.3308 175.336 43.8849 174.616 43.5385 173.847C43.1931 173.077 42.9479 172.266 42.809 171.433C42.7626 171.108 42.7361 170.849 42.7294 170.67C42.7078 170.579 42.7033 170.485 42.7162 170.392Z" fill="#E0E0E0"/>
<path d="M47.4516 167.567C47.4516 167.567 47.4516 167.653 47.4516 167.812C47.4516 167.971 47.4516 168.203 47.4516 168.475C47.3878 169.221 47.2478 169.959 47.0337 170.677C46.824 171.396 46.5372 172.089 46.1782 172.746C46.039 172.998 45.9196 173.197 45.8268 173.33C45.7339 173.462 45.6875 173.529 45.6809 173.522C45.6742 173.515 45.84 173.21 46.092 172.7C46.4188 172.036 46.6894 171.346 46.9011 170.637C47.1143 169.929 47.2652 169.203 47.3521 168.469C47.4184 167.945 47.4317 167.567 47.4516 167.567Z" fill="#E0E0E0"/>
<path d="M43.9497 168.044C43.9497 168.044 43.9497 168.455 43.9497 169.105C43.9701 169.954 44.0767 170.798 44.2681 171.625C44.4608 172.452 44.7386 173.257 45.097 174.026C45.369 174.623 45.5812 174.968 45.5546 174.981C45.4906 174.91 45.435 174.832 45.3888 174.749C45.2511 174.535 45.125 174.313 45.0108 174.086C44.6202 173.32 44.3262 172.51 44.1354 171.672C43.9364 170.836 43.8406 169.978 43.8503 169.119C43.8503 168.794 43.8503 168.528 43.8901 168.343C43.9027 168.242 43.9226 168.142 43.9497 168.044Z" fill="#E0E0E0"/>
<path d="M45.0971 166.791C45.0971 166.791 45.0374 167.023 44.9909 167.408C44.9359 167.908 44.9628 168.414 45.0706 168.906C45.336 170.054 45.7343 170.936 45.7343 170.956C45.6135 170.782 45.5175 170.592 45.4489 170.392C45.2386 169.923 45.0763 169.434 44.9644 168.933C44.8516 168.428 44.8358 167.905 44.9179 167.394C44.9342 167.183 44.9953 166.977 45.0971 166.791Z" fill="#E0E0E0"/>
<path d="M43.0205 175.479C43.0205 175.479 43.4383 176.201 44.0816 177.004C44.7249 177.806 45.3549 178.33 45.3284 178.383C45.1642 178.296 45.0144 178.184 44.884 178.052C44.222 177.461 43.6658 176.761 43.2394 175.983C43.1389 175.828 43.0649 175.658 43.0205 175.479Z" fill="#E0E0E0"/>
<path d="M48.2067 176.361C48.1149 176.548 48.0014 176.724 47.8684 176.884C47.5657 177.281 47.2402 177.66 46.8936 178.019C46.5455 178.379 46.1756 178.718 45.786 179.033C45.6331 179.174 45.4612 179.292 45.2754 179.385C45.4127 179.228 45.5636 179.084 45.7264 178.954C46.0049 178.702 46.3895 178.343 46.7941 177.926C47.1986 177.508 47.5435 177.11 47.7888 176.818C47.9117 176.651 48.0517 176.498 48.2067 176.361Z" fill="#E0E0E0"/>
<path d="M59.5344 180.074C59.4946 180.074 59.6539 176.234 59.8862 171.513C60.1185 166.791 60.3442 162.958 60.3773 162.958C60.4105 162.958 60.2579 166.791 60.0256 171.519C59.7933 176.248 59.5676 180.074 59.5344 180.074Z" fill="#E0E0E0"/>
<path d="M62.5183 166.778C62.5278 166.883 62.5278 166.99 62.5183 167.096C62.5183 167.302 62.5183 167.6 62.5183 167.965C62.3991 169.878 61.7391 171.718 60.615 173.27C60.4437 173.501 60.26 173.722 60.0646 173.933C59.9253 174.086 59.8457 174.165 59.8325 174.159C59.8192 174.152 60.1176 173.807 60.5354 173.204C61.6155 171.63 62.2648 169.801 62.4189 167.898C62.5117 167.229 62.4918 166.778 62.5183 166.778Z" fill="#E0E0E0"/>
<path d="M57.094 167.315C57.094 167.315 57.147 167.706 57.2731 168.336C57.4316 169.153 57.683 169.95 58.0224 170.71C58.3685 171.469 58.7978 172.188 59.3024 172.852C59.687 173.356 59.9656 173.648 59.9656 173.661C59.8878 173.608 59.8166 173.546 59.7533 173.476C59.6273 173.35 59.4483 173.157 59.2427 172.912C58.7124 172.256 58.2668 171.537 57.9163 170.77C57.5727 170 57.3297 169.188 57.1935 168.356C57.147 168.031 57.1139 167.772 57.1073 167.593C57.0871 167.502 57.0827 167.408 57.094 167.315Z" fill="#E0E0E0"/>
<path d="M61.8288 164.516C61.8371 164.598 61.8371 164.68 61.8288 164.761C61.8288 164.92 61.8288 165.153 61.8288 165.425C61.765 166.171 61.625 166.909 61.411 167.626C61.1955 168.343 60.9089 169.036 60.5555 169.695C60.4497 169.894 60.3324 170.087 60.204 170.272C60.1178 170.412 60.0647 170.478 60.0515 170.471C60.0382 170.465 60.2173 170.16 60.4693 169.649C61.1249 168.32 61.551 166.889 61.7293 165.418C61.789 164.867 61.8089 164.509 61.8288 164.516Z" fill="#E0E0E0"/>
<path d="M58.36 164.967C58.36 164.967 58.36 165.378 58.36 166.028C58.3863 166.877 58.4952 167.721 58.685 168.548C58.8778 169.375 59.1556 170.179 59.514 170.949C59.7859 171.546 59.9915 171.891 59.9716 171.904C59.9075 171.833 59.8519 171.755 59.8058 171.672C59.7063 171.519 59.5737 171.287 59.4211 171.009C59.0363 170.241 58.7425 169.431 58.5457 168.595C58.3517 167.758 58.2582 166.901 58.2672 166.041C58.2667 165.782 58.2799 165.523 58.307 165.265C58.3128 165.164 58.3306 165.064 58.36 164.967Z" fill="#E0E0E0"/>
<path d="M59.4408 163.714C59.4408 163.714 59.3811 163.946 59.328 164.33C59.2752 164.831 59.3043 165.338 59.4143 165.829C59.6798 166.976 60.078 167.859 60.078 167.878C59.9635 167.701 59.8679 167.512 59.7926 167.315C59.5853 166.845 59.4231 166.356 59.3081 165.856C59.1937 165.35 59.1802 164.828 59.2683 164.317C59.2825 164.106 59.3413 163.9 59.4408 163.714Z" fill="#E0E0E0"/>
<path d="M57.3916 172.401C57.4314 172.401 57.816 173.124 58.4593 173.927C59.1026 174.729 59.726 175.253 59.6995 175.306C59.5382 175.218 59.3907 175.106 59.2618 174.975C58.9297 174.681 58.6235 174.359 58.3466 174.013C58.0739 173.664 57.8299 173.294 57.6171 172.905C57.5167 172.75 57.4406 172.58 57.3916 172.401Z" fill="#E0E0E0"/>
<path d="M62.5779 173.283C62.4926 173.474 62.3785 173.651 62.2397 173.807C61.9415 174.205 61.6181 174.584 61.2715 174.941C60.9234 175.302 60.5535 175.641 60.164 175.956C60.011 176.096 59.8391 176.215 59.6533 176.307C59.7892 176.152 59.9378 176.007 60.0977 175.876C60.3828 175.624 60.7608 175.266 61.172 174.848C61.5832 174.431 61.9214 174.033 62.1668 173.741C62.291 173.577 62.4285 173.424 62.5779 173.283Z" fill="#E0E0E0"/>
<path d="M65.4436 193.497C65.4038 193.497 65.5631 189.657 65.7954 184.935C66.0277 180.214 66.2533 176.38 66.2932 176.38C66.333 176.38 66.1737 180.214 65.9348 184.942C65.6958 189.671 65.4834 193.497 65.4436 193.497Z" fill="#E0E0E0"/>
<path d="M68.4273 180.2C68.441 180.306 68.441 180.413 68.4273 180.519C68.4476 180.808 68.4476 181.098 68.4273 181.387C68.3239 183.314 67.6627 185.169 66.524 186.726C66.3527 186.957 66.1689 187.178 65.9735 187.389C65.9073 187.473 65.8316 187.548 65.748 187.615C65.748 187.615 66.0332 187.263 66.4444 186.66C67.5245 185.086 68.1738 183.257 68.3278 181.354C68.4273 180.651 68.4008 180.2 68.4273 180.2Z" fill="#E0E0E0"/>
<path d="M63.0026 180.738C63.0026 180.738 63.0557 181.129 63.1817 181.759C63.3396 182.577 63.5933 183.374 63.9377 184.133C64.2794 184.893 64.7066 185.612 65.211 186.275C65.6023 186.779 65.8742 187.071 65.8742 187.084C65.7949 187.033 65.7234 186.97 65.662 186.899C65.5293 186.772 65.3569 186.58 65.1447 186.335C64.6107 185.682 64.1647 184.962 63.8183 184.193C63.4729 183.423 63.2278 182.611 63.0888 181.779C63.0424 181.454 63.0159 181.195 63.0092 181.016C62.9984 180.924 62.9962 180.83 63.0026 180.738Z" fill="#E0E0E0"/>
<path d="M67.7377 177.939C67.7377 177.939 67.7377 178.025 67.7377 178.184C67.7377 178.343 67.7377 178.575 67.7377 178.847C67.6733 179.593 67.5356 180.33 67.3265 181.049C67.112 181.767 66.823 182.46 66.4644 183.118C66.3251 183.37 66.2057 183.569 66.1195 183.695C66.0333 183.821 65.9736 183.901 65.967 183.894C65.9604 183.888 66.1261 183.582 66.3782 183.072C66.7046 182.407 66.9774 181.717 67.1939 181.009C67.4044 180.3 67.5552 179.575 67.6448 178.841C67.7045 178.29 67.7178 177.932 67.7377 177.939Z" fill="#E0E0E0"/>
<path d="M64.2359 178.39C64.2359 178.39 64.2359 178.801 64.2359 179.451C64.2562 180.3 64.3628 181.144 64.5542 181.971C64.75 182.797 65.0277 183.601 65.3832 184.372C65.6617 184.969 65.8673 185.313 65.8474 185.327C65.8275 185.34 65.7744 185.247 65.6816 185.095C65.5389 184.882 65.4104 184.661 65.297 184.431C64.9092 183.665 64.6153 182.854 64.4216 182.017C64.2225 181.181 64.1268 180.324 64.1364 179.464C64.1376 179.205 64.153 178.946 64.1828 178.688C64.1915 178.587 64.2093 178.488 64.2359 178.39Z" fill="#E0E0E0"/>
<path d="M65.35 177.136C65.35 177.136 65.2903 177.369 65.2438 177.753C65.1889 178.254 65.2158 178.76 65.3235 179.252C65.589 180.399 65.9872 181.281 65.9872 181.301C65.8695 181.126 65.7737 180.936 65.7018 180.738C65.4945 180.268 65.3323 179.779 65.2173 179.279C65.1045 178.773 65.0888 178.251 65.1708 177.74C65.1871 177.528 65.2482 177.323 65.35 177.136Z" fill="#E0E0E0"/>
<path d="M63.3076 185.824C63.3076 185.824 63.7254 186.547 64.3687 187.349C65.012 188.152 65.642 188.676 65.6155 188.729C65.4513 188.641 65.3015 188.53 65.1712 188.397C64.8442 188.11 64.5404 187.797 64.2626 187.462C63.9858 187.115 63.7395 186.744 63.5265 186.355C63.4232 186.192 63.3492 186.012 63.3076 185.824Z" fill="#E0E0E0"/>
<path d="M68.4938 186.706C68.402 186.893 68.2885 187.069 68.1555 187.23C67.8528 187.627 67.5273 188.005 67.1807 188.364C66.8326 188.725 66.4627 189.063 66.0732 189.379C65.9202 189.519 65.7483 189.637 65.5625 189.73C65.702 189.576 65.8528 189.432 66.0135 189.299C66.292 189.047 66.6766 188.689 67.0812 188.271C67.4857 187.853 67.8306 187.455 68.0759 187.164C68.201 186.999 68.3409 186.846 68.4938 186.706Z" fill="#E0E0E0"/>
<path d="M85.956 198.816C85.9162 198.816 84.7026 195.188 83.2436 190.685C81.7846 186.182 80.6306 182.528 80.6638 182.515C80.6969 182.501 81.9106 186.142 83.3762 190.645C84.8418 195.148 85.9891 198.802 85.956 198.816Z" fill="#E0E0E0"/>
<path d="M84.0191 185.327C84.0774 185.416 84.1263 185.512 84.1651 185.612C84.2818 185.876 84.3837 186.146 84.4704 186.421C84.7626 187.335 84.9213 188.287 84.9417 189.246C84.9597 190.206 84.8412 191.164 84.5899 192.091C84.5143 192.37 84.4234 192.645 84.3178 192.913C84.2814 193.014 84.2371 193.112 84.185 193.205C84.185 193.205 84.3244 192.774 84.497 192.065C84.7165 191.144 84.819 190.199 84.8023 189.253C84.7811 188.306 84.6383 187.365 84.3775 186.454C84.1784 185.751 83.9992 185.333 84.0191 185.327Z" fill="#E0E0E0"/>
<path d="M79.1377 187.754C79.1377 187.754 79.33 188.105 79.6682 188.649C80.1111 189.355 80.6316 190.009 81.2201 190.599C81.8082 191.188 82.4625 191.706 83.1698 192.144C83.7136 192.482 84.0718 192.655 84.0651 192.675C83.9729 192.653 83.8837 192.619 83.7999 192.575C83.5718 192.474 83.3503 192.359 83.1367 192.23C82.4104 191.807 81.7416 191.293 81.1471 190.698C80.5492 190.106 80.0319 189.437 79.6085 188.709C79.4824 188.494 79.3674 188.272 79.2637 188.046C79.2081 187.955 79.1657 187.857 79.1377 187.754Z" fill="#E0E0E0"/>
<path d="M82.5727 183.483C82.6199 183.552 82.6557 183.628 82.6789 183.708C82.7613 183.926 82.8322 184.147 82.8913 184.372C83.1014 185.089 83.2348 185.827 83.2895 186.573C83.3425 187.319 83.3203 188.067 83.2232 188.808C83.1834 189.093 83.1369 189.326 83.1037 189.471C83.0887 189.554 83.0642 189.634 83.0307 189.71C83.0307 189.71 83.0705 189.359 83.1236 188.795C83.1824 188.056 83.1824 187.313 83.1236 186.573C83.0673 185.838 82.9496 185.108 82.7718 184.391C82.659 183.795 82.5528 183.483 82.5727 183.483Z" fill="#E0E0E0"/>
<path d="M79.4629 185.128C79.4629 185.128 79.6021 185.506 79.8475 186.109C80.4859 187.69 81.4483 189.12 82.6727 190.307C83.1369 190.758 83.4552 191.01 83.442 191.03C83.3549 190.989 83.2745 190.935 83.2032 190.871C82.9915 190.718 82.79 190.552 82.5997 190.373C81.3319 189.209 80.3571 187.762 79.7547 186.149C79.6419 185.837 79.5624 185.585 79.5159 185.406C79.4863 185.316 79.4685 185.222 79.4629 185.128Z" fill="#E0E0E0"/>
<path d="M80.0532 183.556C80.0532 183.556 80.0532 183.795 80.1725 184.173C80.3007 184.658 80.5067 185.119 80.7827 185.539C81.4458 186.52 82.1488 187.197 82.109 187.23C81.9374 187.108 81.7814 186.966 81.6448 186.806C81.2828 186.439 80.9564 186.04 80.6699 185.612C80.3851 185.181 80.1869 184.699 80.0863 184.193C80.0307 183.985 80.0194 183.768 80.0532 183.556Z" fill="#E0E0E0"/>
<path d="M81.2334 192.403C81.2334 192.37 81.8966 192.927 82.7653 193.451C83.6341 193.975 84.4299 194.253 84.4167 194.293C84.2348 194.276 84.0574 194.226 83.8927 194.147C83.4771 193.989 83.0756 193.796 82.6924 193.57C82.3113 193.345 81.9516 193.085 81.618 192.794C81.4683 192.687 81.3382 192.554 81.2334 192.403Z" fill="#E0E0E0"/>
<path d="M86.3925 191.388C86.3716 191.594 86.3271 191.796 86.2599 191.992C86.121 192.472 85.9526 192.944 85.7559 193.404C85.5646 193.861 85.3431 194.304 85.0927 194.731C85.0007 194.919 84.8824 195.093 84.7412 195.248C84.8142 195.053 84.9029 194.865 85.0065 194.684C85.1789 194.346 85.411 193.875 85.6697 193.358C85.9283 192.841 86.0808 192.337 86.2068 191.978C86.2465 191.775 86.3088 191.577 86.3925 191.388Z" fill="#E0E0E0"/>
<path d="M107.86 180.074C107.86 180.074 105.486 183.092 102.502 186.759C99.5176 190.427 97.0639 193.391 97.0373 193.391C97.0108 193.391 99.4049 190.374 102.396 186.7C105.387 183.025 107.827 180.054 107.86 180.074Z" fill="#E0E0E0"/>
<path d="M97.5742 189.014C97.6214 188.92 97.6746 188.829 97.7334 188.742C97.8936 188.499 98.0663 188.264 98.2507 188.039C99.4803 186.555 101.11 185.455 102.946 184.869C103.222 184.782 103.504 184.711 103.788 184.657C103.892 184.626 103.999 184.611 104.107 184.61C104.107 184.61 103.669 184.723 102.979 184.962C102.086 185.278 101.235 185.703 100.446 186.229C99.6623 186.762 98.9493 187.393 98.3236 188.105C97.8461 188.656 97.6007 189.034 97.5742 189.014Z" fill="#E0E0E0"/>
<path d="M102.263 191.799C102.263 191.799 102.455 191.448 102.727 190.871C103.079 190.116 103.346 189.324 103.523 188.51C103.698 187.695 103.781 186.863 103.768 186.03C103.768 185.366 103.702 184.995 103.728 184.995C103.756 185.084 103.776 185.175 103.788 185.267C103.826 185.52 103.85 185.774 103.861 186.03C103.905 186.873 103.838 187.718 103.662 188.543C103.475 189.366 103.183 190.162 102.793 190.911C102.682 191.141 102.554 191.363 102.409 191.574C102.37 191.655 102.321 191.731 102.263 191.799Z" fill="#E0E0E0"/>
<path d="M96.8242 191.249C96.8242 191.249 96.864 191.169 96.9569 191.037C97.0887 190.852 97.2304 190.675 97.3813 190.506C97.8722 189.944 98.4188 189.433 99.0127 188.981C99.6096 188.53 100.252 188.144 100.929 187.827C101.145 187.725 101.366 187.636 101.592 187.561C101.669 187.527 101.749 187.503 101.831 187.489C101.831 187.489 101.513 187.648 101.009 187.913C100.351 188.252 99.7227 188.647 99.1321 189.093C98.5437 189.542 97.9916 190.037 97.4808 190.572C97.0298 190.99 96.8242 191.262 96.8242 191.249Z" fill="#E0E0E0"/>
<path d="M99.8818 192.953C99.8818 192.953 100.127 192.628 100.499 192.098C100.985 191.4 101.4 190.656 101.739 189.876C102.071 189.095 102.323 188.282 102.488 187.449C102.621 186.786 102.661 186.408 102.687 186.408C102.697 186.502 102.697 186.598 102.687 186.693C102.671 186.953 102.64 187.212 102.594 187.469C102.45 188.314 102.207 189.14 101.871 189.929C101.533 190.72 101.101 191.468 100.585 192.157C100.386 192.416 100.213 192.622 100.087 192.754C100.028 192.829 99.9588 192.896 99.8818 192.953Z" fill="#E0E0E0"/>
<path d="M98.2373 193.311C98.2373 193.311 98.4296 193.159 98.6949 192.874C99.0341 192.504 99.3097 192.08 99.5106 191.62C99.9815 190.539 100.174 189.578 100.22 189.591C100.209 189.815 100.174 190.038 100.114 190.254C100.002 190.755 99.8424 191.243 99.6366 191.713C99.4292 192.188 99.1319 192.618 98.7612 192.98C98.6112 193.125 98.4329 193.238 98.2373 193.311Z" fill="#E0E0E0"/>
<path d="M105.036 187.522C104.996 187.522 105.122 186.686 105.082 185.665C105.042 184.644 104.856 183.828 104.896 183.815C104.976 183.983 105.029 184.161 105.055 184.345C105.149 184.782 105.205 185.225 105.221 185.672C105.237 186.115 105.215 186.559 105.155 186.998C105.143 187.178 105.103 187.355 105.036 187.522Z" fill="#E0E0E0"/>
<path d="M101.381 183.735C101.564 183.639 101.757 183.566 101.958 183.516C102.437 183.374 102.924 183.261 103.417 183.178C103.911 183.095 104.409 183.042 104.909 183.019C105.116 182.997 105.325 182.997 105.532 183.019C105.33 183.068 105.124 183.097 104.916 183.105C104.538 183.145 104.014 183.204 103.443 183.304C102.873 183.403 102.356 183.509 101.984 183.602C101.788 183.667 101.586 183.712 101.381 183.735Z" fill="#E0E0E0"/>
<path d="M63.3077 226.981C63.2679 226.981 63.1418 223.148 63.0157 218.419C62.8896 213.691 62.8298 209.851 62.8696 209.851C62.9095 209.851 63.0356 213.684 63.155 218.413C63.2745 223.141 63.3475 226.981 63.3077 226.981Z" fill="#E0E0E0"/>
<path d="M65.2836 213.499C65.319 213.601 65.3391 213.708 65.3432 213.817C65.3819 214.103 65.404 214.391 65.4096 214.679C65.4439 216.607 64.9236 218.503 63.9108 220.144C63.7118 220.455 63.5394 220.701 63.4134 220.86C63.3531 220.948 63.2818 221.028 63.2012 221.099C63.2012 221.099 63.4598 220.727 63.8246 220.097C64.3019 219.278 64.6697 218.399 64.9188 217.484C65.1666 216.569 65.2981 215.627 65.3101 214.679C65.3167 213.989 65.257 213.505 65.2836 213.499Z" fill="#E0E0E0"/>
<path d="M59.9123 214.44C59.9123 214.44 59.9985 214.831 60.1709 215.448C60.3924 216.252 60.7039 217.029 61.0994 217.763C61.5013 218.492 61.9816 219.174 62.5319 219.799C62.9629 220.276 63.2547 220.541 63.2415 220.561C63.1589 220.514 63.0831 220.456 63.016 220.389C62.8216 220.226 62.6377 220.051 62.4655 219.865C61.8834 219.254 61.3839 218.57 60.98 217.829C60.5789 217.087 60.2757 216.295 60.0781 215.475C60.0176 215.226 59.9711 214.973 59.9388 214.719C59.9196 214.627 59.9107 214.534 59.9123 214.44Z" fill="#E0E0E0"/>
<path d="M64.4283 211.297C64.4535 211.376 64.4669 211.459 64.4681 211.542C64.4681 211.701 64.4681 211.934 64.4681 212.205C64.4632 212.955 64.381 213.701 64.2227 214.434C64.0642 215.164 63.8285 215.875 63.5197 216.556C63.4004 216.815 63.3009 217.027 63.2213 217.166C63.1869 217.242 63.1398 217.311 63.082 217.372C63.082 217.372 63.2213 217.047 63.4335 216.516C63.713 215.831 63.9348 215.123 64.0967 214.401C64.249 213.677 64.3444 212.943 64.3819 212.205C64.415 211.648 64.4084 211.297 64.4283 211.297Z" fill="#E0E0E0"/>
<path d="M60.9728 212C60.9728 212 60.9728 212.404 61.0591 213.054C61.1466 213.9 61.3177 214.735 61.5697 215.548C61.8255 216.356 62.1633 217.136 62.5777 217.876C62.8961 218.446 63.1282 218.777 63.1083 218.791C63.0378 218.726 62.9754 218.652 62.9226 218.572C62.8099 218.426 62.664 218.207 62.4915 217.909C62.0493 217.172 61.6954 216.387 61.4371 215.568C61.1789 214.747 61.0208 213.899 60.9662 213.041C60.9662 212.716 60.9662 212.451 60.9662 212.265C60.9588 212.177 60.961 212.088 60.9728 212Z" fill="#E0E0E0"/>
<path d="M61.9874 210.673C61.9874 210.673 61.9409 210.912 61.9277 211.297C61.9072 211.799 61.9723 212.302 62.1201 212.782C62.4719 213.91 62.963 214.772 62.9099 214.772C62.7774 214.605 62.666 214.422 62.5781 214.228C62.3358 213.775 62.138 213.3 61.9874 212.809C61.8349 212.313 61.7808 211.793 61.8281 211.277C61.841 211.067 61.8951 210.862 61.9874 210.673Z" fill="#E0E0E0"/>
<path d="M60.6016 219.494C60.6347 219.494 61.0791 220.157 61.7754 220.933C62.4717 221.709 63.1415 222.18 63.1018 222.213C62.932 222.142 62.7751 222.043 62.6375 221.921C62.2842 221.652 61.9557 221.353 61.656 221.026C61.3497 220.704 61.0765 220.353 60.8403 219.978C60.7322 219.832 60.6513 219.668 60.6016 219.494Z" fill="#E0E0E0"/>
<path d="M65.8409 219.958C65.7635 220.151 65.6633 220.333 65.5425 220.502C64.9977 221.343 64.3543 222.115 63.6259 222.803C63.4844 222.954 63.3239 223.085 63.1484 223.194C63.2721 223.028 63.4097 222.873 63.5596 222.73C63.8182 222.458 64.1764 222.067 64.5477 221.623C64.9191 221.178 65.2109 220.754 65.4563 220.449C65.5648 220.271 65.6939 220.106 65.8409 219.958Z" fill="#E0E0E0"/>
<path d="M77.9045 213.412C77.8647 213.412 76.6511 209.785 75.1921 205.288C73.7331 200.792 72.5725 197.125 72.6123 197.111C72.6521 197.098 73.8591 200.739 75.3247 205.242C76.7904 209.745 77.9377 213.399 77.9045 213.412Z" fill="#E0E0E0"/>
<path d="M75.9684 199.923C76.0248 200.014 76.0736 200.11 76.1144 200.209C76.232 200.474 76.3339 200.747 76.4197 201.024C76.7123 201.938 76.8711 202.89 76.8909 203.849C76.909 204.807 76.7906 205.763 76.5392 206.688C76.4629 206.967 76.3698 207.242 76.2604 207.51C76.1874 207.702 76.1409 207.809 76.1276 207.802C76.1144 207.795 76.267 207.371 76.4396 206.661C76.6649 205.741 76.7698 204.796 76.7515 203.849C76.7298 202.902 76.5871 201.962 76.3268 201.051C76.1276 200.348 75.9418 199.937 75.9684 199.923Z" fill="#E0E0E0"/>
<path d="M71.0864 202.351C71.0864 202.351 71.2787 202.702 71.6169 203.246C72.0572 203.952 72.5755 204.606 73.1622 205.196C73.766 205.785 74.4333 206.305 75.1517 206.747C75.6955 207.079 76.0536 207.251 76.047 207.271C76.0404 207.291 75.9475 207.271 75.7817 207.179C75.6159 207.086 75.3838 206.986 75.1185 206.827C74.3921 206.404 73.7234 205.889 73.129 205.295C72.531 204.702 72.0136 204.033 71.5904 203.306C71.463 203.091 71.3478 202.87 71.2456 202.642C71.1129 202.45 71.0731 202.357 71.0864 202.351Z" fill="#E0E0E0"/>
<path d="M74.5215 198.073C74.5624 198.145 74.5958 198.22 74.621 198.298C74.6808 198.451 74.7604 198.67 74.8401 198.962C75.253 200.405 75.3637 201.917 75.1653 203.405C75.1373 203.628 75.0974 203.849 75.0458 204.068C75.0337 204.152 75.0114 204.235 74.9795 204.314C74.9916 204.005 75.0226 203.697 75.0724 203.392C75.1312 202.655 75.1312 201.914 75.0724 201.177C75.0126 200.439 74.895 199.707 74.7206 198.988C74.6364 198.687 74.5699 198.382 74.5215 198.073Z" fill="#E0E0E0"/>
<path d="M71.4121 199.724C71.4121 199.724 71.5447 200.109 71.7968 200.713C72.1182 201.498 72.5181 202.249 72.9905 202.954C73.4661 203.656 74.0104 204.309 74.6153 204.904C75.0861 205.361 75.4045 205.613 75.3846 205.633C75.3005 205.587 75.2206 205.534 75.1458 205.474C74.9999 205.368 74.7943 205.196 74.549 204.977C73.9184 204.394 73.3555 203.742 72.8711 203.034C72.3952 202.319 72.0035 201.551 71.7039 200.746C71.5912 200.434 71.5116 200.182 71.4652 200.003C71.4314 199.914 71.4134 199.82 71.4121 199.724Z" fill="#E0E0E0"/>
<path d="M72.0022 198.153C72.0022 198.153 72.0022 198.398 72.1216 198.769C72.244 199.257 72.4505 199.719 72.7317 200.135C73.3949 201.117 74.0979 201.793 74.0581 201.833C73.8947 201.701 73.7457 201.552 73.6137 201.389C73.2521 201.027 72.9277 200.629 72.6455 200.202C72.3602 199.768 72.1599 199.284 72.0553 198.776C71.9967 198.574 71.9787 198.362 72.0022 198.153Z" fill="#E0E0E0"/>
<path d="M73.1758 207.006C73.1758 206.973 73.839 207.53 74.7144 208.047C75.5898 208.565 76.3789 208.856 76.3657 208.896C76.1826 208.87 76.004 208.819 75.8351 208.744C75.4217 208.585 75.0224 208.392 74.6414 208.167C74.2612 207.939 73.8997 207.682 73.5604 207.397C73.4167 207.283 73.2875 207.152 73.1758 207.006Z" fill="#E0E0E0"/>
<path d="M78.3423 205.985C78.3227 206.191 78.2782 206.393 78.2097 206.588C77.9248 207.549 77.5286 208.472 77.0292 209.341C76.9307 209.523 76.8128 209.694 76.6777 209.851C76.7516 209.659 76.8403 209.473 76.943 209.294C77.1154 208.949 77.3476 208.478 77.573 207.968C77.7985 207.457 77.9842 206.94 78.1168 206.582C78.1705 206.375 78.2461 206.175 78.3423 205.985Z" fill="#E0E0E0"/>
<path d="M32.6018 218.738C32.562 218.738 31.3484 215.11 29.8894 210.614C28.4304 206.117 27.2698 202.45 27.3096 202.437C27.3494 202.424 28.5564 206.064 30.022 210.567C31.4876 215.07 32.6349 218.731 32.6018 218.738Z" fill="#E0E0E0"/>
<path d="M30.6666 205.249C30.723 205.339 30.7719 205.435 30.8126 205.534C30.9302 205.799 31.0321 206.072 31.1179 206.349C31.4106 207.263 31.5693 208.215 31.5892 209.175C31.606 210.128 31.4876 211.079 31.2374 212C31.1612 212.279 31.0681 212.554 30.9586 212.822C30.8856 213.014 30.8392 213.12 30.8259 213.114C30.8126 213.107 30.9719 212.683 31.1445 211.973C31.364 211.052 31.4666 210.108 31.4498 209.161C31.4281 208.214 31.2853 207.274 31.025 206.363C30.8259 205.68 30.6401 205.262 30.6666 205.249Z" fill="#E0E0E0"/>
<path d="M25.7852 207.682C25.7852 207.682 25.9775 208.027 26.3157 208.571C26.7539 209.277 27.27 209.931 27.8543 210.521C28.4581 211.11 29.1254 211.63 29.8438 212.073C30.3876 212.411 30.7457 212.577 30.7391 212.603C30.6469 212.581 30.5577 212.548 30.4738 212.504C30.308 212.431 30.0759 212.311 29.8107 212.152C29.0843 211.729 28.4155 211.215 27.8211 210.62C27.2231 210.028 26.7058 209.359 26.2825 208.631C26.1551 208.416 26.04 208.195 25.9377 207.968C25.8754 207.879 25.8242 207.783 25.7852 207.682Z" fill="#E0E0E0"/>
<path d="M29.2197 203.378C29.2623 203.449 29.2958 203.525 29.3193 203.604C29.379 203.756 29.4587 203.975 29.5383 204.267C29.941 205.703 30.0449 207.206 29.8436 208.684C29.8038 208.969 29.764 209.195 29.7242 209.347C29.7115 209.429 29.6892 209.509 29.6578 209.586C29.6578 209.586 29.6976 209.228 29.7507 208.664C29.8096 207.927 29.8096 207.186 29.7507 206.449C29.691 205.711 29.5734 204.98 29.3989 204.26C29.3227 203.97 29.2629 203.676 29.2197 203.378Z" fill="#E0E0E0"/>
<path d="M26.1094 205.05C26.1094 205.05 26.2486 205.434 26.494 206.038C26.8141 206.824 27.2141 207.575 27.6877 208.279C28.1634 208.981 28.7077 209.635 29.3125 210.229C29.7834 210.687 30.1017 210.939 30.0818 210.959L29.8497 210.799C29.6396 210.645 29.4382 210.479 29.2462 210.302C28.6124 209.723 28.0493 209.07 27.5684 208.359C27.0925 207.644 26.7008 206.876 26.4012 206.071C26.2884 205.766 26.2088 205.507 26.1624 205.328C26.1278 205.239 26.1098 205.145 26.1094 205.05Z" fill="#E0E0E0"/>
<path d="M26.6999 203.478C26.6999 203.478 26.6999 203.723 26.8192 204.095C26.9427 204.584 27.1491 205.048 27.4294 205.468C28.0925 206.442 28.7955 207.119 28.7557 207.159C28.5837 207.032 28.4259 206.888 28.2849 206.728C27.9232 206.365 27.5989 205.968 27.3166 205.541C27.0341 205.105 26.8341 204.622 26.7264 204.115C26.6749 203.906 26.6659 203.69 26.6999 203.478Z" fill="#E0E0E0"/>
<path d="M27.8545 212.331C27.8545 212.298 28.5177 212.855 29.3931 213.372C30.2685 213.89 31.0577 214.182 31.0444 214.221C30.8613 214.195 30.6827 214.144 30.5138 214.069C30.1004 213.91 29.7011 213.717 29.3201 213.492C28.9408 213.266 28.5814 213.009 28.2458 212.723C28.0991 212.609 27.9676 212.478 27.8545 212.331Z" fill="#E0E0E0"/>
<path d="M33.04 211.337C33.02 211.545 32.9754 211.749 32.9074 211.947C32.7653 212.424 32.597 212.894 32.4033 213.353C32.2077 213.807 31.9863 214.25 31.7402 214.679C31.6518 214.867 31.533 215.04 31.3887 215.19C31.4625 214.997 31.5512 214.811 31.6539 214.633C31.8264 214.288 32.0585 213.817 32.3171 213.306C32.5758 212.796 32.7349 212.278 32.8609 211.92C32.9006 211.72 32.9606 211.525 33.04 211.337Z" fill="#E0E0E0"/>
<path d="M51.8801 205.633C51.8403 205.633 51.9996 201.793 52.2319 197.072C52.4642 192.35 52.6899 188.517 52.7297 188.517C52.7695 188.517 52.6036 192.35 52.3713 197.078C52.139 201.807 51.92 205.633 51.8801 205.633Z" fill="#E0E0E0"/>
<path d="M54.8658 192.336C54.8752 192.442 54.8752 192.549 54.8658 192.655C54.8861 192.944 54.8861 193.234 54.8658 193.524C54.7624 195.45 54.1011 197.305 52.9624 198.862C52.7912 199.093 52.6074 199.314 52.412 199.525C52.3458 199.609 52.2701 199.685 52.1865 199.751C52.1865 199.751 52.4717 199.393 52.8829 198.796C53.9629 197.222 54.6123 195.393 54.7663 193.49C54.8591 192.767 54.8392 192.336 54.8658 192.336Z" fill="#E0E0E0"/>
<path d="M49.4395 192.874C49.4395 192.874 49.4926 193.265 49.6186 193.895C49.7771 194.712 50.0285 195.509 50.368 196.269C50.714 197.028 51.1433 197.747 51.6479 198.411C52.0325 198.915 52.3111 199.207 52.3111 199.22C52.2348 199.168 52.1657 199.105 52.1055 199.035C51.9231 198.856 51.7504 198.668 51.5882 198.471C51.0566 197.814 50.6109 197.092 50.2619 196.322C49.9164 195.553 49.6734 194.741 49.539 193.908C49.4998 193.658 49.4732 193.405 49.4594 193.152C49.4355 193.061 49.4288 192.967 49.4395 192.874Z" fill="#E0E0E0"/>
<path d="M54.175 190.068C54.175 190.068 54.175 190.161 54.175 190.32C54.175 190.48 54.175 190.712 54.175 190.984C54.1112 191.73 53.9712 192.468 53.7572 193.185C53.5445 193.903 53.2578 194.596 52.9017 195.254C52.7944 195.453 52.6771 195.645 52.5502 195.831C52.5114 195.904 52.4622 195.971 52.4043 196.03C52.4043 196.03 52.5635 195.719 52.8155 195.208C53.1422 194.544 53.4128 193.854 53.6246 193.146C53.8378 192.437 53.9887 191.712 54.0755 190.977C54.1352 190.426 54.1551 190.068 54.175 190.068Z" fill="#E0E0E0"/>
<path d="M50.6743 190.526C50.6743 190.526 50.6743 190.937 50.6743 191.587C50.6946 192.436 50.8013 193.28 50.9926 194.107C51.1854 194.934 51.4632 195.738 51.8216 196.508C52.0935 197.105 52.2991 197.449 52.2792 197.463C52.2151 197.392 52.1595 197.314 52.1134 197.231C51.9757 197.016 51.8495 196.795 51.7354 196.567C51.3451 195.801 51.049 194.991 50.8533 194.153C50.6593 193.316 50.5658 192.459 50.5748 191.6C50.5748 191.275 50.5748 191.003 50.6146 190.824C50.6272 190.724 50.6472 190.624 50.6743 190.526Z" fill="#E0E0E0"/>
<path d="M51.7885 189.273C51.7885 189.273 51.7288 189.505 51.6823 189.889C51.627 190.388 51.6539 190.892 51.762 191.382C52.0275 192.536 52.4257 193.418 52.4257 193.437C52.3041 193.262 52.208 193.07 52.1403 192.867C51.9289 192.401 51.7665 191.914 51.6558 191.415C51.543 190.909 51.5272 190.387 51.6093 189.876C51.6256 189.665 51.6867 189.459 51.7885 189.273Z" fill="#E0E0E0"/>
<path d="M49.7393 197.96C49.7393 197.96 50.1571 198.683 50.8003 199.486C51.4436 200.288 52.0737 200.812 52.0405 200.865C51.8805 200.774 51.7333 200.663 51.6028 200.533C50.9407 199.942 50.3845 199.243 49.9581 198.464C49.8576 198.31 49.7837 198.139 49.7393 197.96Z" fill="#E0E0E0"/>
<path d="M54.9322 198.842C54.8411 199.028 54.7275 199.202 54.594 199.36C53.9924 200.16 53.2928 200.882 52.5116 201.508C52.3598 201.652 52.1878 201.773 52.001 201.866C52.1383 201.71 52.2892 201.565 52.4519 201.435C52.7305 201.183 53.1151 200.819 53.5197 200.407C53.9242 199.996 54.269 199.592 54.5144 199.3C54.6373 199.133 54.7773 198.98 54.9322 198.842Z" fill="#E0E0E0"/>
<g opacity="0.3">
<path d="M48.0146 166.035C50.6116 168.094 53.5688 169.652 56.7355 170.631C58.0748 171.12 59.5116 171.284 60.9268 171.108C61.632 171.01 62.2973 170.722 62.8511 170.274C63.405 169.827 63.8264 169.237 64.0702 168.568C64.1697 168.23 64.1565 167.779 63.8381 167.633C63.5198 167.487 63.175 167.779 62.85 168.004C61.9016 168.714 59.0765 168.886 57.896 168.747C54.0297 168.296 51.5162 167.354 48.0146 166.048" fill="black"/>
</g>
<path d="M72.9508 192.947C72.998 193.048 73.0336 193.155 73.0569 193.265C73.1166 193.484 73.216 193.795 73.2956 194.213C73.553 195.389 73.7018 196.585 73.7399 197.788C73.9144 201.791 72.9831 205.766 71.0482 209.275C69.1134 212.785 66.2496 215.694 62.7709 217.683C61.7309 218.29 60.639 218.802 59.5081 219.215C59.1168 219.368 58.7919 219.447 58.5796 219.52C58.4734 219.561 58.3616 219.586 58.248 219.593C58.6434 219.404 59.0485 219.235 59.4617 219.089C60.5621 218.634 61.6263 218.095 62.6449 217.478C66.0366 215.46 68.8296 212.576 70.7365 209.121C72.6434 205.666 73.5954 201.766 73.4946 197.821C73.4795 196.629 73.3686 195.44 73.163 194.266C73.0676 193.831 72.9968 193.39 72.9508 192.947Z" fill="#263238"/>
<g opacity="0.2">
<path d="M73.4935 197.304C73.5397 198.741 73.2606 200.171 72.6773 201.486C72.094 202.8 71.2214 203.967 70.1246 204.897C68.6987 206.084 66.9413 206.834 65.4823 208.034C64.1766 209.138 63.2012 210.582 62.6638 212.205C62.3919 213.048 62.2725 214.076 62.8827 214.712C63.4928 215.349 64.7595 215.256 65.6746 214.865C68.6656 213.598 70.7944 210.793 71.9417 207.755C73.089 204.718 73.3675 201.422 73.5665 198.179" fill="black"/>
</g>
<path d="M90.2732 194.85C89.241 192.238 89.2743 189.327 90.3662 186.739C90.1099 188.077 89.9436 189.431 89.8684 190.791C89.9105 192.152 90.0458 193.508 90.2732 194.85Z" fill="#263238"/>
<path d="M92.2762 194.048C91.4435 193.023 90.8824 191.805 90.6447 190.506C90.2962 189.234 90.278 187.894 90.5917 186.613C90.6229 187.895 90.7538 189.172 90.983 190.433C91.3275 191.667 91.7597 192.875 92.2762 194.048Z" fill="#263238"/>
<path d="M125.069 175.313C125.069 175.313 124.864 175.153 124.499 174.981C124.005 174.744 123.443 174.692 122.914 174.835L122.616 174.921L122.768 174.643C122.978 174.255 123.117 173.833 123.179 173.396C123.304 172.541 123.17 171.668 122.795 170.889C122.503 170.286 122.191 169.994 122.231 169.961C122.549 170.165 122.804 170.455 122.967 170.796C123.425 171.6 123.598 172.535 123.458 173.449C123.383 173.915 123.226 174.364 122.994 174.775L122.841 174.583C123.43 174.437 124.052 174.53 124.572 174.842C124.95 175.074 125.083 175.299 125.069 175.313Z" fill="#AA6550"/>
<path d="M129.519 172.414C130.136 170.902 136.317 168.236 135.488 167.288C134.434 166.055 129.155 170.365 128.684 170.697C128.213 171.028 127.735 170.345 128.18 170.034C128.81 169.636 135.382 165.305 134.361 164.065C133.79 163.402 132.689 164.556 132.689 164.556C132.689 164.556 126.827 169.072 126.363 168.475C125.898 167.878 129.241 165.106 130.435 164.257C131.628 163.409 131.715 162.5 130.919 162.268C130.375 162.115 126.661 164.635 125.494 165.511C124.327 166.386 121.183 168.827 121.793 166.333C122.403 163.84 121.946 161.691 121.435 161.213C120.925 160.736 120.062 161.286 120.202 162.069C120.275 162.931 120.231 163.799 120.069 164.649C119.926 165.335 119.704 166.003 119.406 166.638C118.786 168.084 117.784 169.333 116.508 170.253L123.04 177.945L123.876 177.382C127.105 175.187 130.136 174.344 131.887 173.336C135.143 171.453 134.984 171.154 134.712 170.803C134.016 169.908 128.903 173.927 129.519 172.414Z" fill="#B78876"/>
<path d="M120.699 160.272L122.815 174.006L131.091 173.867L131.476 171.3C131.476 171.3 136.165 171.3 136.529 167.321C136.894 163.342 132.869 163.302 132.869 163.302L133.479 159.715L120.699 160.272ZM131.675 169.901L132.65 164.808C132.65 164.808 135.482 164.761 135.263 167.049C135.044 169.337 131.642 169.881 131.642 169.881L131.675 169.901Z" fill="#455A64"/>
<path d="M126.854 141.776C126.854 141.776 126.914 141.809 127.007 141.895C127.132 142.033 127.239 142.187 127.325 142.353C127.603 142.991 127.673 143.701 127.524 144.382C127.295 145.364 126.929 146.308 126.437 147.187C126.186 147.705 125.997 148.25 125.873 148.812C125.752 149.404 125.803 150.018 126.019 150.583C126.533 151.667 127.244 152.648 128.114 153.474C128.841 154.198 129.367 155.098 129.64 156.087C129.789 156.761 129.693 157.467 129.368 158.077C129.274 158.24 129.156 158.388 129.016 158.514C128.917 158.594 128.857 158.634 128.851 158.62C128.998 158.429 129.13 158.227 129.248 158.017C129.515 157.419 129.569 156.747 129.401 156.114C129.109 155.18 128.584 154.335 127.876 153.66C126.966 152.812 126.225 151.8 125.694 150.676C125.46 150.053 125.407 149.377 125.541 148.726C125.672 148.136 125.877 147.566 126.151 147.028C126.642 146.173 127.024 145.26 127.285 144.309C127.45 143.674 127.422 143.005 127.206 142.386C127.02 141.981 126.828 141.796 126.854 141.776Z" fill="#263238"/>
<path d="M124.678 141.809C124.678 141.809 124.738 141.809 124.831 141.935C124.962 142.07 125.071 142.224 125.156 142.392C125.436 143.03 125.506 143.741 125.355 144.422C125.122 145.402 124.756 146.346 124.267 147.227C124.011 147.743 123.822 148.289 123.703 148.852C123.585 149.444 123.633 150.057 123.843 150.623C124.363 151.704 125.073 152.683 125.938 153.514C126.669 154.232 127.195 155.132 127.464 156.12C127.626 156.805 127.529 157.525 127.192 158.143C127.101 158.306 126.982 158.452 126.84 158.574C126.741 158.66 126.688 158.693 126.681 158.687C126.675 158.68 126.874 158.494 127.072 158.077C127.339 157.478 127.393 156.807 127.225 156.173C126.932 155.243 126.41 154.401 125.706 153.726C124.794 152.88 124.051 151.867 123.518 150.742C123.286 150.117 123.235 149.438 123.372 148.785C123.498 148.196 123.701 147.625 123.975 147.088C124.471 146.237 124.852 145.325 125.109 144.375C125.278 143.739 125.25 143.066 125.03 142.445C124.824 142.021 124.625 141.829 124.678 141.809Z" fill="#263238"/>
<path d="M121.475 165.895C121.475 165.895 121.475 165.696 121.76 165.478C121.951 165.344 122.169 165.256 122.398 165.218C122.628 165.18 122.863 165.194 123.086 165.259C123.724 165.494 124.295 165.881 124.751 166.386C124.992 166.679 125.296 166.915 125.641 167.075C125.985 167.236 126.36 167.318 126.74 167.315C127.523 167.215 128.179 166.651 128.876 166.366C129.208 166.203 129.568 166.106 129.937 166.081C130.263 166.076 130.587 166.142 130.885 166.273C131.312 166.459 131.668 166.778 131.9 167.182C132.052 167.467 132.072 167.646 132.052 167.653C132.032 167.659 131.966 167.5 131.787 167.255C131.533 166.914 131.188 166.652 130.792 166.499C130.523 166.399 130.237 166.354 129.95 166.366C129.622 166.405 129.303 166.502 129.008 166.651C128.325 167.105 127.572 167.446 126.78 167.659C126.317 167.719 125.847 167.613 125.454 167.361C125.115 167.153 124.803 166.903 124.525 166.618C124.112 166.134 123.595 165.748 123.013 165.491C122.817 165.425 122.609 165.4 122.403 165.417C122.196 165.434 121.996 165.493 121.813 165.59C121.581 165.743 121.501 165.909 121.475 165.895Z" fill="#FAFAFA"/>
<path d="M121.176 164.125C121.176 164.125 121.176 163.913 121.474 163.694C121.679 163.549 121.913 163.453 122.16 163.412C122.407 163.37 122.66 163.385 122.9 163.455C123.574 163.711 124.179 164.122 124.664 164.655C125.215 165.173 125.918 165.763 126.766 165.65C127.615 165.537 128.298 164.987 129.034 164.635C129.387 164.464 129.77 164.363 130.162 164.337C130.581 164.328 130.995 164.43 131.361 164.634C131.727 164.838 132.032 165.136 132.244 165.498C132.41 165.796 132.43 165.995 132.41 165.995C132.39 165.995 132.317 165.829 132.132 165.571C131.859 165.208 131.492 164.928 131.07 164.761C130.784 164.656 130.48 164.609 130.175 164.622C129.823 164.662 129.482 164.765 129.167 164.927C128.504 165.239 127.794 165.849 126.8 165.995C126.322 166.047 125.841 165.937 125.433 165.683C125.073 165.459 124.742 165.191 124.445 164.887C124.004 164.374 123.453 163.966 122.834 163.694C122.625 163.622 122.403 163.594 122.183 163.612C121.962 163.63 121.748 163.694 121.554 163.8C121.282 163.966 121.202 164.145 121.176 164.125Z" fill="#FAFAFA"/>
<path d="M59.1895 233.586L70.616 249.715L196.057 249.655L195.984 235.417L132.55 229.382L79.8475 221.543L59.1895 233.586Z" fill="#263238"/>
<path d="M79.3564 222.014L88.263 209.718L113.358 178.735C115.087 176.871 117.226 175.435 119.607 174.543C121.988 173.651 124.544 173.326 127.072 173.595C130.149 173.92 133.07 175.111 135.497 177.031C137.924 178.95 139.756 181.519 140.78 184.438L157.36 234.999L135.408 231.55L124.254 200.275L106.666 224.812L79.3564 222.014Z" fill="#263238"/>
<path d="M157.339 231.736H157.173H156.603L154.408 231.577L146.344 230.914L119.737 228.679L105.087 227.405C102.839 227.193 100.697 227.034 98.6941 226.815C96.8383 226.614 94.9959 226.304 93.1764 225.887C91.6586 225.571 90.1907 225.052 88.8127 224.341C87.7828 223.785 86.8527 223.061 86.0605 222.199C85.5573 221.655 85.1392 221.038 84.8203 220.369C84.7041 220.142 84.6087 219.904 84.5352 219.659C84.9418 220.557 85.4904 221.383 86.1599 222.107C86.9525 222.944 87.8807 223.641 88.9055 224.169C90.2737 224.854 91.7282 225.352 93.2295 225.648C95.0433 226.049 96.879 226.343 98.7272 226.53C100.717 226.736 102.865 226.888 105.12 227.087L119.763 228.334L146.363 230.668L154.421 231.418L156.61 231.636L157.18 231.703L157.339 231.736Z" fill="#455A64"/>
<path d="M126.004 188.961C125.868 189.511 125.698 190.051 125.494 190.579C124.658 193.168 124.253 195.877 124.293 198.597C124.333 199.162 124.333 199.729 124.293 200.295C124.131 199.748 124.047 199.181 124.041 198.61C123.95 197.235 124.007 195.854 124.214 194.492C124.421 193.132 124.772 191.798 125.262 190.513C125.436 189.963 125.686 189.441 126.004 188.961Z" fill="#455A64"/>
<path d="M121.163 193.179C121.498 194.464 121.901 195.73 122.37 196.972C122.943 198.168 123.578 199.332 124.273 200.461C122.38 198.491 121.273 195.896 121.163 193.166V193.179Z" fill="#455A64"/>
<path d="M192.793 239.681C192.295 241.307 191.942 242.973 191.739 244.661C191.656 246.359 191.722 248.062 191.938 249.748C191.73 249.283 191.596 248.789 191.54 248.282C191.34 247.075 191.291 245.848 191.394 244.628C191.498 243.41 191.754 242.209 192.156 241.054C192.291 240.564 192.506 240.1 192.793 239.681Z" fill="#455A64"/>
<path d="M64.2034 167.215C64.2034 167.215 64.2034 167.275 64.0973 167.361C63.987 167.496 63.8625 167.618 63.7259 167.726C63.2223 168.125 62.6422 168.416 62.0215 168.581C60.4564 169.065 58.195 168.946 55.7943 168.581C53.7444 168.244 51.7412 167.668 49.8256 166.864C49.0895 166.559 48.4993 166.267 48.1146 166.061C47.902 165.965 47.7034 165.84 47.5244 165.69C47.5244 165.643 48.433 166.081 49.9185 166.638C51.8507 167.366 53.8499 167.901 55.8871 168.237C58.2679 168.608 60.483 168.754 62.0016 168.356C62.8082 168.136 63.5588 167.747 64.2034 167.215Z" fill="#263238"/>
<path d="M416.824 197.052C419.603 195.619 422.879 195.433 425.962 195.944C427.627 196.216 429.351 196.713 430.485 197.934C431.619 199.154 431.812 201.369 430.532 202.443C429.694 203.007 428.685 203.261 427.68 203.16C425.266 203.16 422.58 202.709 420.65 204.161C419.55 204.99 418.813 206.369 417.5 206.78C416.841 206.933 416.149 206.867 415.531 206.592C414.912 206.316 414.4 205.847 414.072 205.255C413.444 204.045 413.306 202.639 413.687 201.329C413.845 200.423 414.21 199.565 414.754 198.823C415.298 198.081 416.007 197.475 416.824 197.052Z" fill="#FF725E"/>
<path d="M410.451 184.75C412.148 187.183 415.458 186.374 416.99 184.895C418.522 183.417 419.172 181.261 419.762 179.212C421.088 174.53 422.468 169.622 421.46 164.854C421.221 163.408 420.587 162.057 419.629 160.948C419.142 160.396 418.517 159.982 417.818 159.749C417.119 159.516 416.371 159.472 415.65 159.622C413.986 160.066 412.951 161.697 412.202 163.249C409.997 167.834 408.842 172.852 408.819 177.939C408.819 180.306 409.091 182.787 410.424 184.736" fill="#FF725E"/>
<path d="M405.781 188.238C407.625 186.05 407.977 182.853 407.154 180.107C406.22 177.38 404.555 174.962 402.34 173.117C399.824 170.878 396.895 169.15 393.718 168.031C392.489 167.529 391.165 167.303 389.839 167.368C389.175 167.41 388.532 167.613 387.964 167.96C387.397 168.306 386.923 168.786 386.582 169.357C385.68 171.088 386.582 173.19 387.491 174.901C389.15 177.919 391.044 180.802 393.155 183.523C394.852 185.711 396.795 187.873 399.388 188.828C401.981 189.783 404.661 189.704 406.02 187.906" fill="#FF725E"/>
<path d="M410.337 221.39C410.421 221.029 410.472 220.66 410.49 220.289C410.57 219.48 410.662 218.472 410.782 217.272C410.927 215.789 411.148 214.315 411.445 212.855C411.842 211.078 412.378 209.335 413.05 207.643C413.709 205.954 414.602 204.367 415.703 202.927C416.602 201.757 417.75 200.801 419.065 200.129C419.958 199.686 420.916 199.388 421.903 199.247C422.274 199.229 422.643 199.175 423.004 199.088C422.632 199.045 422.256 199.045 421.883 199.088C420.86 199.166 419.858 199.426 418.926 199.857C417.54 200.511 416.326 201.478 415.378 202.682C414.225 204.139 413.295 205.759 412.619 207.49C411.933 209.209 411.398 210.984 411.02 212.796C410.737 214.275 410.542 215.77 410.437 217.272C410.337 218.552 410.304 219.587 410.284 220.303C410.263 220.666 410.28 221.031 410.337 221.39Z" fill="#263238"/>
<path d="M410.543 219.076C410.563 218.904 410.563 218.73 410.543 218.559V217.099C410.543 215.826 410.543 213.989 410.61 211.714C410.722 207.172 411.114 202.284 411.87 195.394C412.579 188.914 413.541 181.374 414.522 176.466C414.741 175.352 414.96 174.351 415.186 173.469C415.411 172.587 415.55 171.831 415.71 171.214C415.869 170.597 415.962 170.166 416.054 169.795C416.103 169.629 416.132 169.457 416.141 169.284C416.067 169.44 416.007 169.602 415.962 169.768C415.849 170.133 415.71 170.597 415.537 171.168C415.365 171.738 415.159 172.534 414.934 173.409C414.708 174.285 414.463 175.286 414.224 176.4C412.97 182.199 412.027 188.061 411.399 193.961C410.643 200.865 410.305 207.158 410.271 211.708C410.271 213.989 410.271 215.826 410.351 217.099C410.391 217.696 410.417 218.18 410.444 218.565C410.456 218.739 410.489 218.91 410.543 219.076Z" fill="#263238"/>
<path d="M410.577 206.946C410.61 206.436 410.61 205.924 410.577 205.414C410.517 204.433 410.385 203.014 410.106 201.269C409.779 199.234 409.337 197.219 408.78 195.234C408.123 192.79 407.278 190.4 406.253 188.085C404.499 183.821 401.987 179.909 398.839 176.539C398.294 175.962 397.711 175.421 397.095 174.921C396.829 174.696 396.591 174.464 396.352 174.291L395.689 173.82C395.271 173.509 394.827 173.234 394.362 172.998C395.849 174.163 397.26 175.421 398.587 176.765C401.635 180.16 404.08 184.051 405.815 188.271C406.821 190.57 407.67 192.934 408.355 195.347C408.933 197.311 409.411 199.303 409.788 201.316C410.106 203.034 410.292 204.439 410.398 205.414C410.416 205.929 410.476 206.441 410.577 206.946Z" fill="#263238"/>
<path d="M398.852 228.34L400.065 244.986H421.453L422.673 228.34H398.852Z" fill="#263238"/>
<path d="M425.219 221.775H396.782V228.34H425.219V221.775Z" fill="#263238"/>
<path d="M396.782 244.35V246.167H398.122H424.755V244.35H396.782Z" fill="#455A64"/>
<path d="M399.429 249.37L398.122 246.167H423.734L422.209 249.37H399.429Z" fill="#455A64"/>
<path d="M422.275 233.779C422.247 233.832 422.213 233.883 422.176 233.931L421.858 234.356L420.611 235.954L420.551 236.02L420.498 235.947L417.441 231.716H417.613L414.602 235.98L414.503 236.113L414.403 235.987L410.829 231.736H411.034L410.835 231.981L407.639 235.96L407.533 236.093L407.433 235.954L404.416 231.69H404.595L400.881 235.921L400.815 236L400.762 235.914L399.601 233.958L399.303 233.44C399.268 233.38 399.237 233.318 399.21 233.255C399.21 233.255 399.263 233.308 399.336 233.42L399.668 233.918L400.888 235.841H400.768C401.723 234.727 402.964 233.275 404.423 231.557L404.515 231.451L404.602 231.57L407.646 235.815H407.44L410.63 231.802L410.822 231.557L410.928 231.431L411.028 231.55L414.596 235.815H414.397L417.441 231.57L417.527 231.444L417.613 231.57L420.611 235.848H420.505L421.798 234.289L422.143 233.891C422.182 233.848 422.226 233.81 422.275 233.779Z" fill="#E0E0E0"/>
<path d="M422.971 228.228C422.971 228.301 417.606 228.36 411.034 228.36C404.462 228.36 399.097 228.301 399.097 228.228C399.097 228.155 404.455 228.095 411.034 228.095C417.613 228.095 422.971 228.155 422.971 228.228Z" fill="#455A64"/>
<path d="M424.045 246.352C424.045 246.425 418.222 246.485 411.04 246.485C403.858 246.485 398.028 246.425 398.028 246.352C398.028 246.279 403.851 246.22 411.04 246.22C418.229 246.22 424.045 246.279 424.045 246.352Z" fill="#263238"/>
</svg>
