<svg version="1.2" xmlns="http://www.w3.org/2000/svg" viewBox="0 0 2349 2531" width="2349" height="2531">
	<title>THG_M405_06</title>
	<style>
		.s0 { opacity: 0;fill: #ffffff } 
		.s1 { fill: #c1dbf4 } 
		.s2 { fill: #a2cdea } 
		.s3 { fill: #d4ebfc } 
		.s4 { fill: #e3f0fc } 
		.s5 { fill: #a5dfef } 
		.s6 { fill: #438496 } 
		.s7 { fill: #8acadf } 
		.s8 { fill: #64a9c6 } 
		.s9 { fill: #79cce2 } 
		.s10 { fill: #60b8cc } 
		.s11 { fill: #d2ebff } 
		.s12 { fill: #98cfe5 } 
		.s13 { fill: #345da5 } 
		.s14 { fill: #499ab2 } 
		.s15 { fill: #f47190 } 
		.s16 { fill: #ef5480 } 
		.s17 { fill: #1543a3 } 
		.s18 { fill: #416ac4 } 
		.s19 { fill: #b6dbff } 
		.s20 { fill: #3161b5 } 
		.s21 { fill: #c7e6ff } 
		.s22 { fill: #80c3ff } 
		.s23 { fill: #6cb2ff } 
		.s24 { fill: #ffffff } 
		.s25 { fill: #cb2d47 } 
		.s26 { fill: #0b50b5 } 
		.s27 { fill: #f3f8ff } 
		.s28 { fill: #ffd4d4 } 
		.s29 { fill: #ff9b48 } 
		.s30 { fill: #fdffff } 
		.s31 { fill: #313d63 } 
		.s32 { fill: #f7adad } 
		.s33 { fill: #151b3d } 
		.s34 { fill: #131935 } 
		.s35 { fill: #202c5b } 
		.s36 { fill: #212a4f } 
		.s37 { fill: #192449 } 
		.s38 { fill: #161e38 } 
		.s39 { fill: #cb2e48 } 
		.s40 { fill: #791e38 } 
		.s41 { fill: #631332 } 
		.s42 { fill: #ffa4a4 } 
		.s43 { fill: #6b1a35 } 
		.s44 { fill: #663636 } 
		.s45 { fill: #3a2109 } 
		.s46 { fill: #af1b3e } 
		.s47 { fill: #4a7cd3 } 
		.s48 { fill: #104bb2 } 
	</style>
	<g id="_6">
		<path fill-rule="evenodd" class="s0" d="m-1249-324h4680v3120h-4680z"/>
		<path class="s1" d="m2283.4 2200.3c0 26.6-12.2 50.6-32 68.1-19.8 17.4-46.7 28-76.7 28.1 0 60.2-268.5 111.4-644.9 131-105.7 5.5-219.8 8.5-338.9 8.5-543.4 0-983.8-62.4-983.8-139.4h-21.7c-60.3 0-109.2-43.1-109.2-96.3 0-26.6 12.2-50.6 32-68 19.8-17.5 47-28.2 77.2-28.2h1988.8c60.3-0.1 109.2 43 109.2 96.2z"/>
		<path class="s2" d="m2283.4 2200.3c0 26.6-12.2 50.6-32 68.1-19.8 17.4-46.7 28-76.7 28.1 0 60.2-268.5 111.4-644.9 131q-29.1 0.4-58.6 0.4c-571 0-1033.8-107.8-1033.8-240.9 0-29.1 22.2-57.1 63-83h1673.8c60.3 0 109.2 43.1 109.2 96.3z"/>
		<path class="s3" d="m2180.6 921.4c0 489-448 885.4-1000.8 885.4-514.6 0-938.4-343.6-994.4-785.6q-1.6-12.4-2.8-24.9-1.2-12.4-2-24.9-0.8-12.5-1.2-25-0.4-12.5-0.4-25c0-489 448.1-885.4 1000.8-885.4 278.3 0 530 100.5 711.4 262.7 178.9 160 289.4 379.9 289.4 622.7z"/>
		<path class="s4" d="m1897.5 398.5c0 489-448.1 885.3-1000.8 885.3-278.2 0-530-100.4-711.3-262.6q-1.6-12.4-2.8-24.9-1.2-12.4-2-24.9-0.8-12.5-1.2-25-0.4-12.5-0.3-25c0-489 448-885.4 1000.7-885.4 278.3 0 530 100.5 711.4 262.7q1.6 12.4 2.8 24.9 1.2 12.4 1.9 24.9 0.8 12.5 1.2 25 0.4 12.4 0.4 25z"/>
		<path class="s5" d="m293.3 1637.6h344.7v632.4h-322c-3 0-5.9-0.6-8.7-1.7-2.8-1.2-5.3-2.8-7.4-5-2.1-2.1-3.8-4.6-4.9-7.3-1.2-2.8-1.7-5.8-1.7-8.7v-609.7z"/>
		<path class="s6" d="m638 1637.6v632.4l65.6-43.7c3.1-2.1 6-4.6 8.6-7.4 2.5-2.8 4.7-5.9 6.5-9.3 1.8-3.4 3.2-6.9 4.1-10.6 1-3.7 1.4-7.5 1.4-11.3v-550z"/>
		<path class="s5" d="m1793.2 2270h-322v-632.4h344.8v609.7c0 2.9-0.6 5.9-1.8 8.7-1.1 2.7-2.8 5.2-4.9 7.3-2.1 2.2-4.6 3.8-7.4 5-2.7 1.1-5.7 1.7-8.7 1.7z"/>
		<path class="s6" d="m1471.2 1637.6v632.4l-65.5-43.7c-3.2-2.1-6.1-4.6-8.6-7.4-2.6-2.8-4.8-5.9-6.6-9.3-1.8-3.4-3.2-6.9-4.1-10.6-0.9-3.7-1.4-7.5-1.4-11.3v-550z"/>
		<path class="s7" d="m1875.1 1573.4h-1644.3l245.4-113.6q2.6-1.2 5.4-2.1 2.8-1 5.7-1.6 2.8-0.6 5.8-0.9 2.9-0.4 5.8-0.4h1108q3 0 5.9 0.4 2.9 0.3 5.8 0.9 2.8 0.6 5.6 1.6 2.8 0.9 5.5 2.1z"/>
		<path class="s8" d="m239.6 1573.3h1629c3 0 5.9 0.6 8.7 1.8 2.8 1.1 5.3 2.8 7.4 4.9 2.1 2.1 3.8 4.6 4.9 7.4 1.2 2.8 1.8 5.7 1.8 8.7v18.8c0 3-0.6 5.9-1.8 8.7-1.1 2.7-2.8 5.2-4.9 7.4-2.1 2.1-4.6 3.8-7.4 4.9-2.8 1.1-5.7 1.7-8.7 1.7h-1625.9c-3 0-5.9-0.6-8.7-1.7-2.8-1.1-5.3-2.8-7.4-4.9-2.1-2.2-3.8-4.7-4.9-7.4-1.2-2.8-1.7-5.7-1.7-8.7v-21.9c0-2.6 0.5-5.1 1.4-7.5 1-2.4 2.5-4.6 4.3-6.4 1.8-1.8 4-3.3 6.4-4.3 2.4-0.9 4.9-1.5 7.5-1.5z"/>
		<path fill-rule="evenodd" class="s9" d="m332.8 1671.2h263.4c8.6 0 15.5 6.9 15.5 15.5v108.6c0 8.6-6.9 15.6-15.5 15.6h-263.4c-8.6 0-15.6-7-15.6-15.6v-108.6c0-8.6 7-15.5 15.6-15.5z"/>
		<path fill-rule="evenodd" class="s9" d="m332.8 1889.1h263.4c8.6 0 15.5 7 15.5 15.6v130.7c0 8.6-6.9 15.5-15.5 15.5h-263.4c-8.6 0-15.6-6.9-15.6-15.5v-130.7c0-8.6 7-15.6 15.6-15.6z"/>
		<path fill-rule="evenodd" class="s3" d="m460.8 1934c-8.4 0-15.1-6.7-15.1-15 0-8.4 6.7-15.1 15.1-15.1 8.3 0 15 6.7 15 15.1 0 8.3-6.7 15-15 15z"/>
		<path class="s3" d="m460.8 1935.6c-6.8 0-12.8-4-15.4-10.3-2.6-6.2-1.2-13.3 3.6-18.1 4.7-4.8 11.9-6.2 18.1-3.6 6.2 2.6 10.3 8.6 10.3 15.4 0 2.2-0.4 4.3-1.3 6.3-0.8 2.1-2 3.9-3.6 5.4-1.5 1.6-3.4 2.8-5.4 3.6-2 0.9-4.2 1.3-6.3 1.3zm0-30.1c-5.5 0-10.4 3.3-12.5 8.3-2.1 5-0.9 10.8 2.9 14.7 3.9 3.9 9.7 5 14.7 2.9 5.1-2.1 8.3-7 8.3-12.4 0-1.8-0.3-3.6-1-5.2-0.7-1.6-1.7-3.1-2.9-4.4-1.3-1.2-2.7-2.2-4.4-2.9-1.6-0.7-3.4-1-5.1-1z"/>
		<path fill-rule="evenodd" class="s9" d="m332.8 2076.9h263.4c8.6 0 15.5 6.9 15.5 15.5v130.7c0 8.6-6.9 15.6-15.5 15.6h-263.4c-8.6 0-15.6-7-15.6-15.6v-130.7c0-8.6 7-15.5 15.6-15.5z"/>
		<path fill-rule="evenodd" class="s3" d="m460.8 2121.8c-8.4 0-15.1-6.7-15.1-15.1 0-8.3 6.7-15 15.1-15 8.3 0 15 6.7 15 15 0 8.4-6.7 15.1-15 15.1z"/>
		<path class="s3" d="m460.8 2123.4c-6.8 0-12.8-4.1-15.4-10.3-2.6-6.2-1.2-13.4 3.6-18.1 4.7-4.8 11.9-6.2 18.1-3.6 6.2 2.5 10.3 8.6 10.3 15.3 0 2.2-0.4 4.4-1.3 6.4-0.8 2-2 3.8-3.6 5.4-1.5 1.5-3.4 2.8-5.4 3.6-2 0.8-4.2 1.3-6.3 1.3zm0-30.2c-5.5 0-10.4 3.3-12.5 8.4-2.1 5-0.9 10.8 2.9 14.7 3.9 3.8 9.7 5 14.7 2.9 5.1-2.1 8.3-7 8.3-12.5 0-1.7-0.3-3.5-1-5.1-0.7-1.7-1.7-3.1-2.9-4.4-1.3-1.3-2.7-2.2-4.4-2.9-1.6-0.7-3.4-1-5.1-1.1z"/>
		<path fill-rule="evenodd" class="s9" d="m1513.2 1671.2h263.4c8.5 0 15.5 6.9 15.5 15.5v108.6c0 8.6-7 15.6-15.5 15.6h-263.4c-8.6 0-15.6-7-15.6-15.6v-108.6c0-8.6 7-15.5 15.6-15.5z"/>
		<path fill-rule="evenodd" class="s9" d="m1513.2 1889.1h263.4c8.5 0 15.5 7 15.5 15.6v130.7c0 8.6-7 15.5-15.5 15.5h-263.4c-8.6 0-15.6-6.9-15.6-15.5v-130.7c0-8.6 7-15.6 15.6-15.6z"/>
		<path fill-rule="evenodd" class="s3" d="m1641.2 1934c-8.4 0-15.1-6.7-15.1-15 0-8.4 6.7-15.1 15.1-15.1 8.3 0 15 6.7 15 15.1 0 8.3-6.7 15-15 15z"/>
		<path class="s3" d="m1641.2 1935.6c-6.8 0-12.9-4-15.4-10.3-2.6-6.2-1.2-13.3 3.6-18.1 4.7-4.8 11.9-6.2 18.1-3.6 6.2 2.6 10.3 8.6 10.3 15.4 0 2.2-0.5 4.3-1.3 6.3-0.8 2.1-2 3.9-3.6 5.4-1.5 1.6-3.4 2.8-5.4 3.6-2 0.9-4.2 1.3-6.3 1.3zm0-30.1c-5.5 0-10.4 3.3-12.5 8.3-2.1 5-0.9 10.8 2.9 14.7 3.9 3.9 9.7 5 14.7 2.9 5-2.1 8.3-7 8.3-12.4 0-1.8-0.3-3.6-1-5.2-0.7-1.6-1.7-3.1-2.9-4.4-1.3-1.2-2.8-2.2-4.4-2.9-1.6-0.7-3.4-1-5.1-1z"/>
		<path fill-rule="evenodd" class="s9" d="m1513.2 2076.9h263.4c8.5 0 15.5 6.9 15.5 15.5v130.7c0 8.6-7 15.6-15.5 15.6h-263.4c-8.6 0-15.6-7-15.6-15.6v-130.7c0-8.6 7-15.5 15.6-15.5z"/>
		<path fill-rule="evenodd" class="s3" d="m1641.2 2121.8c-8.4 0-15.1-6.7-15.1-15.1 0-8.3 6.7-15 15.1-15 8.3 0 15 6.7 15 15 0 8.4-6.7 15.1-15 15.1z"/>
		<path class="s3" d="m1641.2 2123.4c-6.8 0-12.9-4.1-15.4-10.3-2.6-6.2-1.2-13.4 3.6-18.1 4.7-4.8 11.9-6.2 18.1-3.6 6.2 2.5 10.3 8.6 10.3 15.3 0 2.2-0.5 4.4-1.3 6.4-0.8 2-2.1 3.8-3.6 5.4-1.5 1.5-3.4 2.8-5.4 3.6-2 0.8-4.2 1.3-6.3 1.3zm0-30.2c-5.5 0-10.4 3.3-12.5 8.4-2.1 5-0.9 10.8 2.9 14.7 3.9 3.8 9.7 5 14.7 2.9 5-2.1 8.3-7 8.3-12.5 0-1.7-0.3-3.5-1-5.1-0.7-1.7-1.7-3.1-2.9-4.4-1.3-1.3-2.8-2.2-4.4-2.9-1.6-0.7-3.4-1-5.1-1.1z"/>
		<path fill-rule="evenodd" class="s10" d="m1470.4 1512.1c-73 0-132.1-10.2-132.1-22.7 0-12.5 59.1-22.7 132.1-22.7 73.1 0 132.2 10.2 132.2 22.7 0 12.5-59.1 22.7-132.2 22.7z"/>
		<path class="s11" d="m1472.3 1270.4q-1.6-5-3.5-9.8c-7-18-32.1-91.1 14.6-104.5 53.4-15.3 84.5 40 60.2 77.2-24.2 37.3-66 53.7-66 53.7z"/>
		<path class="s12" d="m1507.1 1293.6c0 0 7.3-79.2 78.4-83.3 71-4.1 78.3 42.5 44.1 57.2-34.3 14.7-105.4 8.1-122.5 26.1z"/>
		<path class="s13" d="m1483.4 1340.2h-0.1q-0.2 0-0.4-0.1-0.1-0.1-0.2-0.3-0.1-0.1-0.1-0.3-0.1-0.1-0.1-0.3c0.2-0.9 17-89 129-105.3q0.1 0 0.3 0.1 0.2 0 0.3 0.1 0.2 0.1 0.2 0.3 0.1 0.1 0.2 0.3 0 0.2-0.1 0.3 0 0.2-0.1 0.4-0.1 0.1-0.3 0.2-0.1 0.1-0.3 0.1c-110.7 16-127.3 102.9-127.4 103.8q-0.1 0.1-0.1 0.3-0.1 0.1-0.2 0.2-0.1 0.1-0.3 0.1-0.1 0.1-0.3 0.1z"/>
		<path class="s14" d="m1460.2 1293.6c0 0-9.4 13-43.2-17.2-33-29.5-102.8-28.2-109.4-90.5q-0.2-2.1-0.4-4.4c-0.8-15 0.9-26.8 4.1-36.1 9.2-26.8 30.5-32.7 37.8-34.1 1.5-0.3 2.4-0.4 2.5-0.4 0.9-0.3 18.8-18.5 51.7-6.4q2.9 1.1 5.8 2.4 2.9 1.3 5.7 2.8 2.8 1.5 5.5 3.1 2.7 1.7 5.3 3.5 4.1 2.8 8 5.9 3.9 3.1 7.5 6.5 3.7 3.4 7.1 7 3.4 3.7 6.5 7.6 3.7 4.5 6.9 9.4 3.3 4.8 6.1 9.9 2.9 5.1 5.3 10.4 2.4 5.3 4.3 10.8c10.7 30.2 15.7 72.9-17.1 109.8z"/>
		<path class="s13" d="m1463.8 1340.2q-0.2 0-0.3-0.1-0.2-0.1-0.3-0.2-0.2-0.1-0.2-0.3-0.1-0.1-0.1-0.3c1.2-127-92.3-210.4-93.3-211.2q-0.1-0.1-0.2-0.3-0.1-0.2-0.1-0.3 0-0.2 0.1-0.4 0-0.1 0.1-0.3 0.2-0.1 0.3-0.2 0.2-0.1 0.4-0.1 0.1 0 0.3 0.1 0.2 0 0.3 0.1c0.9 0.9 95.1 84.8 93.9 212.6q0 0.2-0.1 0.3 0 0.2-0.2 0.3-0.1 0.2-0.3 0.2-0.1 0.1-0.3 0.1z"/>
		<path class="s12" d="m1429.3 1328.2c0 0-62.6-56.8-105-22-42.3 34.8-12 74.4 17.9 67.3 29.9-7 64.4-50 87.1-45.3z"/>
		<path class="s13" d="m1442.4 1341.3q0 0-0.1 0-0.1 0-0.1 0-0.1-0.1-0.2-0.1 0 0-0.1-0.1c-0.3-0.5-38.2-48.2-110.9-22.7q-0.1 0.1-0.2 0-0.1 0-0.2 0-0.1-0.1-0.2-0.2-0.1-0.1-0.1-0.2-0.1-0.1-0.1-0.2 0-0.1 0.1-0.2 0-0.1 0.1-0.2 0.1-0.1 0.2-0.1c73.6-25.9 111.9 22.6 112.3 23.1q0.1 0.1 0.1 0.2 0.1 0.1 0 0.2 0 0.1 0 0.2-0.1 0.1-0.2 0.2 0 0-0.1 0.1 0 0-0.1 0 0 0-0.1 0 0 0-0.1 0z"/>
		<path class="s13" d="m1467.5 1340.2h-0.2q-0.2-0.1-0.3-0.2-0.2-0.1-0.3-0.2-0.1-0.1-0.1-0.3 0-0.2 0-0.4c20.6-106.7 33.1-139.2 33.2-139.5q0.1-0.1 0.2-0.3 0.1-0.1 0.3-0.2 0.2 0 0.3 0 0.2 0 0.4 0 0.2 0.1 0.3 0.2 0.1 0.1 0.2 0.3 0 0.2 0.1 0.3 0 0.2-0.1 0.4c-0.1 0.3-12.6 32.7-33.2 139.2q0 0.1-0.1 0.3 0 0.1-0.2 0.2-0.1 0.1-0.2 0.1-0.2 0.1-0.3 0.1z"/>
		<path class="s15" d="m1542.5 1354.8l-0.1 3.7-2.3 90c-0.1 6-1.5 11.9-3.9 17.4-2.4 5.5-5.8 10.5-10.1 14.7-4.3 4.2-9.4 7.5-15 9.8-5.6 2.3-11.5 3.4-17.5 3.4h-44.1c-6 0-12-1.1-17.6-3.4-5.5-2.3-10.6-5.6-14.9-9.8-4.3-4.2-7.8-9.2-10.2-14.7-2.4-5.5-3.7-11.4-3.8-17.4l-0.6-20.5-1.8-73.2c-0.1-2.3 0.3-4.6 1.2-6.8 0.9-2.1 2.1-4.1 3.7-5.8 1.7-1.6 3.6-2.9 5.7-3.8 2.2-0.9 4.5-1.4 6.8-1.4h107.1c2.3 0 4.6 0.5 6.8 1.4 2.1 0.9 4 2.2 5.6 3.9 1.7 1.6 2.9 3.6 3.8 5.8 0.8 2.1 1.2 4.4 1.2 6.7z"/>
		<path class="s16" d="m1542.4 1358.5l-2.3 90c-0.1 6-1.5 11.9-3.9 17.4-2.4 5.5-5.8 10.5-10.1 14.7-4.3 4.2-9.4 7.5-15 9.8-5.6 2.3-11.5 3.4-17.5 3.4h-44.1c-6 0-12-1.1-17.6-3.4-5.5-2.3-10.6-5.6-14.9-9.8-4.3-4.2-7.8-9.2-10.2-14.7-2.4-5.5-3.7-11.4-3.8-17.4l-0.6-20.5c80.2 0.1 122.6-44.7 140-69.5z"/>
		<path fill-rule="evenodd" class="s17" d="m526 887.2h663.2c12.9 0 23.4 10.5 23.4 23.4v425.4c0 13-10.5 23.5-23.4 23.5h-663.2c-12.9 0-23.4-10.5-23.4-23.5v-425.4c0-12.9 10.5-23.4 23.4-23.4z"/>
		<path fill-rule="evenodd" class="s18" d="m562.2 887.2h663.2c12.9 0 23.4 10.5 23.4 23.4v425.4c0 13-10.5 23.5-23.4 23.5h-663.2c-12.9 0-23.4-10.5-23.4-23.5v-425.4c0-12.9 10.5-23.4 23.4-23.4z"/>
		<path class="s19" d="m1224.2 922.2v402.3c0 1.3-0.2 2.7-0.8 3.9-0.5 1.3-1.3 2.4-2.2 3.4-1 1-2.1 1.7-3.4 2.3-1.2 0.5-2.6 0.8-4 0.8h-640c-1.4 0-2.7-0.3-4-0.8-1.2-0.5-2.4-1.3-3.4-2.3-0.9-0.9-1.7-2.1-2.2-3.4-0.5-1.2-0.8-2.6-0.8-3.9v-402.3c0-1.4 0.3-2.7 0.8-4 0.5-1.3 1.3-2.4 2.2-3.4 1-0.9 2.1-1.7 3.4-2.2 1.3-0.5 2.6-0.8 4-0.8h640c1.4 0 2.8 0.3 4 0.8 1.3 0.5 2.4 1.3 3.4 2.2 0.9 1 1.7 2.1 2.2 3.4 0.6 1.3 0.8 2.6 0.8 4z"/>
		<path fill-rule="evenodd" class="s17" d="m786.9 1359.8h167.2v136.1h-167.2z"/>
		<path fill-rule="evenodd" class="s18" d="m813.2 1359.8h167.1v136.1h-167.1z"/>
		<path fill-rule="evenodd" class="s20" d="m813.2 1359.8h167.1v38.6l-167.1 38.4v-77z"/>
		<path fill-rule="evenodd" class="s17" d="m719.4 1495.9h328.5c8.9 0 16.1 7.2 16.1 16.2 0 8.9-7.2 16.1-16.1 16.1h-328.5c-8.9 0-16.1-7.2-16.1-16.1 0-9 7.2-16.2 16.1-16.2z"/>
		<path class="s21" d="m1096.3 911.8l-333.8 423.1h-188.7c-1.4 0-2.7-0.3-4-0.8-1.2-0.5-2.4-1.3-3.4-2.3-0.9-0.9-1.7-2.1-2.2-3.4-0.5-1.2-0.8-2.6-0.8-3.9v-104.3l344.2-308.4z"/>
		<path class="s21" d="m1224.2 922.2v50.5l-277.7 362.2h-58.3l299.5-423.1h26.1c1.4 0 2.8 0.3 4 0.8 1.3 0.5 2.4 1.3 3.4 2.2 0.9 1 1.7 2.1 2.2 3.4 0.6 1.3 0.8 2.6 0.8 4z"/>
		<path fill-rule="evenodd" class="s21" d="m761.5 911.8l-198.1 178.7v-105.2l104.8-73.5h93.3z"/>
		<g style="opacity: .68">
			<path fill-rule="evenodd" class="s22" d="m630.5 970.6h526.7c14.5 0 26.3 11.8 26.3 26.3v248.6c0 14.5-11.8 26.3-26.3 26.3h-526.7c-14.6 0-26.3-11.8-26.3-26.3v-248.6c0-14.5 11.7-26.3 26.3-26.3z"/>
		</g>
		<g style="opacity: .68">
			<path fill-rule="evenodd" class="s23" d="m705.4 821.9h588c16.3 0 29.4 13.2 29.4 29.4v345.5c0 16.3-13.1 29.4-29.4 29.4h-588c-16.2 0-29.3-13.1-29.3-29.4v-345.5c0-16.2 13.1-29.4 29.3-29.4z"/>
		</g>
		<path fill-rule="evenodd" class="s24" d="m755.7 1024.1h491.8c7.2 0 13 5.7 13 12.9v16.6c0 7.2-5.8 13-13 13h-491.8c-7.2 0-13-5.8-13-13v-16.6c0-7.2 5.8-12.9 13-12.9z"/>
		<path fill-rule="evenodd" class="s24" d="m755.7 1100h491.8c7.2 0 13 5.8 13 12.9v16.6c0 7.2-5.8 13-13 13h-491.8c-7.2 0-13-5.8-13-13v-16.6c0-7.1 5.8-12.9 13-12.9z"/>
		<path class="s25" d="m1064.3 808.3h-18.3v-35.8c0-2.7-0.5-5.3-1.5-7.8-1.1-2.4-2.6-4.7-4.4-6.6-1.9-1.9-4.2-3.3-6.6-4.4-2.5-1-5.1-1.5-7.8-1.5h-53.7c-2.7 0-5.3 0.5-7.8 1.5-2.4 1.1-4.7 2.6-6.6 4.4-1.8 1.9-3.3 4.2-4.4 6.6-1 2.5-1.5 5.1-1.5 7.8v35.8h-17.1c-4.2 0-8.3 0.9-12.2 2.5-3.8 1.6-7.3 3.9-10.3 6.9-2.9 2.9-5.3 6.4-6.9 10.3-1.6 3.8-2.4 8-2.4 12.1v101.8c0 4.1 0.8 8.3 2.4 12.1 1.6 3.9 4 7.4 6.9 10.4 3 2.9 6.5 5.3 10.3 6.8 3.9 1.6 8 2.5 12.2 2.5h129.7c4.2 0 8.4-0.9 12.2-2.5 3.9-1.6 7.4-3.9 10.3-6.9 3-2.9 5.3-6.4 6.9-10.3 1.6-3.8 2.4-8 2.4-12.1v-101.8c0-4.1-0.8-8.3-2.4-12.1-1.6-3.9-3.9-7.4-6.9-10.4-2.9-2.9-6.5-5.3-10.3-6.8-3.9-1.6-8-2.5-12.2-2.5zm-95-29.3c0-1.1 0.2-2.3 0.7-3.3 0.4-1.1 1.1-2.1 1.9-2.9 0.8-0.8 1.8-1.5 2.8-1.9 1.1-0.4 2.2-0.7 3.4-0.7h39.7c1.2 0 2.3 0.3 3.4 0.7 1 0.4 2 1.1 2.8 1.9 0.8 0.8 1.5 1.8 1.9 2.9 0.5 1 0.7 2.2 0.7 3.3v29.3h-57.3zm42.7 121.8v37.1c0 1.6-0.3 3.1-0.9 4.6-0.6 1.4-1.5 2.7-2.6 3.8-1.1 1.1-2.4 2-3.8 2.6-1.5 0.6-3 0.9-4.6 0.9h-1.7c-1.5 0-3-0.3-4.5-0.9-1.4-0.6-2.7-1.5-3.8-2.6-1.1-1.1-2-2.4-2.6-3.8-0.6-1.5-0.9-3-0.9-4.6v-37c-8.7-5.6-12.8-16.3-9.9-26.3 2.9-10 12.1-16.8 22.5-16.9 10.4 0 19.6 6.8 22.5 16.8 3 10-1 20.7-9.7 26.4z"/>
		<path fill-rule="evenodd" class="s25" d="m783.8 1055.6c-5.2 0-9.5-4.2-9.5-9.5 0-5.3 4.3-9.6 9.5-9.6 5.3 0 9.6 4.3 9.6 9.6 0 5.3-4.3 9.5-9.6 9.5z"/>
		<path fill-rule="evenodd" class="s25" d="m827.2 1055.6c-5.3 0-9.6-4.2-9.6-9.5 0-5.3 4.3-9.6 9.6-9.6 5.3 0 9.5 4.3 9.5 9.6 0 5.3-4.2 9.5-9.5 9.5z"/>
		<path fill-rule="evenodd" class="s25" d="m870.5 1055.6c-5.3 0-9.5-4.2-9.5-9.5 0-5.3 4.2-9.6 9.5-9.6 5.3 0 9.6 4.3 9.6 9.6 0 5.3-4.3 9.5-9.6 9.5z"/>
		<path fill-rule="evenodd" class="s25" d="m913.9 1055.6c-5.3 0-9.6-4.2-9.6-9.5 0-5.3 4.3-9.6 9.6-9.6 5.2 0 9.5 4.3 9.5 9.6 0 5.3-4.3 9.5-9.5 9.5z"/>
		<path fill-rule="evenodd" class="s25" d="m957.2 1055.6c-5.3 0-9.6-4.2-9.6-9.5 0-5.3 4.3-9.6 9.6-9.6 5.3 0 9.5 4.3 9.5 9.6 0 5.3-4.2 9.5-9.5 9.5z"/>
		<path fill-rule="evenodd" class="s25" d="m780.2 1113.5h411.6c3.3 0 6 2.7 6 6v2.8c0 3.3-2.7 6-6 6h-411.6c-3.2 0-5.9-2.7-5.9-6v-2.8c0-3.3 2.7-6 5.9-6z"/>
		<g style="opacity: .79">
			<g style="opacity: .78">
				<path class="s26" d="m1820.7 208.1v509.9c0 0-22.9-52.8-143.1-52.8h-1234.6c-120.2 0-143.1 52.8-143.1 52.8v-509.9c2.4-98.2 143.1-95.3 143.1-95.3h1234.6c0 0 140.7-2.9 143.1 95.3z"/>
			</g>
			<path class="s27" d="m299.9 719.4q0 0-0.1 0 0 0 0 0-0.1 0-0.1 0 0 0-0.1 0-0.2-0.1-0.4-0.2-0.2-0.1-0.4-0.3-0.1-0.2-0.2-0.4-0.1-0.2-0.1-0.5v-509.9c2.4-98.5 143.2-96.7 144.6-96.7h1234.5c1.3 0 142.1-1.8 144.5 96.6v510q0 0.5-0.3 0.9-0.3 0.4-0.8 0.5-0.5 0.1-0.9-0.2-0.5-0.2-0.7-0.6c-0.2-0.6-24.1-52-141.8-52h-1234.6c-117.7 0-141.6 51.5-141.9 52q0 0.1-0.2 0.3-0.1 0.1-0.3 0.2-0.1 0.2-0.3 0.2-0.2 0.1-0.4 0.1zm142.3-605.3c-11.5 0-138.7 2.2-140.9 94v504.8c8.7-13.1 41.7-49 141.7-49h1234.6c100.1 0 133 35.9 141.7 49v-504.8c-2.3-95.6-140.3-94-141.7-94h-1235.4z"/>
		</g>
		<g style="opacity: .79">
			<g style="opacity: .78">
				<path class="s26" d="m299.9 208.1c0 0 14.5 63 85.4 69v504.8c0 0-73.5-4.2-85.4-63.9z"/>
			</g>
			<path class="s27" d="m385.3 783.3h-0.1c-0.7 0-74.7-4.9-86.6-65v-510.2q0-0.3 0-0.5 0.1-0.2 0.3-0.4 0.2-0.2 0.4-0.3 0.2-0.2 0.5-0.2 0.2 0 0.5 0 0.2 0.1 0.4 0.3 0.2 0.1 0.4 0.3 0.1 0.2 0.2 0.5c0.1 0.6 15 62.1 84.1 68q0.3 0 0.5 0.1 0.3 0.1 0.4 0.3 0.2 0.2 0.3 0.4 0.1 0.3 0.1 0.5v504.8q0 0.2 0 0.3-0.1 0.1-0.1 0.3-0.1 0.1-0.2 0.2 0 0.1-0.1 0.2-0.1 0.1-0.2 0.2-0.2 0.1-0.3 0.1-0.1 0-0.2 0.1-0.2 0-0.3 0zm-84-566.7v501.4c10.6 53.2 72.3 61.4 82.6 62.4v-502c-54.6-5.2-75.8-44.5-82.6-61.8z"/>
		</g>
		<g style="opacity: .79">
			<g style="opacity: .78">
				<path class="s26" d="m1820.7 208.1c0 0-14.4 63-85.4 69v504.8c0 0 73.5-4.2 85.4-63.9z"/>
			</g>
			<path class="s27" d="m1735.3 783.3q-0.3 0-0.5-0.1-0.3-0.1-0.5-0.3-0.1-0.2-0.3-0.5-0.1-0.2-0.1-0.5v-504.8q0-0.2 0.1-0.5 0.1-0.2 0.3-0.4 0.2-0.2 0.4-0.3 0.2-0.1 0.5-0.1c69.1-5.9 84-67.4 84.2-68q0-0.3 0.2-0.5 0.1-0.2 0.3-0.4 0.2-0.1 0.5-0.2 0.2 0 0.5 0 0.2 0 0.4 0.2 0.3 0.1 0.4 0.3 0.2 0.2 0.3 0.4 0.1 0.2 0.1 0.5v509.9c-12 60.4-86 65.3-86.7 65.3zm1.4-504.9v502c10.3-1 72-9.3 82.6-62.7v-501.1c-6.8 17.3-28 56.6-82.6 61.8z"/>
		</g>
		<path fill-rule="evenodd" class="s24" d="m475 313h1168.2c11.8 0 21.3 9.5 21.3 21.3v59.8c0 11.8-9.5 21.3-21.3 21.3h-1168.3c-11.7 0-21.2-9.5-21.2-21.3v-59.8c0-11.8 9.5-21.3 21.2-21.3z"/>
		<path fill-rule="evenodd" class="s24" d="m473.7 455.6h1168.3c11.7 0 21.3 9.5 21.3 21.3v59.8c0 11.7-9.6 21.3-21.3 21.3h-1168.3c-11.7 0-21.3-9.6-21.3-21.3v-59.8c0-11.8 9.6-21.3 21.3-21.3z"/>
		<path class="s25" d="m548.9 364.2c0 13.8-8.4 26.3-21.2 31.6-12.8 5.3-27.5 2.4-37.3-7.4-9.8-9.8-12.7-24.5-7.4-37.3 5.3-12.8 17.7-21.2 31.6-21.2 4.5 0 9 0.9 13.1 2.6 4.2 1.8 7.9 4.3 11.1 7.5 3.2 3.1 5.7 6.9 7.5 11.1 1.7 4.1 2.6 8.6 2.6 13.1z"/>
		<path fill-rule="evenodd" class="s24" d="m514.6 366.1c-7.5 0-13.5-6.1-13.5-13.5 0-7.5 6-13.5 13.5-13.5 7.5 0 13.5 6 13.5 13.5 0 7.4-6 13.5-13.5 13.5z"/>
		<path class="s24" d="m533.3 392.9c-2.7 1.8-5.7 3.2-8.9 4.1-3.2 1-6.5 1.4-9.8 1.4-3.3 0-6.6-0.4-9.8-1.4-3.1-0.9-6.1-2.3-8.9-4.1 0.1-7.8 2.6-22.8 18.7-23.8 16.2 1 18.6 16 18.7 23.8z"/>
		<path class="s25" d="m532.3 491.9h-5v-9.8q0-1.1-0.5-2.1-0.4-1-1.2-1.8-0.7-0.7-1.7-1.2-1.1-0.4-2.2-0.4h-14.6q-1.1 0-2.1 0.4-1 0.5-1.8 1.2-0.8 0.8-1.2 1.8-0.4 1-0.4 2.1v9.8h-4.6c-1.1 0-2.3 0.2-3.3 0.7-1.1 0.4-2 1-2.8 1.8-0.8 0.9-1.5 1.8-1.9 2.9-0.4 1-0.7 2.1-0.7 3.3v27.6c0 1.2 0.3 2.3 0.7 3.4 0.4 1 1.1 2 1.9 2.8 0.8 0.8 1.7 1.4 2.8 1.8 1 0.5 2.2 0.7 3.3 0.7h35.3c1.1 0 2.3-0.2 3.3-0.6 1.1-0.5 2-1.1 2.8-1.9 0.8-0.8 1.5-1.8 1.9-2.8 0.4-1.1 0.7-2.2 0.7-3.4v-27.6c0-1.2-0.3-2.3-0.7-3.4-0.4-1-1.1-2-1.9-2.8-0.8-0.8-1.8-1.4-2.8-1.8-1.1-0.5-2.2-0.7-3.3-0.7zm-25.9-8q0-0.5 0.2-0.9 0.2-0.4 0.5-0.8 0.3-0.3 0.8-0.5 0.4-0.2 0.9-0.2h10.8q0.5 0 0.9 0.2 0.5 0.2 0.8 0.5 0.3 0.4 0.5 0.8 0.2 0.4 0.2 0.9v8h-15.6zm11.6 33.2v10.1q0 0.6-0.2 1.2-0.3 0.6-0.7 1.1-0.5 0.4-1.1 0.6-0.6 0.3-1.2 0.3h-0.5q-0.6 0-1.2-0.2-0.6-0.3-1.1-0.7-0.4-0.5-0.7-1.1-0.2-0.6-0.2-1.2v-10.1c-2.4-1.5-3.5-4.5-2.7-7.2 0.8-2.7 3.3-4.6 6.2-4.6 2.8 0 5.3 1.9 6.1 4.6 0.8 2.7-0.3 5.7-2.7 7.2z"/>
		<path class="s25" d="m633 508.4q0.2 0.2 0.4 0.5 0.2 0.4 0.3 0.7 0.2 0.3 0.2 0.7 0.1 0.4 0.1 0.7 0 0.4-0.1 0.8 0 0.3-0.2 0.7-0.1 0.4-0.3 0.7-0.2 0.3-0.4 0.6-0.3 0.3-0.6 0.5-0.3 0.2-0.6 0.3-0.4 0.2-0.8 0.2-0.4 0.1-0.7 0l-8.7-0.4 4.8 7.1q0.1 0.3 0.2 0.5 0.2 0.2 0.2 0.5 0.1 0.2 0.2 0.5 0 0.2 0 0.5 0 0.4-0.1 0.7-0.1 0.4-0.2 0.7-0.2 0.4-0.4 0.7-0.3 0.2-0.6 0.5-0.3 0.2-0.6 0.5-0.3 0.2-0.7 0.3-0.4 0.1-0.8 0.2-0.4 0.1-0.8 0.1-0.4 0-0.9-0.1-0.4-0.1-0.8-0.4-0.4-0.2-0.7-0.6-0.4-0.3-0.6-0.8l-3.8-7.6-3.9 7.6q-0.2 0.5-0.5 0.8-0.3 0.4-0.7 0.6-0.4 0.3-0.9 0.4-0.4 0.2-0.9 0.2-0.4 0-0.8-0.1-0.4-0.1-0.7-0.2-0.4-0.2-0.7-0.4-0.4-0.2-0.7-0.4-0.5-0.4-0.8-1-0.3-0.5-0.4-1.2-0.1-0.6 0-1.2 0.2-0.6 0.6-1.2l4.7-7.2-8.6 0.4q-0.4 0.1-0.8 0-0.3 0-0.7-0.1-0.4-0.2-0.7-0.4-0.3-0.2-0.6-0.5-0.2-0.2-0.4-0.5-0.2-0.4-0.3-0.7-0.1-0.4-0.2-0.7-0.1-0.4-0.1-0.7 0-0.4 0.1-0.8 0.1-0.4 0.2-0.7 0.1-0.4 0.3-0.7 0.2-0.3 0.4-0.6 0.3-0.3 0.6-0.5 0.3-0.2 0.7-0.4 0.3-0.1 0.7-0.1 0.4-0.1 0.8 0l8.6 0.4-4.7-7.1q-0.2-0.3-0.3-0.5-0.1-0.2-0.2-0.5-0.1-0.2-0.1-0.5-0.1-0.2-0.1-0.5 0.1-0.4 0.1-0.7 0.1-0.4 0.3-0.7 0.2-0.4 0.4-0.6 0.2-0.3 0.5-0.5 0.3-0.3 0.7-0.5 0.3-0.2 0.7-0.3 0.3-0.2 0.7-0.2 0.4-0.1 0.8-0.1 0.5 0 0.9 0.1 0.5 0.1 0.9 0.4 0.4 0.2 0.7 0.6 0.3 0.3 0.5 0.8l3.9 7.6 3.8-7.6q0.2-0.5 0.6-0.9 0.3-0.3 0.7-0.6 0.4-0.3 0.9-0.4 0.5-0.1 0.9-0.1 0.4 0 0.8 0.1 0.4 0.1 0.7 0.2 0.4 0.1 0.7 0.3 0.3 0.2 0.6 0.5 0.3 0.2 0.6 0.5 0.2 0.3 0.4 0.7 0.1 0.3 0.2 0.7 0.1 0.3 0.1 0.7 0 0.3 0 0.5-0.1 0.3-0.2 0.5 0 0.3-0.2 0.5-0.1 0.2-0.2 0.5l-4.8 7.1 8.7-0.4q0.3-0.1 0.7 0 0.4 0 0.7 0.1 0.4 0.2 0.7 0.4 0.3 0.2 0.6 0.5z"/>
		<path class="s25" d="m711.1 508.4q0.2 0.2 0.4 0.5 0.2 0.4 0.3 0.7 0.2 0.3 0.2 0.7 0.1 0.4 0.1 0.7 0 0.4-0.1 0.8 0 0.3-0.2 0.7-0.1 0.4-0.3 0.7-0.2 0.3-0.4 0.6-0.3 0.3-0.6 0.5-0.3 0.2-0.7 0.3-0.3 0.2-0.7 0.2-0.4 0.1-0.8 0l-8.6-0.4 4.8 7.1q0.1 0.3 0.2 0.5 0.1 0.2 0.2 0.5 0.1 0.2 0.1 0.5 0.1 0.2 0.1 0.5 0 0.4-0.1 0.7-0.1 0.4-0.3 0.7-0.1 0.4-0.4 0.7-0.2 0.2-0.5 0.5-0.3 0.2-0.6 0.5-0.4 0.2-0.7 0.3-0.4 0.1-0.8 0.2-0.4 0.1-0.8 0.1-0.4 0-0.9-0.1-0.4-0.1-0.8-0.4-0.4-0.2-0.8-0.6-0.3-0.3-0.5-0.8l-3.8-7.6-3.9 7.6q-0.2 0.5-0.5 0.8-0.3 0.4-0.7 0.6-0.4 0.3-0.9 0.4-0.4 0.2-0.9 0.2-0.4 0-0.8-0.1-0.4-0.1-0.8-0.2-0.3-0.2-0.7-0.4-0.3-0.2-0.6-0.4-0.5-0.4-0.8-1-0.3-0.5-0.4-1.2-0.1-0.6 0-1.2 0.2-0.6 0.5-1.2l4.8-7.2-8.6 0.4q-0.4 0.1-0.8 0-0.4 0-0.7-0.1-0.4-0.2-0.7-0.4-0.3-0.2-0.6-0.5-0.2-0.2-0.4-0.5-0.2-0.4-0.3-0.7-0.1-0.4-0.2-0.7-0.1-0.4-0.1-0.7 0-0.4 0.1-0.8 0.1-0.4 0.2-0.7 0.1-0.4 0.3-0.7 0.2-0.3 0.4-0.6 0.3-0.3 0.6-0.5 0.3-0.2 0.7-0.4 0.3-0.1 0.7-0.1 0.4-0.1 0.8 0l8.6 0.4-4.8-7.1q-0.1-0.3-0.2-0.5-0.1-0.2-0.2-0.5-0.1-0.2-0.1-0.5-0.1-0.2-0.1-0.5 0-0.4 0.1-0.7 0.1-0.4 0.3-0.7 0.1-0.4 0.4-0.6 0.2-0.3 0.5-0.5 0.3-0.3 0.6-0.5 0.4-0.2 0.8-0.3 0.3-0.2 0.7-0.2 0.4-0.1 0.8-0.1 0.5 0 0.9 0.1 0.5 0.1 0.9 0.4 0.4 0.2 0.7 0.6 0.3 0.3 0.5 0.8l3.9 7.6 3.8-7.6q0.2-0.5 0.5-0.9 0.4-0.3 0.8-0.6 0.4-0.3 0.8-0.4 0.5-0.1 1-0.1 0.4 0 0.8 0.1 0.3 0 0.7 0.2 0.3 0.1 0.7 0.3 0.3 0.2 0.6 0.5 0.3 0.2 0.5 0.5 0.2 0.3 0.4 0.7 0.2 0.3 0.3 0.7 0.1 0.3 0.1 0.7 0 0.3-0.1 0.5 0 0.3-0.1 0.5-0.1 0.3-0.2 0.5-0.1 0.2-0.3 0.4l-4.7 7.2 8.6-0.4q0.4-0.1 0.8-0.1 0.4 0.1 0.7 0.2 0.4 0.1 0.7 0.4 0.3 0.2 0.6 0.5z"/>
		<path class="s25" d="m789.2 508.4q0.2 0.2 0.4 0.5 0.2 0.4 0.3 0.7 0.2 0.3 0.2 0.7 0.1 0.4 0.1 0.7 0 0.4-0.1 0.8 0 0.3-0.2 0.7-0.1 0.4-0.3 0.7-0.2 0.3-0.4 0.6-0.3 0.3-0.6 0.5-0.3 0.2-0.6 0.3-0.4 0.2-0.8 0.2-0.4 0.1-0.7 0l-8.7-0.4 4.8 7.1q0.1 0.3 0.2 0.5 0.2 0.2 0.2 0.5 0.1 0.2 0.2 0.5 0 0.2 0 0.5 0 0.4-0.1 0.7-0.1 0.4-0.2 0.7-0.2 0.4-0.4 0.7-0.3 0.2-0.6 0.5-0.3 0.2-0.6 0.5-0.3 0.2-0.7 0.3-0.4 0.1-0.8 0.2-0.4 0.1-0.8 0.1-0.4 0-0.9-0.1-0.4-0.1-0.8-0.4-0.4-0.2-0.7-0.6-0.4-0.3-0.6-0.8l-3.8-7.6-3.9 7.6q-0.2 0.5-0.5 0.8-0.3 0.4-0.7 0.6-0.4 0.3-0.9 0.4-0.4 0.2-0.9 0.2-0.4 0-0.8-0.1-0.4-0.1-0.7-0.2-0.4-0.2-0.8-0.4-0.3-0.2-0.6-0.4-0.5-0.4-0.8-1-0.3-0.5-0.4-1.2-0.1-0.6 0-1.2 0.2-0.6 0.6-1.2l4.7-7.2-8.6 0.4q-0.4 0.1-0.8 0-0.3 0-0.7-0.1-0.4-0.2-0.7-0.4-0.3-0.2-0.6-0.5-0.2-0.2-0.4-0.5-0.2-0.4-0.3-0.7-0.1-0.4-0.2-0.7-0.1-0.4-0.1-0.7 0-0.4 0.1-0.8 0.1-0.4 0.2-0.7 0.1-0.4 0.3-0.7 0.2-0.3 0.4-0.6 0.3-0.3 0.6-0.5 0.3-0.2 0.7-0.4 0.3-0.1 0.7-0.1 0.4-0.1 0.8 0l8.6 0.4-4.7-7.1q-0.2-0.3-0.3-0.5-0.1-0.2-0.2-0.5-0.1-0.2-0.1-0.5-0.1-0.2-0.1-0.5 0-0.4 0.1-0.7 0.1-0.4 0.3-0.7 0.1-0.4 0.4-0.6 0.2-0.3 0.5-0.5 0.3-0.3 0.7-0.5 0.3-0.2 0.7-0.3 0.3-0.2 0.7-0.2 0.4-0.1 0.8-0.1 0.5 0 0.9 0.1 0.5 0.1 0.9 0.4 0.4 0.2 0.7 0.6 0.3 0.3 0.5 0.8l3.9 7.6 3.8-7.6q0.2-0.5 0.6-0.9 0.3-0.3 0.7-0.6 0.4-0.3 0.9-0.4 0.5-0.1 0.9-0.1 0.4 0 0.8 0.1 0.4 0.1 0.7 0.2 0.4 0.1 0.7 0.3 0.3 0.3 0.6 0.5 0.3 0.2 0.6 0.5 0.2 0.3 0.4 0.7 0.1 0.3 0.2 0.7 0.1 0.3 0.1 0.7 0 0.3 0 0.5-0.1 0.3-0.2 0.5 0 0.3-0.2 0.5-0.1 0.2-0.2 0.5l-4.8 7.1 8.7-0.4q0.3-0.1 0.7 0 0.4 0 0.7 0.1 0.4 0.2 0.7 0.4 0.3 0.2 0.6 0.5z"/>
		<path class="s25" d="m867.3 508.4q0.2 0.2 0.4 0.5 0.2 0.4 0.4 0.7 0.1 0.3 0.1 0.7 0.1 0.4 0.1 0.7 0 0.4-0.1 0.8 0 0.4-0.1 0.7-0.2 0.4-0.4 0.7-0.2 0.3-0.4 0.6-0.3 0.3-0.6 0.5-0.3 0.2-0.6 0.3-0.4 0.2-0.8 0.2-0.4 0.1-0.7 0l-8.7-0.4 4.8 7.1q0.1 0.3 0.2 0.5 0.2 0.2 0.2 0.5 0.1 0.2 0.2 0.5 0 0.2 0 0.5 0 0.4-0.1 0.7-0.1 0.4-0.2 0.7-0.2 0.4-0.4 0.7-0.3 0.2-0.6 0.5-0.3 0.2-0.6 0.5-0.3 0.2-0.7 0.3-0.4 0.1-0.8 0.2-0.3 0.1-0.7 0.1-0.5 0-1-0.1-0.4-0.1-0.8-0.4-0.4-0.2-0.7-0.6-0.3-0.3-0.5-0.8l-3.9-7.6-3.9 7.6q-0.2 0.5-0.5 0.8-0.3 0.4-0.7 0.6-0.4 0.3-0.9 0.4-0.4 0.2-0.9 0.2-0.4 0-0.8-0.1-0.4-0.1-0.7-0.2-0.4-0.2-0.7-0.4-0.4-0.2-0.7-0.4-0.5-0.4-0.8-1-0.3-0.5-0.4-1.2-0.1-0.6 0-1.2 0.2-0.6 0.6-1.2l4.7-7.2-8.6 0.4q-0.4 0.1-0.8 0-0.3 0-0.7-0.1-0.4-0.2-0.7-0.4-0.3-0.2-0.5-0.5-0.3-0.2-0.5-0.6-0.2-0.3-0.3-0.6-0.1-0.4-0.2-0.7-0.1-0.4 0-0.7-0.1-0.4 0-0.8 0.1-0.4 0.2-0.7 0.1-0.4 0.3-0.7 0.2-0.3 0.5-0.6 0.2-0.3 0.5-0.5 0.3-0.2 0.7-0.3 0.3-0.2 0.7-0.2 0.4-0.1 0.8 0l8.6 0.4-4.7-7.1q-0.2-0.3-0.3-0.5-0.1-0.2-0.2-0.5-0.1-0.2-0.1-0.5-0.1-0.2 0-0.5 0-0.4 0-0.7 0.1-0.4 0.3-0.7 0.2-0.4 0.4-0.6 0.2-0.3 0.5-0.5 0.3-0.3 0.7-0.5 0.3-0.2 0.7-0.3 0.3-0.2 0.7-0.2 0.4-0.1 0.8-0.1 0.5 0 0.9 0.1 0.5 0.1 0.9 0.4 0.4 0.2 0.7 0.6 0.3 0.3 0.5 0.8l3.9 7.6 3.9-7.6q0.2-0.5 0.5-0.9 0.3-0.3 0.7-0.6 0.4-0.3 0.9-0.4 0.5-0.1 1-0.1 0.3 0 0.7 0.1 0.4 0.1 0.7 0.2 0.4 0.1 0.7 0.3 0.3 0.3 0.6 0.5 0.3 0.2 0.6 0.5 0.2 0.3 0.4 0.7 0.1 0.3 0.2 0.7 0.1 0.3 0.1 0.7 0 0.3 0 0.5-0.1 0.3-0.1 0.5-0.1 0.3-0.2 0.5-0.2 0.2-0.3 0.5l-4.8 7.1 8.7-0.4q0.3-0.1 0.7 0 0.4 0 0.8 0.1 0.3 0.2 0.6 0.4 0.3 0.2 0.6 0.5z"/>
		<path class="s25" d="m945.4 508.4q0.3 0.2 0.4 0.5 0.2 0.4 0.4 0.7 0.1 0.3 0.2 0.7 0 0.4 0 0.7 0 0.4 0 0.8-0.1 0.4-0.2 0.7-0.2 0.4-0.4 0.7-0.1 0.3-0.4 0.6-0.2 0.3-0.6 0.5-0.3 0.2-0.6 0.3-0.4 0.2-0.8 0.2-0.3 0.1-0.7 0l-8.7-0.4 4.8 7.1q0.1 0.3 0.3 0.5 0.1 0.2 0.1 0.5 0.1 0.2 0.2 0.5 0 0.2 0 0.5 0 0.4-0.1 0.7-0.1 0.4-0.2 0.7-0.2 0.4-0.4 0.7-0.3 0.2-0.6 0.5-0.3 0.2-0.6 0.5-0.3 0.2-0.7 0.3-0.4 0.1-0.7 0.2-0.4 0.1-0.8 0.1-0.5 0-1-0.1-0.4-0.1-0.8-0.4-0.4-0.2-0.7-0.6-0.3-0.3-0.5-0.8l-3.9-7.6-3.9 7.6q-0.2 0.5-0.5 0.8-0.3 0.4-0.7 0.6-0.4 0.3-0.9 0.4-0.4 0.2-0.9 0.2-0.4 0-0.8-0.1-0.4-0.1-0.7-0.2-0.4-0.2-0.7-0.4-0.4-0.2-0.7-0.4-0.5-0.4-0.8-1-0.3-0.5-0.4-1.2-0.1-0.6 0.1-1.2 0.1-0.6 0.5-1.2l4.7-7.2-8.6 0.4q-0.4 0.1-0.8 0-0.3 0-0.7-0.1-0.3-0.2-0.7-0.4-0.3-0.2-0.5-0.5-0.3-0.2-0.5-0.5-0.2-0.4-0.3-0.7-0.1-0.4-0.2-0.7 0-0.4 0-0.7 0-0.4 0-0.8 0.1-0.4 0.2-0.7 0.1-0.4 0.3-0.7 0.2-0.3 0.5-0.6 0.2-0.3 0.5-0.5 0.3-0.2 0.7-0.3 0.4-0.2 0.7-0.2 0.4-0.1 0.8 0l8.6 0.4-4.7-7.1q-0.2-0.3-0.3-0.5-0.1-0.2-0.2-0.5-0.1-0.2-0.1-0.5 0-0.2 0-0.5 0-0.4 0-0.7 0.1-0.4 0.3-0.7 0.2-0.4 0.4-0.6 0.2-0.3 0.5-0.5 0.3-0.3 0.7-0.5 0.3-0.2 0.7-0.3 0.3-0.2 0.7-0.2 0.4-0.1 0.8-0.1 0.5 0 0.9 0.1 0.5 0.1 0.9 0.4 0.4 0.2 0.7 0.6 0.3 0.3 0.5 0.8l3.9 7.6 3.9-7.6q0.2-0.5 0.5-0.9 0.3-0.3 0.7-0.6 0.4-0.3 0.9-0.4 0.5-0.1 1-0.1 0.3 0 0.7 0.1 0.4 0.1 0.8 0.2 0.3 0.1 0.6 0.3 0.4 0.3 0.6 0.5 0.3 0.2 0.6 0.5 0.2 0.3 0.4 0.7 0.1 0.3 0.2 0.7 0.1 0.3 0.1 0.7 0 0.3 0 0.5-0.1 0.3-0.1 0.5-0.1 0.3-0.2 0.5-0.1 0.2-0.3 0.5l-4.8 7.1 8.7-0.4q0.4-0.1 0.7 0 0.4 0 0.8 0.1 0.3 0.2 0.6 0.4 0.4 0.2 0.6 0.5z"/>
		<path fill-rule="evenodd" class="s25" d="m600.9 350.5h198.4c5.8 0 10.4 4.6 10.4 10.3v10.5c0 5.7-4.6 10.4-10.4 10.4h-198.4c-5.7 0-10.3-4.7-10.3-10.4v-10.5c0-5.7 4.6-10.3 10.3-10.3z"/>
		<path fill-rule="evenodd" class="s25" d="m1003.5 351.3h198.4c5.7 0 10.3 4.6 10.3 10.3v10.5c0 5.8-4.6 10.4-10.3 10.4h-198.4c-5.8 0-10.4-4.6-10.4-10.4v-10.5c0-5.7 4.6-10.3 10.4-10.3z"/>
		<path fill-rule="evenodd" class="s25" d="m839.7 350.5h121.4c4.6 0 8.3 3.6 8.3 8.2v14.8c0 4.5-3.7 8.2-8.3 8.2h-121.4c-4.6 0-8.3-3.7-8.3-8.2v-14.8c0-4.6 3.7-8.2 8.3-8.2z"/>
		<g style="opacity: .89">
		</g>
		<path class="s28" d="m1782.4 2281.1q0.1 1.1 0.1 2c0 19.3-8.4 29-8.4 29h-245.7c0 0-4.8-23 0-39.9q0.2-1 0.6-1.8 0.4-0.9 0.9-1.7 0.4-0.8 1-1.6 0.6-0.7 1.3-1.4 0.6-0.7 1.4-1.3 0.7-0.6 1.5-1.1 0.8-0.5 1.6-1 0.9-0.4 1.7-0.8 1.5-0.7 3.1-1.2 0.8-0.4 1.6-0.6 1.7-0.5 3.5-1c10-2.7 22.3-4.3 32.6-10.8q1.2-0.6 2.6-1.6c0.4-0.3 0.9-0.6 1.4-1 1-0.7 2.2-1.5 3.4-2.3 2.7-1.9 5.8-4.2 9.2-6.6q1.5-1.1 3-2.3c2.2-1.6 4.6-3.4 7-5.3q0.6-0.4 1.3-1c0.6-0.4 1.3-1 1.9-1.4 0.7-0.5 1.1-0.9 1.7-1.3 0.6-0.4 0.9-0.7 1.4-1.1 3.4-2.5 6.8-5.2 10.3-7.9 1.3-1 2.6-2 3.8-2.9l1.3-1c3.6-2.8 7.2-5.6 10.7-8.2l5-4q3.5-2.8 6.7-5.3l3.9-3.1c2-1.6 4-3.1 5.7-4.4l10.5-8.2v-444.8h112.5c0 0 0.4 2.9 1 8.1 1.5 13.6 4.7 42.8 7.6 74.5 2.8 29.9 5.2 61.9 5.7 85.1 0.8 40.4-18.6 131.6-30.2 181.6-4.7 20.8-8.1 34.4-8.1 34.4l-0.2 57.5c0 0 4.8 17.3 10 38.3q1.3 4.9 2.6 10.1 0 0.1 0 0.2 0.1 0.1 0.1 0.3 0 0.1 0 0.2 0.1 0.1 0.1 0.2c0.4 1.9 0.9 3.8 1.4 5.7 2.2 9.4 4.4 18.9 6.1 27.3 0.6 2.8 1.1 5.5 1.6 8q0.4 2 0.7 3.8c0.2 1.2 0.3 2.2 0.5 3.2 0.5 2.7 0.8 5.2 0.9 7.2q0.1 0.1 0.1 0.3 0 0.1 0 0.3 0 0.1 0 0.3 0 0.1 0 0.3z"/>
		<path class="s29" d="m1778.7 2257.7l-165.2-3.5-4.4-27.7c17.9-13.6 38.4-29.7 50.5-39.2l10.4-8.3v-95.5c0 0 47.3 8.8 96.6 0-2.2 20.5-5.7 46.3-5.7 46.3l-2.6 45.6c0 0 4.8 17.3 10 38.3 3.7 14.4 7.6 30.6 10.4 44z"/>
		<path class="s30" d="m1782.5 2283.1c0 19.3-8.4 29-8.4 29h-245.7c0 0-4.8-23 0-39.9 4.8-16.9 31.5-12.1 50.8-24.2 2-1.2 4.5-2.9 7.3-4.9 19-13.3 55.3-41.8 73.1-55.8l0.8-0.3 15.6 8q1.8 0.9 3.2 2.4 1.4 1.4 2.2 3.2 0.9 1.9 1.1 3.9 0.2 2-0.3 3.9l-5.3 23c0 0 41.2-2.2 84-16.7q0.9-0.3 1.8-0.5 1-0.3 1.9-0.4 1-0.1 1.9-0.1 1-0.1 1.9 0c6.6 26.4 14.1 58.6 14.1 69.4z"/>
		<path class="s31" d="m1528.4 2312.1h245.7v6.1c0 1.3-0.3 2.5-0.7 3.6-0.5 1.2-1.2 2.2-2.1 3.1-0.9 0.9-1.9 1.6-3.1 2.1-1.1 0.5-2.4 0.7-3.6 0.7h-226.7c-1.3 0-2.5-0.2-3.6-0.7-1.2-0.5-2.2-1.2-3.1-2.1-0.9-0.9-1.6-1.9-2.1-3.1-0.5-1.1-0.7-2.3-0.7-3.6z"/>
		<path class="s31" d="m1682.2 2208.5l-5.3 23c0 0-53.3 22.8-69.1 22.8-15.9-0.1-21.2-11.2-21.2-11.2 18.9-13.3 55.2-41.7 73-55.8l0.8-0.3 15.6 8q1.8 0.9 3.2 2.4 1.4 1.5 2.2 3.3 0.9 1.8 1.1 3.8 0.2 2-0.3 4z"/>
		<path fill-rule="evenodd" class="s30" d="m1619 2237.9l-0.7 0.5c-1.3 0.9-3 0.7-3.9-0.5l-6.9-9.1c-0.9-1.2-0.7-2.9 0.5-3.9l0.8-0.5c1.2-0.9 2.9-0.7 3.9 0.5l6.8 9.1c0.9 1.2 0.7 2.9-0.5 3.9z"/>
		<path fill-rule="evenodd" class="s30" d="m1633.9 2224.5l-0.7 0.6c-1.2 0.9-3 0.8-4-0.4l-7.1-8.8c-1-1.2-0.8-3 0.4-3.9l0.7-0.6c1.2-1 2.9-0.8 3.9 0.4l7.2 8.8c0.9 1.2 0.8 2.9-0.4 3.9z"/>
		<path fill-rule="evenodd" class="s30" d="m1650.1 2211.6l-0.6 0.6c-1.2 1-3 0.9-4-0.2l-7.5-8.6c-1-1.1-0.9-2.9 0.3-3.9l0.7-0.6c1.1-1 2.9-0.9 3.9 0.3l7.5 8.5c1 1.1 0.9 2.9-0.3 3.9z"/>
		<path class="s28" d="m1596.7 960.7l-1.2 0.3q-7.7 1.9-15.5 3.6-7.7 1.7-15.5 3.2-7.8 1.5-15.7 2.7-7.8 1.3-15.7 2.3c-22.6 2.8-45.5 3.5-58-2.2-30.2-14-147.7-246.6-147.7-246.6l-23.2-8.5q-3.4-1.3-6.6-3.1-3.1-1.7-5.9-4-2.9-2.2-5.3-4.9-2.4-2.7-4.4-5.7l-34.3-52.3c-1.5-1.4-2.7-3-3.7-4.7-1-1.8-1.7-3.7-2.1-5.6-0.4-2-0.4-4-0.2-6 0.2-1.9 0.7-3.9 1.5-5.7l17.9-12.4c0 0-11.3-32.2 3.8-43.6h32.7q1.1 0 2.1-0.4 1-0.5 1.7-1.4 0.7-0.8 1-1.9 0.2-1.1 0-2.1 0-0.3-0.1-0.5-0.1-0.2-0.1-0.4-0.1-0.2-0.2-0.4-0.1-0.2-0.2-0.4c-11.6-18.7-39.8-67.8-31.4-91.8q0.1-0.3 0.3-0.6 0.2-0.3 0.4-0.6 0.2-0.3 0.5-0.5 0.3-0.3 0.6-0.5 0.7-0.4 1.5-0.6 0.9-0.1 1.7 0.1 0.9 0.2 1.6 0.7 0.7 0.5 1.2 1.2c14.9 23.7 69.7 110.9 79.4 129.6l28.4 89.7 140 158 51.1-4.1c0 0 74.5 65.9 19.6 120.1z"/>
		<path class="s32" d="m1307.3 621.5c-5-10.9-18.3-16.1-22.9-17.6q-0.4-0.1-0.7-0.3-0.3-0.2-0.5-0.5-0.2-0.3-0.3-0.7-0.1-0.3-0.1-0.7v-5.5q0-0.5 0.2-1 0.2-0.5 0.6-0.8 0.4-0.3 0.9-0.5 0.5-0.1 1 0l27.4 3.7c0 0 1.2 8.6-1.3 14.8l-2.5 6.1z"/>
		<path class="s32" d="m1299.9 628.5c-9.6 0-33.7-14.5-38.9-17.3l-0.6-2.5c12.6 6.8 35.9 17.9 40.5 16.3 6.2-2.1 10.9-15.4 10.9-23 0-6.3-5.3-27.9-9.3-39.4l-0.6-9.2c0.5 1.4 13.2 40.2 13.2 48.6 0 8.9-5.1 23.4-13.1 26.2q-0.2 0.1-0.5 0.1-0.3 0.1-0.5 0.1-0.3 0-0.6 0.1-0.2 0-0.5 0z"/>
		<path class="s32" d="m1302.4 561.7q0-0.2-0.1-0.5-0.1-0.2-0.1-0.4-0.1-0.2-0.2-0.4-0.1-0.2-0.2-0.4c-11.6-18.7-39.8-67.8-31.4-91.8q0.1-0.3 0.3-0.6 0.2-0.3 0.4-0.6 0.2-0.3 0.5-0.5 0.3-0.3 0.6-0.5c-4.4 5.7 0.4 21.8 6 39.3 5.5 17.4 23.8 48.1 23.8 48.1z"/>
		<path class="s32" d="m1261 611.2l6.3 4.5q0.7 0.5 1.1 1.3 0.4 0.7 0.5 1.5 0 0.9-0.3 1.6-0.4 0.8-1 1.3l-2.5 2.2q-0.2 0.2-0.2 0.4-0.1 0.3 0 0.6 0.1 0.2 0.3 0.4 0.2 0.2 0.5 0.2l28.4 2.2c0 0-22-12.9-33.1-16.2z"/>
		<path class="s32" d="m1533.1 972.8c1.9-9.7 3.9-25.4 2.6-40.8-2.3-24.8-26.6-69.1-26.6-69.1l79.1 24.3 7.3 73.8q-7.7 1.9-15.5 3.6-7.7 1.7-15.5 3.2-7.8 1.5-15.7 2.7-7.8 1.3-15.7 2.3z"/>
		<path class="s28" d="m2196.8 2236.9l-235.8 69c0 0-11.1-20.7-11.2-38.3-0.1-17.7 26.8-20.5 42-37.6 6.4-7.1 19.4-24.4 32.3-42.1 10.5-14.4 21-29.1 27.8-38.7l7.7-10.8-25.7-87.8-70.1-239.7-26.3-89.8-2.9-9.6 108-31.6c0 0 2.2 5 5.7 13.3 7.7 18.5 22.1 53.5 35.1 87.5 7.8 20.3 15 40.3 20 56.1 12.5 39.4 19.4 136.1 22.3 186.4 1.1 19.2 1.6 31.7 1.6 31.7l16 55.2c0 0 9.4 15.3 20.4 34 5 8.5 10.3 17.8 15.2 26.6 8.6 15.4 15.9 29.4 17.9 36 5.4 18.5 0 30.2 0 30.2z"/>
		<path class="s29" d="m2179 2170.6l-112 54.3-42.8-37c10.5-14.4 21-29.1 27.8-38.6l7.6-10.9-25.6-87.8c11.5-1.4 50.1-7.2 91.7-27.4 1.3 14.3 6.4 37.5 6.4 37.5l11.3 49.4c0 0 9.4 15.3 20.4 34 4.9 8.5 10.3 17.7 15.2 26.5z"/>
		<path class="s30" d="m2196.8 2206.6c5.4 18.6 0 30.3 0 30.3l-235.8 69c0 0-11.1-20.7-11.2-38.4-0.2-17.6 26.8-20.4 42-37.5 1.5-1.7 3.4-4 5.6-6.7 14.5-18.1 41.3-55.6 54.5-74.1l0.7-0.5 17.1 3.3q2 0.4 3.8 1.4 1.7 1 3 2.5 1.4 1.6 2.1 3.4 0.8 1.9 0.9 3.9l1.4 23.5c0 0 38.9-13.6 75.9-39.6q0.8-0.6 1.6-1.1 0.8-0.4 1.7-0.8 0.8-0.4 1.7-0.7 1-0.3 1.9-0.5c13.8 23.5 30.1 52.3 33.1 62.6z"/>
		<path class="s31" d="m1961 2305.9l235.8-69 1.7 5.8c0.3 1.2 0.5 2.4 0.3 3.7-0.1 1.2-0.5 2.4-1.1 3.5-0.6 1.1-1.4 2.1-2.4 2.8-0.9 0.8-2.1 1.4-3.3 1.8l-217.5 63.6c-1.2 0.4-2.5 0.5-3.7 0.3-1.2-0.1-2.4-0.5-3.5-1.1-1.1-0.6-2.1-1.4-2.9-2.3-0.8-1-1.3-2.1-1.7-3.3z"/>
		<path class="s31" d="m2079.6 2163.2l1.3 23.5c0 0-44.7 36.9-60 41.3-15.2 4.4-23.5-4.7-23.5-4.7 14.5-18.1 41.3-55.6 54.5-74.1l0.7-0.5 17.2 3.3q2 0.4 3.7 1.4 1.8 1 3.1 2.5 1.3 1.5 2.1 3.4 0.7 1.9 0.9 3.9z"/>
		<path fill-rule="evenodd" class="s30" d="m2027.2 2209.2l-0.6 0.7c-0.9 1.3-2.6 1.5-3.9 0.6l-9.1-6.7c-1.2-1-1.5-2.7-0.6-3.9l0.6-0.8c0.9-1.2 2.6-1.5 3.9-0.5l9.1 6.7c1.2 0.9 1.5 2.7 0.6 3.9z"/>
		<path fill-rule="evenodd" class="s30" d="m2037.7 2192.2l-0.5 0.7c-0.9 1.3-2.7 1.6-3.9 0.7l-9.4-6.4c-1.2-0.9-1.5-2.6-0.7-3.9l0.5-0.7c0.9-1.3 2.6-1.6 3.9-0.7l9.3 6.4c1.3 0.9 1.6 2.6 0.8 3.9z"/>
		<path fill-rule="evenodd" class="s30" d="m2049.6 2175.2l-0.5 0.8c-0.8 1.3-2.5 1.7-3.8 0.8l-9.6-6c-1.3-0.8-1.7-2.5-0.9-3.8l0.5-0.8c0.8-1.3 2.6-1.7 3.9-0.9l9.5 6.1c1.3 0.8 1.7 2.5 0.9 3.8z"/>
		<path class="s32" d="m2083.4 1780.7c-13.4 10.1-29.4 20.6-44.2 26.1-34.7 13-75.4 4.1-75.4 4.1l-26.3-89.8 110.8-27.9c7.7 18.5 22.1 53.5 35.1 87.5z"/>
		<path class="s32" d="m1791.1 1816.8c-24.2 5.3-54.2 10.2-73 7.3-35.8-5.4-48.1-10.2-48.1-10.2v-67l113.5-4.6c1.5 13.6 4.7 42.8 7.6 74.5z"/>
		<path class="s33" d="m2115.1 1720.4c0 0-61.7 52.4-232.3 62.1l-11.4-60-0.6-3.3-20.8-109.8-7 109.8-0.2 3.3-3.8 60c0 0-131.5 12.7-236.4-32 0 0 3-22.3 8.3-57.7q0.3-1.7 0.5-3.3c17.4-116.7 57.9-366.6 96.8-446h230.2l90 20.5c0 0 4.8 28.2 12.1 70.7q0.3 1.7 0.6 3.3c15.1 87.5 40.8 232.4 59.7 321.7q0.4 1.7 0.7 3.3c5.2 24.3 9.8 44.1 13.6 57.4z"/>
		<path class="s34" d="m1782.2 1380.5c0 0 17 9.7 30.9 37.1 9.1 18.1 15.6 44.2 19.5 79.6l17.3 112.2-5.2 81.7c0 0-40-77.8-50.2-177.2-10.2-99.5-12.3-133.4-12.3-133.4z"/>
		<path class="s35" d="m1850 1611q-0.3 0-0.6-0.1-0.3-0.1-0.5-0.3-0.2-0.2-0.4-0.5-0.1-0.2-0.2-0.5c-0.1-1.6-20.3-152.4-31.7-181-11.4-28.5-36.8-47.6-37-47.7-0.4-0.3-0.6-0.7-0.7-1.1 0-0.5 0.1-0.9 0.3-1.3 0.3-0.3 0.7-0.6 1.1-0.6 0.5-0.1 0.9 0 1.3 0.3 1 0.8 26.3 19.8 38.1 49.1 11.6 29.1 31.1 175.6 32 181.8q0 0.4-0.1 0.7 0 0.3-0.2 0.6-0.3 0.2-0.5 0.4-0.3 0.2-0.7 0.2z"/>
		<path class="s36" d="m2100.6 1586.2c-32.1 16.6-74.4 23.7-101.2 26.8-3.8 0.4-7.6 0.2-11.3-0.7-3.7-0.9-7.2-2.4-10.4-4.5-3.2-2-6-4.7-8.3-7.7-2.3-3-4-6.4-5.2-10.1-18.1-58.6-29.2-152.8-29.2-152.8l20.9 1.3 103.9 6.6c0 0 32 77.9 40.8 105.1q0.6 1.8 1.1 3.6 0.5 1.8 1 3.7 0.4 1.8 0.8 3.7 0.3 1.8 0.6 3.7c2 15.8-3.5 21.3-3.5 21.3z"/>
		<path class="s37" d="m2100.6 1586.2c-32.1 16.6-74.4 23.7-101.2 26.8-3.8 0.4-7.6 0.2-11.3-0.7-3.7-0.9-7.2-2.4-10.4-4.5-3.2-2-6-4.7-8.3-7.7-2.3-3-4-6.4-5.2-10.1-18.1-58.6-29.2-152.8-29.2-152.8l20.9 1.3 5.2 11.7c0 0 16.6 122.2 40.8 132.8 20 8.8 81.9-11.2 102.2-18.1 2 15.8-3.5 21.3-3.5 21.3z"/>
		<path class="s38" d="m1935 1437.2l118.3-28.8c0 0 14.8 12.4 23.3 36.1q0.4 1.4 0.4 2.7-0.1 1.4-0.8 2.7-0.6 1.2-1.6 2.2-1.1 0.9-2.4 1.3c-18.7 6.4-73.7 24.2-110.2 28q-1.2 0.1-2.4-0.2-1.2-0.3-2.2-1-1-0.7-1.7-1.6-0.7-1-1.1-2.2-1.6-5.3-3.6-10.4-2.1-5.1-4.6-10-2.4-5-5.3-9.7-2.9-4.7-6.1-9.1z"/>
		<path class="s34" d="m1929.2 1243.5c0 0 27.7 95.6 111.8 94.6l-12.6-74-90-20.6z"/>
		<path class="s35" d="m2041 1338.1q0 0 0 0 0 0-0.1 0 0 0 0 0 0 0 0 0-4.3 0.4-8.4 0.4c-54.2 0-82.2-49.8-82.4-50.3-0.3-0.4-0.4-0.9-0.2-1.4 0.1-0.4 0.4-0.8 0.8-1 0.4-0.2 0.8-0.3 1.3-0.1 0.4 0.1 0.8 0.4 1 0.8 0.3 0.6 30.1 53.5 87.4 48.3q0.3 1.7 0.6 3.3z"/>
		<path class="s36" d="m1685.5 1437.2c0 0-5.5 146.6-12.2 156.3-6.7 9.7-39 5.4-47.5 3.1-5.2-1.4-11.7-4.4-12.9-14.4-0.7-6.2 0.5-15 5.3-27.8 12.6-33.6 22.2-99.2 22.2-99.2l21.1-8.4z"/>
		<path class="s37" d="m1685.5 1437.2c0 0-5.5 146.6-12.2 156.3-6.7 9.7-39 5.4-47.5 3.1-5.2-1.4-11.7-4.4-12.9-14.4 11.1 2.9 28.4 5.9 36.2 0.2 10.2-7.5 12-104.5 12.4-135.6z"/>
		<path class="s38" d="m1657.3 1426.8l28.2 10.4c0 0-9.3 19.5-8.5 37.4l-45-12.4c0 0-3.3-16.8 8-30.7q1.5-1.9 3.5-3.2 2.1-1.3 4.4-1.9 2.3-0.6 4.7-0.5 2.5 0.1 4.7 0.9z"/>
		<path class="s35" d="m2101.5 1663.1c-104.6 50.8-224.5 59-230.1 59.4l-0.6-3.3c0.1 0 0.2 0 0.2 0 1.2-0.1 123.3-7.7 229.4-59.3 0.1 0 0.3-0.1 0.4-0.1 0.2 1.1 0.5 2.2 0.7 3.3z"/>
		<path class="s35" d="m1842.9 1719.2l-0.2 3.3q-14.7 0.7-28.9 0.7c-112.1 0-197.3-28.5-203-30.4q0.3-1.7 0.5-3.3 0 0 0.1 0 0 0 0 0 0.1 0 0.1 0 0.1 0 0.1 0c1 0.4 102.1 35.5 231.1 29.7z"/>
		<path class="s39" d="m1825.1 645.4l60.6-9.3c0 0 100.6 21.3 165.5 84.6q4.1 3.9 7.7 8.3 3.7 4.4 6.8 9.1 3.2 4.7 5.9 9.7 2.6 5 4.8 10.3c16.2 39.9 41.4 109.5 53.1 209.3 0 0-42.3 23.7-101.6 32.2l10.5 260.3c0 0-203.5 92.8-350.8-8.8 0 0 8.5-250.5 0-296.2l-104.6 17.2-47.4-140.5c0 0 130.7-145.5 240.2-180.2z"/>
		<path class="s28" d="m1903.4 640.7c0 0-70.8 110.5-100.8 106.4-30-4.1-26.8-95.7-26.8-95.7l24.5-11.2 1.8-16.8 3.2-29 61.1-59.5 17.3-16.8 0.2 13.1 1.1 62.6v0.6l0.7 41.7z"/>
		<path class="s32" d="m1885 593.8v0.6c0 0-42.8 36-62.3 36-13 0-18.4-4.2-20.5-7l3.2-29 61.1-59.4 17.4-3.8z"/>
		<path fill-rule="evenodd" class="s40" d="m1896.2 540c-18.6 0-33.6-15-33.6-33.6 0-18.6 15-33.6 33.6-33.6 18.6 0 33.6 15 33.6 33.6 0 18.6-15 33.6-33.6 33.6z"/>
		<path fill-rule="evenodd" class="s41" d="m1744.3 493.9c-18.6 0-33.6-15-33.6-33.6 0-18.6 15-33.6 33.6-33.6 18.6 0 33.6 15 33.6 33.6 0 18.6-15 33.6-33.6 33.6z"/>
		<path class="s28" d="m1902 470.5c0 0-0.2 1-0.5 2.7-0.7 3.9-2.4 11.8-5 21.8-0.6 2-1.1 4-1.8 6.2-1.2 4.4-2.7 9.1-4.3 14-2.3 6.8-5 14-8 21.2-0.1 0.2-0.2 0.3-0.2 0.5-2 4.5-4.2 9.1-6.4 13.6-15 29.3-37.3 55.8-69.4 57.5-46.5 2.5-62.5-20.8-68-56.8-2.2-14.5-2.7-31.1-2.8-49q0-4.7 0-9.6v-14.3q0-2.2 0.1-4.5 0.1-2.2 0.3-4.4 0.2-2.2 0.5-4.4 0.2-2.3 0.6-4.5 0.8-4.4 2-8.8 1.3-4.4 3-8.6 1.7-4.2 3.9-8.1 2.2-4 4.9-7.7c20.8-29.1 55.5-35.5 55.5-35.5 103.5-9.2 95.6 78.7 95.6 78.7z"/>
		<path class="s40" d="m1958.8 440.4q-0.6 3.3-1.6 6.4-1.1 3.1-2.6 6-1.6 2.9-3.6 5.5-2 2.6-4.5 4.8c1.7 5.4 1.9 11.2 0.7 16.8-1.1 5.5-3.7 10.7-7.4 15-3.8 4.3-8.5 7.6-13.9 9.5-5.3 1.9-11.1 2.5-16.7 1.6q-1.9-0.3-3.7-0.8-1.8-0.5-3.6-1.2-1.7-0.7-3.4-1.6-1.6-0.9-3.2-2c-7.9 10.4-20.4 25.9-23.3 25.5-4.3-0.6-1.8-15.1-1.8-26.2 0-5.9-4.6-14.2-5.8-18.3-5.4 0.3-10.9-0.5-16-2.5-5.1-2-9.7-5.1-13.5-9-3.8-3.9-6.6-8.7-8.4-13.8-1.8-5.2-2.4-10.7-1.8-16.2-3.6 4.4-8.2 7.8-13.5 9.9-5.3 2-11 2.7-16.6 1.9-5.5-0.7-10.8-2.9-15.4-6.3-4.5-3.4-8-7.9-10.3-13.1-3.3 12.4-12.6 22.4-24.8 26.6-12.2 4.2-25.7 2.1-36-5.6-10.3-7.8-16.1-20.1-15.5-33 0.6-12.9 7.6-24.6 18.6-31.3q-1-2.4-1.6-4.9-0.7-2.6-1-5.2-0.3-2.6-0.2-5.2 0-2.6 0.4-5.2c1-6.2 3.5-12.1 7.2-17.2 3.8-5 8.7-9.1 14.4-11.8 5.7-2.7 11.9-4 18.2-3.8 6.3 0.2 12.5 2 17.9 5.2 5.8-21.8 34.3-35.2 65.8-30.3 18.9 2.9 34.7 11.8 44.2 23.2 13.9-0.9 29.6 4.1 43 14.9 18.5 14.9 27.1 36.4 23.4 54.1q3.4 2.4 6.2 5.5 2.8 3.2 4.9 6.8 2.1 3.6 3.4 7.6 1.2 4 1.6 8.2 0.1 1.2 0.2 2.4 0 1.2 0 2.4-0.1 1.2-0.2 2.3-0.1 1.2-0.2 2.4z"/>
		<path fill-rule="evenodd" class="s28" d="m1914.9 534.7c-6.9 15.7-22.3 24.1-34.6 18.8-12.2-5.4-16.6-22.4-9.7-38.1 6.9-15.8 22.3-24.2 34.6-18.9 12.2 5.4 16.6 22.4 9.7 38.2z"/>
		<path class="s42" d="m1882.6 541.6q-0.3 0-0.6-0.1-0.3-0.1-0.5-0.3-0.2-0.2-0.3-0.5-0.2-0.2-0.2-0.5c-2.9-21.4 13-29.7 13.2-29.8 0.3-0.2 0.8-0.2 1.1-0.1 0.4 0.1 0.8 0.4 1 0.8 0.2 0.3 0.2 0.8 0.1 1.2-0.2 0.4-0.5 0.7-0.8 0.9-0.6 0.3-14 7.5-11.5 26.6q0.1 0.3 0 0.6-0.1 0.3-0.3 0.5-0.2 0.3-0.4 0.5-0.3 0.1-0.6 0.2z"/>
		<path class="s43" d="m1958.8 440.4q-0.6 3.3-1.6 6.4-1.1 3.1-2.6 6-1.6 2.9-3.6 5.5-2 2.6-4.5 4.8c1.7 5.4 1.9 11.2 0.7 16.8-1.1 5.5-3.7 10.7-7.4 15-3.8 4.3-8.5 7.6-13.9 9.5-5.3 1.9-11.1 2.5-16.7 1.6q-1.9-0.3-3.7-0.8-1.8-0.5-3.6-1.2-1.7-0.7-3.4-1.6-1.6-0.9-3.2-2c-7.9 10.4-20.4 25.9-23.3 25.5-4.3-0.6-1.8-15.1-1.8-26.2 0-5.9-4.6-14.2-5.8-18.3-5.4 0.3-10.9-0.5-16-2.5-5.1-2-9.7-5.1-13.5-9-3.8-3.9-6.6-8.7-8.4-13.8-1.8-5.2-2.4-10.7-1.8-16.2-3.6 4.4-8.2 7.8-13.5 9.9-5.3 2-11 2.7-16.6 1.9-5.5-0.7-10.8-2.9-15.4-6.3-4.5-3.4-8-7.9-10.3-13.1-3.3 12.4-12.6 22.4-24.8 26.6-12.2 4.2-25.7 2.1-36-5.6-10.3-7.8-16.1-20.1-15.5-33 0.6-12.9 7.6-24.6 18.6-31.3q-1-2.4-1.6-4.9-0.7-2.6-1-5.2-0.3-2.6-0.2-5.2 0-2.6 0.4-5.2c1-6.2 3.5-12.1 7.2-17.2 3.8-5 8.7-9.1 14.4-11.8 5.7-2.7 11.9-4 18.2-3.8 6.3 0.2 12.5 2 17.9 5.2 5.5 3.1-13 5.4-11.3 27.1 1.6 21.6 34.1 23.4 48.5 16.2 0 0 6.3 47.7 70.2 38.3 0 0 41.4 38.5 85.1 8.4q0.1 1.2 0.2 2.4 0 1.2 0 2.4-0.1 1.2-0.2 2.3-0.1 1.2-0.2 2.4z"/>
		<path class="s44" d="m1770.2 551.1c-6.6 0-10.4-1.2-11.9-3.8-1.9-3.2 0.3-7.2 2.4-11q0.5-0.9 1-1.8c3.5-6.5 6.9-22.9 7-23q0-0.3 0.2-0.6 0.2-0.3 0.4-0.4 0.3-0.2 0.6-0.3 0.3 0 0.6 0.1 0.3 0 0.6 0.2 0.2 0.2 0.4 0.4 0.2 0.3 0.2 0.6 0.1 0.3 0 0.6c-0.1 0.7-3.6 17-7.2 23.8q-0.5 0.9-1 1.9c-1.7 2.9-3.5 6.3-2.5 7.9 0.5 0.9 2.6 2.4 10.4 2.3q0.3 0 0.6 0.1 0.3 0.1 0.5 0.3 0.2 0.2 0.4 0.5 0.1 0.3 0.1 0.6 0 0.3-0.1 0.6-0.1 0.3-0.3 0.5-0.3 0.2-0.5 0.3-0.3 0.2-0.6 0.2z"/>
		<path class="s41" d="m1793.2 469.1c0 0 19.2-14.1 32.8-5.1 13.6 9-7.8 7.7-15.9 7.4-8.1-0.4-17.9 3.5-16.9-2.3z"/>
		<path class="s41" d="m1767 470.1c0 0-11.3-13.8-22.1-7.2-10.9 6.5 2.3 8 8.7 8.2 6.4 0.1 14.2 3.7 13.4-1z"/>
		<path class="s44" d="m1783.4 574.6q-0.7 0.1-1.4 0-0.8 0-1.5-0.2-0.7-0.1-1.4-0.3-0.7-0.2-1.4-0.5c-0.4-0.1-0.6-0.5-0.8-0.9-0.1-0.3-0.1-0.8 0.1-1.1 0.2-0.4 0.5-0.7 0.9-0.8 0.4-0.1 0.8-0.1 1.2 0.1 0.3 0.1 8.7 3.9 22-7 0.4-0.3 0.8-0.4 1.2-0.4 0.4 0.1 0.8 0.3 1 0.6 0.3 0.3 0.4 0.7 0.4 1.1 0 0.4-0.2 0.8-0.6 1.1-8.4 6.8-15.2 8.3-19.7 8.3z"/>
		<path fill-rule="evenodd" class="s42" d="m1854 538.5c-6.8 12.8-21.5 18.2-32.9 12.1-11.5-6-15.3-21.2-8.5-34 6.7-12.7 21.4-18.1 32.9-12.1 11.4 6.1 15.2 21.3 8.5 34z"/>
		<path class="s42" d="m1751.8 538.7q-1.1 2.1-2.5 3.9-1.4 1.9-3.1 3.5-1.8 1.6-3.7 2.9-2 1.3-4.2 2.2c-2.2-14.5-2.7-31.1-2.8-49q1 0.2 2 0.3 1 0.2 2 0.5 1 0.3 1.9 0.7 1 0.4 1.9 0.9c11.5 6.1 15.3 21.3 8.5 34.1z"/>
		<path fill-rule="evenodd" class="s45" d="m1756.6 505.6c-2.9 0-5.2-3.3-5.2-7.4 0-4.1 2.3-7.3 5.2-7.3 2.9 0 5.2 3.2 5.2 7.3 0 4.1-2.3 7.4-5.2 7.4z"/>
		<path fill-rule="evenodd" class="s45" d="m1810.3 505.6c-2.9 0-5.2-3.3-5.2-7.4 0-4.1 2.3-7.3 5.2-7.3 2.9 0 5.2 3.2 5.2 7.3 0 4.1-2.3 7.4-5.2 7.4z"/>
		<g style="opacity: .54">
			<path class="s24" d="m1436.4 727l61.2-227.3c0 0 349.6-17.9 365 289.6l-97.8 88.9z"/>
		</g>
		<path class="s46" d="m1705 957.7c0 0 34.7 38.3 88.1 56.5 0 0 79.3 111.3 141.9 172.7 62.6 61.3 102.1 39.3 102.1 39.3l-4.3-121.1-222.5-147.4z"/>
		<path fill-rule="evenodd" class="s46" d="m1571.1 936.7l12 35.4 104.5-17.2-116.5-18.2z"/>
		<path fill-rule="evenodd" class="s47" d="m1436.4 727l282.2 42.5 114.6 198.9-6.6 8.3-266.8-51.1-130-191.4 6.6-7.2z"/>
		<path fill-rule="evenodd" class="s17" d="m1429.8 735.3l282.2 42.5 114.6 198.9-273.4-42.8-123.4-198.6z"/>
		<path fill-rule="evenodd" class="s48" d="m1580.9 758.1l63.5 9.5-51 172.6-40.2-6.3-13.8-22.1 41.5-153.7z"/>
		<path fill-rule="evenodd" class="s48" d="m1675.9 772.3l-47.7 173.3 36 5.6 47.8-173.4-36.1-5.5z"/>
		<path fill-rule="evenodd" class="s48" d="m1561.1 755.1l-55.3 102.6-18.8-30.3 54.8-75.2 19.3 2.9z"/>
		<path class="s46" d="m1972.1 908.3c0 0-64 19-101.1 13.1q-8.5-1.4-17-3.5-8.4-2-16.7-4.6-8.3-2.7-16.3-6-8.1-3.2-15.9-7.1l13.7 43.3 158.9 70z"/>
		<path class="s46" d="m1996.7 985.9c0 0-15.2-118.6-16-186.2-0.8-67.6 48.6-79.4 48.6-79.4 0 0-63.3-6.7-70.1 76.7-6.7 83.4 0 188 0 188l36.8 14.9z"/>
		<path class="s28" d="m2042.9 1125.6c-69.5 10.1-235.1-140.3-235.1-140.3 0 0-84.9-18.5-107-50.5-22.2-32-43.1-86.1-33.2-93.5 9.8-7.4 39.3 8.6 39.3 8.6 6-1.5 15.3 3.1 24.7 9 13.8 8.6 28.1 20 33.2 19.3 8.6-1.2 4.9-9.8 4.9-9.8l-4.9-18.5c0 0 39.4 6.2 46.8 23.4 7.4 17.3 20.9 60.3 20.9 60.3l163.5 66.3 0.7-14c47.3 5.6 123.7-13 123.7-13 0 0 6.5 140.4-77.5 152.7z"/>
		<path fill-rule="evenodd" class="s32" d="m2015.5 986.9v13l13.4 24.2-32.9-24.2 0.7-14 18.8 1z"/>
		<path class="s32" d="m1786.2 882.3c-1 6.7-7.9 7.2-14.4 6.1q-2.6-0.5-5.1-1.3-2.4-0.8-4.8-2-2.3-1.2-4.4-2.7-2.2-1.5-4.1-3.3l-21.8-20.2c13.8 8.6 28.1 20 33.2 19.3 8.6-1.2 4.9-9.9 4.9-9.9l-4.9-18.4c0 0 23.4 19.2 21.4 32.4z"/>
		<path class="s32" d="m1706.9 849.9c0 0-2.1 1.6 0 4.7 2.2 3.1 43 43 43 43 0 0-41.8-35.9-44.9-40.5-3.1-4.7-1-6.9 1.9-7.2z"/>
		<path class="s32" d="m1687.6 841.7c0 0-7.9-2-4 8.2 3.8 10.2 17.4 27.7 17.4 27.7l35.4 38.5-39.6-35.3c0 0-21-30.6-17.6-36.6 3.3-6.1 8.4-2.5 8.4-2.5z"/>
		<path class="s32" d="m1666.2 843c0 0-5.2 4.9 5.4 22.2 10.7 17.4 20.9 31 20.9 31l32.8 34-37.7-31.3-18.6-29.5c0 0-8.6-12.3-2.8-26.4z"/>
	</g>
</svg>