<svg width="55" height="49" viewBox="0 0 55 49" fill="none" xmlns="http://www.w3.org/2000/svg">
<path d="M33.25 13V7.25C33.25 5.72501 32.6442 4.26247 31.5659 3.18414C30.4875 2.1058 29.025 1.5 27.5 1.5H7.375C5.85001 1.5 4.38747 2.1058 3.30914 3.18414C2.2308 4.26247 1.625 5.72501 1.625 7.25V41.75C1.625 43.275 2.2308 44.7375 3.30914 45.8159C4.38747 46.8942 5.85001 47.5 7.375 47.5H27.5C29.025 47.5 30.4875 46.8942 31.5659 45.8159C32.6442 44.7375 33.25 43.275 33.25 41.75V36" stroke="#D42953" stroke-width="2" stroke-linecap="round" stroke-linejoin="round"/>
<path d="M18.875 24.5H53.375M53.375 24.5L44.75 15.875M53.375 24.5L44.75 33.125" stroke="#D42953" stroke-width="2" stroke-linecap="round" stroke-linejoin="round"/>
</svg>
