<svg width="156" height="34" viewBox="0 0 156 34" fill="none" xmlns="http://www.w3.org/2000/svg">
<g clip-path="url(#clip0_649_15497)">
<path d="M52.9668 8.04578H53.4377L60.7578 25.2264H59.1639L56.75 19.6775H49.6545L47.2894 25.2264H45.6954L52.9668 8.04578ZM53.8111 12.5906C53.5459 11.939 53.3385 11.3041 53.1887 10.6861C52.9903 11.4511 52.7918 12.0859 52.5934 12.5906L50.2526 18.3095H56.1519L53.8111 12.5906Z" fill="#333333"/>
<path d="M64.0701 8.26625H64.5436L75.5224 21.7069L76.3694 22.8066L76.3423 21.5847V8.48672H77.8361V25.2503H76.8673L75.471 23.8319L66.7085 13.1777L65.415 11.5148L65.5638 13.4459V25.2264H64.0701V8.26625Z" fill="#333333"/>
<path d="M89.3642 8.38844C90.9248 8.48583 92.3022 8.90552 93.4965 9.6475C94.6926 10.3877 95.6181 11.3856 96.273 12.6411C96.9279 13.8948 97.2553 15.3115 97.2553 16.8911C97.2553 18.5698 96.899 20.0609 96.1864 21.3642C95.472 22.6676 94.468 23.6778 93.1745 24.395C91.8791 25.1122 90.4016 25.4708 88.7418 25.4708H86.4633C86.0231 25.4708 85.1977 25.4212 83.9871 25.322L82.8154 25.2264V8.36453L89.3642 8.38844ZM87.7947 24.1267C90.3511 24.1267 92.3184 23.5069 93.6967 22.2673C95.0733 21.0295 95.7615 19.2622 95.7615 16.9655C95.7615 14.8157 95.1725 13.1051 93.9944 11.8336C92.8163 10.5621 91.19 9.86974 89.1153 9.75641H84.3092V24.0045L85.232 24.0523C86.8755 24.1019 87.7297 24.1267 87.7947 24.1267Z" fill="#333333"/>
<path d="M113.438 25.0538C113.106 25.2822 112.742 25.3964 112.345 25.3964C111.863 25.3964 111.481 25.3026 111.197 25.1148C110.916 24.9271 110.676 24.7031 110.477 24.4428L107.514 20.5089C106.933 19.7439 106.423 19.2268 105.983 18.9577C105.542 18.6885 104.941 18.5291 104.178 18.4795V17.1116H106.343C107.421 17.1116 108.285 16.7937 108.932 16.158C109.58 15.524 109.904 14.6607 109.904 13.5681C109.904 12.4932 109.597 11.6096 108.984 10.9172C108.368 10.2248 107.58 9.8786 106.619 9.8786H102.635V25.2264H101.141V8.51063H106.716C107.613 8.51063 108.414 8.72667 109.119 9.15875C109.824 9.58906 110.381 10.1796 110.789 10.9305C111.195 11.6795 111.398 12.5101 111.398 13.422C111.398 14.2862 111.223 15.0521 110.875 15.7197C110.527 16.3873 110.112 16.9168 109.63 17.3081C109.149 17.6995 108.7 17.9359 108.286 18.0173C108.004 18.0652 107.677 18.0855 107.303 18.0784C106.93 18.0696 106.734 18.0652 106.716 18.0652C107.248 18.1785 107.705 18.4795 108.085 18.9683L109.081 20.3123C109.381 20.7037 109.833 21.3067 110.44 22.1213C111.046 22.9358 111.44 23.4414 111.622 23.638C111.738 23.7672 111.841 23.8602 111.933 23.9169C112.024 23.9753 112.152 24.0045 112.318 24.0045C112.534 24.0045 112.7 23.9549 112.816 23.8558L113.438 25.0538Z" fill="#333333"/>
<path d="M116.65 8.51063H127.58V9.8786H118.144V15.6958H125.091V17.0638H118.144V23.8558H128.078V25.2264H116.65V8.51063Z" fill="#333333"/>
<path d="M130.792 10.2452C130.659 9.86974 130.393 9.67406 129.994 9.65813V8.26625C130.476 8.26625 130.924 8.40438 131.339 8.68063C131.738 8.94094 132.012 9.31547 132.162 9.80422L136.418 22.7827L136.519 23.2953L136.643 22.7827L141.322 8.48672H142.791L147.473 22.7827L147.622 23.4653L147.771 22.7827L152.376 8.48672H153.87L148.32 25.2264H146.851L142.044 10.7817L137.265 25.2264H135.796L130.792 10.2452Z" fill="#333333"/>
<path d="M20.089 0.430312C13.3212 0.656359 7.81615 6.15798 7.81615 12.6942V13.1689C7.81615 17.098 9.72478 21.7276 12.5797 24.7523L12.7681 26.2878C12.1262 26.6688 11.6921 27.3538 11.6921 28.1424C11.6921 29.3415 12.6856 30.3163 13.9071 30.3163V30.86C13.9071 32.0591 14.9002 33.0339 16.1221 33.0339H24.9817C26.2032 33.0339 27.1966 32.0591 27.1966 30.86V30.3163C28.4182 30.3163 29.4116 29.3415 29.4116 28.1424C29.4116 27.3535 28.9773 26.6687 28.3356 26.2873L28.524 24.752C31.3789 21.7271 33.2876 17.098 33.2876 13.1689V12.4204C33.2876 9.23153 31.974 6.2297 29.5891 3.96711C27.0957 1.60119 23.6272 0.313437 20.089 0.430312ZM8.92349 13.1689V12.6942C8.92349 6.77875 13.8806 1.79855 19.9981 1.52734V4.22716H19.4444C18.2228 4.22716 17.2294 5.202 17.2294 6.4013C17.2294 7.60059 18.2228 8.57517 19.4444 8.57517H19.9981V14.5541H16.6757C16.5289 14.5541 16.3881 14.6114 16.2842 14.7133C16.1804 14.8152 16.1221 14.9535 16.1221 15.0976V15.9131C16.1216 16.2733 15.9756 16.6187 15.7161 16.8734C15.4565 17.1281 15.1046 17.2714 14.7376 17.2717C14.3706 17.2712 14.0188 17.1279 13.7593 16.8732C13.4998 16.6184 13.3539 16.273 13.3534 15.9128V15.0973C13.3534 14.9532 13.295 14.8151 13.1912 14.7132C13.0873 14.6113 12.9465 14.5541 12.7998 14.5541H9.00766C8.95302 14.0942 8.92501 13.6316 8.92376 13.1686M9.18247 15.6411H12.2461V15.9128C12.2461 17.2614 13.3643 18.3587 14.7379 18.3587C16.1115 18.3587 17.2297 17.2614 17.2297 15.9128V15.6411H19.9981V18.3587C19.9981 18.5028 20.0564 18.641 20.1602 18.743C20.2641 18.8449 20.4049 18.9021 20.5517 18.9021H21.6593C22.2701 18.9021 22.7667 19.3898 22.7667 19.9893C22.7667 20.5889 22.2701 21.0763 21.6593 21.0763H20.5517C20.4049 21.0763 20.2641 21.1335 20.1602 21.2355C20.0564 21.3374 19.9981 21.4756 19.9981 21.6197V25.968H13.9071C13.886 25.968 13.8662 25.9733 13.8449 25.9739L13.6573 24.4444C13.6431 24.3282 13.5909 24.2197 13.5085 24.1352C11.3926 21.9499 9.78188 18.708 9.1822 15.6413M26.089 30.86C26.0886 31.1482 25.9719 31.4245 25.7643 31.6282C25.5567 31.832 25.2752 31.9466 24.9817 31.947H16.1218C15.8282 31.9466 15.5468 31.832 15.3392 31.6282C15.1316 31.4245 15.0148 31.1482 15.0144 30.86V30.3163H26.089V30.86ZM27.1966 29.2294H13.9071C13.2963 29.2294 12.7998 28.742 12.7998 28.1424C12.7998 27.5429 13.2963 27.0552 13.9071 27.0552H27.1966C27.8074 27.0552 28.304 27.5429 28.304 28.1424C28.304 28.742 27.8074 29.2294 27.1966 29.2294ZM27.5952 24.1355C27.5134 24.2204 27.4612 24.3287 27.4464 24.4447L27.2586 25.9741C27.2375 25.9736 27.2177 25.9683 27.1964 25.9683H21.1059V22.1635H21.6596C22.8812 22.1635 23.8746 21.1886 23.8746 19.9896C23.8746 18.7906 22.8812 17.8155 21.6596 17.8155H21.1059V15.6413H24.9819C25.1288 15.6413 25.2696 15.5841 25.3734 15.4821C25.4773 15.3802 25.5356 15.242 25.5356 15.0979V14.5544C25.5356 13.9549 26.0324 13.4672 26.6432 13.4672C27.254 13.4672 27.7506 13.9549 27.7506 14.5544V15.0979C27.7506 15.242 27.8089 15.3802 27.9127 15.4821C28.0166 15.5841 28.1574 15.6413 28.3042 15.6413H31.9218C31.3221 18.708 29.7112 21.9499 27.5952 24.1355ZM32.1805 13.1689C32.1805 13.6194 32.151 14.0832 32.0963 14.5544H28.8576C28.8576 13.3554 27.8645 12.3802 26.643 12.3802C25.4214 12.3802 24.428 13.3551 24.428 14.5544H21.1057V8.03197C21.1057 7.96058 21.0913 7.88988 21.0635 7.82393C21.0357 7.75798 20.9949 7.69805 20.9434 7.64758C20.892 7.59711 20.8309 7.55709 20.7637 7.52979C20.6965 7.5025 20.6245 7.48846 20.5517 7.4885H19.4444C18.8336 7.4885 18.337 7.00108 18.337 6.40156C18.337 5.80205 18.8336 5.31436 19.4444 5.31436H20.5517C20.6245 5.31439 20.6965 5.30036 20.7637 5.27307C20.8309 5.24577 20.892 5.20574 20.9434 5.15527C20.9949 5.1048 21.0357 5.04488 21.0635 4.97893C21.0913 4.91297 21.1057 4.84228 21.1057 4.77089V1.53106C24.0264 1.65697 26.7382 2.77419 28.82 4.74805C30.9868 6.80398 32.1802 9.52823 32.1802 12.4198L32.1805 13.1689Z" fill="#040BC5"/>
<path d="M26.7845 5.31436C26.7839 5.31436 26.7839 5.31436 26.7845 5.31436C26.2831 5.3137 25.801 5.50428 25.4401 5.84588C24.6859 5.13931 23.4191 5.16375 22.6893 5.90856C21.9305 6.68419 21.9305 7.94591 22.6893 8.72153L25.0404 11.1257C25.092 11.1787 25.1541 11.2208 25.2228 11.2496C25.2915 11.2784 25.3655 11.2932 25.4402 11.2932C25.5149 11.2932 25.5889 11.2784 25.6576 11.2496C25.7263 11.2208 25.7883 11.1787 25.84 11.1257L28.1906 8.7218C28.9502 7.94617 28.9502 6.68366 28.1911 5.90803C28.0101 5.72044 27.7919 5.57105 27.5501 5.46898C27.3082 5.36691 27.0477 5.3143 26.7845 5.31436ZM27.392 7.96902L25.4409 9.96466L23.4892 7.96902C23.3193 7.79204 23.2247 7.55807 23.2247 7.31491C23.2247 7.07176 23.3193 6.83779 23.4892 6.66081C23.567 6.57925 23.661 6.51417 23.7654 6.46959C23.8698 6.42501 23.9824 6.40186 24.0962 6.40156C24.2103 6.4018 24.3232 6.42497 24.4279 6.46965C24.5326 6.51433 24.6268 6.57956 24.7048 6.66134L25.0404 7.0048C25.249 7.21889 25.6306 7.21889 25.8395 7.0048L26.1745 6.66188C26.2528 6.58017 26.3472 6.51496 26.4519 6.47021C26.5567 6.42546 26.6697 6.4021 26.7839 6.40156C27.0121 6.40156 27.2285 6.49373 27.3928 6.66134C27.5624 6.83835 27.6568 7.07226 27.6566 7.31526C27.6564 7.55826 27.5616 7.79201 27.3917 7.96875M14.7852 23.2502L16.2844 24.7217C16.3619 24.7977 16.4605 24.8494 16.5679 24.8703C16.6753 24.8912 16.7865 24.8804 16.8877 24.8393C16.9888 24.7982 17.0752 24.7285 17.1361 24.6392C17.1969 24.5498 17.2294 24.4448 17.2294 24.3374V23.2308C17.6904 23.1649 18.1119 22.9385 18.4169 22.5928C18.7219 22.2471 18.8901 21.8053 18.8907 21.348C18.8901 20.8436 18.6857 20.3601 18.3224 20.0034C17.959 19.6468 17.4664 19.4462 16.9526 19.4456H14.7376C13.6689 19.4456 12.7997 20.2991 12.7997 21.348C12.7997 22.397 13.6689 23.2504 14.7376 23.2504L14.7852 23.2502ZM13.9071 21.3483C13.9073 21.1321 13.9949 20.9248 14.1507 20.7719C14.3064 20.619 14.5176 20.533 14.7379 20.5328H16.9526C17.4104 20.5328 17.7833 20.8986 17.7833 21.3483C17.7833 21.798 17.4104 22.1632 16.9526 22.1632H16.6757C16.603 22.1632 16.531 22.1773 16.4638 22.2046C16.3966 22.2319 16.3355 22.272 16.2841 22.3225C16.2327 22.373 16.1919 22.4329 16.1641 22.4989C16.1363 22.5649 16.122 22.6356 16.1221 22.707V23.0254L15.406 22.3226C15.3547 22.272 15.2936 22.2319 15.2264 22.2045C15.1592 22.1772 15.0872 22.1631 15.0144 22.1632H14.7376C14.5174 22.1629 14.3063 22.077 14.1507 21.9241C13.995 21.7713 13.9074 21.5644 13.9071 21.3483ZM14.4608 12.3242L15.8352 13.3554C15.9285 13.4254 16.042 13.4645 16.1593 13.4671C16.2767 13.4696 16.3919 13.4355 16.4882 13.3696C16.5845 13.3037 16.657 13.2094 16.6952 13.1004C16.7334 12.9915 16.7353 12.8734 16.7006 12.7633L16.1613 11.0492L17.5658 9.99627C17.6583 9.92753 17.7264 9.83197 17.7604 9.72313C17.7945 9.61428 17.7928 9.49767 17.7556 9.38982C17.7184 9.28197 17.6475 9.18835 17.5531 9.12223C17.4587 9.05611 17.3454 9.02084 17.2294 9.02142H15.5229L14.9898 7.32806C14.9548 7.21719 14.8846 7.12021 14.7895 7.05134C14.6943 6.98246 14.5791 6.9453 14.4609 6.9453C14.3426 6.9453 14.2275 6.98246 14.1323 7.05134C14.0372 7.12021 13.9669 7.21719 13.932 7.32806L13.3989 9.02116H11.6921C11.5763 9.02108 11.4633 9.05668 11.3691 9.12294C11.275 9.18921 11.2043 9.2828 11.1672 9.39054C11.1301 9.49827 11.1284 9.61472 11.1622 9.72349C11.1961 9.83225 11.2639 9.92784 11.356 9.9968L12.7605 11.0497L12.2209 12.7638C12.1862 12.874 12.188 12.9921 12.2262 13.1012C12.2644 13.2102 12.3369 13.3045 12.4333 13.3704C12.5297 13.4363 12.6449 13.4705 12.7624 13.4678C12.8798 13.4652 12.9933 13.426 13.0866 13.3559L14.4608 12.3242ZM13.807 10.1084C13.9253 10.1083 14.0404 10.071 14.1356 10.0021C14.2307 9.93309 14.3009 9.83602 14.3357 9.72506L14.4608 9.32875L14.5861 9.72506C14.6209 9.83602 14.6911 9.93309 14.7862 10.0021C14.8814 10.071 14.9965 10.1083 15.1148 10.1084H15.5927L15.1822 10.416C15.0922 10.4833 15.0255 10.5763 14.991 10.6821C14.9565 10.7879 14.956 10.9016 14.9895 11.0078L15.1313 11.4593L14.7969 11.2088C14.7003 11.1366 14.5822 11.0975 14.4608 11.0975C14.3393 11.0975 14.2213 11.1366 14.1247 11.2088L13.7902 11.4596L13.932 11.008C13.9656 10.9018 13.9652 10.788 13.9307 10.6821C13.8962 10.5761 13.8294 10.4831 13.7393 10.4157L13.3291 10.1084H13.807ZM27.7503 16.7283H26.6429V18.3589H24.9816V19.4459H26.6429V21.0765H27.7503V19.4459H29.4116V18.3589H27.7503V16.7283ZM5.04749 0.42261H6.15484V1.50981H5.04749V0.42261ZM5.04749 2.59675H6.15484V3.68395H5.04749V2.59675ZM6.15484 1.50981H7.26246V2.59675H6.15484V1.50981ZM3.93987 1.50981H5.04749V2.59675H3.93987V1.50981ZM34.9489 0.422344H36.0562V1.50955H34.9489V0.422344ZM34.9489 2.59648H36.0562V3.68369H34.9489V2.59648ZM36.0562 1.50955H37.1636V2.59648H36.0562V1.50955ZM33.8412 1.50955H34.9489V2.59648H33.8412V1.50955Z" fill="#040BC5"/>
</g>
<defs>
<clipPath id="clip0_649_15497">
<rect width="156" height="34" fill="white"/>
</clipPath>
</defs>
</svg>
