<svg width="30" height="18" viewBox="0 0 30 18" fill="none" xmlns="http://www.w3.org/2000/svg">
<path fill-rule="evenodd" clip-rule="evenodd" d="M0 9.17154C0 8.8493 0.13073 8.54025 0.363429 8.31239C0.596129 8.08453 0.911739 7.95652 1.24083 7.95652H8.68578C9.01486 7.95652 9.33047 8.08453 9.56317 8.31239C9.79587 8.54025 9.9266 8.8493 9.9266 9.17154C9.9266 9.49378 9.79587 9.80283 9.56317 10.0307C9.33047 10.2586 9.01486 10.3866 8.68578 10.3866H1.24083C0.911739 10.3866 0.596129 10.2586 0.363429 10.0307C0.13073 9.80283 0 9.49378 0 9.17154ZM0.1101 16.7851C0.1101 16.4629 0.24083 16.1538 0.47353 15.9259C0.70623 15.6981 1.02184 15.5701 1.35093 15.5701H18.7225C19.0516 15.5701 19.3672 15.6981 19.5999 15.9259C19.8326 16.1538 19.9633 16.4629 19.9633 16.7851C19.9633 17.1073 19.8326 17.4164 19.5999 17.6442C19.3672 17.8721 19.0516 18.0001 18.7225 18.0001H1.35093C1.02184 18.0001 0.70623 17.8721 0.47353 17.6442C0.24083 17.4164 0.1101 17.1073 0.1101 16.7851ZM0.2202 1.21514C0.2202 0.8929 0.35093 0.583855 0.58363 0.355994C0.81633 0.128133 1.13194 0.00012207 1.46103 0.00012207H28.7592C29.0883 0.00012207 29.4039 0.128133 29.6366 0.355994C29.8693 0.583855 30 0.8929 30 1.21514C30 1.53739 29.8693 1.84643 29.6366 2.07429C29.4039 2.30215 29.0883 2.43017 28.7592 2.43017H1.46103C1.13194 2.43017 0.81633 2.30215 0.58363 2.07429C0.35093 1.84643 0.2202 1.53739 0.2202 1.21514Z" fill="#73C2FB"/>
</svg>
