<svg width="395" height="395" viewBox="0 0 395 395" fill="none" xmlns="http://www.w3.org/2000/svg">
<g clip-path="url(#clip0_879_15835)">
<path d="M303.156 149.077C319.332 149.077 332.446 135.964 332.446 119.788C332.446 103.612 319.332 90.4984 303.156 90.4984C286.98 90.4984 273.867 103.612 273.867 119.788C273.867 135.964 286.98 149.077 303.156 149.077Z" fill="#F3F5F9"/>
<path d="M150.16 273.428C188.396 273.428 219.393 242.432 219.393 204.195C219.393 165.959 188.396 134.962 150.16 134.962C111.924 134.962 80.9268 165.959 80.9268 204.195C80.9268 242.432 111.924 273.428 150.16 273.428Z" fill="#F3F5F9"/>
<path d="M207.87 360.259C295.595 360.259 366.709 355.627 366.709 349.913C366.709 344.199 295.595 339.567 207.87 339.567C120.146 339.567 49.0312 344.199 49.0312 349.913C49.0312 355.627 120.146 360.259 207.87 360.259Z" fill="#F3F5F9"/>
<path d="M135.412 39.3807L138.843 40.4938L135.412 41.6061C134.012 42.0596 132.916 43.1561 132.463 44.5552L131.349 47.987L130.236 44.5552C129.783 43.1561 128.686 42.0596 127.287 41.6061L123.855 40.4938L127.287 39.3807C128.686 38.9272 129.783 37.8307 130.236 36.4316L131.349 32.9999L132.463 36.4316C132.916 37.8307 134.012 38.9272 135.412 39.3807Z" fill="white"/>
<path d="M345.852 261.857L349.284 262.97L345.852 264.084C344.453 264.537 343.357 265.634 342.903 267.033L341.791 270.464L340.678 267.033C340.224 265.634 339.128 264.537 337.729 264.084L334.297 262.97L337.729 261.857C339.128 261.404 340.224 260.307 340.678 258.908L341.791 255.477L342.903 258.908C343.357 260.307 344.453 261.403 345.852 261.857Z" fill="white"/>
<path d="M48.1686 232.382L51.6004 233.496L48.1686 234.609C46.7695 235.062 45.673 236.159 45.2195 237.558L44.1064 240.989L42.9941 237.558C42.5407 236.159 41.4441 235.062 40.045 234.609L36.6133 233.496L40.045 232.382C41.4441 231.929 42.5407 230.832 42.9941 229.433L44.1064 226.002L45.2195 229.433C45.673 230.832 46.7695 231.929 48.1686 232.382Z" fill="white"/>
<path d="M202.314 127.999L204.306 128.645L202.314 129.291C201.502 129.554 200.865 130.191 200.601 131.003L199.955 132.996L199.309 131.003C199.046 130.191 198.408 129.554 197.596 129.291L195.604 128.645L197.596 127.999C198.408 127.736 199.045 127.099 199.309 126.286L199.955 124.294L200.601 126.286C200.865 127.099 201.502 127.736 202.314 127.999Z" fill="white"/>
<path d="M80.6487 85.1162L82.6411 85.7624L80.6487 86.4086C79.8366 86.6717 79.1999 87.3084 78.936 88.1205L78.2898 90.1129L77.6436 88.1205C77.3805 87.3084 76.7438 86.6717 75.9309 86.4086L73.9385 85.7624L75.9309 85.1162C76.743 84.8531 77.3797 84.2164 77.6436 83.4034L78.2898 81.4111L78.936 83.4034C79.1999 84.2156 79.8366 84.8523 80.6487 85.1162Z" fill="white"/>
<path d="M55.5872 215.037L57.5796 215.683L55.5872 216.33C54.7751 216.593 54.1384 217.229 53.8745 218.042L53.2283 220.035L52.5821 218.042C52.319 217.23 51.6822 216.593 50.8693 216.33L48.877 215.683L50.8693 215.037C51.6815 214.774 52.3182 214.137 52.5821 213.324L53.2283 211.332L53.8745 213.324C54.1384 214.137 54.7751 214.773 55.5872 215.037Z" fill="white"/>
<path d="M313.284 265.232C313.284 265.232 306.308 265.995 303.583 267.521C300.858 269.047 299.55 274.17 304.346 274.17C309.142 274.17 316.772 274.17 320.043 274.17C323.313 274.17 322.005 266.867 320.261 264.905L313.284 265.232Z" fill="#2E344B"/>
<path d="M310.088 254.201C310.088 254.201 311.863 263.728 312.356 265.291C313.112 267.685 319.823 267.56 320.421 264.913C321.304 261.007 321.304 253.067 321.304 253.067L310.088 254.201Z" fill="#D8877B"/>
<path d="M308.859 267.719C308.706 267.443 308.509 267.183 308.277 266.969C308.035 266.745 307.767 266.547 307.49 266.369C307.2 266.182 306.862 265.952 306.503 265.976C306.268 265.991 306.022 266.221 306.12 266.479C306.161 266.588 306.202 266.689 306.279 266.778C306.325 266.832 306.378 266.883 306.429 266.932C306.476 266.979 306.53 267.018 306.583 267.059C306.592 267.065 306.611 267.078 306.625 267.087C306.617 267.082 306.613 267.079 306.596 267.068C306.655 267.108 306.71 267.158 306.765 267.203C306.982 267.383 307.191 267.574 307.376 267.786C307.415 267.831 307.45 267.88 307.49 267.925C307.354 267.773 307.524 267.97 307.549 268.001C307.616 268.108 307.695 268.207 307.757 268.318C307.789 268.376 307.817 268.434 307.846 268.494C307.854 268.51 307.856 268.515 307.858 268.519C307.88 268.571 307.9 268.623 307.926 268.673C307.953 268.723 307.98 268.775 308.008 268.824C308.076 268.948 308.181 269.023 308.295 269.096C308.536 269.247 308.839 269.136 308.987 268.915C309.234 268.542 309.055 268.073 308.859 267.719Z" fill="white"/>
<path d="M311.621 267.458C311.567 267.283 311.502 267.109 311.41 266.95C311.25 266.673 311.05 266.412 310.829 266.179C310.386 265.715 309.788 265.3 309.136 265.238C308.966 265.221 308.799 265.36 308.738 265.505C308.677 265.65 308.694 265.873 308.828 265.98C308.951 266.077 309.074 266.166 309.203 266.253C309.233 266.273 309.262 266.293 309.291 266.314C309.295 266.317 309.301 266.319 309.305 266.322C309.35 266.345 309.395 266.396 309.433 266.428C309.634 266.598 309.817 266.777 309.983 266.98C310.001 267.005 310.02 267.03 310.038 267.056C310.074 267.109 310.11 267.164 310.143 267.219C310.21 267.33 310.272 267.445 310.326 267.563C310.381 267.68 310.437 267.797 310.492 267.913C310.5 267.931 310.5 267.93 310.498 267.926C310.508 267.948 310.517 267.971 310.527 267.993C310.561 268.056 310.612 268.117 310.663 268.165C310.708 268.207 310.757 268.246 310.802 268.288C311.066 268.535 311.476 268.421 311.586 268.081C311.655 267.872 311.689 267.676 311.621 267.458Z" fill="white"/>
<path d="M319.224 269.332C319.151 269.074 319.021 268.85 318.831 268.659C318.729 268.579 318.626 268.5 318.522 268.421C318.285 268.282 318.028 268.213 317.752 268.212C317.542 268.204 317.346 268.248 317.164 268.343C316.976 268.405 316.812 268.51 316.674 268.658C316.525 268.797 316.42 268.96 316.359 269.149C316.263 269.331 316.22 269.527 316.227 269.737C316.246 269.872 316.264 270.007 316.282 270.142C316.355 270.4 316.485 270.625 316.674 270.815C316.777 270.895 316.88 270.974 316.983 271.054C317.22 271.192 317.477 271.261 317.752 271.261C317.962 271.269 318.158 271.226 318.34 271.13C318.529 271.069 318.693 270.964 318.831 270.815C318.979 270.677 319.084 270.513 319.146 270.325C319.241 270.143 319.285 269.947 319.277 269.737C319.26 269.602 319.242 269.467 319.224 269.332Z" fill="white"/>
<path d="M310.423 255.983C311.981 256.677 315.992 257.99 321.183 257.722C321.303 255.158 321.303 253.067 321.303 253.067L310.087 254.201C310.087 254.201 310.22 254.916 310.423 255.983Z" fill="#B44E50"/>
<path d="M285.811 265.232C285.811 265.232 278.834 265.995 276.109 267.521C273.385 269.047 272.076 274.17 276.873 274.17C281.669 274.17 289.299 274.17 292.569 274.17C295.839 274.17 294.531 266.867 292.787 264.905L285.811 265.232Z" fill="#2E344B"/>
<path d="M282.614 254.201C282.614 254.201 284.389 263.728 284.882 265.291C285.638 267.685 292.349 267.56 292.947 264.913C293.83 261.007 293.83 253.067 293.83 253.067L282.614 254.201Z" fill="#D8877B"/>
<path d="M281.386 267.719C281.233 267.443 281.036 267.183 280.804 266.969C280.562 266.745 280.294 266.547 280.017 266.369C279.727 266.182 279.389 265.952 279.029 265.976C278.794 265.991 278.549 266.221 278.646 266.479C278.687 266.588 278.728 266.689 278.805 266.778C278.851 266.832 278.905 266.883 278.955 266.932C279.002 266.979 279.057 267.018 279.11 267.059C279.118 267.065 279.137 267.078 279.151 267.087C279.144 267.082 279.139 267.079 279.122 267.068C279.181 267.108 279.236 267.158 279.291 267.203C279.509 267.383 279.717 267.574 279.902 267.786C279.941 267.831 279.976 267.88 280.016 267.925C279.88 267.773 280.05 267.97 280.075 268.001C280.142 268.108 280.22 268.207 280.283 268.318C280.315 268.376 280.344 268.434 280.372 268.494C280.38 268.51 280.382 268.515 280.385 268.519C280.406 268.571 280.426 268.623 280.452 268.673C280.479 268.723 280.505 268.775 280.533 268.824C280.601 268.948 280.706 269.023 280.821 269.096C281.062 269.247 281.364 269.136 281.512 268.915C281.761 268.542 281.582 268.073 281.386 267.719Z" fill="white"/>
<path d="M284.148 267.458C284.095 267.283 284.029 267.109 283.938 266.95C283.778 266.673 283.579 266.412 283.358 266.179C282.914 265.715 282.316 265.3 281.664 265.238C281.495 265.221 281.327 265.36 281.266 265.505C281.205 265.65 281.222 265.873 281.357 265.98C281.479 266.077 281.602 266.166 281.732 266.253C281.761 266.273 281.79 266.293 281.819 266.314C281.823 266.317 281.829 266.319 281.834 266.322C281.879 266.345 281.923 266.396 281.961 266.428C282.162 266.598 282.345 266.777 282.512 266.98C282.53 267.005 282.548 267.03 282.566 267.056C282.603 267.109 282.638 267.164 282.671 267.219C282.738 267.33 282.8 267.445 282.854 267.563C282.908 267.68 282.965 267.797 283.02 267.913C283.028 267.931 283.028 267.93 283.027 267.926C283.036 267.948 283.046 267.971 283.055 267.993C283.089 268.056 283.14 268.117 283.192 268.165C283.237 268.207 283.286 268.246 283.331 268.288C283.595 268.535 284.004 268.421 284.114 268.081C284.182 267.872 284.216 267.676 284.148 267.458Z" fill="white"/>
<path d="M291.75 269.332C291.678 269.074 291.547 268.85 291.358 268.659C291.255 268.579 291.152 268.5 291.049 268.421C290.811 268.282 290.554 268.213 290.28 268.212C290.069 268.204 289.873 268.248 289.692 268.343C289.503 268.405 289.339 268.51 289.201 268.658C289.053 268.797 288.948 268.96 288.886 269.149C288.79 269.331 288.747 269.527 288.755 269.737C288.773 269.872 288.791 270.007 288.809 270.142C288.882 270.4 289.012 270.625 289.201 270.815C289.304 270.895 289.407 270.974 289.51 271.054C289.748 271.192 290.005 271.261 290.28 271.261C290.49 271.269 290.686 271.226 290.867 271.13C291.056 271.069 291.22 270.964 291.358 270.815C291.506 270.677 291.611 270.513 291.673 270.325C291.769 270.143 291.812 269.947 291.804 269.737C291.787 269.602 291.769 269.467 291.75 269.332Z" fill="white"/>
<path d="M282.951 255.983C284.508 256.677 288.52 257.99 293.711 257.722C293.83 255.158 293.83 253.067 293.83 253.067L282.614 254.201C282.614 254.201 282.748 254.916 282.951 255.983Z" fill="#B44E50"/>
<path d="M316.766 178.335C317.649 181.234 320.421 188.795 320.673 197.617C320.925 206.439 321.933 248.908 322.311 255.461H308.827C308.827 255.461 299.879 222.947 299.375 198.373C299.375 198.373 296.13 218.019 294.965 226.602C293.578 236.81 295.469 255.587 295.469 255.587H281.103C281.103 255.587 276.44 224.334 278.583 207.951C280.725 191.568 284.38 177.202 284.38 177.202L316.766 178.335Z" fill="#4F6E59"/>
<path d="M317.772 181.523C317.361 180.183 316.998 179.095 316.767 178.335L300.533 177.767L297.359 178.713L297.423 181.927C297.423 181.927 306.999 184.662 317.772 181.523Z" fill="#2E344B"/>
<path d="M276.125 149.24C276.125 149.24 280.19 151.225 284.49 150.895C288.79 150.564 284.206 147.587 284.206 147.587L276.125 149.24Z" fill="#2E344B"/>
<path d="M285.828 149.603C286.16 149.511 284.631 155.337 283.308 158.172C282.484 159.938 276.125 168.317 276.125 168.317L270.517 164.914C270.517 164.914 276.125 155.431 276.597 154.296C277.07 153.162 278.204 144.94 278.204 144.94L284.064 144.089L285.828 149.603Z" fill="#D8877B"/>
<path d="M278.204 144.94C278.204 144.94 277.89 147.212 277.524 149.532C278.617 149.764 282.892 150.732 285.371 152.121C285.763 150.649 285.973 149.563 285.828 149.603L284.305 144.843L282.77 144.278L278.204 144.94Z" fill="#B44E50"/>
<path d="M307.741 128.347C312.23 128.967 315.822 130.384 317.901 132.558C319.98 134.732 320.547 154.958 319.603 157.699L318.531 157.1L316.105 159.4C316.105 159.4 316.011 171.687 317.996 178.587C317.996 178.587 302.306 185.77 283.592 177.263C283.592 177.263 287.278 170.931 286.239 160.251C286.073 158.555 284.254 154.107 284.348 149.854C284.348 149.854 278.866 148.815 276.125 149.24C276.125 149.24 278.583 136.527 280.851 133.598C283.119 130.668 288.128 129.156 290.019 128.683C291.909 128.211 295.406 129.344 295.406 129.344L303.062 128.966L307.741 128.347Z" fill="#0309A4"/>
<path d="M317.603 177.04C317.553 176.815 317.505 176.589 317.457 176.358C315.919 176.865 314.372 177.333 312.789 177.71C310.445 178.267 308.073 178.659 305.675 178.889C300.874 179.35 296.014 179.189 291.229 178.627C288.9 178.354 286.589 177.969 284.281 177.562C284.896 177.83 285.507 178.081 286.114 178.316C289.84 179.125 293.674 179.538 297.462 179.689C302.357 179.884 307.296 179.513 312.097 178.536C313.951 178.158 315.805 177.668 317.603 177.04Z" fill="#2E344B"/>
<path d="M262.577 165.356L296.384 193.298C298.201 194.801 300.878 194.616 302.472 192.878L303.045 192.253C304.655 190.498 304.59 187.785 302.899 186.109L271.777 155.274L262.577 165.356Z" fill="#333333"/>
<path d="M303.426 101.837C303.426 101.837 304.305 95.9439 311.272 95.6066C318.239 95.2693 321.017 100.531 321.59 105.749C322.165 110.967 322.867 113.704 324.542 114.768C324.542 114.768 317.787 120.515 312.315 113.754C306.843 106.992 303.426 101.837 303.426 101.837Z" fill="#5F2A3D"/>
<path d="M308.329 96.1667C304.044 97.7103 303.426 101.837 303.426 101.837C303.426 101.837 306.707 106.783 311.981 113.337C312.934 113.182 313.674 112.323 314.049 110.443C315.653 102.406 310.445 97.708 308.329 96.1667Z" fill="#2E344B"/>
<path d="M292.258 124.661C287.886 121.636 285.823 122.19 284.946 110.788C284.069 99.3859 301.938 89.7946 310.572 100.734C316.002 107.614 316.478 119.954 307.738 122.966C297.951 126.338 292.258 124.661 292.258 124.661Z" fill="#5F2A3D"/>
<path d="M247.455 170.963C264.002 170.963 277.416 157.549 277.416 141.002C277.416 124.454 264.002 111.04 247.455 111.04C230.907 111.04 217.493 124.454 217.493 141.002C217.493 157.549 230.907 170.963 247.455 170.963Z" fill="#333333"/>
<path d="M247.455 163.581C259.925 163.581 270.035 153.472 270.035 141.002C270.035 128.531 259.925 118.422 247.455 118.422C234.984 118.422 224.875 128.531 224.875 141.002C224.875 153.472 234.984 163.581 247.455 163.581Z" fill="#B9CFE6"/>
<path d="M293.516 123.832C293.516 123.832 293.453 125.47 293.137 126.793C292.822 128.117 290.019 128.684 290.019 128.684C290.019 128.684 291.941 133.41 296.351 134.292L297.863 140.656L300.006 134.544C300.006 134.544 305.157 133.767 307.741 128.347C307.741 128.347 306.748 128.243 305.424 127.676C304.101 127.109 304.164 123.265 304.164 123.265L293.516 123.832Z" fill="#D8877B"/>
<path d="M266.484 172.79C265.658 169.831 266.484 167.876 267.177 166.93C267.87 165.985 268.437 167.182 268.5 167.561C268.564 167.939 268.374 170.459 268.374 170.459C268.374 170.459 268.878 168.884 269.886 167.12C270.894 165.356 272.029 164.788 272.721 166.112C272.721 166.112 273.729 165.545 274.36 167.057C274.36 167.057 275.683 167.309 275.431 169.073C275.431 169.073 276.314 169.829 275.998 171.089C275.683 172.349 274.297 173.798 273.73 175.751C273.163 177.706 267.606 176.807 266.484 172.79Z" fill="#D8877B"/>
<path d="M319.602 157.7C317.664 158.22 309.252 156.14 308.165 155.526C308.165 155.526 308.756 154.935 309.583 154.77L314.687 156.069L316.767 156.565L318.531 157.101L319.602 157.7Z" fill="#2E344B"/>
<path d="M309.583 154.77C309.583 154.77 308.701 158.015 307.315 159.968C305.929 161.922 293.012 175.122 292.319 175.689C291.626 176.256 287.089 176.067 285.766 176.887C284.442 177.706 285.514 178.588 286.522 178.525C287.53 178.462 289.231 178.714 289.231 178.714C289.231 178.714 288.16 180.604 287.53 181.234C286.899 181.864 285.01 182.809 284.316 182.998C283.623 183.187 283.749 184.762 284.568 184.7C284.568 184.7 283.749 186.149 285.45 186.716C285.45 186.716 285.072 187.661 286.711 187.787C286.711 187.787 286.774 188.228 288.538 188.102C290.302 187.976 292.508 185.708 293.452 184.763C294.397 183.818 296.036 180.856 296.476 180.541C296.917 180.226 311.41 168.317 313.616 165.797C315.821 163.276 318.53 157.101 318.53 157.101C318.53 157.101 313.931 153.887 309.583 154.77Z" fill="#D8877B"/>
<path d="M306.173 127.96C305.939 127.88 305.691 127.79 305.424 127.675C304.1 127.108 304.164 123.264 304.164 123.264L298.442 123.569L294.946 124.127L293.393 125.29C293.369 125.487 293.34 125.694 293.307 125.903C294.486 126.974 298.94 130.337 306.173 127.96Z" fill="#B44E50"/>
<path d="M308.57 111.986C308.57 111.986 311.244 110.402 312.926 113.072C314.608 115.741 311.865 118.013 309.614 118.013C309.614 118.013 307.488 127.433 299.348 127.783C291.246 128.132 287.761 119.836 287.104 113.696C287.104 113.696 290.751 111.972 291.156 109.996C291.56 108.021 296.544 107.806 299.031 104.174C299.031 104.174 300.95 107.812 303.308 108.004C305.666 108.195 308.023 110.639 308.57 111.986Z" fill="#D8877B"/>
<path d="M303.307 108.003C300.949 107.811 299.03 104.173 299.03 104.173C296.543 107.805 291.559 108.02 291.155 109.996C290.75 111.971 287.104 113.695 287.104 113.695C287.127 113.901 287.152 114.11 287.18 114.32C288.597 113.993 291.152 112.194 291.743 110.843C292.405 109.331 296.445 108.646 298.808 105.905C298.808 105.905 300.557 108.599 303.109 108.883C305.099 109.104 307.156 110.726 308.24 111.37C307.365 110.003 305.338 108.169 303.307 108.003Z" fill="#B44E50"/>
<path d="M311.857 113.517C311.943 113.305 311.743 113.081 311.596 112.956C311.42 112.808 311.234 112.69 311.014 112.622C310.612 112.498 310.13 112.577 309.844 112.905C309.582 113.207 309.532 113.625 309.549 114.011C309.572 114.499 309.634 114.988 309.712 115.47C309.754 115.737 310.16 115.835 310.33 115.632C310.493 115.438 310.875 115.181 311.095 115.458C311.188 115.576 311.131 115.757 311.07 115.874C311.017 115.974 310.941 116.06 310.886 116.159C310.826 116.269 310.79 116.387 310.762 116.508C310.725 116.671 310.871 116.844 311.044 116.79C311.424 116.671 311.658 116.391 311.786 116.019C311.909 115.661 311.849 115.27 311.603 114.98C311.28 114.598 310.791 114.553 310.368 114.716C310.348 114.529 310.318 114.342 310.311 114.153C310.3 113.918 310.271 113.6 310.429 113.415C310.8 112.983 311.601 114.141 311.857 113.517Z" fill="#B44E50"/>
<path d="M309.584 154.77C309.584 154.77 309.532 154.956 309.438 155.26C310.157 155.489 314.535 156.218 317.845 158.589C318.27 157.696 318.531 157.101 318.531 157.101C318.531 157.101 313.931 153.887 309.584 154.77Z" fill="#B44E50"/>
<path d="M290.398 181.281C290.15 181.396 289.974 181.675 289.8 181.879C289.601 182.109 289.404 182.343 289.19 182.56C288.792 182.961 288.344 183.315 287.86 183.606C286.903 184.181 285.851 184.592 284.744 184.754C284.626 184.772 284.653 184.972 284.773 184.964C285.93 184.886 287.069 184.558 288.049 183.929C288.525 183.623 288.972 183.271 289.371 182.872C289.609 182.635 289.832 182.384 290.053 182.133C290.244 181.916 290.494 181.708 290.601 181.437C290.649 181.312 290.495 181.235 290.398 181.281Z" fill="#B44E50"/>
<path d="M291.678 183.366C291.232 183.744 290.825 184.155 290.356 184.508C289.892 184.856 289.394 185.163 288.88 185.434C287.849 185.978 286.728 186.348 285.59 186.593C285.438 186.626 285.506 186.847 285.653 186.823C286.838 186.635 287.966 186.24 289.035 185.701C289.569 185.431 290.082 185.121 290.574 184.781C291.056 184.448 291.566 184.086 291.962 183.651C292.139 183.458 291.875 183.199 291.678 183.366Z" fill="#B44E50"/>
<path d="M291.693 185.17C291.309 185.294 291 185.625 290.672 185.853C290.317 186.1 289.949 186.329 289.567 186.532C289.186 186.735 288.794 186.916 288.391 187.074C287.977 187.236 287.539 187.348 287.13 187.518C287.011 187.567 287.006 187.79 287.164 187.77C287.595 187.713 288.035 187.551 288.438 187.392C288.853 187.228 289.259 187.043 289.652 186.834C290.046 186.626 290.429 186.397 290.796 186.146C291.136 185.915 291.589 185.658 291.778 185.282C291.808 185.227 291.76 185.148 291.693 185.17Z" fill="#B44E50"/>
<path d="M272.5 166.219C272.303 166.214 272.168 166.412 272.052 166.55C271.903 166.727 271.77 166.92 271.639 167.109C271.357 167.517 271.108 167.947 270.887 168.392C270.677 168.815 270.486 169.25 270.323 169.694C270.24 169.921 270.165 170.15 270.096 170.382C270.037 170.583 269.912 170.863 269.994 171.067C270.041 171.184 270.17 171.229 270.27 171.139C270.42 171.005 270.439 170.762 270.489 170.574C270.552 170.341 270.623 170.11 270.7 169.882C270.855 169.429 271.038 168.987 271.258 168.562C271.467 168.158 271.702 167.766 271.954 167.387C272.087 167.185 272.234 166.995 272.373 166.798C272.48 166.648 272.637 166.487 272.597 166.293C272.588 166.249 272.542 166.22 272.5 166.219Z" fill="#B44E50"/>
<path d="M274.222 167.287C274.025 167.286 273.893 167.445 273.761 167.576C273.605 167.73 273.461 167.897 273.326 168.072C273.06 168.415 272.836 168.788 272.648 169.18C272.448 169.596 272.277 170.032 272.151 170.476C272.084 170.717 272.023 170.958 271.967 171.201C271.912 171.436 271.831 171.686 271.831 171.928C271.831 172.04 271.993 172.091 272.048 171.987C272.148 171.794 272.19 171.573 272.251 171.366C272.315 171.154 272.38 170.942 272.451 170.732C272.602 170.283 272.759 169.834 272.962 169.406C273.137 169.04 273.342 168.688 273.583 168.362C273.705 168.199 273.837 168.043 273.979 167.896C274.108 167.763 274.31 167.641 274.346 167.449C274.361 167.369 274.312 167.288 274.222 167.287Z" fill="#B44E50"/>
<path d="M275.276 169.191C275.093 169.173 274.972 169.321 274.856 169.442C274.724 169.581 274.608 169.735 274.5 169.893C274.264 170.235 274.075 170.606 273.912 170.986C273.754 171.355 273.619 171.733 273.496 172.115C273.383 172.467 273.145 172.951 273.309 173.315C273.362 173.433 273.533 173.365 273.537 173.253C273.544 173.038 273.559 172.859 273.625 172.653C273.685 172.468 273.747 172.285 273.81 172.101C273.936 171.736 274.067 171.372 274.224 171.02C274.372 170.691 274.541 170.371 274.744 170.073C274.856 169.91 274.979 169.755 275.108 169.605C275.207 169.491 275.319 169.397 275.319 169.234C275.319 169.209 275.3 169.193 275.276 169.191Z" fill="#B44E50"/>
<path d="M286.569 139.087C286.007 139.774 285.762 140.699 285.486 141.528C285.172 142.469 284.927 143.436 284.72 144.406C284.527 145.315 284.373 146.231 284.268 147.154C284.174 147.989 283.909 149.107 284.257 149.906C284.287 149.975 284.399 149.967 284.431 149.906C284.617 149.556 284.638 149.161 284.671 148.773C284.711 148.292 284.755 147.813 284.814 147.334C284.931 146.374 285.085 145.416 285.28 144.469C285.468 143.554 285.705 142.653 285.958 141.754C286.2 140.893 286.601 140.027 286.666 139.13C286.672 139.08 286.601 139.049 286.569 139.087Z" fill="#2E344B"/>
<path d="M307.041 133.675C307.871 132.835 308.524 131.845 308.979 130.758C309.205 130.219 309.403 129.656 309.484 129.075C309.502 128.94 309.527 128.798 309.55 128.655C309.41 128.627 309.268 128.601 309.126 128.575C309.098 128.724 309.064 128.873 309.015 129.019C308.834 129.553 308.673 130.088 308.434 130.601C307.97 131.596 307.339 132.519 306.559 133.293C305.78 134.065 304.854 134.697 303.856 135.151C303.364 135.374 302.854 135.539 302.334 135.682C302.063 135.756 301.791 135.824 301.515 135.877C301.391 135.901 301.279 135.913 301.175 135.946C301.066 135.938 300.95 135.988 300.904 136.121C300.034 138.61 299.001 141.013 297.728 143.319C297.259 142.139 296.92 140.922 296.59 139.693C296.404 139.002 296.235 138.307 296.075 137.609C295.928 136.969 295.846 136.212 295.553 135.622C295.547 135.611 295.536 135.61 295.529 135.6C295.538 135.559 295.539 135.514 295.521 135.462C295.421 135.163 294.862 135.105 294.603 135.017C293.176 134.535 291.858 133.74 290.774 132.695C289.748 131.706 288.901 130.483 288.276 129.186C288.193 129.212 288.113 129.238 288.028 129.267C288.777 131.833 290.749 133.939 293.144 135.122C293.461 135.279 293.787 135.416 294.122 135.536C294.417 135.641 294.767 135.784 295.093 135.806C295.09 136.14 295.184 136.479 295.247 136.805C295.318 137.183 295.395 137.558 295.478 137.933C295.632 138.632 295.791 139.331 295.977 140.022C296.353 141.422 296.866 142.793 297.451 144.119C297.538 144.316 297.839 144.286 297.934 144.119C299.328 141.666 300.523 139.062 301.368 136.366C301.737 136.383 302.197 136.254 302.476 136.196C303.049 136.077 303.609 135.878 304.146 135.645C305.226 135.176 306.213 134.514 307.041 133.675Z" fill="#2E344B"/>
<path d="M310.365 143.165C310.355 143.137 310.307 143.12 310.292 143.155C309.93 143.978 309.994 145.021 309.915 145.906C309.818 146.978 309.68 148.044 309.523 149.109C309.217 151.168 308.693 153.172 308.292 155.212C308.242 155.465 308.586 155.557 308.675 155.318C309.405 153.355 309.779 151.233 310.089 149.168C310.238 148.18 310.343 147.184 310.423 146.188C310.463 145.686 310.493 145.186 310.502 144.683C310.511 144.158 310.552 143.663 310.365 143.165Z" fill="#2E344B"/>
<path d="M304.249 161.217C303.648 161.422 303.121 161.767 302.563 162.068C301.938 162.403 301.292 162.705 300.629 162.96C299.343 163.454 297.998 163.803 296.621 163.906C294.047 164.097 291.307 163.429 289.222 161.88C289.197 161.862 289.166 161.903 289.189 161.924C291.204 163.747 293.854 164.512 296.542 164.365C297.955 164.288 299.362 163.977 300.684 163.472C301.335 163.223 301.971 162.935 302.588 162.611C303.223 162.278 303.872 161.935 304.354 161.396C304.419 161.322 304.357 161.181 304.249 161.217Z" fill="#2E344B"/>
<path d="M305.085 159.409C304.599 159.743 304.121 160.083 303.604 160.369C303.315 160.529 303.014 160.662 302.722 160.813C302.448 160.955 302.118 161.056 301.888 161.264C301.874 161.276 301.886 161.294 301.9 161.296C302.178 161.333 302.468 161.226 302.731 161.15C303.003 161.07 303.264 160.959 303.524 160.843C304.058 160.603 304.589 160.327 305.065 159.985C305.236 159.863 305.641 159.642 305.617 159.393C305.589 159.096 305.206 159.326 305.085 159.409Z" fill="#2E344B"/>
<path d="M299.687 197.833C299.68 197.394 299.68 196.954 299.68 196.515C299.68 196.119 299.784 195.59 299.591 195.232C299.504 195.071 299.281 195.092 299.19 195.232C299.069 195.416 299.066 195.642 299.056 195.856C299.044 196.092 299.035 196.329 299.028 196.565C299.013 197.005 299.013 197.444 299.02 197.884C299.032 198.785 299.033 199.701 299.261 200.577C299.328 200.835 299.675 200.756 299.699 200.518C299.788 199.626 299.701 198.728 299.687 197.833Z" fill="#2E344B"/>
<path d="M295.131 211.918C295.502 210.1 295.903 208.287 296.341 206.484C296.792 204.628 297.362 202.771 297.679 200.888C297.69 200.823 297.592 200.767 297.561 200.838C296.919 202.348 296.527 203.97 296.098 205.551C295.652 207.191 295.266 208.851 294.907 210.511C294.19 213.836 293.601 217.19 293.146 220.56C292.243 227.243 291.799 234.042 291.957 240.786C292.043 244.44 292.25 248.118 292.767 251.741C289.215 251.731 285.664 251.72 282.112 251.727C281.599 251.728 281.085 251.725 280.57 251.723C280.6 251.953 280.63 252.173 280.657 252.384C284.723 252.392 288.787 252.38 292.852 252.367C293.63 252.365 294.406 252.363 295.184 252.362C295.168 252.162 295.151 251.959 295.135 251.745C294.53 251.743 293.927 251.744 293.322 251.742C293.033 248.524 292.737 245.313 292.618 242.083C292.494 238.722 292.473 235.345 292.607 231.984C292.875 225.252 293.783 218.516 295.131 211.918Z" fill="#2E344B"/>
<path d="M322.151 251.709C321.311 251.711 320.469 251.714 319.629 251.716C319.662 251.675 319.686 251.623 319.682 251.553C319.502 247.093 319.273 242.638 319.241 238.173C319.225 235.976 319.24 233.778 319.319 231.582C319.399 229.366 319.614 227.157 319.675 224.941C319.793 220.58 318.976 216.281 318.783 211.936C318.686 209.766 318.786 207.595 318.798 205.424C318.81 203.261 318.736 201.095 318.566 198.938C318.189 194.165 317.457 189.316 315.981 184.751C315.93 184.594 315.697 184.658 315.733 184.819C316.69 189.06 317.573 193.291 317.979 197.626C318.178 199.748 318.292 201.879 318.306 204.01C318.321 206.174 318.206 208.338 318.233 210.503C318.286 214.853 319.145 219.149 319.177 223.5C319.193 225.68 318.997 227.856 318.874 230.031C318.75 232.225 318.669 234.423 318.664 236.621C318.652 241.599 318.86 246.583 319.152 251.551C319.156 251.621 319.186 251.674 319.224 251.716C316.492 251.724 313.759 251.733 311.027 251.738C309.971 251.74 308.916 251.743 307.859 251.745C307.914 251.963 307.967 252.17 308.018 252.37C311.949 252.377 315.879 252.385 319.81 252.392C320.6 252.394 321.39 252.396 322.179 252.399C322.169 252.177 322.16 251.948 322.151 251.709Z" fill="#2E344B"/>
<path d="M294.178 116.241C294.134 115.679 293.901 115.135 293.471 114.914C293.345 114.849 293.213 114.819 293.073 114.823C292.978 114.806 292.886 114.813 292.795 114.844C292.656 114.86 292.529 114.909 292.415 114.992C292.348 115.049 292.281 115.107 292.215 115.165C292.095 115.3 292.016 115.454 291.979 115.628C291.806 116.433 291.922 118.069 293.119 117.929C293.393 117.896 293.671 117.789 293.848 117.575C294.105 117.261 294.217 116.744 294.178 116.241Z" fill="#2E344B"/>
<path d="M301.89 116.437C301.846 115.875 301.613 115.331 301.183 115.11C301.057 115.045 300.924 115.015 300.785 115.019C300.69 115.002 300.597 115.009 300.507 115.04C300.368 115.056 300.241 115.105 300.127 115.188C300.059 115.245 299.993 115.303 299.927 115.361C299.807 115.496 299.728 115.65 299.69 115.823C299.518 116.628 299.634 118.265 300.831 118.125C301.105 118.092 301.383 117.986 301.56 117.771C301.817 117.457 301.929 116.94 301.89 116.437Z" fill="#2E344B"/>
<path d="M296.95 120.531C296.839 120.425 296.732 120.329 296.605 120.24C296.49 120.161 296.367 120.095 296.263 119.999C296.056 119.807 295.932 119.548 296.139 119.311C296.381 119.035 296.567 118.741 296.691 118.393C296.797 118.094 296.925 117.639 296.767 117.342C296.699 117.213 296.509 117.223 296.438 117.342C296.339 117.508 296.334 117.727 296.28 117.911C296.228 118.092 296.153 118.261 296.058 118.423C295.963 118.583 295.854 118.727 295.727 118.863C295.57 119.03 295.438 119.201 295.414 119.436C295.375 119.809 295.572 120.174 295.851 120.41C295.988 120.526 296.14 120.633 296.304 120.706C296.477 120.784 296.643 120.806 296.831 120.816C296.977 120.827 297.052 120.629 296.95 120.531Z" fill="#B44E50"/>
<path d="M300.618 115.326C300.592 115.235 300.546 115.155 300.479 115.088L300.37 115.003C300.286 114.954 300.196 114.93 300.098 114.93C300.024 114.927 299.955 114.943 299.891 114.977C299.823 114.998 299.766 115.036 299.717 115.088C299.665 115.137 299.628 115.195 299.605 115.262C299.571 115.326 299.556 115.395 299.559 115.47C299.565 115.518 299.571 115.565 299.578 115.613C299.603 115.704 299.65 115.783 299.716 115.85L299.825 115.935C299.909 115.984 300 116.008 300.097 116.008C300.171 116.011 300.241 115.996 300.305 115.962C300.372 115.94 300.429 115.902 300.478 115.85C300.531 115.801 300.568 115.744 300.589 115.677C300.623 115.613 300.638 115.544 300.636 115.47C300.631 115.421 300.625 115.373 300.618 115.326Z" fill="white"/>
<path d="M292.386 118.622C292.386 119.2 291.669 119.668 290.785 119.668C289.901 119.668 289.184 119.2 289.184 118.622C289.184 118.045 289.901 117.576 290.785 117.576C291.67 117.576 292.386 118.045 292.386 118.622Z" fill="#C85F64"/>
<path d="M304.935 118.851C304.935 119.428 304.219 119.897 303.334 119.897C302.45 119.897 301.732 119.428 301.732 118.851C301.732 118.273 302.449 117.805 303.334 117.805C304.219 117.805 304.935 118.273 304.935 118.851Z" fill="#C85F64"/>
<path d="M302.217 114.383C302.161 114.327 302.064 114.294 301.987 114.322C301.969 114.329 301.951 114.336 301.933 114.344C301.912 114.35 301.894 114.36 301.878 114.376C301.868 114.384 301.857 114.392 301.847 114.401C301.844 114.404 301.841 114.408 301.837 114.412C301.822 114.428 301.806 114.443 301.791 114.46L301.7 114.556C301.673 114.585 301.649 114.616 301.632 114.651C301.623 114.671 301.614 114.69 301.604 114.71C301.6 114.719 301.595 114.729 301.591 114.739C301.589 114.744 301.586 114.75 301.583 114.755C301.579 114.764 301.575 114.773 301.572 114.782C301.563 114.797 301.559 114.814 301.559 114.832C301.552 114.877 301.561 114.921 301.583 114.962C301.597 114.986 301.619 115.013 301.644 115.025C301.653 115.03 301.663 115.033 301.673 115.037C301.723 115.059 301.777 115.059 301.827 115.037C301.854 115.026 301.879 115.014 301.905 115.001C301.923 114.992 301.941 114.983 301.958 114.974C301.995 114.956 302.026 114.93 302.055 114.902C302.084 114.872 302.114 114.843 302.143 114.814C302.159 114.798 302.175 114.783 302.191 114.767C302.194 114.764 302.198 114.76 302.201 114.757C302.214 114.74 302.227 114.723 302.24 114.706L302.245 114.701C302.26 114.675 302.269 114.645 302.278 114.616C302.305 114.535 302.275 114.44 302.217 114.383Z" fill="#C85F64"/>
<path d="M302.617 115.315C302.612 115.303 302.607 115.291 302.602 115.279C302.593 115.262 302.58 115.248 302.563 115.237C302.554 115.228 302.543 115.221 302.531 115.218C302.513 115.209 302.494 115.205 302.473 115.206L302.401 115.197C302.39 115.195 302.378 115.194 302.365 115.192C302.34 115.189 302.315 115.194 302.29 115.199C302.267 115.203 302.243 115.206 302.221 115.212C302.19 115.221 302.162 115.24 302.134 115.255C302.059 115.297 302.059 115.413 302.134 115.455C302.161 115.47 302.189 115.487 302.218 115.497C302.241 115.505 302.266 115.507 302.29 115.511C302.314 115.516 302.337 115.521 302.362 115.518C302.374 115.516 302.386 115.515 302.398 115.513L302.473 115.504C302.487 115.502 302.499 115.5 302.513 115.498C302.533 115.493 302.549 115.485 302.563 115.471C302.588 115.452 302.61 115.425 302.617 115.394C302.62 115.381 302.623 115.366 302.623 115.354C302.623 115.341 302.62 115.327 302.617 115.315Z" fill="#C85F64"/>
<path d="M292.645 115.146C292.619 115.054 292.573 114.975 292.506 114.908L292.397 114.823C292.313 114.774 292.222 114.75 292.125 114.75C292.05 114.747 291.981 114.763 291.917 114.796C291.85 114.818 291.792 114.855 291.743 114.908C291.691 114.957 291.654 115.015 291.632 115.082C291.598 115.146 291.583 115.215 291.585 115.289C291.592 115.338 291.598 115.385 291.604 115.432C291.629 115.524 291.676 115.603 291.742 115.67L291.851 115.755C291.935 115.804 292.026 115.828 292.123 115.828C292.197 115.831 292.267 115.816 292.331 115.782C292.398 115.76 292.456 115.723 292.504 115.67C292.557 115.621 292.594 115.564 292.615 115.497C292.649 115.433 292.664 115.364 292.662 115.289C292.657 115.241 292.651 115.194 292.645 115.146Z" fill="white"/>
<path d="M291.446 114.426C291.438 114.412 291.429 114.398 291.417 114.388C291.396 114.368 291.371 114.353 291.343 114.345L291.367 114.355C291.344 114.345 291.325 114.332 291.305 114.319C291.299 114.314 291.295 114.31 291.289 114.304C291.274 114.289 291.258 114.273 291.239 114.263C291.232 114.26 291.226 114.256 291.22 114.253C291.197 114.24 291.179 114.222 291.152 114.216C291.133 114.212 291.115 114.212 291.096 114.21C291.099 114.21 291.101 114.21 291.104 114.21C291.074 114.206 291.047 114.215 291.024 114.236C291.022 114.239 291.02 114.241 291.017 114.243C291.008 114.255 290.999 114.266 290.991 114.277C290.983 114.289 290.978 114.299 290.974 114.316C290.971 114.33 290.968 114.348 290.969 114.362C290.972 114.39 290.975 114.419 290.983 114.447C290.984 114.45 290.986 114.454 290.987 114.458C290.997 114.488 291.01 114.513 291.032 114.538C291.038 114.544 291.044 114.551 291.051 114.557C291.085 114.59 291.123 114.62 291.165 114.642C291.172 114.646 291.179 114.65 291.187 114.653C291.22 114.668 291.256 114.686 291.294 114.684C291.341 114.682 291.389 114.665 291.421 114.63C291.448 114.6 291.473 114.561 291.469 114.518C291.466 114.486 291.463 114.457 291.446 114.426Z" fill="#C85F64"/>
<path d="M291.091 115.258C291.066 115.242 291.04 115.225 291.011 115.219C290.98 115.212 290.949 115.21 290.917 115.207C290.881 115.203 290.844 115.202 290.808 115.201C290.708 115.2 290.602 115.208 290.513 115.258C290.447 115.296 290.407 115.386 290.431 115.46C290.456 115.538 290.522 115.587 290.604 115.592C290.62 115.593 290.636 115.59 290.651 115.589C290.683 115.586 290.715 115.584 290.745 115.578C290.77 115.572 290.794 115.569 290.818 115.565C290.848 115.562 290.878 115.559 290.908 115.557C290.927 115.556 290.946 115.557 290.965 115.556C290.998 115.556 291.024 115.547 291.054 115.537C291.112 115.516 291.154 115.473 291.163 115.41C291.171 115.348 291.143 115.292 291.091 115.258Z" fill="#C85F64"/>
<path d="M293.066 111.845C293.132 111.762 293.18 111.685 293.195 111.576C293.208 111.478 293.197 111.362 293.139 111.278C293.101 111.223 293.06 111.161 293.015 111.115C292.921 111.019 292.811 110.976 292.687 110.93C292.519 110.869 292.315 110.901 292.146 110.933C291.916 110.976 291.691 111.065 291.486 111.177C291.291 111.286 291.085 111.426 290.938 111.594C290.749 111.811 290.542 112.122 290.545 112.419C290.55 112.836 290.995 113.074 291.353 112.882C291.514 112.796 291.63 112.633 291.773 112.521C291.732 112.554 291.69 112.586 291.649 112.618C291.713 112.568 291.777 112.517 291.841 112.466C291.954 112.382 292.076 112.316 292.202 112.257C292.308 112.217 292.413 112.178 292.525 112.155C292.637 112.131 292.742 112.094 292.843 112.039C292.925 111.994 292.998 111.935 293.055 111.861C293.055 111.861 293.06 111.855 293.06 111.853C293.053 111.861 293.052 111.862 293.066 111.845Z" fill="#5F2A3D"/>
<path d="M293.06 111.853C293.076 111.834 293.131 111.767 293.11 111.787C293.096 111.8 293.067 111.842 293.06 111.853Z" fill="#5F2A3D"/>
<path d="M302.183 112.618C302.141 112.635 302.149 112.632 302.183 112.618V112.618Z" fill="#5F2A3D"/>
<path d="M299.932 111.729C299.929 111.727 299.929 111.726 299.927 111.724C299.919 111.718 299.912 111.714 299.903 111.708C299.906 111.709 299.919 111.719 299.932 111.729Z" fill="#5F2A3D"/>
<path d="M302.331 111.73C302.098 111.346 301.68 111.099 301.259 110.969C301.052 110.905 300.832 110.866 300.615 110.867C300.34 110.869 300.058 110.898 299.855 111.102C299.661 111.298 299.728 111.572 299.927 111.725C299.985 111.769 300.033 111.8 300.106 111.826C300.142 111.839 300.179 111.849 300.217 111.857C300.298 111.875 300.379 111.892 300.458 111.916C300.529 111.938 300.598 111.965 300.668 111.99C300.706 112.004 300.743 112.02 300.781 112.033C300.606 111.974 300.743 112.018 300.79 112.043C300.935 112.115 301.077 112.204 301.21 112.297C301.215 112.301 301.22 112.306 301.225 112.31C301.218 112.302 301.215 112.301 301.204 112.291C301.262 112.347 301.332 112.396 301.398 112.441C301.462 112.484 301.525 112.532 301.594 112.563C301.661 112.594 301.727 112.63 301.796 112.652C301.842 112.667 301.905 112.677 301.954 112.677C302.041 112.677 302.106 112.646 302.183 112.618C302.193 112.613 302.199 112.611 302.217 112.603L302.185 112.617C302.184 112.617 302.184 112.617 302.183 112.618C302.192 112.614 302.2 112.611 302.21 112.608C302.214 112.607 302.218 112.603 302.222 112.602C302.224 112.601 302.223 112.601 302.226 112.6C302.25 112.584 302.278 112.562 302.298 112.543C302.527 112.33 302.48 111.975 302.331 111.73Z" fill="#5F2A3D"/>
<path d="M301.227 112.31C301.27 112.345 301.309 112.389 301.227 112.31V112.31Z" fill="#5F2A3D"/>
<path d="M299.933 111.73C299.934 111.731 299.936 111.734 299.937 111.734C299.973 111.761 299.953 111.746 299.933 111.73Z" fill="#5F2A3D"/>
<path d="M297.687 121.922C297.381 121.74 296.97 121.673 296.62 121.702C296.195 121.737 295.796 121.876 295.476 122.163C295.26 122.358 295.537 122.698 295.782 122.559C296.048 122.408 296.346 122.314 296.652 122.313C296.733 122.312 296.814 122.318 296.895 122.327C296.902 122.328 296.969 122.334 296.934 122.33C296.903 122.326 296.957 122.334 296.957 122.334C297.005 122.343 297.052 122.351 297.1 122.363C297.29 122.41 297.416 122.478 297.568 122.532C297.663 122.566 297.778 122.606 297.876 122.564C297.891 122.557 297.93 122.527 297.944 122.516C297.97 122.492 297.989 122.475 298.004 122.44C298.098 122.221 297.853 122.022 297.687 121.922Z" fill="#B44E50"/>
<path d="M297.944 122.515C297.94 122.519 297.939 122.523 297.935 122.527C297.955 122.509 297.952 122.51 297.944 122.515Z" fill="#B44E50"/>
<path d="M243.245 125.187C243.086 123.998 241.95 122.735 240.634 122.881C239.594 122.995 238.736 123.274 237.812 123.776C237.361 124.022 236.921 124.29 236.494 124.574C235.431 125.278 234.407 126.075 233.5 126.973C232.62 127.843 231.794 128.824 231.246 129.937C230.936 130.567 230.676 131.222 230.493 131.901C230.338 132.474 230.297 133.036 230.454 133.618C230.697 134.522 231.531 135.415 232.554 135.337C233.253 135.284 233.836 135.035 234.342 134.551C234.629 134.277 234.819 133.94 235.034 133.613C235.277 133.246 235.543 132.891 235.809 132.541C236.075 132.206 236.341 131.872 236.601 131.533C236.46 131.715 236.319 131.898 236.178 132.08C236.882 131.18 237.697 130.384 238.586 129.669C239.305 129.137 240.07 128.637 240.871 128.237C241.025 128.186 241.176 128.13 241.341 128.105C241.93 128.015 242.66 127.394 242.93 126.883C243.213 126.345 243.326 125.792 243.245 125.187Z" fill="white"/>
<path d="M251.98 123.835C251.979 123.627 251.927 123.434 251.823 123.254C251.768 123.059 251.669 122.89 251.526 122.746C251.471 122.64 251.398 122.551 251.306 122.48C251.15 122.359 250.993 122.238 250.837 122.117C250.806 122.096 250.775 122.075 250.744 122.054C250.517 121.907 250.26 121.805 249.999 121.735C249.833 121.69 249.666 121.653 249.498 121.624C249.153 121.563 248.805 121.517 248.456 121.482C248.287 121.466 248.116 121.451 247.945 121.47C247.609 121.508 247.268 121.551 246.936 121.623C246.854 121.641 246.773 121.661 246.692 121.682C246.564 121.717 246.463 121.763 246.332 121.819C246.078 121.926 245.808 122.076 245.623 122.289C245.274 122.688 244.99 123.204 245.015 123.756C245.038 124.269 245.202 124.889 245.623 125.223C245.925 125.462 246.19 125.7 246.585 125.789C246.649 125.804 246.716 125.811 246.782 125.82C246.952 125.847 247.121 125.876 247.287 125.919C247.479 125.968 247.675 125.992 247.869 126.033C248.064 126.074 248.257 126.125 248.447 126.187C248.538 126.216 248.628 126.248 248.716 126.281C248.814 126.319 248.92 126.334 249.024 126.352C249.013 126.35 249.003 126.349 248.993 126.348C249.007 126.35 249.022 126.353 249.036 126.355C249.125 126.37 249.211 126.389 249.3 126.398C249.423 126.418 249.547 126.436 249.666 126.439C249.787 126.449 249.906 126.436 250.025 126.401C250.232 126.4 250.426 126.348 250.605 126.244C250.8 126.189 250.969 126.09 251.113 125.948C251.203 125.895 251.282 125.833 251.354 125.76C251.367 125.747 251.38 125.736 251.392 125.723C251.786 125.311 252.014 124.754 252.02 124.185C252.023 124.064 252 123.981 251.98 123.835Z" fill="white"/>
<path d="M258.833 155.674C258.755 155.347 258.605 155.063 258.383 154.82C257.924 154.226 257.192 153.786 256.411 153.83C256.333 153.835 256.254 153.837 256.175 153.84C255.61 153.862 255.144 154.001 254.656 154.263C254.472 154.362 254.307 154.464 254.136 154.584C253.98 154.694 253.819 154.797 253.654 154.894C253.453 155.014 253.267 155.154 253.083 155.299C252.429 155.772 251.627 156.11 251.245 156.858C251.062 157.218 250.982 157.577 251.036 157.98C251.091 158.387 251.255 158.673 251.521 158.991C252.077 159.657 252.889 159.74 253.685 159.819C254.038 159.853 254.394 159.865 254.747 159.845C255.338 159.811 255.87 159.655 256.411 159.436C256.837 159.264 257.14 159.142 257.481 158.883C257.901 158.566 258.283 158.293 258.505 157.795C258.62 157.536 258.729 157.274 258.834 157.011C258.952 156.565 258.952 156.12 258.833 155.674Z" fill="white"/>
<path d="M297.643 349.913H289.137L271.557 278.27H280.063L297.643 349.913Z" fill="#8285E2"/>
<path d="M349.627 349.913H341.121L323.541 278.27H332.047L349.627 349.913Z" fill="#8285E2"/>
<path d="M295.28 349.913H286.773L269.193 278.27H277.7L295.28 349.913Z" fill="#CDCEF3"/>
<path d="M249.913 349.913H258.419L275.999 278.27H267.493L249.913 349.913Z" fill="#8285E2"/>
<path d="M347.453 349.913H338.946L321.366 278.27H329.872L347.453 349.913Z" fill="#CDCEF3"/>
<path d="M280.536 303.979H330.818V296.607H280.536V303.979Z" fill="#CDCEF3"/>
<path d="M288.474 330.254H338.757V322.882H288.474V330.254Z" fill="#CDCEF3"/>
<path d="M246.636 349.913H255.142L272.722 278.27H264.216L246.636 349.913Z" fill="white"/>
<path d="M301.959 349.913H310.465L328.045 278.27H319.539L301.959 349.913Z" fill="#8285E2"/>
<path d="M298.809 349.913H307.315L324.894 278.27H316.388L298.809 349.913Z" fill="white"/>
<path d="M313.553 296.606H263.271V303.979H313.553V296.606Z" fill="white"/>
<path d="M305.614 322.882H255.331V330.254H305.614V322.882Z" fill="white"/>
<path d="M331.261 280.161H262.198C260.529 280.161 259.175 278.808 259.175 277.138V277.009C259.175 275.339 260.528 273.985 262.198 273.985H331.261C332.93 273.985 334.284 275.339 334.284 277.009V277.138C334.284 278.808 332.93 280.161 331.261 280.161Z" fill="white"/>
<path d="M74.3218 215.807H130.652C132.528 215.807 134.303 216.544 135.48 217.812L143.433 226.378C144.217 227.224 145.401 227.715 146.652 227.715H234.586C237.701 227.715 240.226 229.906 240.226 232.609V339.356C240.226 345.186 234.779 349.913 228.059 349.913H77.1002C72.395 349.913 68.5801 346.603 68.5801 342.52V220.789C68.5809 218.038 71.1507 215.807 74.3218 215.807Z" fill="#2E34CF"/>
<path d="M115.621 152.054L91.9219 175.754V266.569H208.095V152.054H115.621Z" fill="white"/>
<path d="M115.621 175.754V152.054L91.9219 175.754H115.621Z" fill="#CDCEF3"/>
<path d="M54.5603 242.563H210.646C214.325 242.563 217.482 244.836 218.161 247.973L238.525 342.053C239.409 346.137 235.799 349.913 231.01 349.913H74.925C71.2459 349.913 68.0891 347.64 67.4097 344.503L47.0459 250.423C46.1618 246.339 49.7722 242.563 54.5603 242.563Z" fill="#8285E2"/>
<path d="M154.749 200.688C157.719 197.679 160.683 194.662 163.649 191.646C165.395 189.87 165.553 186.667 163.649 184.92C161.764 183.189 158.786 183.025 156.923 184.92C153.914 187.878 150.907 190.835 147.904 193.796C144.932 190.824 141.949 187.863 138.93 184.936C137.176 183.126 133.867 183.041 132.128 184.936C130.342 186.881 130.255 189.808 132.128 191.739C135.047 194.749 138.001 197.724 140.965 200.688C138.002 203.651 135.051 206.624 132.132 209.634C130.323 211.389 130.238 214.698 132.132 216.437C134.077 218.222 137.004 218.309 138.935 216.437C141.952 213.512 144.934 210.552 147.904 207.58C150.905 210.541 153.911 213.496 156.918 216.453C158.694 218.2 161.897 218.357 163.644 216.453C165.375 214.568 165.539 211.59 163.644 209.727C160.681 206.712 157.718 203.698 154.749 200.688Z" fill="#FEC260"/>
<path d="M58.9082 159.756H57.8907C57.7327 159.269 57.5367 158.799 57.3061 158.348L58.0265 157.628C58.7083 156.946 58.7083 155.842 58.0265 155.16L56.3083 153.441C55.6265 152.76 54.5221 152.76 53.8411 153.441L53.1206 154.161C52.6703 153.931 52.2003 153.735 51.7129 153.577V152.559C51.7129 151.595 50.9315 150.814 49.9677 150.814H47.5369C46.5731 150.814 45.7918 151.595 45.7918 152.559V153.577C45.3044 153.735 44.8343 153.931 44.384 154.161L43.6635 153.441C42.9826 152.76 41.8774 152.76 41.1964 153.441L39.4773 155.16C38.7964 155.842 38.7964 156.946 39.4773 157.628L40.1978 158.348C39.9671 158.799 39.7712 159.268 39.6132 159.756H38.5957C37.6319 159.756 36.8506 160.537 36.8506 161.501V163.932C36.8506 164.896 37.6319 165.677 38.5957 165.677H39.6132C39.7712 166.165 39.9671 166.635 40.1978 167.085L39.4773 167.805C38.7964 168.487 38.7964 169.592 39.4773 170.273L41.1964 171.992C41.8774 172.673 42.9826 172.673 43.6635 171.992L44.384 171.271C44.8343 171.501 45.3044 171.698 45.7918 171.856V172.873C45.7918 173.837 46.5731 174.618 47.5369 174.618H49.9677C50.9315 174.618 51.7129 173.837 51.7129 172.873V171.856C52.2003 171.698 52.6703 171.502 53.1206 171.271L53.8411 171.992C54.5229 172.673 55.6273 172.673 56.3083 171.992L58.0265 170.273C58.7083 169.591 58.7083 168.486 58.0265 167.805L57.3061 167.085C57.5359 166.635 57.7327 166.165 57.8907 165.677H58.9082C59.872 165.677 60.6533 164.896 60.6533 163.932V161.501C60.6525 160.537 59.8712 159.756 58.9082 159.756ZM48.7519 168.822C45.3802 168.822 42.646 166.089 42.646 162.716C42.646 159.345 45.3794 156.61 48.7519 156.61C52.1244 156.61 54.8578 159.344 54.8578 162.716C54.8578 166.089 52.1237 168.822 48.7519 168.822Z" fill="#FFEBCA"/>
<path d="M256.724 201.008H255.707C255.549 200.521 255.353 200.051 255.122 199.601L255.843 198.88C256.524 198.198 256.524 197.094 255.843 196.412L254.124 194.694C253.442 194.012 252.337 194.012 251.656 194.694L250.935 195.414C250.485 195.184 250.016 194.988 249.527 194.83V193.812C249.527 192.848 248.746 192.067 247.782 192.067H245.351C244.388 192.067 243.606 192.848 243.606 193.812V194.83C243.119 194.988 242.649 195.184 242.198 195.414L241.478 194.694C240.797 194.012 239.692 194.012 239.011 194.694L237.292 196.412C236.61 197.094 236.61 198.198 237.292 198.88L238.012 199.601C237.782 200.051 237.586 200.521 237.428 201.008H236.41C235.446 201.008 234.665 201.79 234.665 202.753V205.184C234.665 206.148 235.446 206.929 236.41 206.929H237.428C237.586 207.417 237.782 207.887 238.012 208.337L237.292 209.058C236.61 209.739 236.61 210.844 237.292 211.526L239.011 213.245C239.692 213.926 240.797 213.926 241.478 213.245L242.198 212.524C242.649 212.755 243.119 212.951 243.606 213.109V214.126C243.606 215.09 244.388 215.871 245.351 215.871H247.782C248.746 215.871 249.527 215.09 249.527 214.126V213.109C250.015 212.951 250.485 212.755 250.935 212.524L251.656 213.245C252.337 213.926 253.442 213.926 254.124 213.245L255.843 211.526C256.524 210.844 256.524 209.739 255.843 209.058L255.122 208.337C255.352 207.887 255.549 207.418 255.707 206.929H256.724C257.688 206.929 258.469 206.148 258.469 205.184V202.753C258.469 201.789 257.688 201.008 256.724 201.008ZM246.568 210.074C243.196 210.074 240.462 207.34 240.462 203.968C240.462 200.595 243.195 197.862 246.568 197.862C249.94 197.862 252.674 200.595 252.674 203.968C252.674 207.34 249.94 210.074 246.568 210.074Z" fill="#FFEBCA"/>
<path d="M86.3337 141.708L84.9931 141.2C85.0287 140.479 85.0042 139.761 84.926 139.053L86.235 138.463C87.4729 137.906 88.0243 136.45 87.4666 135.212L86.0596 132.09C85.5019 130.852 84.0467 130.301 82.8088 130.859L81.4997 131.449C81.0218 130.921 80.5004 130.428 79.9371 129.976L80.4451 128.636C80.9262 127.366 80.2863 125.947 79.0168 125.466L75.8141 124.254C74.5446 123.772 73.1257 124.412 72.6446 125.682L72.1367 127.023C71.4154 126.987 70.6981 127.011 69.9902 127.09L69.4001 125.781C68.8424 124.543 67.3864 123.991 66.1492 124.549L63.0272 125.956C61.7892 126.514 61.2378 127.969 61.7956 129.207L62.3857 130.516C61.858 130.994 61.3642 131.515 60.9131 132.079L59.5725 131.571C58.303 131.089 56.8841 131.729 56.403 132.999L55.1904 136.202C54.7093 137.471 55.3492 138.891 56.6187 139.371L57.9593 139.879C57.9238 140.6 57.9483 141.318 58.0265 142.025L56.7174 142.616C55.4795 143.173 54.9281 144.628 55.4858 145.866L56.8928 148.988C57.4506 150.226 58.9057 150.778 60.1437 150.22L61.4527 149.63C61.9306 150.158 62.452 150.651 63.0153 151.103L62.5073 152.443C62.0262 153.713 62.6661 155.132 63.9357 155.613L67.1383 156.825C68.4079 157.306 69.8267 156.666 70.3078 155.397L70.8158 154.056C71.537 154.092 72.2544 154.067 72.9622 153.989L73.5523 155.298C74.1101 156.536 75.5653 157.088 76.8032 156.53L79.9253 155.123C81.1632 154.565 81.7146 153.11 81.1569 151.872L80.5667 150.563C81.0945 150.085 81.5882 149.564 82.0393 149L83.3799 149.508C84.6495 149.989 86.0683 149.349 86.5494 148.08L87.7621 144.877C88.2424 143.608 87.6033 142.188 86.3337 141.708ZM68.4284 148.584C63.9854 146.901 61.7482 141.935 63.4309 137.492C65.1136 133.049 70.0795 130.812 74.5225 132.495C78.9654 134.178 81.2027 139.143 79.52 143.586C77.8373 148.029 72.8714 150.267 68.4284 148.584Z" fill="#FFEBCA"/>
<path d="M101.142 82.4167L94.7344 96.0055L108.492 134.319L144.5 121.389L127.153 73.0774L101.142 82.4167Z" fill="white"/>
<path d="M104.733 92.415L101.142 82.4167L94.7344 96.0055L104.733 92.415Z" fill="#F3F5F9"/>
<path d="M121.474 102.389C122.364 100.468 123.25 98.5462 124.136 96.6241C124.659 95.492 124.191 93.9571 122.999 93.4562C121.818 92.9601 120.388 93.3859 119.831 94.5938C118.914 96.4961 117.997 98.3977 117.084 100.301C115.182 99.4033 113.275 98.513 111.358 97.6448C110.225 97.0894 108.652 97.6092 108.154 98.7958C107.642 100.014 108.096 101.408 109.305 102C111.189 102.924 113.083 103.827 114.982 104.721C114.087 106.618 113.2 108.518 112.335 110.429C111.778 111.561 112.299 113.134 113.485 113.633C114.703 114.145 116.096 113.69 116.689 112.483C117.616 110.594 118.519 108.695 119.416 106.794C121.33 107.681 123.247 108.564 125.163 109.448C126.295 109.97 127.83 109.503 128.331 108.311C128.827 107.13 128.402 105.7 127.194 105.143C125.287 104.223 123.381 103.304 121.474 102.389Z" fill="#FEC260"/>
<path d="M176.438 56.835L164.444 61.7322L150.844 94.0969L181.262 106.878L198.41 66.0677L176.438 56.835Z" fill="white"/>
<path d="M172.889 65.2809L176.438 56.835L164.443 61.7322L172.889 65.2809Z" fill="#F3F5F9"/>
<path d="M177.711 81.3803C179.396 80.6788 181.08 79.9749 182.764 79.2702C183.755 78.8554 184.354 77.6072 183.889 76.5937C183.428 75.5896 182.271 75.0263 181.212 75.4687C179.521 76.1426 177.83 76.8165 176.14 77.4927C175.454 75.8132 174.763 74.136 174.051 72.4667C173.655 71.4531 172.352 70.8662 171.344 71.3291C170.308 71.8047 169.784 72.9549 170.206 74.0364C170.864 75.7223 171.542 77.4003 172.226 79.0751C170.551 79.7584 168.88 80.4481 167.215 81.1575C166.202 81.5533 165.615 82.856 166.078 83.864C166.553 84.8997 167.703 85.4235 168.784 85.0016C170.474 84.342 172.155 83.6626 173.834 82.9769C174.533 84.6564 175.235 86.3352 175.937 88.0147C176.351 89.0062 177.6 89.605 178.613 89.1397C179.617 88.6791 180.181 87.5217 179.738 86.4631C179.064 84.7686 178.389 83.0732 177.711 81.3803Z" fill="#FEC260"/>
<path d="M295.18 79.1763C295.027 78.5587 295.102 77.998 295.406 77.4942C295.704 76.9667 296.162 76.6265 296.78 76.4736C297.753 76.2325 298.597 75.8724 299.31 75.3933C300.018 74.8905 300.515 74.2506 300.801 73.4738C301.112 72.6911 301.132 71.7534 300.861 70.6607C300.661 69.8531 300.283 69.1905 299.726 68.6729C299.194 68.1494 298.539 67.7947 297.761 67.6089C297.008 67.4173 296.204 67.4273 295.349 67.639C294.684 67.8036 294.084 68.0782 293.549 68.4628C293.037 68.8414 292.594 69.2915 292.219 69.8129C291.921 70.2395 291.52 70.6036 291.015 70.9051C290.527 71.177 289.961 71.1787 289.314 70.9101C288.638 70.6237 288.203 70.1894 288.009 69.6073C287.814 69.0253 287.904 68.4231 288.28 67.8008C288.917 66.7102 289.747 65.7862 290.77 65.0289C291.81 64.2419 292.984 63.6868 294.29 63.3633C295.929 62.9576 297.496 62.9731 298.991 63.4098C300.503 63.8168 301.807 64.5528 302.903 65.6177C303.998 66.6826 304.743 68.0108 305.137 69.6023C305.431 70.79 305.515 71.8911 305.388 72.9057C305.255 73.8965 304.938 74.8068 304.438 75.6366C303.955 76.4367 303.324 77.1475 302.545 77.7688C301.784 78.3606 300.914 78.866 299.933 79.2852C299.892 79.3207 299.85 79.3562 299.809 79.3917C299.791 79.4213 299.788 79.4599 299.799 79.5074L300.126 80.8257C300.279 81.4433 300.206 82.0159 299.908 82.5434C299.604 83.0472 299.144 83.3755 298.526 83.5284C297.908 83.6813 297.348 83.6058 296.844 83.302C296.334 82.9744 296.003 82.5018 295.85 81.8842L295.18 79.1763ZM299.927 89.9504C299.238 90.1209 298.659 90.075 298.191 89.8128C297.741 89.521 297.43 89.0306 297.26 88.3418L297.11 87.736C296.939 87.0472 296.988 86.4805 297.256 86.036C297.542 85.5619 298.029 85.2395 298.718 85.069L299.181 84.9543C299.87 84.7838 300.44 84.8445 300.89 85.1363C301.359 85.3985 301.678 85.8741 301.849 86.5629L301.998 87.1686C302.169 87.8575 302.111 88.439 301.825 88.9131C301.557 89.3576 301.079 89.6652 300.39 89.8357L299.927 89.9504Z" fill="white"/>
<path d="M283.054 87.9684C282.687 87.5442 282.522 87.0734 282.559 86.5559C282.582 86.0221 282.806 85.5715 283.23 85.2043C283.899 84.6251 284.418 84.0045 284.787 83.3426C285.141 82.6643 285.276 81.9626 285.19 81.2374C285.121 80.498 284.762 79.7531 284.112 79.0027C283.632 78.448 283.069 78.0786 282.424 77.8946C281.796 77.6964 281.139 77.6798 280.454 77.8448C279.786 77.9956 279.158 78.3253 278.57 78.8338C278.114 79.2293 277.752 79.6853 277.485 80.2016C277.235 80.7037 277.067 81.2348 276.981 81.7946C276.917 82.2491 276.748 82.6958 276.471 83.1349C276.197 83.5436 275.752 83.7717 275.137 83.8193C274.491 83.8647 273.975 83.6975 273.589 83.3179C273.204 82.9383 273.034 82.4289 273.08 81.7896C273.144 80.6774 273.427 79.6192 273.928 78.6148C274.43 77.58 275.13 76.6741 276.028 75.8972C277.153 74.9225 278.391 74.3077 279.74 74.0528C281.092 73.7675 282.411 73.824 283.698 74.2225C284.985 74.621 286.102 75.3668 287.048 76.4599C287.755 77.2756 288.261 78.1076 288.567 78.9558C288.859 79.7876 288.975 80.6297 288.913 81.482C288.854 82.304 288.643 83.1149 288.28 83.9149C287.918 84.6845 287.436 85.4301 286.834 86.1518C286.815 86.1963 286.797 86.2409 286.778 86.2855C286.776 86.3159 286.789 86.3474 286.817 86.3801L287.601 87.2855C287.969 87.7097 288.141 88.1887 288.118 88.7225C288.08 89.24 287.85 89.6824 287.426 90.0497C287.001 90.417 286.531 90.582 286.013 90.5448C285.481 90.4913 285.032 90.2525 284.665 89.8283L283.054 87.9684ZM291.096 94.5361C290.623 94.9458 290.15 95.1412 289.677 95.1226C289.206 95.0734 288.766 94.8123 288.356 94.3392L287.996 93.9231C287.587 93.45 287.398 92.9851 287.431 92.5285C287.466 92.0415 287.72 91.5931 288.193 91.1835L288.511 90.908C288.984 90.4983 289.456 90.3181 289.927 90.3672C290.4 90.3859 290.841 90.6318 291.251 91.1049L291.611 91.521C292.021 91.9941 292.208 92.4742 292.173 92.9612C292.14 93.4178 291.887 93.851 291.414 94.2606L291.096 94.5361Z" fill="white"/>
<path d="M309.421 81.3942C309.655 80.8841 310.015 80.5388 310.502 80.3583C310.997 80.1581 311.5 80.1749 312.01 80.4088C312.814 80.7776 313.594 80.9927 314.349 81.0541C315.113 81.0959 315.808 80.9276 316.432 80.5493C317.077 80.1799 317.606 79.544 318.019 78.6417C318.325 77.9747 318.428 77.3098 318.329 76.6469C318.249 75.9929 317.992 75.3884 317.558 74.8333C317.143 74.2872 316.583 73.8523 315.877 73.5285C315.328 73.2766 314.763 73.1363 314.182 73.1076C313.622 73.0879 313.069 73.1549 312.523 73.3085C312.084 73.4392 311.607 73.4697 311.093 73.4002C310.607 73.32 310.215 73.0097 309.917 72.4694C309.608 71.9004 309.546 71.3617 309.732 70.8533C309.918 70.3449 310.311 69.9792 310.912 69.7562C311.951 69.3542 313.031 69.1729 314.152 69.2123C315.302 69.2411 316.417 69.5028 317.496 69.9975C318.849 70.6181 319.922 71.4897 320.713 72.6121C321.532 73.7239 322.028 74.9481 322.198 76.2845C322.369 77.621 322.153 78.9464 321.55 80.2607C321.1 81.2415 320.553 82.047 319.908 82.6771C319.272 83.2876 318.553 83.7416 317.752 84.039C316.98 84.3258 316.154 84.4695 315.276 84.4702C314.425 84.4602 313.547 84.3305 312.641 84.0811C312.592 84.0827 312.544 84.0843 312.496 84.086C312.467 84.0966 312.444 84.1215 312.426 84.1607L311.927 85.2495C311.693 85.7595 311.328 86.1146 310.833 86.3148C310.347 86.4953 309.848 86.4687 309.338 86.2348C308.828 86.001 308.483 85.6409 308.303 85.1545C308.131 84.6485 308.162 84.1405 308.396 83.6304L309.421 81.3942ZM306.776 91.4344C306.207 91.1735 305.833 90.824 305.655 90.3859C305.504 89.9371 305.559 89.4283 305.82 88.8594L306.05 88.3592C306.31 87.7903 306.655 87.4262 307.085 87.2669C307.542 87.0969 308.056 87.1424 308.625 87.4032L309.007 87.5786C309.576 87.8394 309.936 88.1943 310.086 88.643C310.265 89.0812 310.224 89.5847 309.963 90.1536L309.734 90.6538C309.473 91.2227 309.114 91.5921 308.656 91.762C308.227 91.9214 307.728 91.8706 307.159 91.6098L306.776 91.4344Z" fill="white"/>
</g>
<defs>
<clipPath id="clip0_879_15835">
<rect width="395" height="395" fill="white"/>
</clipPath>
</defs>
</svg>
