<svg width="32" height="32" viewBox="0 0 32 32" fill="none" xmlns="http://www.w3.org/2000/svg">
<path d="M15.9997 29.3333C17.4663 29.3333 18.6663 28.1333 18.6663 26.6667H13.333C13.333 28.1333 14.533 29.3333 15.9997 29.3333ZM23.9997 21.3333V14.6667C23.9997 10.5733 21.8263 7.14666 17.9997 6.23999V5.33333C17.9997 4.22666 17.1063 3.33333 15.9997 3.33333C14.893 3.33333 13.9997 4.22666 13.9997 5.33333V6.23999C10.1863 7.14666 7.99967 10.56 7.99967 14.6667V21.3333L5.33301 24V25.3333H26.6663V24L23.9997 21.3333ZM21.333 22.6667H10.6663V14.6667C10.6663 11.36 12.6797 8.66666 15.9997 8.66666C19.3197 8.66666 21.333 11.36 21.333 14.6667V22.6667Z" fill="#333333"/>
</svg>
