<svg width="40" height="40" viewBox="0 0 40 40" fill="none" xmlns="http://www.w3.org/2000/svg">
<g clip-path="url(#clip0_334_2640)">
<path d="M13.5055 0H14.3273C15.4359 0.117969 16.5016 0.675781 17.1766 1.57266C17.4312 1.90156 17.6141 2.27891 17.7766 2.66094C18.1852 2.65234 18.5984 2.64531 19.0031 2.71641C19.3891 2.77734 19.593 3.16016 19.9297 3.31562C20.2633 3.36562 20.6016 3.33125 20.9375 3.33359C22.0836 3.33203 23.2297 3.33594 24.375 3.33047C24.8664 3.32969 25.3687 3.36328 25.8305 3.54453C26.7609 3.88984 27.5156 4.66875 27.8258 5.61172C28.0188 6.16719 28.0039 6.76406 28.0016 7.34375C27.9961 9.36406 28.0047 11.3844 27.9977 13.4047C29.7883 13.5883 31.5383 14.1359 33.1156 15.0055C33.5648 14.5641 33.993 14.1016 34.4555 13.6734C34.818 13.3266 35.3883 13.243 35.8414 13.4508C36.1 13.5742 36.2891 13.7977 36.4781 14.007C36.7273 13.7961 36.9844 13.5828 37.293 13.4633C37.943 13.2125 38.7219 13.3406 39.2578 13.7875C39.6539 14.0992 39.8781 14.5742 40 15.0531V15.575C39.9078 16.0602 39.6531 16.4969 39.3211 16.857C39.6203 17.1 39.8859 17.3992 40 17.775V18.2445C39.868 18.718 39.5039 19.0656 39.1562 19.3914C38.8664 19.6539 38.6148 19.9547 38.3281 20.2211C39.1516 21.7187 39.7023 23.3711 39.8992 25.0711C39.9375 25.4008 39.9805 25.7297 40 26.0617V27.2211C39.9813 27.5875 39.9375 27.9523 39.8953 28.3172C39.5828 30.8875 38.4945 33.357 36.8102 35.3227C35.082 37.3508 32.7328 38.8445 30.157 39.5312C29.15 39.8102 28.1078 39.943 27.0664 40H26.293C24.2492 39.9102 22.2148 39.3961 20.4125 38.4172C20.1281 38.2641 19.8578 38.0555 19.5297 38.0109C19.2188 37.9734 18.9055 37.9992 18.5938 38C13.5672 38.0016 8.54141 37.9977 3.51562 38.0016C3.13203 37.9961 2.74453 37.9688 2.37656 37.857C1.53984 37.6086 0.813281 37.0148 0.401562 36.2453C0.213281 35.8812 0.0867188 35.4883 0 35.0883V6.24687C0.065625 5.93906 0.155469 5.63672 0.278906 5.34688C0.719531 4.29063 1.75156 3.50547 2.88906 3.36875C3.38203 3.31094 3.87969 3.33594 4.375 3.33359C5.63516 3.33203 6.89453 3.33672 8.15469 3.33047C8.33125 3.13594 8.50781 2.93047 8.74531 2.80859C8.98516 2.68203 9.26328 2.67266 9.52812 2.6625C9.99922 2.65469 10.4703 2.68359 10.9414 2.65703C11.0781 2.77734 11.2281 2.88984 11.332 3.04219C11.5258 3.40781 11.2828 3.93203 10.8578 3.97422C10.3516 4.03437 9.83984 3.99297 9.33047 3.99844C9.33516 4.8875 9.33438 5.77734 9.33125 6.66719C12.4438 6.66641 15.557 6.66641 18.6695 6.66797C18.668 5.77812 18.6672 4.8875 18.6695 3.99766C18.2258 3.99687 17.782 4.01641 17.3383 3.99688C17.1203 3.98516 16.8578 3.94297 16.743 3.73125C16.5742 3.43281 16.5211 3.08594 16.368 2.78047C15.9641 1.96797 15.1109 1.40703 14.2078 1.34141C13.7437 1.31172 13.2625 1.38047 12.8492 1.60313C12.5781 1.73828 12.332 1.93516 12.0312 1.99922C11.8313 1.97578 11.6469 1.88594 11.4578 1.82344C11.4117 1.63594 11.3555 1.45 11.3391 1.25703C11.3586 1.01875 11.543 0.839844 11.7258 0.707813C12.2531 0.335156 12.8805 0.135937 13.5055 0ZM2.79531 4.74297C2.16406 4.91484 1.63438 5.41953 1.43516 6.04375C1.35469 6.28594 1.33516 6.54297 1.32969 6.79609C1.33359 16.068 1.32812 25.3406 1.33203 34.6117C1.31562 35.3344 1.70859 36.0516 2.34375 36.4039C2.69531 36.6156 3.11328 36.6664 3.51562 36.6687C7.60469 36.6641 11.693 36.668 15.782 36.6672C16.4664 36.6617 17.1516 36.6836 17.8359 36.6477C17.4922 36.3063 17.1352 35.9758 16.8156 35.6109C16.7 35.4953 16.5844 35.3414 16.4062 35.3336C16.0945 35.3016 15.7812 35.3273 15.4688 35.3258C11.6664 35.3258 7.86484 35.3258 4.0625 35.3266C3.70469 35.3297 3.33828 35.2227 3.08125 34.9641C2.78594 34.6992 2.66016 34.2977 2.66328 33.9102C2.6625 25.0797 2.66328 16.2484 2.6625 7.41797C2.64922 6.95312 2.86484 6.48594 3.25703 6.22656C3.53203 6.01875 3.88906 6.00391 4.21953 6.00078C5.475 6.01016 6.73125 6.00547 7.98672 6.00547C8.00156 5.56328 8.00625 5.12031 7.98672 4.67812C6.54844 4.66563 5.11016 4.68203 3.67109 4.67031C3.37891 4.67188 3.08125 4.67031 2.79531 4.74297ZM20.0031 4.67891C19.9945 5.12187 19.9977 5.56406 20.0062 6.00703C21.2797 6.00469 22.5539 6.00938 23.8281 6.00156C24.2086 5.99609 24.618 6.06797 24.8992 6.34687C25.2086 6.61172 25.3344 7.025 25.3273 7.42188C25.325 9.40781 25.3266 11.3937 25.325 13.3797C25.7672 13.3586 26.2102 13.3633 26.6523 13.3352C26.6867 11.3648 26.6547 9.39297 26.668 7.42188C26.6688 7.08203 26.6789 6.74141 26.6406 6.40312C26.5539 5.53125 25.8 4.77344 24.9258 4.69297C24.6133 4.66016 24.2977 4.67109 23.9844 4.67266C22.657 4.67969 21.3297 4.66563 20.0031 4.67891ZM3.99922 7.33203C4.00078 16.2219 4.00078 25.1117 3.99844 34.0008C7.84453 33.9961 11.6906 34.0047 15.5367 33.9969C14.743 32.7711 14.1359 31.4227 13.7742 30.007C13.5828 30.0016 13.3891 30.0078 13.1992 29.9773C12.907 29.9367 12.6805 29.6602 12.6695 29.3711C12.6508 29.1117 12.8016 28.8461 13.0383 28.7383C13.1875 28.6875 13.3445 28.668 13.4984 28.6367C13.4344 28.2195 13.3992 27.7977 13.368 27.3773C13.2109 27.3164 13.0445 27.2719 12.9047 27.1758C12.6305 26.9586 12.5906 26.5164 12.8141 26.2492C12.9438 26.0734 13.1742 26.0383 13.3656 25.9641C13.4258 24.8477 13.6187 23.7391 13.9453 22.6695C13.6789 22.668 13.4086 22.6867 13.1461 22.6328C12.8266 22.5586 12.6172 22.207 12.6781 21.8891C12.7195 21.5961 12.9805 21.3539 13.2773 21.343C13.6703 21.3125 14.0648 21.3336 14.4578 21.3328C14.6602 20.8773 14.8914 20.4359 15.1352 20.0016C14.5141 19.9867 13.8914 20.0234 13.2711 19.9875C12.9508 19.9766 12.6805 19.6883 12.6703 19.3719C12.6461 19.0742 12.8523 18.7687 13.1461 18.7C13.3445 18.6586 13.5484 18.6656 13.75 18.6648C14.5078 18.675 15.2656 18.6633 16.0234 18.6711C17.9484 16.0844 20.8414 14.2461 24.0008 13.6C23.9992 11.5109 24 9.42188 24 7.33203C22.6125 7.33516 21.225 7.33125 19.8375 7.33437C19.6727 7.53359 19.4977 7.73672 19.2633 7.85625C19.0344 7.97656 18.7695 7.99687 18.5148 8.00234C15.4945 7.99844 12.4742 7.99922 9.45391 8.00156C9.20312 7.99531 8.94297 7.97031 8.71953 7.84609C8.49297 7.72969 8.32812 7.52891 8.16797 7.33672C6.77813 7.32813 5.38828 7.33672 3.99922 7.33203ZM24.0297 14.9617C21.175 15.5938 18.5844 17.3188 16.8938 19.7039C15.1477 22.1359 14.3727 25.2375 14.7656 28.2047C15.0602 30.5078 16.0437 32.7148 17.557 34.475C19.2273 36.4313 21.5445 37.8258 24.0586 38.375C26.1297 38.8414 28.3258 38.7461 30.3445 38.0859C32.8406 37.293 35.0555 35.6461 36.5383 33.4867C38.1336 31.1961 38.8859 28.3328 38.6156 25.5547C38.4766 24.0344 38.0414 22.543 37.3414 21.1867C36.5398 21.4742 35.6781 21.2422 34.8555 21.3578C34.5258 21.5406 34.3203 21.8727 34.0414 22.118C34.1414 22.2844 34.2359 22.4547 34.3234 22.6289C35.2953 24.4242 35.5695 26.5758 35.1219 28.5641C34.7828 30.0453 34.0586 31.4391 33.0219 32.5523C31.9734 33.6984 30.6031 34.5414 29.1141 34.9797C27.1625 35.5578 25.0086 35.4133 23.15 34.5852C21.793 33.9898 20.6016 33.0289 19.7148 31.843C18.657 30.4125 18.0414 28.6555 18.007 26.8742C17.9305 24.5156 18.8922 22.1492 20.5797 20.5008C21.3297 19.7594 22.2164 19.1594 23.1812 18.7344C25.4406 17.7227 28.1422 17.7617 30.3703 18.8398C30.6562 18.9852 30.9438 19.1273 31.218 19.293C31.4 19.1008 31.5984 18.9258 31.7828 18.7359C31.8789 18.6281 31.9945 18.5125 31.9969 18.3578C32.0523 17.5727 31.8789 16.7578 32.1492 15.9977C29.675 14.7172 26.7469 14.3422 24.0297 14.9617ZM37.5734 14.8375C37.3 15.0813 36.9961 15.3156 36.8156 15.6398C36.7883 15.918 36.8672 16.1914 36.9039 16.4648C37.1656 16.4945 37.4336 16.5852 37.6969 16.5258C38.0023 16.3172 38.2453 16.0273 38.4922 15.7547C38.7219 15.518 38.7188 15.1094 38.4844 14.8766C38.2547 14.6234 37.825 14.6062 37.5734 14.8375ZM33.6258 16.3617C33.5203 16.4711 33.4086 16.5813 33.3414 16.7203C33.2891 17.0031 33.3219 17.2922 33.3211 17.5781C33.3266 18.3852 33.3289 19.193 33.3336 20.0008C34.3063 20.0023 35.2781 19.9937 36.25 20.0062C36.3953 20.0023 36.5453 20.0086 36.6875 19.9664C36.8922 19.8391 37.0406 19.643 37.2078 19.4734C37.6664 18.9969 38.1383 18.5344 38.5992 18.0617C37.9492 17.943 37.2938 17.8508 36.6445 17.7281C36.2086 17.6531 35.8133 17.3445 35.6719 16.9203C35.5578 16.5781 35.5242 16.2156 35.4609 15.8617C35.4141 15.4758 35.3203 15.0969 35.2633 14.7125C34.7055 15.2508 34.1797 15.8195 33.6258 16.3617ZM21.6016 21.3672C20.807 22.1258 20.1859 23.0648 19.8023 24.0953C19.3047 25.4125 19.2031 26.875 19.5094 28.2492C19.7563 29.375 20.2758 30.4406 21.0109 31.3289C21.9984 32.5312 23.3789 33.4055 24.8906 33.7773C26.357 34.1484 27.9391 34.0453 29.3461 33.4891C31.2617 32.7477 32.8234 31.1578 33.5336 29.2305C34.2125 27.4328 34.1445 25.3641 33.3297 23.6211C33.2445 23.4438 33.143 23.2742 33.0664 23.0922C32.2156 23.9352 31.3742 24.7875 30.5234 25.6305C30.7422 26.4695 30.7055 27.3766 30.3672 28.1789C29.9398 29.2375 29.0367 30.0906 27.9531 30.4516C26.9437 30.8 25.7969 30.7164 24.8484 30.2273C23.8602 29.7266 23.0992 28.7992 22.8117 27.7289C22.4773 26.5508 22.7328 25.2273 23.4766 24.2555C24.225 23.2523 25.4688 22.6398 26.7211 22.6703C27.0523 22.6789 27.3805 22.7359 27.7039 22.8109C28.543 21.9563 29.4 21.1195 30.2398 20.2656C28.9125 19.5328 27.3633 19.2023 25.8539 19.382C24.2695 19.5508 22.7508 20.2648 21.6016 21.3672ZM26.9711 25.4094C26.8297 25.5617 26.675 25.7328 26.6641 25.9516C26.6312 26.3234 26.968 26.6797 27.3438 26.6539C27.575 26.6641 27.7586 26.5016 27.9156 26.3531C29.5789 24.6719 31.2625 23.0109 32.9258 21.3305C32.7281 21.2086 32.5195 21.0945 32.3578 20.9242C32.2094 20.7687 32.1086 20.5773 32.0008 20.393C30.3164 22.057 28.6555 23.7453 26.9711 25.4094ZM25.4672 24.2961C24.5938 24.7242 24.0008 25.6648 24.0023 26.6391C23.9781 27.5445 24.4656 28.4359 25.232 28.9156C26.0867 29.475 27.2664 29.4688 28.1141 28.8984C28.8086 28.457 29.2508 27.6773 29.3133 26.8609C29.0492 27.1023 28.8078 27.3695 28.5289 27.5945C27.9297 28.0672 27.0469 28.1266 26.3828 27.757C25.8086 27.4406 25.3906 26.8367 25.3414 26.1773C25.2883 25.6359 25.4727 25.0758 25.8445 24.6773C26.0469 24.4594 26.2531 24.2445 26.4539 24.0242C26.1156 24.0734 25.7703 24.1266 25.4672 24.2961Z" fill="#373737"/>
<path d="M10.4913 10.0242C10.8811 9.90234 11.3194 10.2203 11.3304 10.6266C11.3288 10.9195 11.1561 11.1719 11.0343 11.4281C10.3265 12.832 9.62723 14.2398 8.92333 15.6461C8.7827 15.9172 8.67411 16.2094 8.48192 16.4492C8.26005 16.7156 7.81864 16.7367 7.56942 16.4977C7.1952 16.168 6.86942 15.7883 6.5038 15.4492C6.27801 15.2187 5.96473 14.9727 6.01395 14.6102C6.03583 14.2148 6.46317 13.9195 6.8413 14.0305C7.26395 14.168 7.45301 14.6281 7.83192 14.8312C7.9577 14.6258 8.05458 14.4047 8.16083 14.1883C8.76864 12.9664 9.38348 11.7484 9.98739 10.525C10.0952 10.3117 10.2397 10.0789 10.4913 10.0242Z" fill="#373737"/>
<path d="M13.1513 11.364C13.4771 11.3023 13.8107 11.3344 14.1404 11.3304C16.6935 11.3297 19.2458 11.3336 21.799 11.3281C22.0474 11.3273 22.3326 11.3515 22.5013 11.5617C22.8021 11.8828 22.6615 12.4804 22.2388 12.6179C21.9161 12.7008 21.5794 12.6617 21.2497 12.6679C18.6716 12.6672 16.0927 12.6648 13.5146 12.6695C13.3716 12.664 13.2263 12.6609 13.0896 12.6172C12.8232 12.5219 12.6466 12.2359 12.6701 11.9562C12.6826 11.6844 12.8826 11.4258 13.1513 11.364Z" fill="#373737"/>
<path d="M13.1552 14.0304C13.3247 13.9945 13.4997 13.9976 13.6724 13.9961C14.6099 14.0039 15.5474 13.9984 16.4849 14C16.8145 14.0039 17.1466 13.975 17.4739 14.0226C17.7559 14.0672 17.9755 14.3281 17.995 14.6093C18.0286 14.9203 17.8083 15.2492 17.4942 15.3039C17.2122 15.3539 16.9247 15.3328 16.6411 15.3343C15.8075 15.3312 14.9739 15.3336 14.1403 15.3336C13.8286 15.3304 13.5145 15.3554 13.2044 15.3117C12.9052 15.2726 12.6739 14.9859 12.67 14.689C12.652 14.3937 12.863 14.0953 13.1552 14.0304Z" fill="#373737"/>
<path d="M10.2747 17.4617C10.5137 17.2836 10.8778 17.2961 11.1012 17.4953C11.2942 17.6578 11.3833 17.9383 11.2997 18.1797C11.2153 18.4422 11.07 18.6797 10.9489 18.9266C10.2716 20.2805 9.59499 21.6352 8.91765 22.9898C8.78718 23.2453 8.68015 23.5164 8.50983 23.7492C8.30124 24.0422 7.83561 24.082 7.57546 23.8359C7.18874 23.4922 6.84968 23.1 6.47077 22.7484C6.27546 22.5453 6.01296 22.3406 6.01218 22.0313C5.98718 21.6789 6.29265 21.3484 6.64577 21.3438C6.83015 21.3281 7.00358 21.4141 7.13718 21.5344C7.37702 21.7453 7.59108 21.982 7.81686 22.207C8.53952 20.7609 9.26686 19.3172 9.98249 17.868C10.0614 17.7211 10.1419 17.5672 10.2747 17.4617Z" fill="#373737"/>
<path d="M10.1546 24.9156C10.307 24.6992 10.6031 24.618 10.8515 24.6922C11.0984 24.7586 11.2937 24.9813 11.3257 25.2352C11.3546 25.4297 11.2695 25.6156 11.1906 25.7875C10.4367 27.2774 9.69526 28.7735 8.94683 30.2664C8.80464 30.5414 8.69214 30.8352 8.50698 31.0859C8.29839 31.3727 7.84058 31.4133 7.5812 31.1727C7.28511 30.9219 7.03355 30.6242 6.75308 30.357C6.54605 30.1461 6.31792 29.9547 6.13745 29.7195C5.92886 29.4563 5.98589 29.0328 6.24917 28.8266C6.46948 28.6352 6.82495 28.6164 7.05542 28.8016C7.33355 29.0203 7.56401 29.2922 7.81714 29.5383C8.46011 28.2531 9.10386 26.9672 9.74526 25.6805C9.87651 25.4234 9.98433 25.1508 10.1546 24.9156Z" fill="#373737"/>
<path d="M12.8488 1.60315C13.2621 1.3805 13.7434 1.31175 14.2074 1.34144C15.1105 1.40706 15.9637 1.968 16.3676 2.7805C16.5207 3.08597 16.5738 3.43284 16.7426 3.73128C16.8574 3.943 17.1199 3.98519 17.3379 3.9969C17.7816 4.01644 18.2254 3.9969 18.6691 3.99769C18.6668 4.88753 18.6676 5.77815 18.6691 6.668C15.5566 6.66644 12.4434 6.66644 9.33086 6.66722C9.33398 5.77737 9.33477 4.88753 9.33008 3.99847C9.83945 3.993 10.3512 4.0344 10.8574 3.97425C11.2824 3.93206 11.5254 3.40784 11.3316 3.04222C11.2277 2.88987 11.0777 2.77737 10.941 2.65706C11.0887 2.36409 11.2652 2.08831 11.4574 1.82347C11.6465 1.88597 11.8309 1.97581 12.0309 1.99925C12.3316 1.93519 12.5777 1.73831 12.8488 1.60315Z" fill="#D4EDF8"/>
<path d="M2.7957 4.74313C3.08164 4.67047 3.3793 4.67203 3.67148 4.67047C5.11055 4.68219 6.54883 4.66578 7.98711 4.67828C8.00664 5.12047 8.00195 5.56344 7.98711 6.00563C6.73164 6.00563 5.47539 6.01031 4.21992 6.00094C3.88945 6.00406 3.53242 6.01891 3.25742 6.22672C2.86523 6.4861 2.64961 6.95328 2.66289 7.41813C2.66367 16.2486 2.66289 25.0798 2.66367 33.9103C2.66055 34.2978 2.78633 34.6994 3.08164 34.9642C3.33867 35.2228 3.70508 35.3298 4.06289 35.3267C7.86523 35.3259 11.6668 35.3259 15.4691 35.3259C15.7816 35.3275 16.0949 35.3017 16.4066 35.3338C16.5848 35.3416 16.7004 35.4955 16.816 35.6111C17.1355 35.9759 17.4926 36.3064 17.8363 36.6478C17.152 36.6838 16.4668 36.6619 15.7824 36.6673C11.6934 36.6681 7.60508 36.6642 3.51602 36.6689C3.11367 36.6666 2.6957 36.6158 2.34414 36.4041C1.70898 36.0517 1.31602 35.3345 1.33242 34.6119C1.32852 25.3408 1.33398 16.0681 1.33008 6.79625C1.33555 6.54313 1.35508 6.2861 1.43555 6.04391C1.63477 5.41969 2.16445 4.915 2.7957 4.74313Z" fill="#936155"/>
<path d="M20.0031 4.67892C21.3297 4.66564 22.657 4.6797 23.9844 4.67267C24.2977 4.67111 24.6133 4.66017 24.9258 4.69298C25.8 4.77345 26.5539 5.53127 26.6406 6.40314C26.6789 6.74142 26.6688 7.08205 26.668 7.42189C26.6547 9.39298 26.6867 11.3649 26.6524 13.3352C26.2102 13.3633 25.7672 13.3586 25.325 13.3797C25.3266 11.3938 25.325 9.40783 25.3274 7.42189C25.3344 7.02502 25.2086 6.61173 24.8992 6.34689C24.618 6.06798 24.2086 5.99611 23.8281 6.00158C22.5539 6.00939 21.2797 6.0047 20.0063 6.00705C19.9977 5.56408 19.9945 5.12189 20.0031 4.67892Z" fill="#936155"/>
<path d="M37.574 14.8375C37.8256 14.6063 38.2553 14.6235 38.4849 14.8766C38.7193 15.1094 38.7224 15.518 38.4928 15.7547C38.2459 16.0274 38.0029 16.3172 37.6974 16.5258C37.4342 16.5852 37.1662 16.4946 36.9045 16.4649C36.8678 16.1914 36.7888 15.918 36.8162 15.6399C36.9967 15.3157 37.3006 15.0813 37.574 14.8375Z" fill="#936155"/>
<path d="M26.9714 25.4094C28.6557 23.7453 30.3167 22.0571 32.001 20.393C32.1089 20.5774 32.2096 20.7688 32.3581 20.9243C32.5198 21.0946 32.7284 21.2086 32.926 21.3305C31.2628 23.011 29.5792 24.6719 27.9159 26.3532C27.7589 26.5016 27.5753 26.6641 27.344 26.6539C26.9682 26.6797 26.6315 26.3235 26.6643 25.9516C26.6753 25.7328 26.83 25.5618 26.9714 25.4094Z" fill="#936155"/>
<path d="M3.99883 7.33203C5.38789 7.33672 6.77773 7.32813 8.16758 7.33672C8.32773 7.52891 8.49258 7.72969 8.71914 7.84609C8.94258 7.97031 9.20273 7.99531 9.45352 8.00156C12.4738 7.99922 15.4941 7.99844 18.5145 8.00234C18.7691 7.99688 19.034 7.97656 19.2629 7.85625C19.4973 7.73672 19.6723 7.53359 19.8371 7.33437C21.2246 7.33125 22.6121 7.33516 23.9996 7.33203C23.9996 9.42187 23.9988 11.5109 24.0004 13.6C20.841 14.2461 17.948 16.0844 16.023 18.6711C15.2652 18.6633 14.5074 18.675 13.7496 18.6648C13.548 18.6656 13.3441 18.6586 13.1457 18.7C12.852 18.7687 12.6457 19.0742 12.6699 19.3719C12.6801 19.6883 12.9504 19.9766 13.2707 19.9875C13.891 20.0234 14.5137 19.9867 15.1348 20.0016C14.891 20.4359 14.6598 20.8773 14.4574 21.3328C14.0645 21.3336 13.6699 21.3125 13.277 21.343C12.9801 21.3539 12.7191 21.5961 12.6777 21.8891C12.6168 22.207 12.8262 22.5586 13.1457 22.6328C13.4082 22.6867 13.6785 22.668 13.9449 22.6695C13.6184 23.7391 13.4254 24.8477 13.3652 25.9641C13.1738 26.0383 12.9434 26.0734 12.8137 26.2492C12.5902 26.5164 12.6301 26.9586 12.9043 27.1758C13.0441 27.2719 13.2105 27.3164 13.3676 27.3773C13.3988 27.7977 13.434 28.2195 13.498 28.6367C13.3441 28.668 13.1871 28.6875 13.0379 28.7383C12.8012 28.8461 12.6504 29.1117 12.6691 29.3711C12.6801 29.6602 12.9066 29.9367 13.1988 29.9773C13.3887 30.0078 13.5824 30.0016 13.7738 30.007C14.1355 31.4227 14.7426 32.7711 15.5363 33.9969C11.6902 34.0047 7.84414 33.9961 3.99805 34.0008C4.00039 25.1117 4.00039 16.2219 3.99883 7.33203ZM10.491 10.0242C10.2395 10.0789 10.0949 10.3117 9.98711 10.525C9.3832 11.7484 8.76836 12.9664 8.16055 14.1883C8.0543 14.4047 7.95742 14.6258 7.83164 14.8312C7.45273 14.6281 7.26367 14.168 6.84102 14.0305C6.46289 13.9195 6.03555 14.2148 6.01367 14.6102C5.96445 14.9727 6.27773 15.2187 6.50352 15.4492C6.86914 15.7883 7.19492 16.168 7.56914 16.4977C7.81836 16.7367 8.25977 16.7156 8.48164 16.4492C8.67383 16.2094 8.78242 15.9172 8.92305 15.6461C9.62695 14.2398 10.3262 12.832 11.034 11.4281C11.1559 11.1719 11.3285 10.9195 11.3301 10.6266C11.3191 10.2203 10.8809 9.90234 10.491 10.0242ZM13.1512 11.3641C12.8824 11.4258 12.6824 11.6844 12.6699 11.9562C12.6465 12.2359 12.823 12.5219 13.0895 12.6172C13.2262 12.6609 13.3715 12.6641 13.5145 12.6695C16.0926 12.6648 18.6715 12.6672 21.2496 12.668C21.5793 12.6617 21.916 12.7008 22.2387 12.618C22.6613 12.4805 22.802 11.8828 22.5012 11.5617C22.3324 11.3516 22.0473 11.3273 21.7988 11.3281C19.2457 11.3336 16.6934 11.3297 14.1402 11.3305C13.8105 11.3344 13.477 11.3023 13.1512 11.3641ZM13.1543 14.0305C12.8621 14.0953 12.6512 14.3937 12.6691 14.6891C12.673 14.9859 12.9043 15.2727 13.2035 15.3117C13.5137 15.3555 13.8277 15.3305 14.1395 15.3336C14.973 15.3336 15.8066 15.3312 16.6402 15.3344C16.9238 15.3328 17.2113 15.3539 17.4934 15.3039C17.8074 15.2492 18.0277 14.9203 17.9941 14.6094C17.9746 14.3281 17.7551 14.0672 17.473 14.0227C17.1457 13.975 16.8137 14.0039 16.484 14C15.5465 13.9984 14.609 14.0039 13.6715 13.9961C13.4988 13.9977 13.3238 13.9945 13.1543 14.0305ZM10.2738 17.4617C10.141 17.5672 10.0605 17.7211 9.98164 17.868C9.26602 19.3172 8.53867 20.7609 7.81602 22.207C7.59023 21.982 7.37617 21.7453 7.13633 21.5344C7.00273 21.4141 6.8293 21.3281 6.64492 21.3437C6.2918 21.3484 5.98633 21.6789 6.01133 22.0312C6.01211 22.3406 6.27461 22.5453 6.46992 22.7484C6.84883 23.1 7.18789 23.4922 7.57461 23.8359C7.83477 24.082 8.30039 24.0422 8.50898 23.7492C8.6793 23.5164 8.78633 23.2453 8.9168 22.9898C9.59414 21.6352 10.2707 20.2805 10.948 18.9266C11.0691 18.6797 11.2145 18.4422 11.2988 18.1797C11.3824 17.9383 11.2934 17.6578 11.1004 17.4953C10.877 17.2961 10.5129 17.2836 10.2738 17.4617ZM10.1543 24.9156C9.98398 25.1508 9.87617 25.4234 9.74492 25.6805C9.10352 26.9672 8.45977 28.2531 7.8168 29.5383C7.56367 29.2922 7.3332 29.0203 7.05508 28.8016C6.82461 28.6164 6.46914 28.6352 6.24883 28.8266C5.98555 29.0328 5.92852 29.4562 6.13711 29.7195C6.31758 29.9547 6.5457 30.1461 6.75273 30.357C7.0332 30.6242 7.28477 30.9219 7.58086 31.1727C7.84023 31.4133 8.29805 31.3727 8.50664 31.0859C8.6918 30.8352 8.8043 30.5414 8.94648 30.2664C9.69492 28.7734 10.4363 27.2773 11.1902 25.7875C11.2691 25.6156 11.3543 25.4297 11.3254 25.2352C11.2934 24.9812 11.098 24.7586 10.8512 24.6922C10.6027 24.618 10.3066 24.6992 10.1543 24.9156Z" fill="white"/>
<path d="M24.0292 14.9617C26.7464 14.3422 29.6745 14.7172 32.1488 15.9976C31.8784 16.7578 32.0519 17.5726 31.9964 18.3578C31.9941 18.5125 31.8784 18.6281 31.7823 18.7359C31.598 18.9258 31.3995 19.1008 31.2175 19.2929C30.9433 19.1273 30.6558 18.9851 30.3698 18.8398C28.1417 17.7617 25.4402 17.7226 23.1808 18.7343C22.2159 19.1593 21.3292 19.7593 20.5792 20.5008C18.8917 22.1492 17.93 24.5156 18.0066 26.8742C18.0409 28.6554 18.6566 30.4125 19.7144 31.8429C20.6011 33.0289 21.7925 33.9898 23.1495 34.5851C25.0081 35.4133 27.162 35.5578 29.1136 34.9797C30.6027 34.5414 31.973 33.6984 33.0214 32.5523C34.0581 31.439 34.7823 30.0453 35.1214 28.564C35.5691 26.5758 35.2948 24.4242 34.323 22.6289C34.2355 22.4547 34.1409 22.2843 34.0409 22.1179C34.3198 21.8726 34.5253 21.5406 34.855 21.3578C35.6777 21.2422 36.5394 21.4742 37.3409 21.1867C38.0409 22.5429 38.4761 24.0343 38.6152 25.5547C38.8855 28.3328 38.1331 31.1961 36.5378 33.4867C35.055 35.6461 32.8402 37.2929 30.3441 38.0859C28.3253 38.7461 26.1292 38.8414 24.0581 38.375C21.5441 37.8258 19.2269 36.4312 17.5566 34.475C16.0433 32.7148 15.0597 30.5078 14.7652 28.2047C14.3722 25.2375 15.1472 22.1359 16.8933 19.7039C18.5839 17.3187 21.1745 15.5937 24.0292 14.9617Z" fill="#E5656B"/>
<path d="M25.4667 24.296C25.7698 24.1265 26.1151 24.0734 26.4534 24.0242C26.2526 24.2445 26.0464 24.4593 25.844 24.6773C25.4722 25.0757 25.2878 25.6359 25.3409 26.1773C25.3901 26.8367 25.8081 27.4406 26.3823 27.757C27.0464 28.1265 27.9292 28.0671 28.5284 27.5945C28.8073 27.3695 29.0487 27.1023 29.3128 26.8609C29.2503 27.6773 28.8081 28.457 28.1136 28.8984C27.2659 29.4687 26.0862 29.475 25.2315 28.9156C24.4651 28.4359 23.9776 27.5445 24.0018 26.639C24.0003 25.6648 24.5932 24.7242 25.4667 24.296Z" fill="#E5656B"/>
<path d="M33.6257 16.3617C34.1796 15.8196 34.7053 15.2508 35.2632 14.7125C35.3202 15.0969 35.4139 15.4758 35.4608 15.8617C35.5241 16.2156 35.5577 16.5781 35.6717 16.9203C35.8132 17.3446 36.2085 17.6531 36.6444 17.7281C37.2936 17.8508 37.9491 17.943 38.5991 18.0617C38.1382 18.5344 37.6663 18.9969 37.2077 19.4735C37.0405 19.643 36.8921 19.8391 36.6874 19.9664C36.5452 20.0086 36.3952 20.0024 36.2499 20.0063C35.278 19.9938 34.3061 20.0024 33.3335 20.0008C33.3288 19.193 33.3264 18.3852 33.321 17.5781C33.3217 17.2922 33.2889 17.0031 33.3413 16.7203C33.4085 16.5813 33.5202 16.4711 33.6257 16.3617Z" fill="#F2BE3A"/>
<path d="M21.6012 21.3672C22.7505 20.2649 24.2692 19.5508 25.8536 19.3821C27.363 19.2024 28.9122 19.5328 30.2395 20.2657C29.3997 21.1196 28.5426 21.9563 27.7036 22.811C27.3801 22.736 27.052 22.6789 26.7208 22.6703C25.4684 22.6399 24.2247 23.2524 23.4762 24.2555C22.7325 25.2274 22.477 26.5508 22.8114 27.7289C23.0989 28.7992 23.8598 29.7266 24.8481 30.2274C25.7965 30.7164 26.9434 30.8 27.9528 30.4516C29.0364 30.0907 29.9395 29.2375 30.3669 28.1789C30.7051 27.3766 30.7419 26.4696 30.5231 25.6305C31.3739 24.7875 32.2153 23.9352 33.0661 23.0922C33.1426 23.2742 33.2442 23.4438 33.3294 23.6211C34.1442 25.3641 34.2122 27.4328 33.5333 29.2305C32.8231 31.1578 31.2614 32.7477 29.3458 33.4891C27.9387 34.0453 26.3567 34.1485 24.8903 33.7774C23.3786 33.4055 21.9981 32.5313 21.0106 31.3289C20.2755 30.4407 19.7559 29.375 19.509 28.2492C19.2028 26.875 19.3044 25.4125 19.802 24.0953C20.1856 23.0649 20.8067 22.1258 21.6012 21.3672Z" fill="#E9F5F9"/>
</g>
<defs>
<clipPath id="clip0_334_2640">
<rect width="40" height="40" fill="white"/>
</clipPath>
</defs>
</svg>
