<svg width="20" height="20" viewBox="0 0 20 20" fill="none" xmlns="http://www.w3.org/2000/svg">
<path d="M15.8333 2.5C16.2754 2.5 16.6993 2.67559 17.0118 2.98816C17.3244 3.30072 17.5 3.72464 17.5 4.16667V15.8333C17.5 16.2754 17.3244 16.6993 17.0118 17.0118C16.6993 17.3244 16.2754 17.5 15.8333 17.5H4.16667C3.72464 17.5 3.30072 17.3244 2.98816 17.0118C2.67559 16.6993 2.5 16.2754 2.5 15.8333V4.16667C2.5 3.72464 2.67559 3.30072 2.98816 2.98816C3.30072 2.67559 3.72464 2.5 4.16667 2.5H15.8333ZM15.8333 4.16667H4.16667V15.8333H15.8333V4.16667ZM10.0308 6.44083C10.2567 5.7175 11.2308 5.64917 11.5725 6.2875L11.6158 6.37917L13.0642 10H14.1667C14.3791 10.0002 14.5834 10.0816 14.7378 10.2274C14.8923 10.3732 14.9852 10.5725 14.9976 10.7845C15.0101 10.9965 14.9411 11.2053 14.8048 11.3682C14.6685 11.5311 14.4751 11.6357 14.2642 11.6608L14.1667 11.6667H12.5058C12.3549 11.6668 12.2068 11.6263 12.0769 11.5494C11.947 11.4726 11.8401 11.3623 11.7675 11.23L11.7242 11.1383L10.93 9.15167L9.55167 13.5625C9.33583 14.2525 8.4225 14.3567 8.04583 13.775L7.99583 13.6875L6.98417 11.6667H5.83333C5.62093 11.6664 5.41664 11.5851 5.26219 11.4393C5.10775 11.2935 5.0148 11.0942 5.00236 10.8822C4.98991 10.6701 5.0589 10.4614 5.19522 10.2985C5.33155 10.1356 5.52492 10.0309 5.73583 10.0058L5.83333 10H7.495C7.77833 10 8.04 10.1417 8.195 10.3742L8.2475 10.4658L8.57083 11.1125L10.0308 6.44083Z" fill="#333333"/>
</svg>
