<svg width="40" height="40" viewBox="0 0 40 40" fill="none" xmlns="http://www.w3.org/2000/svg">
<path d="M7.53275 1.29997C8.75384 1.09294 10.0593 1.54841 10.8874 2.4695C11.6968 3.34216 12.0476 4.61482 11.789 5.7781C11.5413 6.98669 10.6515 8.03904 9.5015 8.48513C8.46478 8.9031 7.24212 8.81482 6.27494 8.25622C5.35462 7.73747 4.67337 6.81404 4.46009 5.77888C4.22415 4.707 4.49837 3.5406 5.18119 2.68279C5.75775 1.95154 6.61087 1.44372 7.53275 1.29997ZM7.68587 2.53982C6.94212 2.66716 6.27494 3.15622 5.92103 3.82107C5.60697 4.40544 5.53822 5.11638 5.74134 5.74841C5.99447 6.58279 6.72025 7.25075 7.57259 7.43513C8.39212 7.632 9.29994 7.3656 9.89056 6.7656C10.4906 6.17497 10.757 5.26794 10.5601 4.44763C10.4117 3.76794 9.95931 3.1656 9.3554 2.82419C8.85306 2.54216 8.25306 2.43591 7.68587 2.53982Z" fill="#455A64"/>
<path d="M20.7263 2.28748C20.9317 1.96717 21.4419 1.92264 21.6997 2.20154C21.8513 2.36873 21.9685 2.56326 22.0997 2.74608C23.8411 5.22264 25.581 7.6992 27.3239 10.175C27.4153 10.3078 27.502 10.457 27.4958 10.625C27.5091 10.9562 27.2099 11.2492 26.8825 11.2469C26.2552 11.2594 25.6286 11.2422 25.0013 11.2515C24.9981 19.2195 24.9997 27.1883 25.0005 35.1562C24.988 35.4461 25.0591 35.7844 24.8528 36.025C24.6333 36.3023 24.177 36.3242 23.9341 36.0656C23.713 35.8594 23.7489 35.532 23.7372 35.2578C23.756 34.8078 23.7489 34.357 23.7497 33.9062C23.7489 26.4586 23.7505 19.0101 23.7489 11.5625C23.7552 11.2015 23.72 10.8383 23.7755 10.4797C23.8185 10.2297 24.045 10.0336 24.2958 10.0148C24.7466 9.97264 25.1997 10.0172 25.6513 9.99451C25.4622 9.68592 25.2474 9.39373 25.0388 9.0992C24.0169 7.64764 22.9974 6.19451 21.9755 4.74295C21.7356 4.40545 21.5106 4.05623 21.2497 3.73358C21.0364 3.9992 20.8458 4.28123 20.652 4.56092C19.5997 6.05936 18.5458 7.55623 17.4935 9.05389C17.2747 9.36482 17.0474 9.66951 16.8489 9.99373C17.3224 10.0219 17.7989 9.9617 18.27 10.0258C18.5817 10.0758 18.7645 10.3969 18.7481 10.6953C18.752 19.5515 18.7474 28.4094 18.7505 37.2656C18.7458 37.6 18.7763 37.9383 18.7239 38.2711C18.688 38.5078 18.4692 38.6445 18.2778 38.7539C17.8677 38.8219 17.4505 38.4812 17.4997 38.0539C17.4981 29.1195 17.502 20.1859 17.4981 11.2515C16.8708 11.2422 16.2442 11.2594 15.6177 11.2469C15.2888 11.25 14.9903 10.9555 15.0013 10.625C14.9989 10.3765 15.1739 10.1836 15.3044 9.99061C17.1153 7.42576 18.9145 4.85154 20.7263 2.28748Z" fill="#455A64"/>
<path d="M2.1624 11.3039C2.8624 10.4867 3.92256 9.99766 4.99912 10.0016C6.84834 9.99844 8.69756 10 10.5476 10.0008C11.3655 9.99141 12.1858 10.2078 12.8858 10.6336C13.8476 11.2141 14.571 12.1766 14.853 13.2648C15.0647 14.0352 14.9851 14.8406 14.9999 15.6289C15.0093 16.7125 14.3976 17.7648 13.464 18.3102C13.1671 18.4906 12.8351 18.6 12.5015 18.6906C12.4983 25.0125 12.4999 31.3344 12.5007 37.6563C12.4905 37.9609 12.5632 38.3305 12.3155 38.5656C12.1483 38.7477 11.889 38.7563 11.6601 38.7555C11.5108 38.6148 11.3108 38.4883 11.2733 38.2711C11.2233 37.9383 11.2546 37.6008 11.2491 37.2656C11.2507 31.4328 11.2491 25.5992 11.2499 19.7656C11.253 19.4289 11.2538 19.0922 11.2444 18.7563C9.81084 18.7383 8.37803 18.7586 6.94521 18.7492C6.68506 18.7594 6.41474 18.6336 6.30771 18.3867C6.13271 18.0508 6.35693 17.5906 6.72959 17.5234C6.98428 17.4813 7.24365 17.4992 7.50068 17.4977C8.85459 17.5039 10.2077 17.4953 11.5616 17.5031C11.8671 17.5023 12.1804 17.5 12.4718 17.3984C13.0171 17.2164 13.4679 16.7711 13.6483 16.2242C13.7749 15.8563 13.7491 15.4602 13.7522 15.0773C13.7476 14.5891 13.7772 14.0914 13.653 13.6133C13.3897 12.5188 12.4812 11.6102 11.3866 11.3461C10.9085 11.2219 10.4108 11.2516 9.92178 11.2492C8.48974 11.25 7.05771 11.2508 5.6249 11.2492C5.16709 11.25 4.69599 11.2211 4.25381 11.3648C3.36084 11.6367 2.65849 12.4484 2.53115 13.375C2.4749 13.8102 2.50615 14.25 2.4999 14.6875C2.50459 15.0766 2.47959 15.4672 2.51787 15.8555C2.59287 16.5547 3.10693 17.1813 3.77568 17.3977C4.03662 17.4844 4.31553 17.4813 4.58115 17.5461C4.80537 17.6031 4.96631 17.8203 4.98584 18.0461C5.01865 18.3578 4.99756 18.6719 5.00068 18.9844C4.9999 20.6773 4.99912 22.3711 5.00146 24.0648C5.00459 24.5063 4.89599 24.9367 4.82021 25.3688C4.08974 29.4016 3.35849 33.4344 2.62959 37.4672C2.5749 37.7539 2.54599 38.0477 2.45693 38.3273C2.39834 38.5141 2.22724 38.6273 2.09131 38.7555C1.87881 38.7523 1.64131 38.7555 1.47412 38.6031C1.27646 38.4461 1.21552 38.1734 1.27334 37.9352C2.09365 33.4367 2.90849 28.9367 3.72881 24.4391C3.76318 24.2367 3.76318 24.032 3.76084 23.8281C3.74756 22.1164 3.75693 20.4039 3.74834 18.6922C2.44834 18.4273 1.38271 17.2758 1.26865 15.9461C1.22724 15.2414 1.26006 14.5344 1.2499 13.8281C1.23584 12.9125 1.55927 11.9945 2.1624 11.3039Z" fill="#455A64"/>
<path d="M4.24423 13.5367C4.49658 13.4765 4.78017 13.6054 4.9083 13.8296C5.03408 14.0851 4.97392 14.4328 5.22236 14.6226C5.38798 14.7843 5.6333 14.7812 5.84658 14.7453C7.33486 14.4968 8.82392 14.246 10.3138 14.0023C11.0716 13.864 11.8864 14.2507 12.2552 14.9265C12.4989 15.3492 12.5349 15.8539 12.4888 16.3304C12.4622 16.6328 12.1763 16.8796 11.8747 16.8749C11.5974 16.8773 11.3278 16.671 11.2708 16.3976C11.2302 16.1507 11.2739 15.8953 11.2161 15.6507C11.1489 15.4546 10.9755 15.2929 10.7731 15.2453C10.6091 15.2187 10.4427 15.2492 10.2802 15.2734C8.8747 15.5148 7.46689 15.7406 6.06064 15.9804C5.65439 16.0499 5.22002 16.0351 4.84423 15.8515C4.18408 15.5624 3.73798 14.8578 3.75127 14.139C3.75048 13.8546 3.96845 13.5953 4.24423 13.5367Z" fill="#455A64"/>
<path d="M31.9763 14.7883C32.181 14.4672 32.6919 14.4226 32.9497 14.7015C33.1013 14.8687 33.2185 15.0633 33.3497 15.2461C35.0911 17.7226 36.8317 20.2 38.5739 22.675C38.6653 22.8078 38.7513 22.957 38.7458 23.1242C38.7599 23.4554 38.4599 23.7492 38.1317 23.7468C37.5052 23.7593 36.8778 23.7422 36.2513 23.7515C36.2481 27.5789 36.2489 31.4062 36.2513 35.2336C36.2435 35.4992 36.2942 35.8078 36.102 36.025C35.8833 36.3023 35.4263 36.3234 35.1841 36.0656C34.963 35.8586 34.9989 35.532 34.988 35.2578C35.0052 34.8336 34.9997 34.4086 34.9997 33.9844C34.9989 30.6508 35.0013 27.3179 34.9989 23.9843C35.0028 23.6492 34.9724 23.3117 35.0255 22.9797C35.0685 22.7297 35.295 22.5328 35.5466 22.5148C35.9966 22.4726 36.4497 22.5172 36.9013 22.4945C36.7122 22.1859 36.4974 21.8937 36.2888 21.5992C35.2669 20.1476 34.2474 18.6945 33.2255 17.2437C32.9856 16.9054 32.7606 16.5562 32.4997 16.2336C32.2864 16.4992 32.0958 16.7812 31.9021 17.0609C30.8497 18.5586 29.7958 20.0562 28.7435 21.5539C28.5247 21.8648 28.2974 22.1695 28.0989 22.4937C28.5724 22.5219 29.0489 22.4617 29.52 22.5258C29.8317 22.5758 30.0146 22.8968 29.9981 23.1953C30.0028 27.8851 29.9974 32.5758 30.0005 37.2656C29.9958 37.6 30.0263 37.9383 29.9739 38.2703C29.938 38.5078 29.7192 38.6445 29.5278 38.7539C29.1528 38.8117 28.7419 38.5328 28.7536 38.1328C28.7435 33.339 28.7544 28.5453 28.7481 23.7515C28.1208 23.7422 27.4942 23.7593 26.8677 23.7468C26.538 23.75 26.2403 23.4554 26.2513 23.1242C26.2489 22.8765 26.4239 22.6836 26.5552 22.4906C28.3653 19.9258 30.1645 17.3523 31.9763 14.7883Z" fill="#455A64"/>
<path d="M7.81049 23.2086C8.1269 23.0055 8.60424 23.182 8.70737 23.5445C8.7933 23.8914 8.7894 24.2531 8.8269 24.6078C9.1933 28.8258 9.55971 33.0429 9.9269 37.2609C9.95033 37.575 10.0042 37.8883 9.98705 38.2039C9.97846 38.4523 9.75658 38.6023 9.59096 38.7555C9.37924 38.7523 9.14252 38.7547 8.97533 38.6015C8.80346 38.4719 8.7519 38.2531 8.74018 38.05C8.45893 34.7953 8.17455 31.5406 7.89252 28.2851C7.86908 28.0133 7.85112 27.7414 7.81205 27.4711C7.7308 27.7211 7.66518 27.9765 7.60112 28.2312C6.75268 31.4937 5.89487 34.7531 5.05033 38.0164C4.9894 38.239 4.94096 38.5 4.73158 38.6359C4.56752 38.7601 4.35346 38.75 4.15815 38.7555C4.03393 38.6398 3.8894 38.5375 3.80737 38.3851C3.71752 38.2219 3.76283 38.0297 3.79799 37.8586C5.0269 33.1492 6.25893 28.4406 7.48237 23.7304C7.53862 23.5312 7.61987 23.3148 7.81049 23.2086Z" fill="#455A64"/>
<path d="M24.1679 37.5367C24.4788 37.4156 24.8601 37.6015 24.9624 37.9179C25.0843 38.2289 24.8976 38.6093 24.5819 38.7125C24.271 38.8343 23.8898 38.6476 23.7866 38.332C23.6648 38.0203 23.8515 37.639 24.1679 37.5367Z" fill="#455A64"/>
<path d="M35.4179 37.5367C35.7288 37.4156 36.1101 37.6015 36.2124 37.9179C36.3343 38.2289 36.1468 38.6101 35.8319 38.7125C35.5202 38.8343 35.1398 38.6468 35.0366 38.332C34.9148 38.0203 35.1015 37.639 35.4179 37.5367Z" fill="#455A64"/>
<path d="M7.68575 2.53986C8.25294 2.43595 8.85294 2.5422 9.35528 2.82423C9.95919 3.16564 10.4115 3.76798 10.56 4.44767C10.7568 5.26798 10.4904 6.17502 9.89044 6.76564C9.29981 7.36564 8.392 7.63205 7.57247 7.43517C6.72013 7.2508 5.99435 6.58283 5.74122 5.74845C5.5381 5.11642 5.60685 4.40548 5.92091 3.82111C6.27481 3.15627 6.942 2.6672 7.68575 2.53986Z" fill="#FFE0B2"/>
<path d="M20.6527 4.56093C20.8465 4.28124 21.0371 3.99921 21.2504 3.73358C21.5113 4.05624 21.7363 4.40546 21.9762 4.74296C22.998 6.19452 24.0176 7.64764 25.0395 9.09921C25.248 9.39374 25.4629 9.68593 25.652 9.99452C25.2004 10.0172 24.7473 9.97264 24.2965 10.0148C24.0457 10.0336 23.8191 10.2297 23.7762 10.4797C23.7207 10.8383 23.7559 11.2016 23.7496 11.5625C23.7512 19.0101 23.7496 26.4586 23.7504 33.9062C23.7496 34.357 23.7566 34.8078 23.7379 35.2578C22.9918 36.7656 21.6254 37.9578 20.0152 38.457C19.4535 38.6383 18.8668 38.7242 18.2785 38.7539C18.4699 38.6445 18.6887 38.5078 18.7246 38.2711C18.777 37.9383 18.7465 37.6 18.7512 37.2656C18.748 28.4094 18.7527 19.5515 18.7488 10.6953C18.7652 10.3969 18.5824 10.0758 18.2707 10.0258C17.7996 9.96171 17.323 10.0219 16.8496 9.99374C17.048 9.66952 17.2754 9.36483 17.4941 9.05389C18.5465 7.55624 19.6004 6.05936 20.6527 4.56093Z" fill="#1DE9B6"/>
<path d="M31.9027 17.0609C32.0965 16.7812 32.2871 16.4992 32.5004 16.2336C32.7613 16.5562 32.9863 16.9055 33.2262 17.2437C34.248 18.6945 35.2676 20.1476 36.2895 21.5992C36.498 21.8937 36.7129 22.1859 36.902 22.4945C36.4504 22.5172 35.9973 22.4726 35.5473 22.5148C35.2957 22.5328 35.0691 22.7297 35.0262 22.9797C34.973 23.3117 35.0035 23.6492 34.9996 23.9844C35.002 27.318 34.9996 30.6508 35.0004 33.9844C35.0004 34.4086 35.0059 34.8336 34.9887 35.2578C34.2418 36.7656 32.8746 37.9578 31.2652 38.457C30.7035 38.6383 30.116 38.7242 29.5285 38.7539C29.7199 38.6445 29.9387 38.5078 29.9746 38.2703C30.027 37.9383 29.9965 37.6 30.0012 37.2656C29.998 32.5758 30.0035 27.8851 29.9988 23.1953C30.0152 22.8969 29.8324 22.5758 29.5207 22.5258C29.0496 22.4617 28.573 22.5219 28.0996 22.4937C28.298 22.1695 28.5254 21.8648 28.7441 21.5539C29.7965 20.0562 30.8504 18.5586 31.9027 17.0609Z" fill="#1DE9B6"/>
<path d="M4.2543 11.3648C4.69648 11.2211 5.16758 11.25 5.62539 11.2492C7.0582 11.2508 8.49023 11.25 9.92227 11.2492C10.4113 11.2515 10.909 11.2219 11.3871 11.3461C12.4816 11.6101 13.3902 12.5187 13.6535 13.6133C13.7777 14.0914 13.748 14.589 13.7527 15.0773C13.7496 15.4601 13.7754 15.8562 13.6488 16.2242C13.4684 16.7711 13.0176 17.2164 12.4723 17.3984C12.1809 17.5 11.8676 17.5023 11.5621 17.5031C10.2082 17.4953 8.85508 17.5039 7.50117 17.4976C7.24414 17.4992 6.98477 17.4812 6.73008 17.5234C6.35742 17.5906 6.1332 18.0508 6.3082 18.3867C6.41523 18.6336 6.68555 18.7594 6.9457 18.7492C8.37852 18.7586 9.81133 18.7383 11.2449 18.7562C11.2543 19.0922 11.2535 19.4289 11.2504 19.7656C11.2496 25.5992 11.2512 31.4328 11.2496 37.2656C11.2551 37.6008 11.2238 37.9383 11.2738 38.2711C11.3113 38.4883 11.5113 38.6148 11.6605 38.7554C10.9707 38.7461 10.2816 38.7461 9.5918 38.7554C9.75742 38.6023 9.9793 38.4523 9.98789 38.2039C10.0051 37.8883 9.95117 37.575 9.92773 37.2609C9.56055 33.0429 9.19414 28.8258 8.82773 24.6078C8.79023 24.2531 8.79414 23.8914 8.7082 23.5445C8.60508 23.182 8.12774 23.0054 7.81133 23.2086C7.6207 23.3148 7.53945 23.5312 7.4832 23.7304C6.25977 28.4406 5.02773 33.1492 3.79883 37.8586C3.76367 38.0297 3.71836 38.2219 3.8082 38.3851C3.89023 38.5375 4.03477 38.6398 4.15898 38.7554C3.46992 38.7469 2.78086 38.7461 2.0918 38.7554C2.22773 38.6273 2.39883 38.514 2.45742 38.3273C2.54648 38.0476 2.57539 37.7539 2.63008 37.4672C3.35898 33.4344 4.09023 29.4015 4.8207 25.3687C4.89648 24.9367 5.00508 24.5062 5.00195 24.0648C4.99961 22.3711 5.00039 20.6773 5.00117 18.9844C4.99805 18.6719 5.01914 18.3578 4.98633 18.0461C4.9668 17.8203 4.80586 17.6031 4.58164 17.5461C4.31602 17.4812 4.03711 17.4844 3.77617 17.3976C3.10742 17.1812 2.59336 16.5547 2.51836 15.8554C2.48008 15.4672 2.50508 15.0765 2.50039 14.6875C2.50664 14.25 2.47539 13.8101 2.53164 13.375C2.65898 12.4484 3.36133 11.6367 4.2543 11.3648ZM4.24492 13.5367C3.96914 13.5953 3.75117 13.8547 3.75195 14.139C3.73867 14.8578 4.18477 15.5625 4.84492 15.8515C5.2207 16.0351 5.65508 16.05 6.06133 15.9804C7.46758 15.7406 8.87539 15.5148 10.2809 15.2734C10.4434 15.2492 10.6098 15.2187 10.7738 15.2453C10.9762 15.2929 11.1496 15.4547 11.2168 15.6508C11.2746 15.8953 11.2309 16.1508 11.2715 16.3976C11.3285 16.6711 11.598 16.8773 11.8754 16.875C12.177 16.8797 12.4629 16.6328 12.4895 16.3304C12.5355 15.8539 12.4996 15.3492 12.2559 14.9265C11.8871 14.2508 11.0723 13.864 10.3145 14.0023C8.82461 14.2461 7.33555 14.4969 5.84727 14.7453C5.63398 14.7812 5.38867 14.7844 5.22305 14.6226C4.97461 14.4328 5.03477 14.0851 4.90898 13.8297C4.78086 13.6054 4.49727 13.4765 4.24492 13.5367Z" fill="#FF8A80"/>
</svg>
