<svg width="80" height="80" viewBox="0 0 80 80" fill="none" xmlns="http://www.w3.org/2000/svg">
<path d="M1.33485 4.06562C1.26297 2.59375 2.59579 1.2625 4.0661 1.33437C27.7114 1.33125 51.3552 1.33437 75.0005 1.33281C75.7192 1.34375 76.4848 1.25156 77.1473 1.59687C78.0786 2.02969 78.6973 3.0375 78.6661 4.06406C78.663 22.7078 78.677 41.3531 78.6599 59.9953C52.8864 60.0031 27.1145 60 1.34266 59.9969C1.32235 41.3531 1.33797 22.7094 1.33485 4.06562ZM7.5536 6.77344C7.09579 6.90625 6.75672 7.34219 6.72079 7.81562C6.64422 8.48906 6.69579 9.16719 6.68954 9.84375C6.68954 23.6984 6.68954 37.5531 6.68954 51.4062C6.69735 52.1188 6.63329 52.8375 6.75672 53.5437C6.84579 54.025 7.15829 54.55 7.68329 54.6281C8.34735 54.7219 9.02079 54.6625 9.68797 54.6703C29.8973 54.6688 50.1052 54.6703 70.313 54.6703C70.9817 54.6609 71.6536 54.7219 72.3192 54.6281C72.8411 54.5484 73.1536 54.025 73.2427 53.5437C73.3723 52.7859 73.3005 52.0141 73.3098 51.25C73.3145 36.9266 73.3052 22.6031 73.3145 8.27969C73.302 7.85469 73.2661 7.375 72.9333 7.06719C72.6255 6.73437 72.1458 6.69844 71.7223 6.68594C50.5755 6.69219 29.427 6.69219 8.28016 6.68594C8.03641 6.69531 7.78954 6.70781 7.5536 6.77344Z" fill="#0A2C5E"/>
<path d="M22.0959 29.45C22.5803 29.2688 23.21 29.3 23.5725 29.7078C23.9537 30.0594 24.0381 30.5953 24.0365 31.0891C24.0318 37.0297 24.0318 42.9703 24.0365 48.9125C24.0693 49.55 23.824 50.2547 23.2178 50.5516C22.735 50.7313 22.1037 50.6984 21.7412 50.2891C21.3334 49.8938 21.3006 49.2891 21.2881 48.7563C21.2975 42.8672 21.2881 36.9781 21.2928 31.0891C21.2818 30.4594 21.4803 29.7391 22.0959 29.45Z" fill="#0A2C5E"/>
<path d="M7.55303 6.77344C7.78897 6.70782 8.03585 6.69532 8.2796 6.68594C29.4265 6.69219 50.5749 6.69219 71.7218 6.68594C72.1452 6.69844 72.6249 6.73438 72.9327 7.06719C73.2655 7.37501 73.3015 7.85469 73.314 8.27969C73.3046 22.6031 73.314 36.9266 73.3093 51.25C73.2999 52.0141 73.3718 52.7859 73.2421 53.5438C73.153 54.025 72.8405 54.5484 72.3187 54.6281C71.653 54.7219 70.9812 54.6609 70.3124 54.6703C50.1046 54.6703 29.8968 54.6688 9.68741 54.6703C9.02022 54.6625 8.34678 54.7219 7.68272 54.6281C7.15772 54.55 6.84522 54.025 6.75616 53.5438C6.63272 52.8375 6.69678 52.1188 6.68897 51.4063C6.68897 37.5531 6.68897 23.6984 6.68897 9.84376C6.69522 9.16719 6.64366 8.48907 6.72022 7.81563C6.75616 7.34219 7.09522 6.90626 7.55303 6.77344ZM42.2593 10.7313C41.8577 10.8516 41.5655 11.1813 41.3983 11.5547C39.6812 14.9922 37.964 18.4297 36.2421 21.8641C36.0999 22.1578 35.9624 22.4781 36.014 22.8125C36.0702 23.4141 36.5858 23.9297 37.1874 23.9859C37.7405 24.0656 38.3046 23.7359 38.539 23.2344C40.2827 19.7656 42.0093 16.2891 43.7515 12.8188C43.953 12.4438 44.0874 11.9938 43.9296 11.5781C43.7218 10.9031 42.9265 10.4984 42.2593 10.7313ZM30.7421 11.3672C29.0827 13.0422 27.403 14.6984 25.7452 16.375C25.1999 16.8719 25.2046 17.8094 25.7562 18.3C27.503 20.0469 29.2483 21.7969 30.9937 23.5438C31.3296 23.9047 31.8546 24.0922 32.3374 23.9547C32.9702 23.8016 33.4218 23.1391 33.3202 22.4938C33.2515 21.8875 32.714 21.5219 32.328 21.1094C31.0858 19.8438 29.8062 18.6141 28.578 17.3344C30.003 15.8406 31.503 14.4172 32.9421 12.9359C33.3374 12.5344 33.4233 11.8797 33.1546 11.3875C32.8718 10.8266 32.1577 10.5453 31.5671 10.7516C31.228 10.8547 30.989 11.1313 30.7421 11.3672ZM46.6999 12.1906C46.753 12.7563 47.2421 13.1109 47.6046 13.4906C48.8749 14.7734 50.1796 16.0281 51.4233 17.3375C50.1687 18.6406 48.8655 19.9 47.5952 21.1891C47.2327 21.5734 46.7312 21.925 46.678 22.4938C46.578 23.1391 47.028 23.8016 47.6609 23.9547C48.1452 24.0922 48.6687 23.9047 49.0062 23.5438C50.753 21.7969 52.503 20.05 54.2468 18.2984C54.789 17.8031 54.7968 16.875 54.2546 16.3734C52.5484 14.6422 50.8155 12.9359 49.0999 11.2109C48.8077 10.9016 48.4124 10.6516 47.9687 10.6875C47.2093 10.6875 46.5733 11.4406 46.6999 12.1906ZM22.0952 29.45C21.4796 29.7391 21.2812 30.4594 21.2921 31.0891C21.2874 36.9781 21.2968 42.8672 21.2874 48.7563C21.2999 49.2891 21.3327 49.8938 21.7405 50.2891C22.103 50.6984 22.7343 50.7313 23.2171 50.5516C23.8233 50.2547 24.0687 49.55 24.0358 48.9125C24.0312 42.9703 24.0312 37.0297 24.0358 31.0891C24.0374 30.5953 23.953 30.0594 23.5718 29.7078C23.2093 29.3 22.5796 29.2688 22.0952 29.45ZM14.2796 30.7281C13.728 30.8875 13.314 31.4406 13.3374 32.0188C13.3312 32.6688 13.8749 33.275 14.528 33.3188C15.2577 33.3563 15.989 33.3203 16.7202 33.3359C17.1499 33.325 17.6187 33.3844 18.003 33.1469C18.5796 32.8281 18.8296 32.0484 18.5452 31.4516C18.3218 30.9328 17.7515 30.6266 17.1968 30.6672C16.2265 30.7 15.2421 30.5922 14.2796 30.7281ZM27.714 30.7031C27.1077 30.8188 26.6374 31.4141 26.6718 32.0328C26.6749 32.6109 27.103 33.1563 27.6687 33.2844C28.0749 33.3609 28.4921 33.3297 28.9046 33.3359C36.1452 33.3266 43.3858 33.3422 50.6265 33.3281C51.3374 33.3625 52.003 32.75 51.9937 32.0344C52.0327 31.3016 51.3702 30.6375 50.6358 30.6719C43.3937 30.6578 36.1499 30.6734 28.9062 30.6641C28.5093 30.6688 28.1093 30.6438 27.714 30.7031ZM55.6827 30.7094C55.0921 30.8391 54.6374 31.4234 54.6765 32.0313C54.6624 32.4797 54.9343 32.8969 55.303 33.1344C55.6312 33.3406 56.0327 33.3328 56.4077 33.3359C59.3765 33.325 62.3468 33.3438 65.3155 33.3281C66.0265 33.3594 66.6702 32.7281 66.6609 32.0203C66.6983 31.2938 66.0359 30.6422 65.314 30.6719C62.3437 30.6578 59.3718 30.6734 56.4015 30.6641C56.1609 30.6672 55.9187 30.6609 55.6827 30.7094ZM14.4358 36.025C13.8124 36.1156 13.3171 36.7141 13.3358 37.3422C13.3233 37.9984 13.8765 38.6031 14.5296 38.6516C15.2577 38.6906 15.989 38.6547 16.7187 38.6688C17.1155 38.6578 17.5374 38.7094 17.9077 38.5313C18.4577 38.2813 18.778 37.6188 18.6249 37.0344C18.5077 36.4453 17.9405 35.9969 17.3421 36.0047C16.3749 36.0078 15.403 35.9688 14.4358 36.025ZM27.7202 36.0344C27.1218 36.1469 26.6468 36.7328 26.6718 37.3438C26.6452 38.0391 27.2765 38.6641 27.9671 38.6563C28.9046 38.6719 29.8437 38.6828 30.7812 38.6516C31.4468 38.6219 32.0077 38.0063 31.9937 37.3438C32.0218 36.6141 31.3515 35.9594 30.6218 36.0047C29.6546 36.0109 28.6843 35.9594 27.7202 36.0344ZM35.6905 36.0422C35.1046 36.1688 34.6437 36.7391 34.6765 37.3453C34.6468 38.0891 35.3593 38.7266 36.0937 38.6641C45.4687 38.6703 54.8437 38.6641 64.2187 38.6672C64.6343 38.6656 65.053 38.6844 65.4687 38.65C65.9155 38.6141 66.3265 38.3297 66.5218 37.9266C66.8202 37.3625 66.628 36.6016 66.0999 36.2453C65.6937 35.9391 65.1624 36.0078 64.6874 35.9984C55.2046 36.0031 45.7233 36.0016 36.2405 35.9984C36.0546 35.9953 35.8718 36.0094 35.6905 36.0422ZM14.1093 41.4578C13.5624 41.7047 13.228 42.3438 13.364 42.9344C13.478 43.5453 14.0671 44.0156 14.689 43.9969C15.5733 44.0031 16.4593 44.0063 17.3437 43.9953C17.9405 44.0016 18.5062 43.5531 18.6249 42.9672C18.8265 42.2344 18.2593 41.4156 17.5015 41.3516C16.7733 41.3063 16.0421 41.3469 15.3124 41.3313C14.9108 41.3422 14.4858 41.2859 14.1093 41.4578ZM27.4093 41.475C26.9749 41.6938 26.6515 42.1578 26.6718 42.6547C26.6452 43.2688 27.1218 43.85 27.7218 43.9609C28.0608 44.0172 28.4077 43.9984 28.7499 44.0031C30.728 43.9891 32.7077 44.0125 34.6858 43.9922C35.3905 44.0031 36.0249 43.3641 35.9937 42.6563C36.0077 42.0672 35.564 41.5141 34.9952 41.3797C34.739 41.3281 34.4765 41.3328 34.2187 41.3297C32.2405 41.3375 30.2608 41.3328 28.2827 41.3313C27.9874 41.3406 27.6765 41.3313 27.4093 41.475ZM39.4296 41.4641C38.828 41.7328 38.514 42.4906 38.7437 43.1078C38.9202 43.6313 39.4483 44.0031 40.0015 43.9938C43.4405 44.0094 46.8796 43.9922 50.3187 44.0016C50.6921 44 51.103 44.0047 51.414 43.7656C51.8937 43.4453 52.1187 42.8016 51.9312 42.2547C51.7608 41.7016 51.203 41.3109 50.6249 41.3375C47.2405 41.325 43.8546 41.3406 40.4687 41.3297C40.1202 41.3359 39.753 41.3125 39.4296 41.4641ZM55.5108 41.425C55.028 41.6297 54.653 42.1188 54.6765 42.6563C54.6437 43.2609 55.1077 43.8281 55.6905 43.9563C55.9765 44.0094 56.2702 44.0016 56.5608 44.0047C59.4765 43.9906 62.3937 44.0109 65.3093 43.9953C66.0312 44.0297 66.6921 43.3797 66.6609 42.6563C66.6796 42.0531 66.2124 41.4828 65.6202 41.3766C65.364 41.3297 65.1015 41.3328 64.8437 41.3297C61.978 41.3391 59.114 41.3328 56.2499 41.3328C56.0015 41.3422 55.7452 41.3375 55.5108 41.425ZM14.1202 46.7844C13.614 47.0063 13.2812 47.5672 13.3421 48.1188C13.3843 48.7875 14.0062 49.3469 14.6749 49.3281C15.564 49.3375 16.4546 49.3391 17.3452 49.3281C18.0046 49.3359 18.6093 48.7844 18.6562 48.1266C18.739 47.4391 18.1968 46.7516 17.5062 46.6844C16.7765 46.6406 16.0437 46.6797 15.3108 46.6641C14.914 46.6766 14.4937 46.6188 14.1202 46.7844ZM27.5421 46.75C26.8374 46.9844 26.464 47.8672 26.7827 48.5375C26.9999 49.0547 27.5624 49.3641 28.1155 49.3313C32.028 49.3344 35.9405 49.3328 39.853 49.3328C40.3687 49.3656 40.8999 49.1234 41.1546 48.6609C41.5218 48.0547 41.2858 47.1859 40.664 46.8469C40.3733 46.6594 40.0171 46.6719 39.6858 46.6641C35.8843 46.6688 32.0827 46.6672 28.2812 46.6641C28.0327 46.6734 27.778 46.6656 27.5421 46.75ZM44.8858 46.7469C44.2171 46.9641 43.8296 47.7594 44.0718 48.4203C44.2499 49.0031 44.8608 49.3734 45.4593 49.3328C52.0765 49.3313 58.6952 49.3391 65.3124 49.3281C66.039 49.3563 66.703 48.6984 66.6609 47.9688C66.6655 47.2625 66.0218 46.6391 65.3155 46.6719C58.7515 46.6578 52.1874 46.6734 45.6249 46.6641C45.3765 46.6703 45.1218 46.6625 44.8858 46.7469Z" fill="#153A77"/>
<path d="M42.2593 10.7312C42.9265 10.4984 43.7218 10.9031 43.9296 11.5781C44.0874 11.9937 43.9531 12.4437 43.7515 12.8187C42.0093 16.2891 40.2827 19.7656 38.539 23.2344C38.3046 23.7359 37.7406 24.0656 37.1874 23.9859C36.5859 23.9297 36.0702 23.414 36.014 22.8125C35.9624 22.4781 36.0999 22.1578 36.2421 21.864C37.964 18.4297 39.6812 14.9922 41.3984 11.5547C41.5656 11.1812 41.8577 10.8516 42.2593 10.7312Z" fill="white"/>
<path d="M30.7426 11.3672C30.9895 11.1312 31.2285 10.8547 31.5676 10.7515C32.1582 10.5453 32.8723 10.8265 33.1551 11.3875C33.4239 11.8797 33.3379 12.5344 32.9426 12.9359C31.5035 14.4172 30.0035 15.8406 28.5785 17.3344C29.8067 18.614 31.0863 19.8437 32.3285 21.1094C32.7145 21.5219 33.252 21.8875 33.3207 22.4937C33.4223 23.1391 32.9707 23.8015 32.3379 23.9547C31.8551 24.0922 31.3301 23.9047 30.9942 23.5437C29.2488 21.7969 27.5035 20.0469 25.7567 18.3C25.2051 17.8094 25.2004 16.8719 25.7457 16.375C27.4035 14.6984 29.0832 13.0422 30.7426 11.3672Z" fill="white"/>
<path d="M46.6999 12.1906C46.5733 11.4406 47.2092 10.6875 47.9686 10.6875C48.4124 10.6516 48.8077 10.9016 49.0999 11.2109C50.8155 12.9359 52.5483 14.6422 54.2546 16.3734C54.7967 16.875 54.7889 17.8031 54.2467 18.2984C52.503 20.05 50.753 21.7969 49.0061 23.5437C48.6686 23.9047 48.1452 24.0922 47.6608 23.9547C47.028 23.8016 46.578 23.1391 46.678 22.4937C46.7311 21.925 47.2327 21.5734 47.5952 21.1891C48.8655 19.9 50.1686 18.6406 51.4233 17.3375C50.1796 16.0281 48.8749 14.7734 47.6046 13.4906C47.2421 13.1109 46.753 12.7562 46.6999 12.1906Z" fill="white"/>
<path d="M14.28 30.7281C15.2425 30.5922 16.2269 30.7 17.1972 30.6672C17.7519 30.6266 18.3222 30.9328 18.5457 31.4516C18.83 32.0484 18.58 32.8281 18.0035 33.1469C17.6191 33.3844 17.1504 33.325 16.7207 33.3359C15.9894 33.3203 15.2582 33.3562 14.5285 33.3187C13.8754 33.275 13.3316 32.6687 13.3379 32.0187C13.3144 31.4406 13.7285 30.8875 14.28 30.7281Z" fill="white"/>
<path d="M14.4365 36.025C15.4036 35.9687 16.3755 36.0078 17.3427 36.0047C17.9411 35.9969 18.5083 36.4453 18.6255 37.0344C18.7786 37.6187 18.4583 38.2812 17.9083 38.5312C17.538 38.7094 17.1161 38.6578 16.7193 38.6687C15.9896 38.6547 15.2583 38.6906 14.5302 38.6515C13.8771 38.6031 13.324 37.9984 13.3365 37.3422C13.3177 36.714 13.813 36.1156 14.4365 36.025Z" fill="white"/>
<path d="M14.1096 41.4578C14.4862 41.2859 14.9112 41.3422 15.3127 41.3312C16.0424 41.3469 16.7737 41.3062 17.5018 41.3516C18.2596 41.4156 18.8268 42.2344 18.6252 42.9672C18.5065 43.5531 17.9408 44.0016 17.344 43.9953C16.4596 44.0062 15.5737 44.0031 14.6893 43.9969C14.0674 44.0156 13.4783 43.5453 13.3643 42.9344C13.2283 42.3437 13.5627 41.7047 14.1096 41.4578Z" fill="white"/>
<path d="M14.1203 46.7844C14.4937 46.6187 14.914 46.6766 15.3109 46.6641C16.0437 46.6797 16.7765 46.6406 17.5062 46.6844C18.1968 46.7516 18.739 47.4391 18.6562 48.1266C18.6093 48.7844 18.0046 49.3359 17.3453 49.3281C16.4546 49.3391 15.564 49.3375 14.675 49.3281C14.0062 49.3469 13.3843 48.7875 13.3421 48.1187C13.2812 47.5672 13.614 47.0062 14.1203 46.7844Z" fill="white"/>
<path d="M27.7139 30.7031C28.1092 30.6438 28.5092 30.6688 28.9061 30.6641C36.1498 30.6734 43.3936 30.6578 50.6358 30.6719C51.3701 30.6375 52.0326 31.3016 51.9936 32.0344C52.0029 32.75 51.3373 33.3625 50.6264 33.3281C43.3858 33.3422 36.1451 33.3266 28.9045 33.336C28.492 33.3297 28.0748 33.3609 27.6686 33.2844C27.1029 33.1563 26.6748 32.6109 26.6717 32.0328C26.6373 31.4141 27.1076 30.8188 27.7139 30.7031Z" fill="#6DE8EA"/>
<path d="M27.7203 36.0344C28.6843 35.9594 29.6547 36.0109 30.6218 36.0047C31.3515 35.9594 32.0218 36.6141 31.9937 37.3437C32.0078 38.0062 31.4468 38.6219 30.7812 38.6516C29.8437 38.6828 28.9047 38.6719 27.9672 38.6562C27.2765 38.6641 26.6453 38.0391 26.6718 37.3437C26.6468 36.7328 27.1218 36.1469 27.7203 36.0344Z" fill="#6DE8EA"/>
<path d="M27.4095 41.475C27.6766 41.3313 27.9876 41.3406 28.2829 41.3313C30.261 41.3328 32.2407 41.3375 34.2188 41.3297C34.4766 41.3328 34.7391 41.3281 34.9954 41.3797C35.5641 41.5141 36.0079 42.0672 35.9938 42.6563C36.0251 43.3641 35.3907 44.0031 34.686 43.9922C32.7079 44.0125 30.7282 43.9891 28.7501 44.0031C28.4079 43.9985 28.061 44.0172 27.722 43.961C27.122 43.85 26.6454 43.2688 26.672 42.6547C26.6516 42.1578 26.9751 41.6938 27.4095 41.475Z" fill="#6DE8EA"/>
<path d="M27.5423 46.75C27.7782 46.6656 28.0329 46.6734 28.2814 46.6641C32.0829 46.6672 35.8845 46.6687 39.686 46.6641C40.0173 46.6719 40.3735 46.6594 40.6642 46.8469C41.286 47.1859 41.522 48.0547 41.1548 48.6609C40.9001 49.1234 40.3689 49.3656 39.8532 49.3328C35.9407 49.3328 32.0282 49.3344 28.1157 49.3313C27.5626 49.3641 27.0001 49.0547 26.7829 48.5375C26.4642 47.8672 26.8376 46.9844 27.5423 46.75Z" fill="#6DE8EA"/>
<path d="M55.6824 30.7094C55.9184 30.6609 56.1605 30.6672 56.4012 30.6641C59.3715 30.6734 62.3434 30.6578 65.3137 30.6719C66.0355 30.6422 66.698 31.2937 66.6605 32.0203C66.6699 32.7281 66.0262 33.3594 65.3152 33.3281C62.3465 33.3438 59.3762 33.325 56.4074 33.3359C56.0324 33.3328 55.6309 33.3406 55.3027 33.1344C54.934 32.8969 54.6621 32.4797 54.6762 32.0312C54.6371 31.4234 55.0918 30.8391 55.6824 30.7094Z" fill="#EFC929"/>
<path d="M35.6905 36.0422C35.8718 36.0094 36.0546 35.9953 36.2405 35.9984C45.7233 36.0016 55.2046 36.0031 64.6874 35.9984C65.1624 36.0078 65.6936 35.9391 66.0999 36.2453C66.628 36.6016 66.8202 37.3625 66.5218 37.9266C66.3265 38.3297 65.9155 38.6141 65.4686 38.65C65.053 38.6844 64.6343 38.6656 64.2186 38.6672C54.8436 38.6641 45.4686 38.6703 36.0936 38.6641C35.3593 38.7266 34.6468 38.0891 34.6765 37.3453C34.6436 36.7391 35.1046 36.1688 35.6905 36.0422Z" fill="#EFC929"/>
<path d="M39.4293 41.4641C39.7527 41.3125 40.1199 41.3359 40.4683 41.3297C43.8543 41.3406 47.2402 41.325 50.6246 41.3375C51.2027 41.3109 51.7605 41.7016 51.9308 42.2547C52.1183 42.8016 51.8933 43.4453 51.4137 43.7656C51.1027 44.0047 50.6918 44 50.3184 44.0016C46.8793 43.9922 43.4402 44.0094 40.0012 43.9937C39.448 44.0031 38.9199 43.6312 38.7434 43.1078C38.5137 42.4906 38.8277 41.7328 39.4293 41.4641Z" fill="#EFC929"/>
<path d="M44.8856 46.7469C45.1216 46.6625 45.3763 46.6703 45.6247 46.6641C52.1872 46.6734 58.7513 46.6578 65.3153 46.6719C66.0216 46.6391 66.6653 47.2625 66.6607 47.9688C66.7028 48.6984 66.0388 49.3563 65.3122 49.3281C58.695 49.3391 52.0763 49.3313 45.4591 49.3328C44.8606 49.3734 44.2497 49.0031 44.0716 48.4203C43.8294 47.7594 44.2169 46.9641 44.8856 46.7469Z" fill="#EFC929"/>
<path d="M55.5108 41.425C55.7452 41.3375 56.0014 41.3422 56.2499 41.3328C59.1139 41.3328 61.978 41.3391 64.8436 41.3297C65.1014 41.3328 65.3639 41.3297 65.6202 41.3766C66.2124 41.4828 66.6796 42.0531 66.6608 42.6562C66.6921 43.3797 66.0311 44.0297 65.3093 43.9953C62.3936 44.0109 59.4764 43.9906 56.5608 44.0047C56.2702 44.0016 55.9764 44.0094 55.6905 43.9562C55.1077 43.8281 54.6436 43.2609 54.6764 42.6562C54.653 42.1187 55.028 41.6297 55.5108 41.425Z" fill="#D33957"/>
<path d="M1.34226 59.9969C27.1141 60 52.886 60.0031 78.6595 59.9953C78.6798 61.0906 78.6594 62.1859 78.6673 63.2812C78.6626 63.8265 78.7048 64.3922 78.5001 64.9109C78.2282 65.6672 77.5954 66.2828 76.8298 66.5297C76.2923 66.7172 75.7141 66.6578 75.1563 66.6672C66.0969 66.6703 57.0376 66.6594 47.9798 66.6719C42.6595 66.7 37.3391 66.7016 32.0188 66.6719C22.961 66.6594 13.9032 66.6703 4.84382 66.6672C4.2782 66.6578 3.69226 66.7172 3.15007 66.5234C2.3532 66.2609 1.70945 65.5969 1.45789 64.7984C1.29539 64.3094 1.33914 63.7875 1.33289 63.2812C1.3407 62.1875 1.31882 61.0922 1.34226 59.9969Z" fill="#C0DAF0"/>
<path d="M23.7983 73.6406C24.4639 73.3406 25.2045 73.3672 25.9045 73.2094C26.4874 73.2515 27.0702 73.3094 27.6561 73.3125C35.417 73.3078 43.1764 73.3093 50.9374 73.3109C51.9905 73.3297 53.0452 73.3125 54.0952 73.2094C54.5139 73.2922 54.9389 73.3453 55.3639 73.4C56.917 73.6453 58.2342 74.9125 58.5639 76.4484C58.6733 76.9922 58.7655 77.6265 58.4155 78.1078C58.1452 78.5015 57.6545 78.6922 57.1874 78.6672C45.9889 78.6672 34.7905 78.6656 23.5936 78.6672C23.228 78.6625 22.8624 78.6797 22.4983 78.65C21.9108 78.5875 21.4124 78.089 21.3483 77.5031C21.2342 75.8656 22.2858 74.25 23.7983 73.6406Z" fill="#C0DAF0"/>
<path d="M32.0184 66.6719C37.3387 66.7016 42.659 66.7 47.9793 66.6719C48.0184 67.8922 48.3777 69.1156 49.1371 70.0859C50.3606 71.6766 52.2277 72.5969 54.0949 73.2094C53.0449 73.3125 51.9902 73.3297 50.9371 73.3109C43.1762 73.3094 35.4168 73.3078 27.6559 73.3125C27.0699 73.3094 26.4871 73.2516 25.9043 73.2094C27.8074 72.5937 29.7121 71.6437 30.9262 69.9969C31.6449 69.0422 31.9762 67.8547 32.0184 66.6719Z" fill="#9FBACE"/>
</svg>
