<svg width="16" height="16" viewBox="0 0 16 16" fill="none" xmlns="http://www.w3.org/2000/svg">
<path d="M4.33398 6.66668H7.00065M13.6673 9.33334V7.00001C13.6673 5.44334 13.6673 4.66534 13.3527 4.07601C13.104 3.6109 12.7231 3.22996 12.258 2.98134C11.6687 2.66668 10.8907 2.66668 9.33398 2.66668C9.33398 2.31305 9.19351 1.97392 8.94346 1.72387C8.69341 1.47382 8.35427 1.33334 8.00065 1.33334C7.64703 1.33334 7.30789 1.47382 7.05784 1.72387C6.80779 1.97392 6.66732 2.31305 6.66732 2.66668C5.11065 2.66668 4.33265 2.66668 3.74332 2.98134C3.27821 3.22996 2.89727 3.6109 2.64865 4.07601C2.33398 4.66534 2.33398 5.44334 2.33398 7.00001V9.33334C2.33398 11.8473 2.33398 13.1047 3.11532 13.8853C3.89665 14.666 5.15332 14.6667 7.66732 14.6667H8.33398C10.848 14.6667 12.1053 14.6667 12.886 13.8853C13.6666 13.104 13.6673 11.8473 13.6673 9.33334Z" stroke="#AAAAAA" stroke-linecap="round" stroke-linejoin="round"/>
<path d="M9.00065 7.33333C9.00065 7.33333 9.33398 7.33333 9.66732 8C9.66732 8 10.726 6.33333 11.6673 6M4.33398 10.6667H7.00065M9.00065 11.3333C9.00065 11.3333 9.33398 11.3333 9.66732 12C9.66732 12 10.726 10.3333 11.6673 10" stroke="#AAAAAA" stroke-linecap="round" stroke-linejoin="round"/>
</svg>
