<svg width="24" height="24" viewBox="0 0 24 24" fill="none" xmlns="http://www.w3.org/2000/svg">
<path d="M20.06 7.855L14.645 2.44C14.364 2.15862 13.9827 2.00035 13.585 2H5C4.60218 2 4.22064 2.15804 3.93934 2.43934C3.65804 2.72064 3.5 3.10218 3.5 3.5V6C3.5 6.13261 3.55268 6.25979 3.64645 6.35355C3.74021 6.44732 3.86739 6.5 4 6.5C4.13261 6.5 4.25979 6.44732 4.35355 6.35355C4.44732 6.25979 4.5 6.13261 4.5 6V3.5C4.5 3.36739 4.55268 3.24021 4.64645 3.14645C4.74021 3.05268 4.86739 3 5 3H13.5V7.5C13.5 7.89782 13.658 8.27936 13.9393 8.56066C14.2206 8.84196 14.6022 9 15 9H19.5V20.5C19.5 20.6326 19.4473 20.7598 19.3536 20.8536C19.2598 20.9473 19.1326 21 19 21H5C4.86739 21 4.74021 20.9473 4.64645 20.8536C4.55268 20.7598 4.5 20.6326 4.5 20.5V8C4.5 7.86739 4.44732 7.74021 4.35355 7.64645C4.25979 7.55268 4.13261 7.5 4 7.5C3.86739 7.5 3.74021 7.55268 3.64645 7.64645C3.55268 7.74021 3.5 7.86739 3.5 8V20.5C3.5 20.8978 3.65804 21.2794 3.93934 21.5607C4.22064 21.842 4.60218 22 5 22H19C19.3978 22 19.7794 21.842 20.0607 21.5607C20.342 21.2794 20.5 20.8978 20.5 20.5V8.915C20.4996 8.51731 20.3414 8.13603 20.06 7.855ZM14.5 7.5V3.705L18.795 8H15C14.8674 8 14.7402 7.94732 14.6464 7.85355C14.5527 7.75979 14.5 7.63261 14.5 7.5ZM14 10.5C14.3978 10.5 14.7794 10.658 15.0607 10.9393C15.342 11.2206 15.5 11.6022 15.5 12V15.295L16.145 14.645C16.2392 14.5508 16.3668 14.498 16.5 14.498C16.6332 14.498 16.7608 14.5508 16.855 14.645C16.9492 14.7392 17.002 14.8668 17.002 15C17.002 15.1332 16.9492 15.2608 16.855 15.355L15.355 16.855C15.3085 16.9019 15.2532 16.9391 15.1923 16.9644C15.1314 16.9898 15.066 17.0029 15 17.0029C14.934 17.0029 14.8686 16.9898 14.8077 16.9644C14.7468 16.9391 14.6915 16.9019 14.645 16.855L13.145 15.355C13.0508 15.2608 12.998 15.1332 12.998 15C12.998 14.8668 13.0508 14.7392 13.145 14.645C13.2392 14.5508 13.3668 14.498 13.5 14.498C13.6332 14.498 13.7608 14.5508 13.855 14.645L14.5 15.295V12C14.5 11.8674 14.4473 11.7402 14.3536 11.6464C14.2598 11.5527 14.1326 11.5 14 11.5H10.5C10.3674 11.5 10.2402 11.4473 10.1464 11.3536C10.0527 11.2598 10 11.1326 10 11C10 10.8674 10.0527 10.7402 10.1464 10.6464C10.2402 10.5527 10.3674 10.5 10.5 10.5H14ZM14 18C14 18.1326 13.9473 18.2598 13.8536 18.3536C13.7598 18.4473 13.6326 18.5 13.5 18.5H10C9.60218 18.5 9.22064 18.342 8.93934 18.0607C8.65804 17.7794 8.5 17.3978 8.5 17V13.705L7.855 14.355C7.80838 14.4016 7.75304 14.4386 7.69212 14.4638C7.63121 14.4891 7.56593 14.502 7.5 14.502C7.43407 14.502 7.36879 14.4891 7.30788 14.4638C7.24696 14.4386 7.19162 14.4016 7.145 14.355C7.09838 14.3084 7.0614 14.253 7.03617 14.1921C7.01094 14.1312 6.99795 14.0659 6.99795 14C6.99795 13.9341 7.01094 13.8688 7.03617 13.8079C7.0614 13.747 7.09838 13.6916 7.145 13.645L8.645 12.145C8.69148 12.0981 8.74678 12.0609 8.80771 12.0356C8.86864 12.0102 8.93399 11.9971 9 11.9971C9.06601 11.9971 9.13136 12.0102 9.19229 12.0356C9.25322 12.0609 9.30852 12.0981 9.355 12.145L10.855 13.645C10.9019 13.6915 10.9391 13.7468 10.9644 13.8077C10.9898 13.8686 11.0029 13.934 11.0029 14C11.0029 14.066 10.9898 14.1314 10.9644 14.1923C10.9391 14.2532 10.9019 14.3085 10.855 14.355C10.8085 14.4019 10.7532 14.4391 10.6923 14.4644C10.6314 14.4898 10.566 14.5029 10.5 14.5029C10.434 14.5029 10.3686 14.4898 10.3077 14.4644C10.2468 14.4391 10.1915 14.4019 10.145 14.355L9.5 13.705V17C9.5 17.1326 9.55268 17.2598 9.64645 17.3536C9.74021 17.4473 9.86739 17.5 10 17.5H13.5C13.6326 17.5 13.7598 17.5527 13.8536 17.6464C13.9473 17.7402 14 17.8674 14 18Z" fill="black"/>
</svg>
