<svg width="24" height="24" viewBox="0 0 24 24" fill="none" xmlns="http://www.w3.org/2000/svg">
<rect width="24" height="24" rx="12" fill="white"/>
<g clip-path="url(#clip0_685_327)">
<path d="M18.875 8.33924C18.369 8.55908 17.8254 8.70766 17.2548 8.7745C17.8372 8.4324 18.2845 7.89066 18.4951 7.24519C17.9414 7.56718 17.3355 7.79404 16.7038 7.91598C16.1892 7.37877 15.4561 7.04303 14.6447 7.04303C13.0867 7.04303 11.8236 8.28071 11.8236 9.80724C11.8236 10.0239 11.8486 10.2349 11.8967 10.4372C9.55218 10.3219 7.47356 9.22145 6.08218 7.54903C5.83941 7.95729 5.7003 8.43219 5.7003 8.93871C5.7003 9.89777 6.19836 10.7438 6.95525 11.2396C6.50728 11.2258 6.06916 11.1072 5.67747 10.8938C5.67731 10.9053 5.67731 10.9169 5.67731 10.9286C5.67731 12.2679 6.64969 13.3851 7.94015 13.6391C7.52474 13.7498 7.08901 13.766 6.66624 13.6865C7.02519 14.7847 8.06702 15.5838 9.3014 15.6062C8.33595 16.3476 7.11956 16.7895 5.79794 16.7895C5.57021 16.7895 5.3457 16.7764 5.125 16.7509C6.3734 17.5352 7.8562 17.9928 9.44927 17.9928C14.6381 17.9928 17.4755 13.7807 17.4755 10.1278C17.4755 10.0079 17.4728 9.88871 17.4673 9.77019C18.0196 9.37897 18.4963 8.89441 18.875 8.33924Z" fill="#080591"/>
</g>
<defs>
<clipPath id="clip0_685_327">
<rect width="13.75" height="11" fill="white" transform="translate(5.125 7)"/>
</clipPath>
</defs>
</svg>
