<svg width="32" height="32" viewBox="0 0 32 32" fill="none" xmlns="http://www.w3.org/2000/svg">
<path d="M11.0005 21.0001L21.0005 11.0001M7.46054 13.2201L5.34054 15.3401C3.83942 16.8412 2.99609 18.8771 2.99609 21.0001C2.99609 23.123 3.83942 25.1589 5.34054 26.6601C6.84167 28.1612 8.87763 29.0045 11.0005 29.0045C13.1235 29.0045 15.1594 28.1612 16.6605 26.6601L18.7805 24.5401M24.5405 18.7801L26.6605 16.6601C28.1617 15.1589 29.005 13.123 29.005 11.0001C29.005 8.87714 28.1617 6.84118 26.6605 5.34005C25.1594 3.83893 23.1235 2.99561 21.0005 2.99561C18.8776 2.99561 16.8417 3.83893 15.3405 5.34005L13.2205 7.46005" stroke="#040BC5" stroke-linecap="round" stroke-linejoin="round"/>
</svg>
