<svg width="80" height="80" viewBox="0 0 80 80" fill="none" xmlns="http://www.w3.org/2000/svg">
<path fill-rule="evenodd" clip-rule="evenodd" d="M59.8336 5.45811C59.6916 5.60203 59.6041 5.80017 59.6041 6.01859V7.77128C59.6041 7.8956 59.5205 8.00404 59.4011 8.03855C58.6264 8.26235 57.8871 8.57095 57.1947 8.95329C57.0859 9.0134 56.95 8.99587 56.8621 8.90797L55.6219 7.66807C55.3099 7.35604 54.8036 7.35604 54.4916 7.66807L51.6677 10.4923C51.3556 10.8044 51.3556 11.3099 51.6677 11.6219L52.9079 12.8621C52.9959 12.9501 53.0133 13.0859 52.9533 13.1947C52.5709 13.8871 52.2624 14.6261 52.0385 15.4011C52.004 15.5205 51.8956 15.6041 51.7712 15.6041H50.0185C49.5771 15.6041 49.2197 15.9619 49.2197 16.4029V20.3969C49.2197 20.8381 49.5771 21.1957 50.0185 21.1957H51.7712C51.8956 21.1957 52.004 21.2795 52.0385 21.3989C52.2624 22.1739 52.5709 22.9131 52.9533 23.6057C53.0135 23.7145 52.9959 23.8503 52.908 23.9381L51.6684 25.1781C51.3564 25.4901 51.3564 25.9956 51.6684 26.3076L54.4924 29.1319C54.8044 29.444 55.3099 29.444 55.6219 29.1319L56.8621 27.892C56.95 27.8041 57.0859 27.7865 57.1947 27.8467C57.8871 28.2291 58.6264 28.5376 59.4011 28.7615C59.5205 28.796 59.6041 28.9044 59.6041 29.0287V30.7813C59.6041 30.9565 59.6604 31.1188 59.7563 31.2507C59.8164 31.3329 59.8912 31.4035 59.9771 31.4577C60.1003 31.5353 60.2469 31.5801 60.4029 31.5801H64.3969C64.8385 31.5801 65.1957 31.2225 65.1957 30.7813V29.0287C65.1957 28.9044 65.2795 28.796 65.3988 28.7615C66.1736 28.5376 66.9128 28.2291 67.6052 27.8467C67.714 27.7867 67.8499 27.8041 67.9379 27.8921L69.1773 29.1319C69.4893 29.444 69.9956 29.444 70.3076 29.1319L73.1315 26.3076C73.4436 25.9956 73.4436 25.4901 73.1315 25.1781L71.892 23.9381C71.8041 23.8503 71.7865 23.7145 71.8467 23.6057C72.2291 22.9131 72.5376 22.1739 72.7615 21.3989C72.796 21.2795 72.9044 21.1957 73.0287 21.1957H74.7813C75.2229 21.1957 75.5801 20.8381 75.5801 20.3969V16.4029C75.5801 15.9619 75.2229 15.6041 74.7813 15.6041H73.0287C72.9044 15.6041 72.796 15.5205 72.7615 15.4011C72.5376 14.6261 72.2291 13.8869 71.8467 13.1943C71.7865 13.0855 71.8041 12.9497 71.892 12.8618L73.1315 11.6219C73.3265 11.4269 73.3999 11.1566 73.3515 10.9054C73.3219 10.7541 73.2485 10.6093 73.1315 10.4923L70.3076 7.66807C69.9956 7.35604 69.4901 7.35604 69.1781 7.66807L67.9379 8.90797C67.8499 8.99587 67.7141 9.0134 67.6052 8.95329C66.9129 8.57095 66.1736 8.26235 65.3988 8.03855C65.2795 8.00404 65.1957 7.8956 65.1957 7.77128V6.01859C65.1957 5.57745 64.8385 5.21979 64.3969 5.21979H60.4029C60.1799 5.21979 59.9787 5.31107 59.8336 5.45811ZM62.4 22.4555C64.6397 22.4555 66.4555 20.6113 66.4555 18.3367C66.4555 16.0619 64.6397 14.2179 62.4 14.2179C60.1603 14.2179 58.3445 16.0619 58.3445 18.3367C58.3445 20.6113 60.1603 22.4555 62.4 22.4555Z" fill="#F8DB46"/>
<path fill-rule="evenodd" clip-rule="evenodd" d="M60.4029 5.90626C60.3713 5.90626 60.3439 5.91819 60.322 5.94026C60.3025 5.96012 60.2905 5.98674 60.2905 6.01859V7.77129C60.2905 8.20935 59.9969 8.58094 59.5915 8.69805C58.8665 8.90747 58.1747 9.19629 57.5264 9.55423C57.1569 9.7583 56.6864 9.70314 56.3767 9.39345L55.1364 8.15354C55.0925 8.10961 55.0208 8.10953 54.9768 8.15346L52.1529 10.9777C52.1091 11.0217 52.1091 11.0925 52.1529 11.1365L53.3932 12.3767C53.7029 12.6865 53.7581 13.157 53.5541 13.5267C53.1961 14.1748 52.9073 14.8665 52.6979 15.5916C52.5808 15.9971 52.2092 16.2907 51.7712 16.2907H50.0185C49.9563 16.2907 49.9061 16.3408 49.9061 16.4031V20.3971C49.9061 20.4592 49.9563 20.5093 50.0185 20.5093H51.7712C52.2092 20.5093 52.5808 20.8029 52.6979 21.2084C52.9073 21.9336 53.1961 22.6253 53.5543 23.2739C53.7583 23.6435 53.7029 24.1139 53.3933 24.4236L52.1539 25.6635C52.1099 25.7073 52.1097 25.7783 52.1537 25.8223L54.9776 28.6465C55.0216 28.6904 55.0924 28.6904 55.1364 28.6465L56.3767 27.4065C56.6864 27.0968 57.1569 27.0417 57.5264 27.2457C58.1747 27.6037 58.8665 27.8925 59.5915 28.102C59.9969 28.2191 60.2905 28.5907 60.2905 29.0287V30.7815C60.2905 30.8075 60.2984 30.8291 60.3112 30.8467C60.3213 30.8603 60.3327 30.8704 60.3433 30.8772C60.3596 30.8873 60.3797 30.8937 60.4029 30.8937H64.3969C64.4591 30.8937 64.5092 30.8436 64.5092 30.7815V29.0287C64.5092 28.5907 64.8028 28.2191 65.2083 28.102C65.9331 27.8925 66.6251 27.6037 67.2732 27.2457C67.6429 27.0417 68.1135 27.0969 68.4232 27.4068L69.6625 28.6465C69.7065 28.6904 69.7781 28.6904 69.8221 28.6465L72.646 25.8223C72.6899 25.7783 72.69 25.7075 72.646 25.6635L71.4064 24.4236C71.0968 24.1139 71.0415 23.6435 71.2455 23.2739C71.6036 22.6253 71.8924 21.9336 72.1019 21.2084C72.2189 20.8029 72.5905 20.5093 73.0285 20.5093H74.7813C74.8435 20.5093 74.8936 20.4592 74.8936 20.3971V16.4031C74.8936 16.3408 74.8435 16.2907 74.7813 16.2907H73.0285C72.5905 16.2907 72.2189 15.9971 72.1019 15.5916C71.8924 14.8664 71.6036 14.1747 71.2455 13.5261C71.0415 13.1565 71.0968 12.6862 71.4064 12.3764L72.6459 11.1366C72.6733 11.1092 72.6841 11.0724 72.6775 11.0363C72.6729 11.0143 72.6627 10.9945 72.646 10.9778L69.8221 8.15347C69.8221 8.15346 69.8221 8.15349 69.8221 8.15347C69.7781 8.10957 69.7073 8.10954 69.6633 8.15347L68.4231 9.39345C68.1133 9.70314 67.6428 9.7583 67.2733 9.55423C66.6251 9.19629 65.9332 8.90747 65.2083 8.69805C64.8028 8.58094 64.5092 8.20935 64.5092 7.77129V6.01859C64.5092 5.95637 64.4591 5.90626 64.3969 5.90626H60.4029ZM59.3448 4.97595C59.6132 4.70392 59.9881 4.53333 60.4029 4.53333H64.3969C65.2177 4.53333 65.8821 5.19855 65.8821 6.01859V7.46794C66.5016 7.6651 67.0983 7.9135 67.6669 8.20795L68.6925 7.18266C68.6925 7.18265 68.6925 7.18269 68.6925 7.18266C69.2727 6.60262 70.2128 6.60257 70.7929 7.18266L73.6168 10.0069C73.6168 10.0069 73.6168 10.007 73.6168 10.0069C73.8339 10.224 73.9701 10.4932 74.0251 10.7734L74.0252 10.7745L74.0255 10.7756C74.1152 11.2416 73.9792 11.7449 73.6168 12.1073L72.5919 13.1325C72.8864 13.7013 73.1348 14.298 73.332 14.9177H74.7813C75.6021 14.9177 76.2665 15.5829 76.2665 16.4031V20.3971C76.2665 21.2171 75.6021 21.8823 74.7813 21.8823H73.332C73.1348 22.502 72.8864 23.0987 72.5919 23.6675L73.6168 24.6927C74.1969 25.2728 74.1969 26.2129 73.6168 26.7931L70.7929 29.6173C70.2128 30.1975 69.2719 30.1975 68.6917 29.6173L67.6668 28.5921C67.0983 28.8865 66.5015 29.1349 65.8821 29.332V30.7815C65.8821 31.6015 65.2177 32.2667 64.3969 32.2667H60.4029C60.1143 32.2667 59.8412 32.1835 59.6112 32.0387L59.6103 32.0381C59.4496 31.9365 59.3115 31.8057 59.2017 31.6553L59.2012 31.6545C59.0221 31.4085 58.9176 31.1056 58.9176 30.7815V29.332C58.2981 29.1349 57.7015 28.8865 57.1328 28.592L56.1072 29.6173C55.5271 30.1973 54.5869 30.1975 54.0068 29.6173L51.1829 26.7931C50.6028 26.2129 50.6028 25.2728 51.1829 24.6927L52.2079 23.6675C51.9135 23.0987 51.6649 22.502 51.4677 21.8823H50.0185C49.1976 21.8823 48.5332 21.2171 48.5332 20.3971V16.4031C48.5332 15.5829 49.1976 14.9177 50.0185 14.9177H51.4677C51.6649 14.2981 51.9133 13.7016 52.2077 13.1329L51.1821 12.1073C50.602 11.5272 50.602 10.5871 51.1821 10.007C51.1821 10.007 51.1821 10.007 51.1821 10.007L54.006 7.1827C54.5861 6.60261 55.5269 6.60255 56.1071 7.18259C56.1071 7.18257 56.1071 7.18262 56.1071 7.18259L57.1328 8.20795C57.7015 7.9135 58.2981 7.6651 58.9176 7.46794V6.01859C58.9176 5.61365 59.0804 5.24394 59.3448 4.97595ZM67.4523 28.3775L67.4531 28.3783C67.4528 28.378 67.4525 28.3777 67.4523 28.3775ZM62.3999 14.9043C60.5492 14.9043 59.0309 16.4309 59.0309 18.3367C59.0309 20.2424 60.5492 21.7689 62.3999 21.7689C64.2505 21.7689 65.7688 20.2424 65.7688 18.3367C65.7688 16.4309 64.2505 14.9043 62.3999 14.9043ZM57.658 18.3367C57.658 15.6928 59.7709 13.5313 62.3999 13.5313C65.0288 13.5313 67.1417 15.6928 67.1417 18.3367C67.1417 20.9804 65.0288 23.1419 62.3999 23.1419C59.7709 23.1419 57.658 20.9804 57.658 18.3367Z" fill="#05060F"/>
<mask id="mask0_290_780" style="mask-type:alpha" maskUnits="userSpaceOnUse" x="10" y="10" width="31" height="60">
<path d="M40.1559 18.8898C40.1559 14.3759 36.6233 10.8434 32.1095 10.8434C28.5769 10.8434 25.6331 13.1984 24.6518 16.3386C24.4555 16.3386 24.2593 16.3386 24.2593 16.3386C16.8017 16.1423 10.7178 22.2262 10.7178 29.4875C10.7178 33.02 12.0915 36.3564 14.4466 38.7115C12.2878 40.2815 10.7178 42.8328 10.7178 45.5803C10.7178 48.3279 12.0915 50.683 14.0541 52.0567C13.6615 53.4306 13.2691 54.8043 13.2691 56.178C13.2691 63.6358 19.353 69.5234 26.6143 69.5234C33.8758 69.5234 39.9597 64.7728 39.9597 57.5114V36.3564" fill="url(#paint0_linear_290_780)"/>
</mask>
<g mask="url(#mask0_290_780)">
<path d="M42.6706 9.46655H10.749V72.1832H42.6706V9.46655Z" fill="#F95959"/>
</g>
<path fill-rule="evenodd" clip-rule="evenodd" d="M24.2057 15.7112C25.3931 12.5448 28.4575 10.2176 32.1094 10.2176C36.9891 10.2176 40.5855 14.051 40.5855 18.8899V58.3115C40.5855 65.9186 34.2214 70.1494 26.6143 70.1494C19.0133 70.1494 12.6431 63.9875 12.6431 56.1782C12.6431 54.8512 12.9833 53.5382 13.3335 52.3014C11.4066 50.7887 10.0918 48.3703 10.0918 45.5804C10.0918 42.8439 11.5193 40.3251 13.5199 38.6426C11.3412 36.2076 10.0918 32.9324 10.0918 29.4876C10.0918 21.9006 16.4243 15.5454 24.2057 15.7112ZM32.1094 11.4694C28.8635 11.4694 26.1527 13.634 25.2491 16.5254L25.1119 16.9646H24.251L24.2427 16.9643C17.1407 16.7775 11.3436 22.5747 11.3436 29.4876C11.3436 32.8604 12.6558 36.0356 14.8891 38.269L15.4071 38.787L14.8147 39.2178C12.7852 40.6938 11.3436 43.0703 11.3436 45.5804C11.3436 48.1146 12.61 50.282 14.413 51.544L14.7785 51.7999L14.6559 52.2288C14.2585 53.6199 13.895 54.9076 13.895 56.1782C13.895 63.2842 19.6926 68.8975 26.6143 68.8975C33.5301 68.8975 39.3336 65.2272 39.3336 58.3115V18.8899C39.3336 14.7012 36.2574 11.4694 32.1094 11.4694Z" fill="#05060F"/>
<mask id="mask1_290_780" style="mask-type:alpha" maskUnits="userSpaceOnUse" x="39" y="10" width="31" height="60">
<path d="M39.8027 18.89C39.8027 14.3761 43.3353 10.8436 47.8491 10.8436C51.3817 10.8436 54.3255 13.1987 55.3067 16.3387C55.503 16.3387 55.6993 16.3387 55.6993 16.3387C63.157 16.1425 69.2409 22.2264 69.2409 29.4877C69.2409 33.0203 67.867 36.3567 65.5119 38.7118C67.6707 40.2818 69.2409 42.8331 69.2409 45.5806C69.2409 48.3282 67.867 50.6832 65.9045 52.057C66.297 53.4308 66.6895 54.8046 66.6895 56.1783C66.6895 63.636 60.6057 69.5236 53.3442 69.5236C46.0829 69.5236 39.999 64.7731 39.999 57.5116V36.3567" fill="url(#paint1_linear_290_780)"/>
</mask>
<g mask="url(#mask1_290_780)">
<path d="M69.8357 9.46643H37.9141V72.1831H69.8357V9.46643Z" fill="white"/>
</g>
<path fill-rule="evenodd" clip-rule="evenodd" d="M55.7529 15.7112C54.5654 12.5448 51.501 10.2176 47.8492 10.2176C42.9694 10.2176 39.373 14.051 39.373 18.8899V58.3115C39.373 65.9186 45.7372 70.1494 53.3442 70.1494C60.9453 70.1494 67.3154 63.9875 67.3154 56.1782C67.3154 54.8512 66.9752 53.5382 66.625 52.3014C68.552 50.7887 69.8668 48.3703 69.8668 45.5804C69.8668 42.8439 68.4393 40.3251 66.4386 38.6426C68.6174 36.2076 69.8668 32.9324 69.8668 29.4876C69.8668 21.9006 63.5342 15.5454 55.7529 15.7112ZM47.8492 11.4694C51.095 11.4694 53.8058 13.634 54.7094 16.5254L54.8466 16.9646H55.7076L55.7158 16.9643C62.8178 16.7775 68.6149 22.5747 68.6149 29.4876C68.6149 32.8604 67.3028 36.0356 65.0694 38.269L64.5514 38.787L65.1438 39.2178C67.1733 40.6938 68.6149 43.0703 68.6149 45.5804C68.6149 48.1146 67.3485 50.282 65.5456 51.544L65.1801 51.7999L65.3028 52.2288C65.7001 53.6199 66.0637 54.9076 66.0637 56.1782C66.0637 63.2842 60.266 68.8975 53.3442 68.8975C46.4285 68.8975 40.6249 65.2272 40.6249 58.3115V18.8899C40.6249 14.7012 43.7012 11.4694 47.8492 11.4694Z" fill="#05060F"/>
<path fill-rule="evenodd" clip-rule="evenodd" d="M32.1613 26.222C31.8762 26.4208 31.4833 26.3532 31.2838 26.0711C30.3005 24.6803 28.1854 23.8227 25.9877 23.9099C23.8155 23.996 21.7457 24.9974 20.7826 27.0955C20.6382 27.4102 20.2645 27.5498 19.9479 27.4075C19.6313 27.2651 19.4917 26.8948 19.6361 26.5802C20.5781 24.528 22.3462 23.3596 24.2638 22.8931C23.7139 21.2671 23.4963 19.372 23.7482 17.5579C24.0359 15.4855 24.9459 13.4676 26.7363 12.1094C27.0133 11.8994 27.4086 11.9514 27.6194 12.2254C27.8302 12.4995 27.7766 12.8919 27.4998 13.1019C26.0418 14.2079 25.2518 15.886 24.9966 17.7248C24.7619 19.4143 24.987 21.1962 25.5267 22.6868C25.665 22.6747 25.8031 22.666 25.9411 22.6604C28.4238 22.562 31.0158 23.5115 32.3161 25.3508C32.5157 25.6331 32.4463 26.0231 32.1613 26.222Z" fill="#05060F"/>
<path fill-rule="evenodd" clip-rule="evenodd" d="M48.8029 58.7858C49.044 58.5354 49.4425 58.5256 49.693 58.7637C50.9274 59.9373 53.1688 60.3682 55.3078 59.8562C57.422 59.3502 59.2581 57.9664 59.7958 55.7212C59.8764 55.3845 60.216 55.175 60.5541 55.2532C60.8924 55.3313 61.1012 55.6676 61.0205 56.0042C60.4946 58.2001 58.9868 59.6894 57.1962 60.5192C56.6638 60.7658 56.8038 60.7837 55.5958 61.0728C53.1796 61.6512 50.4526 61.2226 48.82 59.6705C48.5694 59.4324 48.5618 59.0362 48.8029 58.7858Z" fill="#05060F"/>
<path fill-rule="evenodd" clip-rule="evenodd" d="M60.4477 29.984C60.1036 30.0322 59.7839 29.7941 59.7336 29.4521C59.4865 27.7669 57.9887 26.0448 55.9895 25.1277C54.0137 24.2213 51.7148 24.1772 49.9063 25.6121C49.6351 25.8273 49.2387 25.7826 49.0208 25.5125C48.8028 25.2422 48.846 24.8488 49.1172 24.6336C50.886 23.2302 52.9916 22.9886 54.9127 23.4408C55.4837 23.5752 55.3847 23.4746 56.5136 23.9926C58.7719 25.0285 60.6533 27.0485 60.9801 29.2773C61.0304 29.6193 60.792 29.9357 60.4477 29.984Z" fill="#05060F"/>
<path fill-rule="evenodd" clip-rule="evenodd" d="M53.2547 33.8384C53.1136 34.1545 53.2559 34.5251 53.5724 34.6659C55.113 35.3515 56.3415 37.2129 56.6646 39.3224C56.9836 41.4061 56.3935 43.5593 54.526 44.8592C54.2416 45.0571 54.1718 45.4476 54.3699 45.7316C54.568 46.0155 54.9591 46.0853 55.2435 45.8875C57.072 44.6147 57.8874 42.7136 57.9895 40.7955C59.6794 41.0239 61.5695 40.8865 63.2936 40.3161C65.2644 39.6641 67.0695 38.4268 68.0656 36.4643C68.2223 36.1556 68.0987 35.7785 67.7896 35.622C67.4806 35.4655 67.103 35.5889 66.9463 35.8976C66.1394 37.4875 64.6492 38.5475 62.8991 39.1264C61.2934 39.6576 59.5118 39.7675 57.9555 39.524C57.9418 39.3929 57.9248 39.2625 57.905 39.1329C57.538 36.7365 56.1242 34.4293 54.0831 33.5211C53.7666 33.3803 53.3956 33.5223 53.2547 33.8384Z" fill="#05060F"/>
<path d="M14.3401 56.0854C12.1748 56.0854 10.3394 55.6832 8.83399 54.879C7.34919 54.0747 6.21497 52.9404 5.43133 51.4763C4.64769 49.9915 4.25586 48.2386 4.25586 46.2176V32.8854H10.0095V46.3414C10.0095 47.2282 10.1744 48.0015 10.5044 48.6614C10.855 49.3212 11.3499 49.8266 11.9892 50.1771C12.6285 50.5276 13.4121 50.703 14.3401 50.703C15.2681 50.703 16.0517 50.5276 16.6911 50.1771C17.3304 49.8266 17.8149 49.3316 18.1449 48.6923C18.4749 48.0324 18.6399 47.2487 18.6399 46.3414V32.8854H24.3935V46.2176C24.3935 48.2386 24.0016 49.9915 23.218 51.4763C22.4549 52.9404 21.3208 54.0747 19.8153 54.879C18.3305 55.6832 16.5055 56.0854 14.3401 56.0854ZM26.148 55.4667L33.6339 43.4646L33.6957 43.9595L26.7667 32.8854H33.0771L36.9437 39.4123H37.748L41.4909 32.8854H47.6157L40.7176 44.0214L40.6248 43.5264L48.3581 55.4667H42.0477L37.4387 48.0118H36.6344L32.2728 55.4667H26.148Z" fill="#F8DB46"/>
<mask id="mask2_290_780" style="mask-type:luminance" maskUnits="userSpaceOnUse" x="2" y="31" width="48" height="27">
<path d="M49.7331 31.4667H2.7998V57.4667H49.7331V31.4667Z" fill="white"/>
<path d="M14.3401 56.0854C12.1748 56.0854 10.3394 55.6832 8.83399 54.879C7.34919 54.0747 6.21497 52.9404 5.43133 51.4763C4.64769 49.9915 4.25586 48.2386 4.25586 46.2176V32.8854H10.0095V46.3414C10.0095 47.2282 10.1744 48.0015 10.5044 48.6614C10.855 49.3212 11.3499 49.8266 11.9892 50.1771C12.6285 50.5276 13.4121 50.703 14.3401 50.703C15.2681 50.703 16.0517 50.5276 16.6911 50.1771C17.3304 49.8266 17.8149 49.3316 18.1449 48.6923C18.4749 48.0324 18.6399 47.2487 18.6399 46.3414V32.8854H24.3935V46.2176C24.3935 48.2386 24.0016 49.9915 23.218 51.4763C22.4549 52.9404 21.3208 54.0747 19.8153 54.879C18.3305 55.6832 16.5055 56.0854 14.3401 56.0854ZM26.148 55.4667L33.6339 43.4646L33.6957 43.9595L26.7667 32.8854H33.0771L36.9437 39.4123H37.748L41.4909 32.8854H47.6157L40.7176 44.0214L40.6248 43.5264L48.3581 55.4667H42.0477L37.4387 48.0118H36.6344L32.2728 55.4667H26.148Z" fill="black"/>
</mask>
<g mask="url(#mask2_290_780)">
<path d="M8.83432 54.8789L8.19928 56.0513C8.20152 56.0525 8.20377 56.0537 8.20603 56.0549L8.83432 54.8789ZM5.43165 51.4763L4.25248 52.0987C4.25368 52.1009 4.25488 52.1032 4.2561 52.1055L5.43165 51.4763ZM4.25618 32.8853V31.552C3.51981 31.552 2.92285 32.1489 2.92285 32.8853H4.25618ZM10.0098 32.8853H11.3431C11.3431 32.1489 10.7462 31.552 10.0098 31.552V32.8853ZM10.5047 48.6613L9.31215 49.2576C9.31705 49.2675 9.32208 49.2772 9.32723 49.2869L10.5047 48.6613ZM18.1453 48.6923L19.3301 49.3037C19.3327 49.2987 19.3353 49.2936 19.3378 49.2885L18.1453 48.6923ZM18.6402 32.8853V31.552C17.9038 31.552 17.3069 32.1489 17.3069 32.8853H18.6402ZM24.3938 32.8853H25.7271C25.7271 32.1489 25.1302 31.552 24.3938 31.552V32.8853ZM23.2183 51.4763L22.0391 50.8539C22.0381 50.856 22.037 50.858 22.0359 50.8601L23.2183 51.4763ZM19.8157 54.8789L19.1874 53.7029C19.1851 53.7041 19.1829 53.7053 19.1806 53.7065L19.8157 54.8789ZM14.3405 54.752C12.3368 54.752 10.7296 54.3799 9.46261 53.7029L8.20603 56.0549C9.94984 56.9865 12.0135 57.4187 14.3405 57.4187V54.752ZM9.46936 53.7065C8.20991 53.0244 7.26553 52.0772 6.6072 50.8471L4.2561 52.1055C5.16505 53.8037 6.48913 55.1249 8.19928 56.0513L9.46936 53.7065ZM6.61083 50.8539C5.94709 49.5963 5.58952 48.0656 5.58952 46.2176H2.92285C2.92285 48.4116 3.34892 50.3867 4.25248 52.0987L6.61083 50.8539ZM5.58952 46.2176V32.8853H2.92285V46.2176H5.58952ZM4.25618 34.2187H10.0098V31.552H4.25618V34.2187ZM8.67645 32.8853V46.3413H11.3431V32.8853H8.67645ZM8.67645 46.3413C8.67645 47.3937 8.87276 48.3788 9.31215 49.2576L11.6973 48.0651C11.4768 47.624 11.3431 47.0624 11.3431 46.3413H8.67645ZM9.32723 49.2869C9.79657 50.1703 10.4752 50.8673 11.3484 51.3461L12.6306 49.008C12.2252 48.7857 11.914 48.4721 11.6822 48.0357L9.32723 49.2869ZM11.3484 51.3461C12.2307 51.83 13.2481 52.0363 14.3405 52.0363V49.3696C13.5767 49.3696 13.0269 49.2253 12.6306 49.008L11.3484 51.3461ZM14.3405 52.0363C15.4327 52.0363 16.4502 51.83 17.3325 51.3461L16.0503 49.008C15.6539 49.2253 15.1042 49.3696 14.3405 49.3696V52.0363ZM17.3325 51.3461C18.2011 50.8699 18.8767 50.1823 19.3301 49.3037L16.9605 48.0808C16.7539 48.4808 16.4602 48.7832 16.0503 49.008L17.3325 51.3461ZM19.3378 49.2885C19.7793 48.4059 19.9735 47.4089 19.9735 46.3413H17.3069C17.3069 47.0884 17.1713 47.6589 16.9527 48.096L19.3378 49.2885ZM19.9735 46.3413V32.8853H17.3069V46.3413H19.9735ZM18.6402 34.2187H24.3938V31.552H18.6402V34.2187ZM23.0605 32.8853V46.2176H25.7271V32.8853H23.0605ZM23.0605 46.2176C23.0605 48.0656 22.7029 49.5963 22.0391 50.8539L24.3975 52.0987C25.301 50.3867 25.7271 48.4116 25.7271 46.2176H23.0605ZM22.0359 50.8601C21.4014 52.0777 20.4645 53.0207 19.1874 53.7029L20.4439 56.0549C22.1778 55.1287 23.5093 53.8032 24.4007 52.0924L22.0359 50.8601ZM19.1806 53.7065C17.9382 54.3795 16.345 54.752 14.3405 54.752V57.4187C16.6666 57.4187 18.7235 56.9869 20.4507 56.0513L19.1806 53.7065ZM26.1483 55.4667L25.017 54.7611C24.7606 55.1721 24.7474 55.6899 24.9825 56.1136C25.2175 56.5372 25.6638 56.8 26.1483 56.8V55.4667ZM33.6342 43.4645L34.9573 43.2992C34.8871 42.7391 34.4721 42.2837 33.9207 42.1624C33.3695 42.0411 32.8015 42.28 32.5029 42.7589L33.6342 43.4645ZM33.6961 43.9595L32.5657 44.6667C32.8975 45.1971 33.5534 45.4253 34.1429 45.2157C34.7322 45.006 35.0966 44.4148 35.0191 43.7941L33.6961 43.9595ZM26.767 32.8853V31.552C26.2822 31.552 25.8355 31.8152 25.6006 32.2393C25.3657 32.6633 25.3795 33.1816 25.6366 33.5925L26.767 32.8853ZM33.0774 32.8853L34.2245 32.2057C33.9845 31.8005 33.5483 31.552 33.0774 31.552V32.8853ZM36.9441 39.4123L35.7969 40.0919C36.037 40.4971 36.473 40.7456 36.9441 40.7456V39.4123ZM37.7483 39.4123V40.7456C38.2261 40.7456 38.6673 40.49 38.905 40.0756L37.7483 39.4123ZM41.4913 32.8853V31.552C41.0135 31.552 40.5722 31.8076 40.3346 32.222L41.4913 32.8853ZM47.6161 32.8853L48.7495 33.5875C49.0042 33.1763 49.0163 32.6593 48.7809 32.2367C48.5455 31.814 48.0998 31.552 47.6161 31.552V32.8853ZM40.7179 44.0213L39.4074 44.2671C39.5089 44.808 39.9322 45.2309 40.4731 45.332C41.014 45.4331 41.5615 45.1913 41.8514 44.7235L40.7179 44.0213ZM40.6251 43.5264L41.7442 42.8016C41.3979 42.2669 40.7219 42.0519 40.1305 42.2883C39.539 42.5245 39.1973 43.1461 39.3146 43.7721L40.6251 43.5264ZM48.3585 55.4667V56.8C48.847 56.8 49.2965 56.5328 49.5298 56.1036C49.7631 55.6744 49.7431 55.1519 49.4775 54.7419L48.3585 55.4667ZM42.0481 55.4667L40.9139 56.1679C41.1569 56.5608 41.5861 56.8 42.0481 56.8V55.4667ZM37.439 48.0117L38.573 47.3105C38.3301 46.9176 37.901 46.6784 37.439 46.6784V48.0117ZM36.6347 48.0117V46.6784C36.1611 46.6784 35.723 46.9296 35.4838 47.3384L36.6347 48.0117ZM32.2731 55.4667V56.8C32.7467 56.8 33.1847 56.5488 33.4239 56.14L32.2731 55.4667ZM27.2797 56.1723L34.7655 44.1701L32.5029 42.7589L25.017 54.7611L27.2797 56.1723ZM32.3111 43.6299L32.373 44.1248L35.0191 43.7941L34.9573 43.2992L32.3111 43.6299ZM34.8263 43.2523L27.8973 32.1781L25.6366 33.5925L32.5657 44.6667L34.8263 43.2523ZM26.767 34.2187H33.0774V31.552H26.767V34.2187ZM31.9302 33.5649L35.7969 40.0919L38.0911 38.7327L34.2245 32.2057L31.9302 33.5649ZM36.9441 40.7456H37.7483V38.0789H36.9441V40.7456ZM38.905 40.0756L42.6479 33.5487L40.3346 32.222L36.5917 38.7489L38.905 40.0756ZM41.4913 34.2187H47.6161V31.552H41.4913V34.2187ZM46.4826 32.1832L39.5844 43.3192L41.8514 44.7235L48.7495 33.5875L46.4826 32.1832ZM42.0283 43.7756L41.9355 43.2807L39.3146 43.7721L39.4074 44.2671L42.0283 43.7756ZM39.5059 44.2512L47.2393 56.1915L49.4775 54.7419L41.7442 42.8016L39.5059 44.2512ZM48.3585 54.1333H42.0481V56.8H48.3585V54.1333ZM43.1821 54.7655L38.573 47.3105L36.3049 48.7129L40.9139 56.1679L43.1821 54.7655ZM37.439 46.6784H36.6347V49.3451H37.439V46.6784ZM35.4838 47.3384L31.1222 54.7933L33.4239 56.14L37.7855 48.6851L35.4838 47.3384ZM32.2731 54.1333H26.1483V56.8H32.2731V54.1333Z" fill="#05060F"/>
</g>
<defs>
<linearGradient id="paint0_linear_290_780" x1="25.4369" y1="10.8434" x2="25.4369" y2="69.5234" gradientUnits="userSpaceOnUse">
<stop stop-color="#1A80F8"/>
<stop offset="1" stop-color="#0E60C0"/>
</linearGradient>
<linearGradient id="paint1_linear_290_780" x1="54.5218" y1="10.8436" x2="54.5218" y2="69.5236" gradientUnits="userSpaceOnUse">
<stop stop-color="#1A80F8"/>
<stop offset="1" stop-color="#0E60C0"/>
</linearGradient>
</defs>
</svg>
