<svg width="18" height="16" viewBox="0 0 18 16" fill="none" xmlns="http://www.w3.org/2000/svg">
<path d="M7.57866 0.922512C8.0016 0.64693 8.49552 0.500214 9.00033 0.500214C9.50513 0.500214 9.99905 0.64693 10.422 0.922512L17.097 5.27251C17.1696 5.31984 17.2292 5.38452 17.2704 5.46069C17.3117 5.53687 17.3333 5.62213 17.3333 5.70876C17.3333 5.79539 17.3117 5.88066 17.2704 5.95683C17.2292 6.03301 17.1696 6.09769 17.097 6.14501L10.422 10.495C9.99905 10.7706 9.50513 10.9173 9.00033 10.9173C8.49552 10.9173 8.0016 10.7706 7.57866 10.495L1.70866 6.67001V11.2292C1.70866 11.3673 1.65379 11.4998 1.55611 11.5975C1.45844 11.6951 1.32596 11.75 1.18783 11.75C1.04969 11.75 0.917216 11.6951 0.819541 11.5975C0.721866 11.4998 0.666992 11.3673 0.666992 11.2292V5.70835C0.666992 5.5196 0.767826 5.35335 0.919076 5.26251L7.57866 0.922512ZM3.58366 12.8958V8.88626L7.12366 11.1929C7.68196 11.5567 8.33396 11.7504 9.00033 11.7504C9.66669 11.7504 10.3187 11.5567 10.877 11.1929L14.417 8.88626V12.8958C14.417 12.9292 14.4163 12.9622 14.4149 12.995C14.41 13.1277 14.3545 13.2535 14.2599 13.3467C12.8584 14.7286 10.9686 15.5023 9.00033 15.5C7.03209 15.5023 5.1423 14.7286 3.74074 13.3467C3.64598 13.2536 3.59038 13.1278 3.58533 12.995C3.58411 12.962 3.58356 12.9289 3.58366 12.8958Z" fill="#333333"/>
</svg>
