<svg width="40" height="40" viewBox="0 0 40 40" fill="none" xmlns="http://www.w3.org/2000/svg">
<path d="M35.4163 21.6667V14.1667C35.4163 11.9565 34.5384 9.83692 32.9756 8.27412C31.4128 6.71132 29.2931 5.83334 27.083 5.83334H12.9163C10.7062 5.83334 8.58659 6.71132 7.02378 8.27412C5.46098 9.83692 4.58301 11.9565 4.58301 14.1667V25.8333C4.58301 26.9277 4.79856 28.0113 5.21735 29.0224C5.63613 30.0334 6.24996 30.9521 7.02378 31.7259C8.58659 33.2887 10.7062 34.1667 12.9163 34.1667H23.3497" stroke="#333333" stroke-width="1.5" stroke-linecap="round" stroke-linejoin="round"/>
<path d="M5.0166 28.3333L9.58327 23C10.183 22.4044 10.9701 22.0342 11.8114 21.9522C12.6527 21.8702 13.4965 22.0814 14.1999 22.55C14.9034 23.0186 15.7472 23.2298 16.5885 23.1478C17.4298 23.0658 18.2169 22.6957 18.8166 22.1L22.6999 18.2167C23.8158 17.0971 25.2931 16.4104 26.8683 16.2791C28.4436 16.1478 30.0142 16.5805 31.2999 17.5L35.4166 20.6833M13.3499 16.95C13.7133 16.9478 14.0726 16.8741 14.4074 16.733C14.7423 16.592 15.046 16.3863 15.3014 16.1279C15.5567 15.8694 15.7587 15.5632 15.8957 15.2267C16.0327 14.8902 16.1021 14.53 16.0999 14.1667C16.0977 13.8034 16.024 13.444 15.883 13.1092C15.7419 12.7744 15.5363 12.4706 15.2778 12.2152C15.0194 11.9599 14.7131 11.7579 14.3766 11.6209C14.0401 11.4839 13.6799 11.4145 13.3166 11.4167C12.5828 11.4211 11.8809 11.7168 11.3652 12.2388C10.8494 12.7608 10.5622 13.4662 10.5666 14.2C10.571 14.9338 10.8667 15.6357 11.3887 16.1515C11.9107 16.6672 12.6162 16.9544 13.3499 16.95Z" stroke="#333333" stroke-width="1.5" stroke-linecap="round" stroke-linejoin="round"/>
<path d="M31.1777 25V33.3333" stroke="#333333" stroke-width="1.5" stroke-miterlimit="10" stroke-linecap="round"/>
<path d="M34.9998 28.5083L31.7214 25.23C31.6502 25.1585 31.5655 25.1017 31.4723 25.0629C31.3791 25.0242 31.2791 25.0042 31.1781 25.0042C31.0771 25.0042 30.9772 25.0242 30.8839 25.0629C30.7907 25.1017 30.706 25.1585 30.6348 25.23L27.3564 28.5083" stroke="#333333" stroke-width="1.5" stroke-linecap="round" stroke-linejoin="round"/>
</svg>
