<svg width="40" height="40" viewBox="0 0 40 40" fill="none" xmlns="http://www.w3.org/2000/svg">
<g clip-path="url(#clip0_334_1042)">
<path d="M20.0523 0H20.9672C21.3016 0.084375 21.6422 0.157813 21.9586 0.299219C22.8125 0.66875 23.507 1.38828 23.8461 2.25391C24.1031 2.88906 24.1602 3.59844 24.0297 4.26953C23.8312 5.26953 23.1781 6.16641 22.2906 6.66641C22.075 6.78594 21.8445 6.87422 21.6203 6.975C22.232 7.64297 23.1719 7.98047 24.0687 7.94375C24.7633 7.925 25.4141 7.61641 25.9703 7.21875C26.2305 7.03828 26.4594 6.81875 26.7211 6.64141C27.2992 6.24922 28.0727 6.18438 28.7172 6.44297C29.3406 6.69297 29.832 7.25 29.9977 7.90156C30.1727 8.55703 30.0125 9.28984 29.582 9.81406C29.3203 10.1273 28.9875 10.3711 28.6648 10.6172C26.9914 11.8687 24.9023 12.5547 22.8125 12.5312C22.557 12.525 22.3016 12.5109 22.0461 12.5086C21.7039 13.4664 21.3703 14.4273 21.0367 15.3883C21.3016 15.5328 21.582 15.6531 21.8305 15.8266C22.6891 16.4227 23.2836 17.3977 23.3852 18.4422C23.4367 18.9281 23.3867 19.4227 23.2523 19.8922C22.9391 21.0117 22.6289 22.1328 22.3164 23.2523C22.2148 23.6219 22.0961 23.9875 22.0281 24.3656C23.1219 23.2734 24.2156 22.1812 25.3063 21.0859C25.4719 20.9148 25.6867 20.7656 25.9367 20.7773C26.1875 20.7625 26.4078 20.907 26.5766 21.0789C27.4508 21.9516 28.3188 22.8305 29.1977 23.6984C29.268 23.793 29.3523 23.6719 29.4086 23.6281C30.4891 22.5469 31.5672 21.4633 32.6523 20.3867C32.7 20.3172 32.8086 20.2648 32.7984 20.1695C32.518 19.8281 32.1617 19.5562 31.8781 19.2172C31.6258 18.9258 31.6523 18.4453 31.9297 18.1797C32.1375 17.9641 32.4539 17.9438 32.7305 17.8828C34.6844 17.493 36.6383 17.1008 38.5906 16.7031C38.9086 16.6453 39.2555 16.5219 39.5648 16.6805C39.7883 16.7766 39.9062 17.0031 40 17.2141V17.5953C39.9523 17.7531 39.9023 17.9117 39.8695 18.0734C39.4891 20.0031 39.0891 21.9297 38.7086 23.8594C38.6641 24.0688 38.6367 24.2859 38.5437 24.4812C38.3844 24.793 37.9961 24.9562 37.6602 24.8609C37.4273 24.8062 37.2648 24.6203 37.1023 24.4602C36.7969 24.1562 36.507 23.8367 36.1813 23.5555C35.8961 23.8063 35.6406 24.0883 35.3688 24.3531C33.5461 26.1766 31.7219 27.9977 29.9016 29.8234C29.7398 29.9867 29.5367 30.1383 29.2961 30.1336C29.0312 30.1523 28.7969 30.0008 28.6219 29.8172C27.8828 29.0711 27.1359 28.3328 26.3969 27.5867C26.2523 27.4359 26.1016 27.2922 25.9437 27.157C25.7141 27.3555 25.5063 27.5766 25.293 27.7922C24.2242 28.8594 23.157 29.9281 22.0883 30.9953C21.9461 31.1344 21.7703 31.2578 21.5648 31.2672C21.3359 31.2969 21.125 31.1859 20.9359 31.0734C20.8055 30.8742 20.6727 30.6477 20.7156 30.3992C20.7461 30.0805 21.0094 29.8687 21.2195 29.657C22.5875 28.2914 23.9547 26.9234 25.3203 25.5555C25.4828 25.3883 25.6953 25.2477 25.9375 25.2563C26.2023 25.2398 26.4281 25.4031 26.6039 25.5844C27.3945 26.3813 28.1945 27.1703 28.9844 27.9695C29.0773 28.0625 29.1781 28.1469 29.2805 28.232C31.4039 26.1227 33.5117 23.9953 35.6352 21.8852C35.8906 21.6172 36.3438 21.5766 36.6383 21.8023C36.9078 22.0148 37.118 22.2922 37.3875 22.5055C37.6516 21.1344 37.9461 19.7688 38.2094 18.3977C38.0219 18.4156 37.8359 18.4438 37.6539 18.4867C36.4742 18.7398 35.2836 18.9422 34.1086 19.2156C34.2375 19.3836 34.3914 19.5305 34.5328 19.6883C34.7617 19.9352 34.7891 20.3398 34.5977 20.6164C34.4805 20.782 34.3281 20.918 34.1867 21.0617C32.7383 22.5039 31.2969 23.9531 29.8484 25.3961C29.5602 25.7188 29.0156 25.7406 28.7148 25.4227C27.7875 24.5109 26.882 23.5766 25.9492 22.6695C25.7852 22.8164 25.6281 22.9719 25.475 23.1312C21.0484 27.5586 16.6203 31.9852 12.1938 36.4133C12.0164 36.5953 11.8203 36.7617 11.6617 36.9617C11.6664 37.0523 11.7633 37.1023 11.8141 37.1695C12.1344 37.4766 12.4383 37.7984 12.7586 38.1047C12.9453 37.9422 13.118 37.7641 13.2906 37.5875C14.3312 36.5445 15.3758 35.5055 16.4141 34.4609C16.5789 34.293 16.782 34.132 17.0289 34.1336C17.2602 34.1086 17.4656 34.2336 17.6469 34.3602C17.768 34.55 17.8828 34.7664 17.843 35C17.825 35.2281 17.6766 35.4125 17.5211 35.568C16.15 36.9305 14.7852 38.3008 13.4187 39.6703C13.282 39.8078 13.1195 39.9172 12.9437 40H12.5367C12.3742 39.893 12.2164 39.7781 12.0789 39.6398C11.4156 38.975 10.7523 38.3094 10.0859 37.6484C9.91719 37.482 9.75156 37.282 9.74687 37.0336C9.72031 36.775 9.85078 36.5344 10.0336 36.3617C12.6125 33.7852 15.1898 31.2062 17.768 28.6273C18.0578 28.3281 18.3703 28.0492 18.6437 27.7344C18.3484 27.5812 18.0383 27.4398 17.8023 27.1984C17.282 26.7063 17.0359 25.9547 17.1492 25.2492C17.4125 23.575 17.6883 21.9031 17.9437 20.2289C17.7969 20.2211 17.65 20.218 17.5039 20.2203C17.3156 20.5391 17.1656 20.8781 16.9945 21.2055C15.2008 24.7531 13.4078 28.3016 11.6141 31.8492C11.3578 32.3508 10.9266 32.7648 10.4031 32.9773C9.66797 33.2852 8.77812 33.1977 8.12422 32.7406C7.49219 32.3078 7.10156 31.5445 7.125 30.7781C7.12578 30.2047 7.41484 29.6922 7.59531 29.1625C7.71406 28.8664 7.79531 28.5031 8.10234 28.3414C8.30156 28.2156 8.54609 28.2437 8.76875 28.268C9.07891 28.4359 9.33359 28.7688 9.25391 29.1391C9.12031 29.6594 8.86172 30.1391 8.7125 30.6547C8.64844 30.8938 8.71562 31.1641 8.88828 31.3422C9.18906 31.6844 9.78984 31.6844 10.0867 31.3375C10.2344 31.1578 10.3211 30.9391 10.4273 30.7344C12.3859 26.8609 14.3422 22.9867 16.3016 19.1133C16.4312 18.8367 16.7195 18.6422 17.0297 18.6578C17.6555 18.6578 18.2828 18.6477 18.9086 18.6625C19.3766 18.6664 19.7336 19.1562 19.6281 19.6055C19.3227 21.55 19.0094 23.4937 18.7016 25.4375C18.6555 25.6734 18.718 25.9352 18.9055 26.0953C19.1391 26.318 19.5375 26.3219 19.7781 26.1078C19.9367 25.982 19.9922 25.7789 20.0461 25.5938C20.618 23.5148 21.2047 21.4414 21.7742 19.3625C21.9656 18.6594 21.7484 17.8727 21.2328 17.3602C20.8344 16.95 20.2609 16.725 19.6898 16.7391C17.7961 16.7437 15.9023 16.7328 14.0086 16.7445C13.2039 18.8281 12.4156 20.9188 11.6172 23.0055C11.4961 23.3055 11.4187 23.6719 11.1164 23.8477C10.9102 23.9828 10.6547 23.9586 10.4234 23.9266C10.2312 23.7914 10.0242 23.6352 9.96641 23.3937C9.86563 23.0586 10.0547 22.7383 10.1617 22.4312C10.4242 21.7172 10.7305 21.0187 10.9555 20.2922C10.1961 20.9766 9.51328 21.743 8.76641 22.4406C8.24922 22.9187 7.43828 23.0312 6.80703 22.7242C6.44609 22.5609 6.18594 22.2523 5.91016 21.9805C4.27031 20.3391 2.62891 18.6992 0.988281 17.0586C0.79375 16.8617 0.588281 16.675 0.410156 16.4617C0.213281 16.2289 0.108594 15.9367 0 15.6562V15.0422C0.0867188 14.7695 0.179688 14.4922 0.35625 14.2625C0.525 14.043 0.732812 13.8578 0.926562 13.6609C2.07266 12.5156 3.21875 11.3703 4.36406 10.2234C4.62578 9.96562 4.87187 9.67422 5.21172 9.51719C5.85781 9.20156 6.68906 9.32187 7.21094 9.82031C7.76406 10.35 8.28906 10.9102 8.84297 11.4398C9.05234 11.2008 9.23984 10.9344 9.50781 10.7562C9.76797 10.5687 10.0766 10.4703 10.3797 10.3773C12.2898 9.78594 14.0266 8.63984 15.3148 7.10938C15.6727 6.68359 16.0984 6.30938 16.5938 6.05234C16.9172 5.86953 17.2766 5.77109 17.6227 5.64453C17.4828 5.39687 17.3297 5.15547 17.2234 4.89062C16.8406 3.95469 16.893 2.85547 17.3547 1.95703C17.7086 1.25547 18.3047 0.680469 19.0133 0.342188C19.343 0.18125 19.7055 0.110937 20.0523 0ZM20.1109 1.60781C19.3664 1.76328 18.743 2.375 18.582 3.11953C18.3852 3.91953 18.7523 4.8125 19.45 5.24844C20.1766 5.73594 21.2172 5.65547 21.8617 5.06484C22.5453 4.47891 22.7398 3.41328 22.3016 2.625C21.9016 1.85 20.9625 1.40781 20.1109 1.60781ZM17.3961 7.39453C16.7586 7.70391 16.2719 8.3 16.0906 8.98516C15.5711 10.9648 15.0617 12.9477 14.5422 14.9273C14.5305 14.9891 14.507 15.1117 14.4953 15.1734C16.1469 15.1781 17.8 15.1836 19.4516 15.1711C19.9016 13.918 20.3305 12.657 20.7766 11.4031C20.8734 11.1031 21.1625 10.8742 21.4805 10.8695C21.7711 10.8758 22.057 10.9398 22.3477 10.9531C24.4961 11.1055 26.6852 10.3461 28.2898 8.91328C28.4617 8.76016 28.5406 8.5125 28.4828 8.28828C28.4133 8.00156 28.1016 7.80625 27.8125 7.85625C27.5906 7.89062 27.4344 8.06484 27.2648 8.19531C26.5187 8.8 25.6484 9.29219 24.6898 9.44453C23.2203 9.69297 21.6578 9.19453 20.5812 8.16953C20.3672 7.96484 20.1688 7.73984 19.9219 7.57187C19.1961 7.06016 18.1875 6.99297 17.3961 7.39453ZM13.5914 10.6195C12.682 11.1805 11.6992 11.6195 10.675 11.9219C10.4297 11.9789 10.1938 12.1539 10.1578 12.4164C10.0617 12.8328 10.525 13.2547 10.9312 13.1047C11.8539 12.8414 12.7453 12.4688 13.5914 12.0172C13.7398 11.9664 13.7367 11.7898 13.7797 11.6656C13.8898 11.2078 14.0273 10.757 14.1266 10.2969C13.9406 10.3914 13.7672 10.5086 13.5914 10.6195ZM5.62344 11.1695C5.18516 11.6164 4.73594 12.0531 4.29766 12.5C4.34844 12.5773 4.40937 12.6477 4.47656 12.7109C4.92344 13.143 5.35391 13.5922 5.79844 14.0258C6.03125 13.8578 6.19375 13.5797 6.48906 13.5109C6.76953 13.432 7.07422 13.5344 7.27031 13.7437C7.84375 14.3172 8.41953 14.8875 8.98906 15.4648C9.21641 15.6852 9.29141 16.0461 9.15859 16.3352C9.05703 16.5734 8.81563 16.7055 8.68516 16.9234C9.26406 17.4719 9.80313 18.0633 10.3906 18.6023C10.8766 18.1484 11.3312 17.6625 11.8086 17.2C11.907 17.0977 12.0703 16.9531 11.9633 16.8008C11.7273 16.5133 11.4406 16.2719 11.1859 16.0023C10.5531 15.3836 9.94922 14.7367 9.29766 14.1391C8.32188 13.1102 7.29766 12.1297 6.30469 11.118C6.19922 11.0258 6.09844 10.8742 5.9375 10.907C5.81328 10.968 5.72109 11.075 5.62344 11.1695ZM1.79453 14.9984C1.69844 15.1094 1.53047 15.2125 1.57344 15.3828C1.64219 15.5359 1.78828 15.6359 1.89922 15.757C3.63203 17.4875 5.36406 19.2195 7.09453 20.9516C7.22969 21.0781 7.34531 21.232 7.50781 21.3258C7.68203 21.3742 7.79063 21.2063 7.90313 21.1063C8.35234 20.6359 8.83672 20.1977 9.27266 19.7156C8.67891 19.1289 8.09922 18.5273 7.49609 17.9508C7.26953 18.0188 7.04297 18.1023 6.80391 18.1133C6.30312 18.15 5.79375 17.9656 5.42734 17.6234C5.18438 17.3937 4.93516 17.157 4.7875 16.8516C4.5625 16.4062 4.53203 15.8695 4.70312 15.4008C4.71719 15.3203 4.79688 15.2078 4.70469 15.1445C4.19609 14.6422 3.69531 14.1328 3.18516 13.632C2.7 14.0641 2.26484 14.5492 1.79453 14.9984ZM11.875 14.4617C12.1687 14.7844 12.4781 15.0945 12.8016 15.3875C12.943 14.9219 13.0516 14.4469 13.1758 13.9766C12.7375 14.125 12.3078 14.2984 11.875 14.4617ZM6.49453 15.557C6.38281 15.682 6.23438 15.7844 6.16719 15.9422C6.10391 16.1617 6.31797 16.3055 6.45078 16.4406C6.54297 16.5469 6.70625 16.5953 6.83125 16.5148C7.01719 16.3703 7.17188 16.1898 7.33594 16.0219C7.12813 15.8141 6.92734 15.5977 6.70937 15.3992C6.6125 15.3922 6.56562 15.5078 6.49453 15.557Z" fill="black"/>
<path d="M9.18783 25.4414C9.39564 25.2992 9.6558 25.3352 9.8933 25.3375C10.0769 25.4891 10.2886 25.6438 10.3488 25.8883C10.4574 26.243 10.2699 26.6563 9.93002 26.8078C9.73783 26.907 9.51518 26.8649 9.30893 26.8602C9.14018 26.7242 8.94486 26.5938 8.87064 26.3797C8.74096 26.0422 8.87377 25.6258 9.18783 25.4414Z" fill="black"/>
<path d="M18.5152 32.7351C18.4988 32.3445 18.8215 31.9695 19.2152 31.9437C19.4473 31.9086 19.6582 32.0289 19.8559 32.1328C19.9574 32.3203 20.0879 32.5117 20.0746 32.7351C20.0731 33.1437 19.7043 33.5039 19.2965 33.4953C19.084 33.5055 18.9012 33.3836 18.7309 33.2742C18.6246 33.1117 18.5129 32.9359 18.5152 32.7351Z" fill="black"/>
<path d="M20.1111 1.60783C20.9626 1.40783 21.9017 1.85002 22.3017 2.62502C22.74 3.4133 22.5454 4.47892 21.8618 5.06486C21.2173 5.65549 20.1767 5.73595 19.4501 5.24846C18.7525 4.81252 18.3853 3.91955 18.5821 3.11955C18.7431 2.37502 19.3665 1.7633 20.1111 1.60783Z" fill="#FED2A4"/>
<path d="M17.3959 7.39452C18.1873 6.99296 19.1959 7.06015 19.9217 7.57187C20.1686 7.73983 20.367 7.96483 20.5811 8.16952C21.6576 9.19452 23.2201 9.69296 24.6896 9.44452C25.6482 9.29218 26.5186 8.79999 27.2646 8.1953C27.4342 8.06483 27.5904 7.89062 27.8123 7.85624C28.1014 7.80624 28.4131 8.00155 28.4826 8.28827C28.5404 8.51249 28.4615 8.76015 28.2896 8.91327C26.685 10.3461 24.4959 11.1055 22.3475 10.9531C22.0568 10.9398 21.7709 10.8758 21.4803 10.8695C21.1623 10.8742 20.8732 11.1031 20.7764 11.4031C20.3303 12.657 19.9014 13.918 19.4514 15.1711C17.7998 15.1836 16.1467 15.1781 14.4951 15.1734C14.5068 15.1117 14.5303 14.9891 14.542 14.9273C15.0615 12.9476 15.5709 10.9648 16.0904 8.98515C16.2717 8.29999 16.7584 7.7039 17.3959 7.39452Z" fill="#00CCF2"/>
<path d="M13.5909 10.6195C13.7667 10.5086 13.9401 10.3914 14.1261 10.2969C14.0269 10.757 13.8894 11.2078 13.7792 11.6656C13.7362 11.7898 13.7394 11.9664 13.5909 12.0172C12.7448 12.4688 11.8534 12.8414 10.9308 13.1047C10.5245 13.2547 10.0612 12.8328 10.1573 12.4164C10.1933 12.1539 10.4292 11.9789 10.6745 11.9219C11.6987 11.6195 12.6816 11.1805 13.5909 10.6195Z" fill="#00CCF2"/>
<path d="M5.62363 11.1695C5.72129 11.075 5.81348 10.968 5.9377 10.907C6.09863 10.8742 6.19941 11.0258 6.30488 11.118C7.29785 12.1297 8.32207 13.1102 9.29785 14.1391C9.94941 14.7367 10.5533 15.3836 11.1861 16.0023C11.4408 16.2719 11.7275 16.5133 11.9635 16.8008C12.0705 16.9531 11.9072 17.0977 11.8088 17.2C11.3314 17.6625 10.8768 18.1484 10.3908 18.6023C9.80332 18.0633 9.26426 17.4719 8.68535 16.9234C8.81582 16.7055 9.05723 16.5734 9.15879 16.3352C9.2916 16.0461 9.2166 15.6852 8.98926 15.4648C8.41973 14.8875 7.84395 14.3172 7.27051 13.7438C7.07441 13.5344 6.76973 13.432 6.48926 13.5109C6.19395 13.5797 6.03145 13.8578 5.79863 14.0258C5.3541 13.5922 4.92363 13.143 4.47676 12.7109C4.40957 12.6477 4.34863 12.5773 4.29785 12.5C4.73613 12.0531 5.18535 11.6164 5.62363 11.1695Z" fill="#FF9357"/>
<path d="M1.7944 14.9984C2.26471 14.5492 2.69987 14.0641 3.18502 13.632C3.69518 14.1328 4.19596 14.6422 4.70456 15.1445C4.79674 15.2078 4.71706 15.3203 4.70299 15.4008C4.5319 15.8695 4.56237 16.4062 4.78737 16.8515C4.93502 17.157 5.18424 17.3937 5.42721 17.6234C5.79362 17.9656 6.30299 18.15 6.80377 18.1133C7.04284 18.1023 7.2694 18.0187 7.49596 17.9508C8.09909 18.5273 8.67877 19.1289 9.27252 19.7156C8.83659 20.1976 8.35221 20.6359 7.90299 21.1062C7.79049 21.2062 7.6819 21.3742 7.50768 21.3258C7.34518 21.232 7.22956 21.0781 7.0944 20.9515C5.36393 19.2195 3.6319 17.4875 1.89909 15.757C1.78815 15.6359 1.64206 15.5359 1.57331 15.3828C1.53034 15.2125 1.69831 15.1094 1.7944 14.9984Z" fill="#FF9357"/>
<path d="M6.49405 15.557C6.56514 15.5078 6.61202 15.3922 6.70889 15.3992C6.92686 15.5977 7.12764 15.8141 7.33545 16.0219C7.17139 16.1899 7.0167 16.3703 6.83077 16.5149C6.70577 16.5953 6.54249 16.5469 6.4503 16.4406C6.31749 16.3055 6.10342 16.1617 6.1667 15.9422C6.23389 15.7844 6.38233 15.682 6.49405 15.557Z" fill="white"/>
<path d="M14.0084 16.7446C15.9022 16.7328 17.7959 16.7438 19.6897 16.7391C20.2608 16.725 20.8342 16.95 21.2326 17.3602C21.7483 17.8727 21.9654 18.6594 21.774 19.3625C21.2045 21.4414 20.6178 23.5149 20.0459 25.5938C19.992 25.7789 19.9365 25.9821 19.7779 26.1078C19.5373 26.3219 19.1389 26.318 18.9053 26.0953C18.7178 25.9352 18.6553 25.6735 18.7014 25.4375C19.0092 23.4938 19.3225 21.55 19.6279 19.6055C19.7334 19.1563 19.3764 18.6664 18.9084 18.6625C18.2826 18.6477 17.6553 18.6578 17.0295 18.6578C16.7193 18.6422 16.4311 18.8367 16.3014 19.1133C14.342 22.9867 12.3858 26.861 10.4272 30.7344C10.3209 30.9391 10.2342 31.1578 10.0865 31.3375C9.78966 31.6844 9.18888 31.6844 8.8881 31.3422C8.71544 31.1641 8.64825 30.8938 8.71232 30.6547C8.86154 30.1391 9.12013 29.6594 9.25372 29.1391C9.33341 28.7688 9.07872 28.436 8.76857 28.268C8.95685 27.8024 9.13107 27.3305 9.30841 26.8602C9.51466 26.8649 9.73732 26.9071 9.9295 26.8078C10.2693 26.6563 10.4568 26.243 10.3483 25.8883C10.2881 25.6438 10.0764 25.4891 9.89279 25.3375C10.067 24.8664 10.2561 24.4008 10.4233 23.9266C10.6545 23.9586 10.91 23.9828 11.1162 23.8477C11.4186 23.6719 11.4959 23.3055 11.617 23.0055C12.4154 20.9188 13.2037 18.8281 14.0084 16.7446Z" fill="#FFBE52"/>
<path d="M37.6543 18.4867C37.8363 18.4437 38.0223 18.4156 38.2098 18.3976C37.9465 19.7687 37.6519 21.1344 37.3879 22.5055C37.1184 22.2922 36.9082 22.0148 36.6387 21.8023C36.3441 21.5766 35.891 21.6172 35.6355 21.8851C33.5121 23.9953 31.4043 26.1226 29.2809 28.232C29.1785 28.1469 29.0777 28.0625 28.9848 27.9695C28.1949 27.1703 27.3949 26.3812 26.6043 25.5844C26.4285 25.4031 26.2027 25.2398 25.9379 25.2562C25.6957 25.2476 25.4832 25.3883 25.3207 25.5555C23.9551 26.9234 22.5879 28.2914 21.2199 29.657C21.0098 29.8687 20.7465 30.0805 20.716 30.3992C20.673 30.6476 20.8059 30.8742 20.9363 31.0734C20.5668 31.418 20.227 31.7906 19.8566 32.1328C19.659 32.0289 19.448 31.9086 19.216 31.9437C18.8223 31.9695 18.4996 32.3445 18.516 32.7351C18.5137 32.9359 18.6254 33.1117 18.7316 33.2742C18.366 33.632 18.0027 33.9922 17.6473 34.3601C17.466 34.2336 17.2605 34.1086 17.0293 34.1336C16.7824 34.132 16.5793 34.293 16.4145 34.4609C15.3762 35.5055 14.3316 36.5445 13.291 37.5875C13.1184 37.7641 12.9457 37.9422 12.759 38.1047C12.4387 37.7984 12.1348 37.4766 11.8145 37.1695C11.7637 37.1023 11.6668 37.0523 11.6621 36.9617C11.8207 36.7617 12.0168 36.5953 12.1941 36.4133C16.6207 31.9851 21.0488 27.5586 25.4754 23.1312C25.6285 22.9719 25.7855 22.8164 25.9496 22.6695C26.8824 23.5766 27.7879 24.5109 28.7152 25.4226C29.016 25.7406 29.5605 25.7187 29.8488 25.3961C31.2973 23.9531 32.7387 22.5039 34.1871 21.0617C34.3285 20.918 34.4809 20.782 34.598 20.6164C34.7895 20.3398 34.7621 19.9351 34.5332 19.6883C34.3918 19.5305 34.2379 19.3836 34.109 19.2156C35.284 18.9422 36.4746 18.7398 37.6543 18.4867Z" fill="#FF6371"/>
</g>
<defs>
<clipPath id="clip0_334_1042">
<rect width="40" height="40" fill="white"/>
</clipPath>
</defs>
</svg>
