<svg width="790" height="566" viewBox="0 0 790 566" fill="none" xmlns="http://www.w3.org/2000/svg">
<g filter="url(#filter0_d_681_9982)">
<rect x="64" y="61" width="662" height="438" rx="16" fill="white"/>
<g clip-path="url(#clip0_681_9982)">
<path d="M591.739 394.577H198.261C189.846 394.577 183 387.714 183 379.278V331.804H607V379.278C607 387.714 600.154 394.577 591.739 394.577Z" fill="#E6E6E6"/>
<path d="M445.925 386.635H345.583V458.483H445.925V386.635Z" fill="#E6E6E6"/>
<path d="M451.961 449.408H339.548V458.483H451.961V449.408Z" fill="#E6E6E6"/>
<path d="M606.623 351.846H183V110.499C183 104.71 187.698 100 193.473 100H596.15C601.924 100 606.623 104.71 606.623 110.499V351.846Z" fill="#3F3D56"/>
<path d="M596.437 110.966H192.808V338.611H596.437V110.966Z" fill="white"/>
<path d="M270.976 246.649C274.065 244.09 277.886 243.613 279.51 245.585C281.134 247.556 279.947 251.227 276.856 253.787C275.635 254.826 274.184 255.557 272.624 255.919L259.398 266.596L254.532 260.267L268.087 250.414C268.736 248.945 269.727 247.654 270.976 246.649Z" fill="#FFB6B6"/>
<path d="M194.53 270.737C194.524 270.265 194.528 266.147 197.57 263.544C201.064 260.553 205.994 261.764 207.723 262.188C211.718 263.169 212.045 264.887 215.797 266.652C222.815 269.954 214.021 268.263 218.198 267.205C219.643 266.838 240.439 265.392 245.616 262.198C255.684 255.987 262.543 252.22 262.543 252.22L267.028 261.211C267.028 261.211 260.543 270.249 251.417 276.945C242.055 283.814 237.375 287.248 230.261 288.575C229.649 288.689 214.583 291.268 202.448 282.18C199.681 280.107 194.609 276.309 194.53 270.737Z" fill="#040BC5"/>
<path d="M208.441 247.872C217.069 247.872 224.063 240.861 224.063 232.212C224.063 223.563 217.069 216.552 208.441 216.552C199.813 216.552 192.819 223.563 192.819 232.212C192.819 240.861 199.813 247.872 208.441 247.872Z" fill="#FFB6B6"/>
<path d="M330.786 337.423L314.698 320.914L306.393 329.598L318.379 345.427L330.268 346.79L330.786 337.423Z" fill="#FFB6B6"/>
<path d="M238.921 306.465C239.862 306.544 242.852 307.144 245.71 305.568C247.661 304.492 248.661 302.892 248.999 302.384C253.191 296.072 269.28 286.231 283.72 285.625C286.99 285.488 289.143 285.868 291.099 286.89C293.873 288.34 294.981 290.416 298.501 295.28C300.426 297.941 302.557 300.448 304.506 303.091C315.915 318.569 320.24 319.784 319.798 324.746C319.308 330.251 313.385 335.474 309.448 334.871C307.836 334.625 307.211 333.501 305.058 331.226C298.742 324.555 296.129 325.788 291.633 320.679C286.383 314.714 287.07 309.768 284.331 309.577C281.791 309.4 280.712 313.619 275.289 319.224C272.808 321.789 271.041 322.965 265.659 326.709C244.697 341.287 244.362 342.311 240.132 343.474C238.281 343.982 225.144 347.593 220.464 341.847C213.141 332.856 230.442 305.759 238.921 306.465Z" fill="#2F2E41"/>
<path d="M325.867 341.153C327.051 340.621 328.434 339.998 328.879 338.566C329.18 337.597 329.007 336.402 328.384 335.576C327.666 334.623 326.603 334.498 326.646 334.329C326.711 334.073 329.226 334.173 331.986 335.151C332.506 335.336 334.866 336.2 337.867 338.549C340.272 340.431 339.948 340.808 341.456 341.893C346.085 345.224 350.426 342.599 352.931 345.722C353.897 346.928 354.31 348.64 353.903 350.024C353.086 352.803 349.113 353.759 346.942 354.253C341.713 355.442 337.755 354.472 333.622 353.774C319.568 351.399 311.671 353.562 310.614 350.298C310.414 349.68 310.739 349.732 311.822 345.199C312.892 340.725 312.857 339.496 313.768 339.137C315.139 338.598 316.06 341.051 319.514 341.891C322.575 342.635 325.101 341.498 325.867 341.153Z" fill="#2F2E41"/>
<path d="M302.183 391.429L298.119 368.712L286.382 371.223L287.433 391.068L296.508 398.889L302.183 391.429Z" fill="#FFB6B6"/>
<path d="M243.511 314.101C244.245 314.695 246.383 316.875 249.632 317.18C251.848 317.388 253.572 316.627 254.137 316.397C261.141 313.534 279.967 314.448 292.254 322.075C295.037 323.802 296.605 325.328 297.651 327.275C299.135 330.036 298.888 332.378 299.076 338.384C299.179 341.67 299.538 344.943 299.669 348.228C300.44 367.457 303.338 370.897 300.193 374.754C296.703 379.033 288.876 380.021 285.956 377.306C284.761 376.194 284.874 374.913 284.366 371.818C282.876 362.744 280.024 362.293 279.165 355.534C278.163 347.643 281.502 343.937 279.343 342.238C277.34 340.661 274.084 343.545 266.457 345.13C262.967 345.856 260.846 345.835 254.295 345.902C228.784 346.165 227.934 346.824 223.782 345.405C221.965 344.784 209.073 340.377 208.419 332.989C207.396 321.427 236.89 308.743 243.511 314.101Z" fill="#2F2E41"/>
<path d="M296.024 391.747C297.301 391.972 298.795 392.235 299.965 391.301C300.757 390.669 301.283 389.582 301.231 388.549C301.17 387.356 300.36 386.654 300.49 386.539C300.688 386.363 302.713 387.861 304.448 390.224C304.776 390.67 306.244 392.713 307.412 396.346C308.347 399.257 307.868 399.387 308.508 401.134C310.472 406.496 315.535 406.767 315.858 410.762C315.982 412.303 315.365 413.952 314.253 414.868C312.02 416.708 308.197 415.263 306.124 414.45C301.131 412.49 298.4 409.459 295.371 406.555C285.071 396.679 277.326 394.023 278.28 390.727C278.46 390.103 278.7 390.329 282.136 387.188C285.527 384.088 286.187 383.051 287.141 383.268C288.578 383.593 287.965 386.142 290.353 388.781C292.469 391.12 295.196 391.601 296.024 391.747Z" fill="#2F2E41"/>
<path d="M210.571 235.206C211.179 233.025 210.415 232.23 211.194 231.251C211.194 231.251 211.507 230.857 214.308 229.794C213.482 224.987 214.101 224.175 214.101 224.175C214.814 223.238 216.242 223.012 217.215 223.134C219.272 223.393 219.636 225.257 220.952 225.215C222.77 225.158 224.951 221.509 224.274 218.347C223.722 215.768 221.341 213.852 220.745 214.184C220.153 214.514 218.023 213.061 217.215 213.352C216.663 213.551 214.067 213.286 213.478 213.56C212.835 213.859 210.993 215.721 210.817 215.486C209.594 213.856 209.62 213.287 208.91 212.936C207.652 212.313 206.285 213.464 203.927 214.601C199.076 216.94 197.655 215.545 195.415 217.515C194.283 218.51 193.676 220.412 192.508 224.175C190.875 229.437 190.058 232.069 190.847 234.581C191.651 237.143 192.836 236.586 194.584 240.201C196.53 244.225 195.86 246.564 197.699 247.485C199.12 248.198 201.404 247.744 202.266 246.445C203.743 244.22 199.926 241.21 201.228 237.703C202.027 235.551 204.492 233.919 206.003 234.373C207.712 234.887 207.838 237.959 208.91 237.911C209.828 237.871 210.465 235.586 210.571 235.206Z" fill="#2F2E41"/>
<path d="M198.737 250.191C201.933 246.598 214.955 250.317 216.177 256.019C216.68 258.364 214.824 259.354 215.346 262.054C216.111 266.004 220.439 265.735 223.651 269.755C228.212 275.463 223.514 281.043 228.634 290.568C229.728 292.604 230.651 294.319 232.579 295.98C237.004 299.79 241.122 298.483 243.375 302.015C245.06 304.657 244.368 307.913 244.206 308.676C243.541 311.803 241.739 312.565 240.469 315.128C238.356 319.391 240.748 322.521 240.884 327.615C241.054 333.989 237.675 342.824 230.918 345.723C223.327 348.979 214.171 343.586 209.741 338.23C207.097 335.034 206.329 332.086 205.173 328.448C200.004 312.186 197.084 313.657 193.131 300.767C188.612 286.03 187.724 268.766 193.131 263.303C193.848 262.579 195.82 260.905 197.076 257.892C198.765 253.837 197.306 251.799 198.737 250.191Z" fill="#040BC5"/>
<path d="M245.972 333.834C248.451 336.991 248.835 340.832 246.831 342.413C244.826 343.994 241.193 342.716 238.714 339.558C237.707 338.31 237.012 336.838 236.688 335.266L226.355 321.757L231.694 317.675L242.286 330.85C243.735 331.536 244.999 332.559 245.972 333.834Z" fill="#FFB6B6"/>
<path d="M208.129 263.885C208.589 263.782 212.612 262.946 215.775 265.4C219.408 268.218 219.232 273.304 219.17 275.087C219.028 279.207 217.417 279.879 216.459 283.921C214.666 291.482 218.08 298.509 219.966 302.391C220.619 303.735 222.717 307.847 226.892 312.275C235.013 320.888 242.258 325.42 242.258 325.42L234.474 332.356C234.474 332.356 222.076 328.567 213.675 320.978C205.057 313.192 191.804 285.646 189.057 278.936C188.82 278.358 192.172 287.752 198.571 273.99C200.03 270.851 202.704 265.099 208.129 263.885Z" fill="#040BC5"/>
<path d="M407.346 257.423L398.053 253.01C401.865 258.343 405.149 266.671 406.908 273.299C409.885 267.125 414.684 259.572 419.435 255.06L409.613 257.593C415.665 227.857 438.43 206.51 464.499 206.51L464.868 205.436C437.639 205.436 413.526 226.487 407.346 257.423Z" fill="#3F3D56"/>
<path d="M450.121 302.731H391.401C388.91 302.731 386.884 300.7 386.884 298.203C386.884 295.706 388.91 293.675 391.401 293.675H450.121C452.612 293.675 454.638 295.706 454.638 298.203C454.638 300.7 452.612 302.731 450.121 302.731Z" fill="#040BC5"/>
<path d="M528.257 302.731H469.536C467.045 302.731 465.019 300.7 465.019 298.203C465.019 295.706 467.045 293.675 469.536 293.675H528.257C530.747 293.675 532.774 295.706 532.774 298.203C532.774 300.7 530.747 302.731 528.257 302.731Z" fill="#E6E6E6"/>
<path d="M493.495 179.55H436.415C434.976 179.55 433.805 178.376 433.805 176.933C433.805 175.491 434.976 174.318 436.415 174.318H493.495C494.934 174.318 496.104 175.491 496.104 176.933C496.104 178.376 494.934 179.55 493.495 179.55Z" fill="#3F3D56"/>
<path d="M524.124 207.461H405.786C404.347 207.461 403.176 206.287 403.176 204.845C403.176 203.402 404.347 202.229 405.786 202.229H524.124C525.563 202.229 526.734 203.402 526.734 204.845C526.734 206.287 525.563 207.461 524.124 207.461Z" fill="#3F3D56"/>
<path d="M208.657 459.153C208.657 459.623 209.034 460 209.503 460H580.497C580.966 460 581.342 459.623 581.342 459.153C581.342 458.683 580.966 458.305 580.497 458.305H209.503C209.034 458.305 208.657 458.683 208.657 459.153Z" fill="#3F3D56"/>
<path d="M299.755 258.289C299.654 258.289 299.554 258.285 299.453 258.279C293.508 257.896 273.168 255.011 261.024 233.963C260.024 232.23 260.221 230.027 261.514 228.481L284.003 201.621C284.923 200.523 286.344 199.89 287.782 199.907C288.777 199.931 291.131 200.183 291.589 202.002C294.29 212.752 305.698 225.391 319.417 227.067C320.808 227.236 321.924 228.48 322.403 230.393C322.777 231.883 322.432 233.418 321.455 234.606L303.44 256.536C302.525 257.65 301.182 258.289 299.755 258.289ZM287.696 200.988C286.597 200.988 285.528 201.481 284.83 202.316L262.341 229.176C261.337 230.375 261.184 232.081 261.958 233.422C273.833 254.005 293.713 256.825 299.522 257.2C300.709 257.279 301.848 256.773 302.607 255.849L320.623 233.919C321.379 232.999 321.647 231.81 321.358 230.657C321.075 229.528 320.382 228.273 319.287 228.139C305.114 226.409 293.332 213.362 290.543 202.266C290.317 201.368 288.957 201.017 287.76 200.988C287.739 200.988 287.717 200.988 287.696 200.988Z" fill="#3F3D56"/>
<path d="M274.653 234.847L290.866 218.275C291.974 217.143 290.238 215.399 289.128 216.533L272.915 233.105C271.807 234.238 273.543 235.982 274.653 234.847Z" fill="#E6E6E6"/>
<path d="M284.438 239.516C288.913 235.496 292.802 230.84 295.986 225.732C296.826 224.384 294.701 223.146 293.864 224.489C290.785 229.427 287.026 233.888 282.701 237.774C281.521 238.834 283.263 240.572 284.438 239.516Z" fill="#E6E6E6"/>
<path d="M293.258 245.107C297.332 240.583 300.8 235.534 303.53 230.087C304.239 228.674 302.119 227.425 301.408 228.844C298.77 234.106 295.457 238.993 291.52 243.365C290.463 244.539 292.196 246.287 293.258 245.107Z" fill="#E6E6E6"/>
<path d="M286.312 215.272C295.34 215.272 302.658 208.09 302.658 199.231C302.658 190.372 295.34 183.19 286.312 183.19C277.284 183.19 269.965 190.372 269.965 199.231C269.965 208.09 277.284 215.272 286.312 215.272Z" fill="#040BC5"/>
<path d="M294.817 206.84C292.303 200.644 289.789 194.448 287.275 188.252C286.928 187.396 285.84 187.366 285.501 188.252C283.017 194.748 281.394 201.526 280.614 208.438C280.481 209.615 282.321 209.605 282.453 208.438C282.759 205.733 283.212 203.049 283.794 200.393C285.866 200.502 287.954 200.269 289.953 199.714C290.983 202.253 292.013 204.792 293.043 207.33C293.484 208.415 295.264 207.941 294.817 206.84ZM284.211 198.57C284.831 196.028 285.574 193.516 286.435 191.044L289.255 197.992C287.603 198.427 285.915 198.62 284.211 198.57Z" fill="white"/>
</g>
</g>
<defs>
<filter id="filter0_d_681_9982" x="0" y="0" width="790" height="566" filterUnits="userSpaceOnUse" color-interpolation-filters="sRGB">
<feFlood flood-opacity="0" result="BackgroundImageFix"/>
<feColorMatrix in="SourceAlpha" type="matrix" values="0 0 0 0 0 0 0 0 0 0 0 0 0 0 0 0 0 0 127 0" result="hardAlpha"/>
<feMorphology radius="22" operator="dilate" in="SourceAlpha" result="effect1_dropShadow_681_9982"/>
<feOffset dy="3"/>
<feGaussianBlur stdDeviation="21"/>
<feComposite in2="hardAlpha" operator="out"/>
<feColorMatrix type="matrix" values="0 0 0 0 0 0 0 0 0 0 0 0 0 0 0 0 0 0 0.05 0"/>
<feBlend mode="normal" in2="BackgroundImageFix" result="effect1_dropShadow_681_9982"/>
<feBlend mode="normal" in="SourceGraphic" in2="effect1_dropShadow_681_9982" result="shape"/>
</filter>
<clipPath id="clip0_681_9982">
<rect width="424" height="360" fill="white" transform="translate(183 100)"/>
</clipPath>
</defs>
</svg>
