<svg width="790" height="566" viewBox="0 0 790 566" fill="none" xmlns="http://www.w3.org/2000/svg">
<g filter="url(#filter0_d_681_10194)">
<rect x="64" y="61" width="662" height="438" rx="16" fill="white"/>
<g clip-path="url(#clip0_681_10194)">
<path d="M565.484 460H544.892C544.586 459.446 544.303 458.879 544.04 458.304C541.67 453.231 540.669 447.569 539.711 442.02L538.157 433.009C543.125 436.621 548.089 440.23 553.052 443.837C554.67 445.015 556.323 446.242 557.877 447.569C561.149 450.343 563.973 453.55 565.079 457.623C565.136 457.85 565.193 458.077 565.236 458.304C565.353 458.864 565.436 459.43 565.484 460Z" fill="#F0F0F0"/>
<path d="M568.372 458.304C568.373 458.34 568.371 458.376 568.365 458.411C568.296 458.953 568.168 459.486 567.982 460H558.736C558.445 459.455 558.198 458.888 557.998 458.304C557.717 457.525 557.515 456.719 557.395 455.899C557.087 453.115 557.25 450.299 557.877 447.569C558.054 446.682 558.246 445.788 558.438 444.908L559.53 439.885L565.001 448.676C566.832 451.62 568.734 454.863 568.372 458.304Z" fill="#F0F0F0"/>
<path d="M638.295 125.935H152.705C152.516 125.931 152.337 125.853 152.205 125.718C152.074 125.584 152 125.403 152 125.215C152 125.026 152.074 124.845 152.205 124.711C152.337 124.576 152.516 124.498 152.705 124.494H638.295C638.483 124.498 638.663 124.576 638.794 124.711C638.926 124.845 639 125.026 639 125.215C639 125.403 638.926 125.584 638.794 125.718C638.663 125.853 638.483 125.931 638.295 125.935Z" fill="#CACACA"/>
<path d="M168.568 115.849C172.849 115.849 176.32 112.301 176.32 107.925C176.32 103.548 172.849 100 168.568 100C164.286 100 160.815 103.548 160.815 107.925C160.815 112.301 164.286 115.849 168.568 115.849Z" fill="#3F3D56"/>
<path d="M195.349 115.849C199.631 115.849 203.102 112.301 203.102 107.925C203.102 103.548 199.631 100 195.349 100C191.068 100 187.597 103.548 187.597 107.925C187.597 112.301 191.068 115.849 195.349 115.849Z" fill="#3F3D56"/>
<path d="M222.131 115.849C226.412 115.849 229.883 112.301 229.883 107.925C229.883 103.548 226.412 100 222.131 100C217.849 100 214.378 103.548 214.378 107.925C214.378 112.301 217.849 115.849 222.131 115.849Z" fill="#3F3D56"/>
<path d="M622.249 104.847H603.22C602.843 104.839 602.485 104.683 602.222 104.414C601.958 104.145 601.811 103.783 601.811 103.406C601.811 103.029 601.958 102.668 602.222 102.398C602.485 102.129 602.843 101.974 603.22 101.965H622.249C622.626 101.974 622.984 102.129 623.248 102.398C623.511 102.668 623.658 103.029 623.658 103.406C623.658 103.783 623.511 104.145 623.248 104.414C622.984 104.683 622.626 104.839 622.249 104.847Z" fill="#3F3D56"/>
<path d="M622.249 110.25H603.22C602.843 110.242 602.485 110.087 602.222 109.817C601.958 109.548 601.811 109.186 601.811 108.809C601.811 108.433 601.958 108.071 602.222 107.802C602.485 107.532 602.843 107.377 603.22 107.369H622.249C622.626 107.377 622.984 107.532 623.248 107.802C623.511 108.071 623.658 108.433 623.658 108.809C623.658 109.186 623.511 109.548 623.248 109.817C622.984 110.087 622.626 110.242 622.249 110.25Z" fill="#3F3D56"/>
<path d="M622.249 115.654H603.22C602.843 115.645 602.485 115.49 602.222 115.221C601.958 114.951 601.811 114.59 601.811 114.213C601.811 113.836 601.958 113.474 602.222 113.205C602.485 112.936 602.843 112.78 603.22 112.772H622.249C622.626 112.78 622.984 112.936 623.248 113.205C623.511 113.474 623.658 113.836 623.658 114.213C623.658 114.59 623.511 114.951 623.248 115.221C622.984 115.49 622.626 115.645 622.249 115.654Z" fill="#3F3D56"/>
<path d="M566.7 371.025H198.004C194.109 371.02 190.374 369.471 187.62 366.717C184.866 363.962 183.316 360.228 183.312 356.333V172.856C183.316 168.961 184.866 165.227 187.62 162.472C190.375 159.718 194.109 158.169 198.004 158.165H566.7C570.596 158.169 574.33 159.718 577.085 162.472C579.839 165.227 581.388 168.961 581.393 172.856V356.333C581.389 360.228 579.839 363.962 577.085 366.717C574.33 369.471 570.596 371.02 566.7 371.025Z" fill="#F0F0F0"/>
<path d="M607.171 421.085H238.476C234.58 421.081 230.846 419.532 228.091 416.777C225.337 414.023 223.787 410.289 223.783 406.394V222.916C223.787 219.021 225.337 215.287 228.091 212.533C230.846 209.779 234.58 208.229 238.476 208.225H607.171C611.067 208.229 614.801 209.779 617.556 212.533C620.31 215.287 621.86 219.021 621.864 222.916V406.394C621.86 410.289 620.31 414.023 617.556 416.777C614.801 419.532 611.067 421.081 607.171 421.085Z" fill="white"/>
<path d="M607.171 421.085H238.476C234.58 421.081 230.846 419.532 228.091 416.777C225.337 414.023 223.787 410.289 223.783 406.394V222.916C223.787 219.021 225.337 215.287 228.091 212.533C230.846 209.779 234.58 208.229 238.476 208.225H607.171C611.067 208.229 614.801 209.779 617.556 212.533C620.31 215.287 621.86 219.021 621.864 222.916V406.394C621.86 410.289 620.31 414.023 617.556 416.777C614.801 419.532 611.067 421.081 607.171 421.085ZM238.476 210.354C235.145 210.357 231.951 211.682 229.596 214.037C227.24 216.393 225.916 219.586 225.912 222.916V406.394C225.915 409.724 227.24 412.918 229.596 415.273C231.951 417.628 235.145 418.953 238.476 418.957H607.171C610.502 418.953 613.696 417.628 616.051 415.273C618.407 412.918 619.732 409.724 619.735 406.394V222.916C619.732 219.586 618.407 216.393 616.051 214.037C613.696 211.682 610.502 210.357 607.171 210.354H238.476Z" fill="#E4E4E4"/>
<path d="M266.789 388.962H561.61V338.435C561.565 333.107 560.457 327.842 558.349 322.948C556.242 318.054 553.178 313.631 549.338 309.937L549.258 309.859C543.992 304.576 526.394 291.168 508.187 292.305C498.568 292.904 490.334 297.538 483.712 306.081C463.101 332.681 436.026 323.702 421.721 315.983C409.115 309.178 396.24 305.984 383.453 306.492C365.544 307.193 340.337 313.789 321.954 341.242C314.933 351.718 299.664 365.939 266.789 374.297L266.789 388.962Z" fill="#040BC5"/>
<path d="M578.291 390.137H267.356C267.098 390.137 266.851 390.035 266.668 389.852C266.486 389.67 266.383 389.422 266.383 389.164V240.145C266.383 239.887 266.486 239.64 266.668 239.457C266.851 239.275 267.098 239.172 267.356 239.172C267.614 239.172 267.862 239.275 268.044 239.457C268.227 239.64 268.329 239.887 268.329 240.145V388.191H578.291C578.549 388.191 578.797 388.294 578.979 388.476C579.162 388.659 579.264 388.906 579.264 389.164C579.264 389.422 579.162 389.67 578.979 389.852C578.797 390.035 578.549 390.137 578.291 390.137Z" fill="#3F3D56"/>
<path d="M382.803 313.861C386.027 313.861 388.641 311.247 388.641 308.023C388.641 304.799 386.027 302.185 382.803 302.185C379.578 302.185 376.964 304.799 376.964 308.023C376.964 311.247 379.578 313.861 382.803 313.861Z" fill="#3F3D56"/>
<path d="M497.315 298.594C500.54 298.594 503.154 295.98 503.154 292.756C503.154 289.532 500.54 286.918 497.315 286.918C494.091 286.918 491.477 289.532 491.477 292.756C491.477 295.98 494.091 298.594 497.315 298.594Z" fill="#3F3D56"/>
<path d="M440.059 330.082C443.284 330.082 445.897 327.469 445.897 324.244C445.897 321.02 443.284 318.406 440.059 318.406C436.834 318.406 434.22 321.02 434.22 324.244C434.22 327.469 436.834 330.082 440.059 330.082Z" fill="#3F3D56"/>
<path d="M325.547 338.67C328.772 338.67 331.386 336.056 331.386 332.832C331.386 329.608 328.772 326.994 325.547 326.994C322.322 326.994 319.708 329.608 319.708 332.832C319.708 336.056 322.322 338.67 325.547 338.67Z" fill="#3F3D56"/>
<path d="M554.571 319.586C557.795 319.586 560.409 316.972 560.409 313.748C560.409 310.524 557.795 307.91 554.571 307.91C551.346 307.91 548.732 310.524 548.732 313.748C548.732 316.972 551.346 319.586 554.571 319.586Z" fill="#3F3D56"/>
<path d="M622.209 332.112C621.564 331.491 621.064 330.736 620.742 329.901C620.421 329.065 620.287 328.17 620.349 327.277C620.411 326.384 620.669 325.516 621.103 324.733C621.537 323.95 622.138 323.272 622.862 322.747L616.568 301.92L627.404 305.148L631.72 324.43C632.522 325.706 632.829 327.231 632.581 328.718C632.334 330.204 631.549 331.548 630.377 332.495C629.204 333.442 627.726 333.926 626.22 333.855C624.715 333.785 623.288 333.164 622.209 332.112Z" fill="#9E616A"/>
<path d="M520.032 208.266C519.917 209.154 519.998 210.056 520.27 210.909C520.541 211.762 520.996 212.545 521.603 213.203C522.21 213.861 522.954 214.378 523.782 214.717C524.61 215.056 525.503 215.21 526.397 215.167L534.504 235.357L540.944 226.064L532.258 208.316C532.086 206.819 531.372 205.437 530.249 204.432C529.127 203.426 527.674 202.868 526.167 202.861C524.66 202.855 523.203 203.402 522.072 204.398C520.942 205.394 520.216 206.771 520.032 208.266Z" fill="#9E616A"/>
<path d="M611.441 451.086H603.976L600.425 422.295L611.442 422.296L611.441 451.086Z" fill="#9E616A"/>
<path d="M613.345 458.321L589.275 458.321V458.016C589.275 455.532 590.262 453.149 592.019 451.392C593.776 449.636 596.159 448.649 598.644 448.648L613.345 448.649L613.345 458.321Z" fill="#2F2E41"/>
<path d="M587.013 450.849L579.897 448.596L585.201 420.076L595.704 423.401L587.013 450.849Z" fill="#9E616A"/>
<path d="M586.645 458.322L563.698 451.057L563.789 450.767C564.539 448.398 566.2 446.425 568.405 445.28C570.61 444.135 573.18 443.914 575.549 444.663L589.564 449.1L586.645 458.322Z" fill="#2F2E41"/>
<path d="M578.172 310.374C578.172 310.374 567.096 327.764 571.01 343.285C574.924 358.805 579.186 388.638 579.186 388.638L600.407 439.137L616.226 438.492L600.517 378.952L601.138 339.143C601.138 339.143 612.057 320.117 609.93 314.194C607.804 308.272 578.172 310.374 578.172 310.374Z" fill="#2F2E41"/>
<path d="M614.357 316.591C614.357 316.591 615.719 333.843 611.457 341.149C607.195 348.455 602.654 376.262 602.654 376.262L595.41 431.877L580.404 426.995L593.2 364.685L603.256 315.671L614.357 316.591Z" fill="#2F2E41"/>
<path d="M619.677 233.08L607.97 225.034L590.154 224.516L583.949 230.598L574.481 235.433L573.604 314.194C573.604 314.194 601.957 327.783 617.211 321.224L624.548 259.869C627.593 247.692 619.677 233.08 619.677 233.08Z" fill="#3F3D56"/>
<path d="M576.859 256.48H545.63L525.113 221.167L538.454 215.883L549.752 235.979L566.105 234.499L576.316 234.006C577.952 233.926 579.586 234.206 581.103 234.824C582.62 235.442 583.984 236.384 585.099 237.585C586.213 238.785 587.052 240.214 587.557 241.772C588.062 243.331 588.22 244.981 588.02 246.606C587.683 249.33 586.363 251.836 584.307 253.654C582.252 255.473 579.603 256.478 576.859 256.48Z" fill="#3F3D56"/>
<path d="M600.514 218.03C609.046 218.03 615.962 211.115 615.962 202.584C615.962 194.053 609.046 187.138 600.514 187.138C591.983 187.138 585.067 194.053 585.067 202.584C585.067 211.115 591.983 218.03 600.514 218.03Z" fill="#9E616A"/>
<path d="M619.127 199.069C618.653 195.678 616.356 192.458 613.089 191.431C611.792 187.663 608.355 184.889 604.557 183.68C601.041 182.559 597.251 182.637 593.784 183.901C590.316 185.166 587.367 187.546 585.398 190.668C585.107 191.124 584.213 192.247 584.238 192.792C584.27 193.485 585.329 194.199 585.862 194.636C587.181 195.655 588.603 196.533 590.106 197.255C595.661 200.135 593.811 204.66 593.736 209.789C593.7 212.281 594.532 214.408 596.657 215.832C599.724 217.886 604.113 217.069 607.45 216.244C611.237 215.309 614.385 211.983 616.545 208.775C618.457 205.935 619.602 202.46 619.127 199.069Z" fill="#2F2E41"/>
<path d="M618.973 252.888L632.072 317.78L612.761 318.836L618.973 252.888Z" fill="#3F3D56"/>
<path d="M632.498 459.149C632.498 459.26 632.477 459.37 632.435 459.473C632.393 459.576 632.33 459.67 632.252 459.749C632.174 459.828 632.08 459.891 631.978 459.934C631.875 459.977 631.765 459.999 631.653 460H531.388C531.163 460 530.948 459.911 530.789 459.752C530.63 459.593 530.54 459.377 530.54 459.152C530.54 458.927 530.63 458.712 530.789 458.553C530.948 458.394 531.163 458.304 531.388 458.304H631.653C631.877 458.305 632.092 458.394 632.25 458.552C632.408 458.71 632.497 458.925 632.498 459.149Z" fill="#CACACA"/>
</g>
</g>
<defs>
<filter id="filter0_d_681_10194" x="0" y="0" width="790" height="566" filterUnits="userSpaceOnUse" color-interpolation-filters="sRGB">
<feFlood flood-opacity="0" result="BackgroundImageFix"/>
<feColorMatrix in="SourceAlpha" type="matrix" values="0 0 0 0 0 0 0 0 0 0 0 0 0 0 0 0 0 0 127 0" result="hardAlpha"/>
<feMorphology radius="22" operator="dilate" in="SourceAlpha" result="effect1_dropShadow_681_10194"/>
<feOffset dy="3"/>
<feGaussianBlur stdDeviation="21"/>
<feComposite in2="hardAlpha" operator="out"/>
<feColorMatrix type="matrix" values="0 0 0 0 0 0 0 0 0 0 0 0 0 0 0 0 0 0 0.05 0"/>
<feBlend mode="normal" in2="BackgroundImageFix" result="effect1_dropShadow_681_10194"/>
<feBlend mode="normal" in="SourceGraphic" in2="effect1_dropShadow_681_10194" result="shape"/>
</filter>
<clipPath id="clip0_681_10194">
<rect width="487" height="360" fill="white" transform="translate(152 100)"/>
</clipPath>
</defs>
</svg>
