<svg width="24" height="24" viewBox="0 0 24 24" fill="none" xmlns="http://www.w3.org/2000/svg">
<circle cx="12" cy="12" r="11.5" fill="white" stroke="#AAAAAA"/>
<path d="M12.0005 12.9334L8.73385 16.2C8.61163 16.3223 8.45608 16.3834 8.26719 16.3834C8.0783 16.3834 7.92274 16.3223 7.80052 16.2C7.6783 16.0778 7.61719 15.9223 7.61719 15.7334C7.61719 15.5445 7.6783 15.3889 7.80052 15.2667L11.0672 12L7.80052 8.73337C7.6783 8.61114 7.61719 8.45559 7.61719 8.2667C7.61719 8.07781 7.6783 7.92225 7.80052 7.80003C7.92274 7.67781 8.0783 7.6167 8.26719 7.6167C8.45608 7.6167 8.61163 7.67781 8.73385 7.80003L12.0005 11.0667L15.2672 7.80003C15.3894 7.67781 15.545 7.6167 15.7339 7.6167C15.9227 7.6167 16.0783 7.67781 16.2005 7.80003C16.3227 7.92225 16.3839 8.07781 16.3839 8.2667C16.3839 8.45559 16.3227 8.61114 16.2005 8.73337L12.9339 12L16.2005 15.2667C16.3227 15.3889 16.3839 15.5445 16.3839 15.7334C16.3839 15.9223 16.3227 16.0778 16.2005 16.2C16.0783 16.3223 15.9227 16.3834 15.7339 16.3834C15.545 16.3834 15.3894 16.3223 15.2672 16.2L12.0005 12.9334Z" fill="#333333"/>
</svg>
