<svg width="32" height="35" viewBox="0 0 32 35" fill="none" xmlns="http://www.w3.org/2000/svg">
<path d="M25.1561 15.75C25.2186 15.8437 25.3749 15.7812 25.3749 15.6875C25.5624 14 26.0624 9.34374 29.3749 8.34374C30.4374 8.03124 31.4999 8.78124 31.6249 9.74999C31.8436 11.3125 30.0624 15.3437 30.2186 19.0312C30.2499 19.625 31.2499 25.9062 28.5936 29.625C25.9374 33.3437 19.6249 37.125 13.3436 31.375C10.0936 28.4062 10.0936 27.2187 6.06237 23.0625C5.24987 22.25 1.99987 18.6875 1.12487 17.5937C-0.031378 16.125 1.81237 14.1875 3.21862 15.1875C3.87487 15.6562 9.68737 20.5312 9.90612 20.75C10.3436 21.125 10.8749 20.5937 10.5624 20.2187C6.99987 15.5312 3.56237 11.3125 2.62487 9.68749C1.68737 8.06249 3.93737 6.31249 5.24987 7.71874C6.15612 8.65624 12.8749 16.5 13.1874 16.8437C13.4999 17.1875 14.0311 16.75 13.8436 16.3125C13.6249 15.9062 8.18737 6.43749 7.21862 4.28124C6.37487 2.37499 9.18737 0.593744 10.4999 2.56249C11.5624 4.12499 17.4999 14 17.7186 14.3437C17.9999 14.8437 18.6249 14.5312 18.3749 13.9687C18.1874 13.5625 14.5311 3.56249 14.2499 2.53124C13.7499 0.718745 16.3436 -0.781255 17.5624 1.28124C19.2186 4.12499 22.4999 12.8125 25.1561 15.75Z" fill="#FFCA28"/>
</svg>
