<svg width="24" height="24" viewBox="0 0 24 24" fill="none" xmlns="http://www.w3.org/2000/svg">
<rect width="24" height="24" rx="12" fill="white"/>
<path d="M15.7188 5.00009H8.28125C6.46907 5.00009 5 6.46916 5 8.28134V15.7188C5 17.531 6.46907 19.0001 8.28125 19.0001H15.7188C17.5309 19.0001 19 17.531 19 15.7188V8.28134C19 6.46916 17.5309 5.00009 15.7188 5.00009Z" fill="url(#paint0_radial_685_321)"/>
<path d="M15.7188 5.00009H8.28125C6.46907 5.00009 5 6.46916 5 8.28134V15.7188C5 17.531 6.46907 19.0001 8.28125 19.0001H15.7188C17.5309 19.0001 19 17.531 19 15.7188V8.28134C19 6.46916 17.5309 5.00009 15.7188 5.00009Z" fill="url(#paint1_radial_685_321)"/>
<path d="M12.0005 6.53131C10.5153 6.53131 10.3289 6.53782 9.74556 6.56434C9.16336 6.59103 8.76595 6.68318 8.41824 6.81842C8.05851 6.95809 7.75341 7.14496 7.44945 7.44902C7.14523 7.75303 6.95836 8.05813 6.81825 8.4177C6.68263 8.76551 6.59037 9.16309 6.56417 9.74502C6.53809 10.3284 6.53125 10.5149 6.53125 12.0001C6.53125 13.4854 6.53781 13.6712 6.56428 14.2545C6.59108 14.8367 6.68323 15.2341 6.81836 15.5818C6.95814 15.9416 7.14501 16.2467 7.44907 16.5506C7.75297 16.8548 8.05807 17.0421 8.41753 17.1818C8.76551 17.3171 9.16298 17.4092 9.74507 17.4359C10.3284 17.4624 10.5147 17.4689 11.9998 17.4689C13.4852 17.4689 13.671 17.4624 14.2543 17.4359C14.8365 17.4092 15.2344 17.3171 15.5824 17.1818C15.9419 17.0421 16.2466 16.8548 16.5504 16.5506C16.8547 16.2467 17.0415 15.9416 17.1816 15.582C17.3161 15.2341 17.4084 14.8366 17.4357 14.2546C17.4619 13.6713 17.4688 13.4854 17.4688 12.0001C17.4688 10.5149 17.4619 10.3285 17.4357 9.74513C17.4084 9.16293 17.3161 8.76557 17.1816 8.41787C17.0415 8.05813 16.8547 7.75303 16.5504 7.44902C16.2463 7.14485 15.942 6.95798 15.582 6.81848C15.2334 6.68318 14.8358 6.59098 14.2536 6.56434C13.6702 6.53782 13.4845 6.53131 11.9988 6.53131H12.0005ZM11.5099 7.51683C11.6555 7.51662 11.818 7.51683 12.0005 7.51683C13.4607 7.51683 13.6337 7.52208 14.2104 7.54828C14.7436 7.57267 15.033 7.66176 15.2257 7.73662C15.481 7.83572 15.6629 7.95423 15.8542 8.14569C16.0456 8.33709 16.1641 8.51937 16.2634 8.77459C16.3383 8.96709 16.4275 9.2565 16.4518 9.7897C16.478 10.3662 16.4837 10.5394 16.4837 11.9989C16.4837 13.4584 16.478 13.6316 16.4518 14.208C16.4274 14.7412 16.3383 15.0306 16.2634 15.2232C16.1643 15.4784 16.0456 15.6601 15.8542 15.8514C15.6628 16.0428 15.4811 16.1613 15.2257 16.2604C15.0332 16.3356 14.7436 16.4245 14.2104 16.4489C13.6338 16.4751 13.4607 16.4808 12.0005 16.4808C10.5402 16.4808 10.3671 16.4751 9.79068 16.4489C9.25748 16.4243 8.96807 16.3352 8.77513 16.2603C8.51996 16.1612 8.33763 16.0427 8.14623 15.8513C7.95482 15.6599 7.83637 15.4781 7.737 15.2227C7.66213 15.0302 7.57294 14.7408 7.54866 14.2076C7.52246 13.6311 7.51721 13.4579 7.51721 11.9975C7.51721 10.5371 7.52246 10.3648 7.54866 9.78833C7.57305 9.25513 7.66213 8.96572 7.737 8.77295C7.83615 8.51772 7.95482 8.33545 8.14628 8.14405C8.33774 7.95264 8.51996 7.83413 8.77519 7.73482C8.96796 7.65962 9.25748 7.57076 9.79068 7.54626C10.2952 7.52345 10.4907 7.51662 11.5099 7.51547V7.51683ZM14.9197 8.42487C14.5574 8.42487 14.2635 8.71854 14.2635 9.0809C14.2635 9.4432 14.5574 9.73715 14.9197 9.73715C15.282 9.73715 15.576 9.4432 15.576 9.0809C15.576 8.71859 15.282 8.42465 14.9197 8.42465V8.42487ZM12.0005 9.19164C10.4496 9.19164 9.19207 10.4491 9.19207 12.0001C9.19207 13.5511 10.4496 14.808 12.0005 14.808C13.5515 14.808 14.8085 13.5511 14.8085 12.0001C14.8085 10.4492 13.5514 9.19164 12.0004 9.19164H12.0005ZM12.0005 10.1772C13.0072 10.1772 13.8234 10.9933 13.8234 12.0001C13.8234 13.0069 13.0072 13.8231 12.0005 13.8231C10.9938 13.8231 10.1776 13.0069 10.1776 12.0001C10.1776 10.9933 10.9937 10.1772 12.0005 10.1772Z" fill="white"/>
<defs>
<radialGradient id="paint0_radial_685_321" cx="0" cy="0" r="1" gradientUnits="userSpaceOnUse" gradientTransform="translate(8.71875 20.0784) rotate(-90) scale(13.875 12.9049)">
<stop stop-color="#FFDD55"/>
<stop offset="0.1" stop-color="#FFDD55"/>
<stop offset="0.5" stop-color="#FF543E"/>
<stop offset="1" stop-color="#C837AB"/>
</radialGradient>
<radialGradient id="paint1_radial_685_321" cx="0" cy="0" r="1" gradientUnits="userSpaceOnUse" gradientTransform="translate(2.65495 6.00858) rotate(78.681) scale(6.20222 25.5657)">
<stop stop-color="#3771C8"/>
<stop offset="0.128" stop-color="#3771C8"/>
<stop offset="1" stop-color="#6600FF" stop-opacity="0"/>
</radialGradient>
</defs>
</svg>
