<svg width="40" height="40" viewBox="0 0 40 40" fill="none" xmlns="http://www.w3.org/2000/svg">
<path d="M12.6141 4.02029C13.7446 2.49451 15.5282 1.47107 17.4204 1.28591C17.9923 1.22966 18.5673 1.25545 19.1407 1.24998C19.6798 1.2531 20.229 1.21482 20.754 1.3617C21.6844 1.59607 22.4821 2.25857 22.9118 3.11248C23.2438 3.13045 23.5774 3.13904 23.9055 3.19998C24.9024 3.37576 25.8266 3.91717 26.4743 4.69373C27.1329 5.46951 27.4946 6.48279 27.4977 7.4992C27.504 8.74529 27.4969 9.99217 27.5008 11.2383C28.1532 11.2703 28.8055 11.5086 29.2665 11.9828C29.9321 12.6367 30.1751 13.6765 29.8641 14.557C29.6016 15.3406 28.9258 15.9719 28.1219 16.1679C27.8946 16.2258 27.6594 16.2289 27.4305 16.2695C27.361 16.3476 27.361 16.4633 27.3298 16.5594C27.2626 16.8758 27.1766 17.1875 27.0821 17.4969C27.8743 17.5086 28.6774 17.4594 29.4548 17.6429C31.1173 17.9844 32.6196 19.0211 33.536 20.4484C33.879 20.9679 34.1133 21.5476 34.3735 22.1109C35.3344 24.2398 36.318 26.3586 37.2649 28.4937C37.079 28.5797 36.8962 28.6703 36.7102 28.7531C36.5173 28.839 36.3219 28.9187 36.1266 28.9969C35.6516 27.9398 35.1751 26.8828 34.6868 25.8312C33.7469 26.2304 32.8235 26.6656 31.8837 27.0633C31.8649 27.8484 31.8797 28.6336 31.8743 29.4195C32.1008 29.3953 32.329 29.3648 32.5563 29.389C33.118 29.457 33.6399 29.8219 33.8758 30.339C34.011 30.6336 34.1001 30.9469 34.2071 31.2523C34.8876 31.2492 35.568 31.2492 36.2485 31.2508C36.2501 31.5515 36.2516 31.8531 36.2524 32.1547C36.2508 32.2695 36.2501 32.3844 36.2493 32.5C35.4399 32.4961 34.6305 32.5062 33.8219 32.4992C33.5829 32.5054 33.3227 32.4125 33.2149 32.1836C33.0118 31.7758 32.943 31.3156 32.7548 30.9015C32.6954 30.7601 32.5657 30.6508 32.4118 30.6304C32.1704 30.5859 31.9055 30.7703 31.8883 31.0211C31.8493 31.3531 31.9055 31.6906 31.8501 32.0226C31.8001 32.2976 31.5321 32.4961 31.2563 32.4937C30.6282 32.5242 29.9977 32.4758 29.3688 32.5062C29.1337 32.5062 28.9016 32.6429 28.8094 32.8633C28.7462 33.0195 28.7516 33.1922 28.7469 33.3586C28.7516 34.4523 28.7516 35.5469 28.7469 36.6414C28.7501 36.8742 28.7469 37.1445 28.9337 37.3156C29.1258 37.5219 29.4305 37.4976 29.6876 37.5039C31.0696 37.4922 32.4516 37.5086 33.8337 37.4961C35.1673 37.4773 36.4516 36.6851 37.0633 35.5C37.4798 34.7375 37.5626 33.8422 37.4602 32.9914C37.3821 32.0414 37.0954 31.1242 36.7133 30.2554C36.886 30.1773 37.0579 30.0976 37.2298 30.0164C37.4337 29.9179 37.6446 29.8359 37.8571 29.7578C38.4571 31.0812 38.7962 32.5328 38.743 33.9898C38.6868 35.2359 38.1423 36.4554 37.2438 37.3219C36.3274 38.2344 35.0407 38.7515 33.7501 38.75C24.5829 38.75 15.4165 38.75 6.25007 38.75C4.93991 38.7547 3.636 38.2164 2.71647 37.2828C1.80085 36.382 1.26647 35.1117 1.25163 33.8281C1.23522 32.4781 1.52897 31.1273 2.08757 29.8984C3.37272 27.0679 4.66022 24.239 5.94616 21.4086C6.22116 20.7898 6.57897 20.2062 7.02975 19.7C7.18678 19.832 7.34303 19.9648 7.49694 20.1C7.65006 20.2344 7.80241 20.3687 7.95632 20.5023C7.64694 20.9187 7.34147 21.3429 7.13288 21.8203C6.70163 22.7742 6.2571 23.7219 5.83991 24.682C6.59694 25.0297 7.36022 25.3633 8.12194 25.7015C8.13913 25.0484 8.10553 24.3961 8.1321 23.7437C8.12897 23.4687 8.32428 23.1961 8.60319 23.1508C8.93522 23.0984 9.2735 23.1281 9.60866 23.1242C11.979 23.1258 14.3485 23.125 16.7188 23.1242C17.3165 23.125 17.9329 23.089 18.5055 23.2937C19.1001 23.4828 19.5907 23.8883 20.0001 24.3476C20.1751 24.1672 20.3477 23.9836 20.5415 23.8234C21.0251 23.4242 21.6352 23.1828 22.261 23.139C22.6524 23.1117 23.0454 23.1265 23.4376 23.125C25.7555 23.1242 28.0735 23.1258 30.3907 23.1242C30.7258 23.1281 31.0641 23.0984 31.3969 23.1508C31.6751 23.1968 31.8704 23.4687 31.868 23.7437C31.8946 24.3961 31.861 25.05 31.8782 25.7023C32.6399 25.3656 33.4055 25.0351 34.1602 24.6828C33.8758 24.0078 33.5571 23.3492 33.2594 22.6804C32.9891 22.1008 32.7563 21.4976 32.3852 20.9719C31.5165 19.7273 30.086 18.8914 28.5696 18.7734C27.8798 18.7281 27.1876 18.7539 26.4969 18.7539C25.8008 19.9273 24.8032 20.925 23.6001 21.5758C21.9923 22.4679 20.0485 22.7226 18.2626 22.2922C16.6141 21.9047 15.1094 20.9367 14.0766 19.5945C13.8688 19.3258 13.6844 19.0406 13.5032 18.7539C12.793 18.7554 12.0813 18.7258 11.3719 18.7773C10.3844 18.8601 9.45085 19.2695 8.65788 19.8515C8.52428 19.6906 8.38678 19.5328 8.25475 19.3703C8.1235 19.2094 8.01022 19.0351 7.8946 18.8625C8.76569 18.214 9.77897 17.7453 10.8579 17.5836C11.5383 17.4687 12.2305 17.5086 12.918 17.4969C12.7915 17.089 12.6883 16.6742 12.5938 16.2578C11.7587 16.2664 10.9204 15.875 10.4485 15.175C9.83053 14.3148 9.861 13.0617 10.5165 12.2297C10.9774 11.6086 11.7368 11.2672 12.5001 11.2383C12.4993 11.0344 12.4993 10.8304 12.5008 10.6265C12.2423 10.625 11.9813 10.6422 11.7251 10.6008C11.4524 10.5484 11.2501 10.282 11.2548 10.007C11.2391 9.37966 11.2548 8.75232 11.2501 8.12498C11.2454 6.65623 11.7337 5.19451 12.6141 4.02029ZM13.7516 4.60466C15.1883 4.33513 16.5915 3.88982 17.9446 3.33982C18.0313 3.32107 18.154 3.23201 18.2274 3.3242C18.3805 3.67498 18.4868 4.04529 18.6485 4.39295C18.404 4.50623 18.1571 4.61482 17.9032 4.70545C16.2844 5.30857 14.611 5.77732 12.9008 6.0367C12.7563 6.41013 12.6501 6.79607 12.5782 7.18982C15.2274 6.97888 17.8298 6.11873 20.0735 4.69138C20.3282 5.01482 20.5758 5.34373 20.7969 5.69138C19.9852 6.26091 19.0907 6.70388 18.1805 7.09216C16.379 7.84763 14.4563 8.30857 12.5087 8.45701C12.4985 8.76248 12.4962 9.06795 12.5008 9.37341C13.3094 9.37107 14.118 9.38982 14.9258 9.35779C17.3798 9.2492 19.7876 8.47185 21.868 7.17263C21.8876 6.21482 21.8649 5.25545 21.8798 4.29763C21.8758 4.08748 21.8891 3.86638 21.793 3.67263C21.4532 2.9742 20.7024 2.49998 19.9243 2.50154C19.2985 2.49607 18.6727 2.4992 18.0469 2.50154C16.3985 2.5156 14.768 3.30467 13.7516 4.60466ZM23.1282 4.36873C23.1188 5.20388 23.1313 6.03904 23.1212 6.87498C23.1219 7.10935 23.1071 7.35701 23.211 7.57498C23.843 8.95388 24.9118 10.139 26.243 10.8726C26.2454 10.4765 26.2688 10.0797 26.2438 9.68435C26.2438 9.56326 26.179 9.45779 26.1102 9.36404C25.3516 8.37029 24.4282 7.51091 23.4196 6.77498C23.6282 6.41638 23.8532 6.06638 24.1141 5.74295C24.8868 6.28045 25.586 6.91248 26.2462 7.58123C26.2954 6.36873 25.5571 5.18279 24.4587 4.67576C24.0454 4.47107 23.5852 4.3906 23.1282 4.36873ZM21.4844 8.8281C20.0258 9.59841 18.4446 10.1375 16.8165 10.4054C16.5532 10.4273 16.3891 10.6508 16.204 10.8094C15.4891 11.4484 14.6524 11.9484 13.7579 12.2914C13.7415 12.8554 13.7532 13.4203 13.7501 13.9844C13.7563 14.6804 13.7149 15.3828 13.843 16.0711C14.0548 17.3133 14.6579 18.4828 15.5423 19.3789C16.4063 20.2617 17.5383 20.8797 18.7501 21.1226C20.3094 21.4476 21.9883 21.1422 23.3321 20.2867C24.7579 19.3937 25.7946 17.9023 26.1227 16.2508C26.2922 15.4812 26.2438 14.6883 26.2501 13.9062C26.2485 13.3648 26.254 12.8242 26.2462 12.2828C24.5266 11.4922 23.0907 10.1086 22.2337 8.42185C21.9805 8.55154 21.7337 8.69138 21.4844 8.8281ZM13.7477 10.6179C13.7493 10.7281 13.7508 10.8375 13.7532 10.9476C13.9438 10.8531 14.1305 10.7515 14.3118 10.6398C14.1235 10.6304 13.936 10.6242 13.7477 10.6179ZM11.8313 12.6922C11.4501 12.9281 11.2196 13.3836 11.2524 13.8312C11.2774 14.3039 11.6032 14.7398 12.0423 14.9101C12.1883 14.964 12.3438 14.9875 12.4962 15.0172C12.5024 14.1719 12.5032 13.3273 12.4954 12.482C12.2673 12.5242 12.0298 12.5625 11.8313 12.6922ZM27.5048 12.482C27.4969 13.3273 27.4977 14.1719 27.504 15.0172C27.6962 14.9797 27.8954 14.9523 28.0719 14.8609C28.4501 14.6609 28.7251 14.264 28.7462 13.8328C28.7883 13.3258 28.4766 12.8195 28.0165 12.6125C27.8532 12.5422 27.6774 12.5148 27.5048 12.482ZM9.37506 24.375C9.37428 24.7914 9.37428 25.2078 9.37506 25.625C12.6743 25.6226 15.9727 25.6304 19.2719 25.6203C19.079 25.1351 18.7071 24.7156 18.2165 24.5211C17.8188 24.3469 17.3766 24.3742 16.9532 24.3742C14.4274 24.3765 11.9016 24.3742 9.37506 24.375ZM20.7274 25.6203C24.0266 25.6304 27.3258 25.6226 30.6251 25.625C30.6251 25.2078 30.6251 24.7914 30.6243 24.375C27.9157 24.3765 25.2063 24.3719 22.4969 24.3773C21.7188 24.3687 20.9962 24.8969 20.7274 25.6203ZM5.31491 25.8289C4.64147 27.282 3.98835 28.7445 3.32194 30.2015C2.90475 31.0797 2.6196 32.0258 2.53835 32.9969C2.50397 33.3797 2.48132 33.7664 2.52428 34.1492C2.61647 35.0484 3.05085 35.9054 3.7196 36.5133C4.40007 37.1437 5.32194 37.4976 6.2485 37.4984C7.68288 37.5015 9.11725 37.5 10.5516 37.4992C10.9055 37.5344 11.2555 37.2469 11.2454 36.8828C11.2594 35.7609 11.2423 34.6383 11.2524 33.5156C11.2508 33.3351 11.2594 33.1531 11.2274 32.975C11.1712 32.7031 10.9079 32.5 10.6321 32.5047C10.0024 32.4836 9.37194 32.5164 8.74303 32.4953C8.46725 32.4984 8.20319 32.2961 8.14694 32.025C8.07975 31.6539 8.18132 31.2679 8.08444 30.9023C7.95475 30.5672 7.43053 30.5273 7.26647 30.8539C7.06725 31.2812 6.99147 31.757 6.78757 32.1836C6.67585 32.4086 6.41803 32.5117 6.17663 32.5C5.3696 32.5023 4.56178 32.4976 3.75397 32.5008C3.75085 32.382 3.74772 32.264 3.7446 32.1469C3.75085 31.8476 3.75163 31.5492 3.75007 31.25C4.43132 31.25 5.11257 31.2484 5.79382 31.2523C5.89616 30.9656 5.97975 30.6726 6.09694 30.3914C6.33366 29.8359 6.89147 29.4375 7.49147 29.3828C7.70319 29.3633 7.91491 29.3976 8.12428 29.4273C8.12038 28.6383 8.13678 27.8484 8.11491 27.0594C7.17663 26.6609 6.25397 26.2258 5.31491 25.8289ZM9.37663 26.8765C9.3735 28.3336 9.3735 29.7914 9.37663 31.2484C9.87194 31.2625 10.3688 31.225 10.8633 31.2687C11.5626 31.3429 12.1782 31.8617 12.3993 32.525C12.4954 32.7914 12.5016 33.0789 12.5024 33.3594C12.4985 34.4531 12.4985 35.5469 12.5024 36.6406C12.504 36.9273 12.4696 37.2133 12.4196 37.4961C14.3212 37.5039 16.2227 37.5 18.1235 37.4984C18.1258 33.9578 18.1266 30.4172 18.1235 26.8765C15.2079 26.8742 12.2923 26.8734 9.37663 26.8765ZM19.3766 26.8765C19.3743 30.4172 19.3743 33.9578 19.3766 37.4984C19.7923 37.5015 20.2079 37.5015 20.6243 37.4984C20.6258 33.9578 20.6258 30.4172 20.6235 26.8765C20.2079 26.8726 19.7923 26.8726 19.3766 26.8765ZM21.8766 26.8765C21.8743 30.4172 21.8735 33.9578 21.8766 37.4984C23.7774 37.5 25.679 37.5031 27.5798 37.4961C27.5298 37.214 27.4962 36.9273 27.4977 36.6406C27.5016 35.5211 27.5008 34.4015 27.4977 33.282C27.4985 33.0054 27.518 32.7242 27.6219 32.4664C27.8633 31.8054 28.5071 31.3094 29.211 31.2609C29.6813 31.232 30.1524 31.2601 30.6235 31.2484C30.6258 29.7914 30.6266 28.3336 30.6235 26.8765C27.7079 26.8734 24.7922 26.8742 21.8766 26.8765Z" fill="black"/>
<path d="M16.6614 12.5195C17.0551 12.4492 17.4778 12.582 17.7575 12.8672C18.0715 13.1742 18.1989 13.6547 18.0809 14.0773C17.9676 14.4961 17.6207 14.8422 17.2028 14.9554C16.7621 15.0797 16.259 14.9328 15.9543 14.5914C15.6332 14.2492 15.5371 13.7203 15.716 13.2867C15.8707 12.8898 16.2418 12.5898 16.6614 12.5195Z" fill="black"/>
<path d="M22.9106 12.5179C23.4551 12.4164 24.0403 12.725 24.2614 13.2336C24.4786 13.6929 24.3723 14.2781 24.0075 14.632C23.6536 14.9968 23.0684 15.1031 22.609 14.8867C22.1708 14.6929 21.8715 14.2297 21.8762 13.75C21.8637 13.1601 22.3325 12.6148 22.9106 12.5179Z" fill="black"/>
<path d="M17.7549 17.3734C18.0057 17.0461 18.2377 16.7054 18.4979 16.3851C19.0635 16.775 19.7736 16.9695 20.4557 16.832C20.8354 16.7687 21.1807 16.5883 21.5033 16.3859C21.7619 16.7062 21.9955 17.0453 22.2455 17.3726C20.9697 18.3742 19.0314 18.375 17.7549 17.3734Z" fill="black"/>
<path d="M23.7525 28.7515C25.4174 28.7484 27.083 28.7492 28.7486 28.7515C28.7525 29.1671 28.7525 29.5828 28.7479 29.9984C27.083 30.0015 25.4174 30.0007 23.7525 29.9984C23.7479 29.5828 23.7479 29.1671 23.7525 28.7515Z" fill="black"/>
<path d="M24.3769 31.2516C25.2089 31.2484 26.0409 31.2484 26.8737 31.2516C26.8776 31.6672 26.8776 32.0828 26.873 32.4984C26.0409 32.5015 25.2089 32.5015 24.3776 32.4984C24.373 32.0828 24.373 31.6672 24.3769 31.2516Z" fill="black"/>
<path d="M13.7511 4.6047C14.7676 3.3047 16.398 2.51564 18.0465 2.50157C18.6722 2.49923 19.298 2.49611 19.9238 2.50157C20.7019 2.50001 21.4527 2.97423 21.7926 3.67267C21.8886 3.86642 21.8754 4.08751 21.8793 4.29767C21.8644 5.25548 21.8871 6.21486 21.8676 7.17267C19.7871 8.47189 17.3793 9.24923 14.9254 9.35782C14.1176 9.38986 13.309 9.37111 12.5004 9.37345C12.4957 9.06798 12.498 8.76251 12.5082 8.45704C14.4558 8.30861 16.3785 7.84767 18.1801 7.0922C19.0902 6.70392 19.9847 6.26095 20.7965 5.69142C20.5754 5.34376 20.3277 5.01486 20.073 4.69142C17.8293 6.11876 15.2269 6.97892 12.5777 7.18986C12.6496 6.79611 12.7558 6.41017 12.9004 6.03673C14.6105 5.77736 16.284 5.30861 17.9027 4.70548C18.1566 4.61486 18.4035 4.50626 18.648 4.39298C18.4863 4.04532 18.3801 3.67501 18.2269 3.32423C18.1535 3.23204 18.0308 3.32111 17.9441 3.33986C16.591 3.88986 15.1879 4.33517 13.7511 4.6047Z" fill="#844E3A"/>
<path d="M9.37637 26.8766C12.292 26.8734 15.2076 26.8742 18.1232 26.8766C18.1264 30.4172 18.1256 33.9578 18.1232 37.4985C16.2225 37.5 14.3209 37.5039 12.4193 37.4961C12.4693 37.2133 12.5037 36.9274 12.5021 36.6406C12.4982 35.5469 12.4982 34.4531 12.5021 33.3594C12.5014 33.0789 12.4951 32.7914 12.399 32.525C12.1779 31.8617 11.5623 31.343 10.8631 31.2688C10.3686 31.225 9.87168 31.2625 9.37637 31.2484C9.37324 29.7914 9.37324 28.3336 9.37637 26.8766Z" fill="#844E3A"/>
<path d="M21.8761 26.8766C24.7917 26.8742 27.7073 26.8734 30.623 26.8766C30.6261 28.3336 30.6253 29.7914 30.623 31.2484C30.1519 31.2602 29.6808 31.232 29.2105 31.2609C28.5066 31.3094 27.8628 31.8055 27.6214 32.4664C27.5175 32.7242 27.498 33.0055 27.4972 33.282C27.5003 34.4016 27.5011 35.5211 27.4972 36.6406C27.4956 36.9274 27.5292 37.2141 27.5792 37.4961C25.6784 37.5031 23.7769 37.5 21.8761 37.4984C21.873 33.9578 21.8737 30.4172 21.8761 26.8766ZM23.7519 28.7516C23.7472 29.1672 23.7472 29.5828 23.7519 29.9984C25.4167 30.0008 27.0823 30.0016 28.7472 29.9984C28.7519 29.5828 28.7519 29.1672 28.748 28.7516C27.0823 28.7492 25.4167 28.7484 23.7519 28.7516ZM24.3761 31.2516C24.3722 31.6672 24.3722 32.0828 24.3769 32.4984C25.2081 32.5016 26.0401 32.5016 26.8722 32.4984C26.8769 32.0828 26.8769 31.6672 26.873 31.2516C26.0401 31.2484 25.2081 31.2484 24.3761 31.2516Z" fill="#844E3A"/>
<path d="M23.1285 4.36877C23.5855 4.39065 24.0456 4.47112 24.4589 4.67581C25.5574 5.18284 26.2956 6.36877 26.2464 7.58127C25.5863 6.91252 24.887 6.28049 24.1144 5.74299C23.8535 6.06643 23.6285 6.41643 23.4199 6.77502C24.4285 7.51096 25.3519 8.37034 26.1105 9.36409C26.1792 9.45784 26.2441 9.56331 26.2441 9.6844C26.2691 10.0797 26.2456 10.4766 26.2433 10.8727C24.912 10.1391 23.8433 8.95393 23.2113 7.57502C23.1074 7.35706 23.1222 7.1094 23.1214 6.87502C23.1316 6.03909 23.1191 5.20393 23.1285 4.36877Z" fill="#784533"/>
<path d="M21.485 8.82812C21.7343 8.69141 21.9811 8.55156 22.2343 8.42188C23.0913 10.1086 24.5272 11.4922 26.2468 12.2828C26.2546 12.8242 26.2491 13.3648 26.2507 13.9062C26.2444 14.6883 26.2929 15.4812 26.1233 16.2508C25.7952 17.9023 24.7585 19.3938 23.3327 20.2867C21.9889 21.1422 20.31 21.4477 18.7507 21.1227C17.539 20.8797 16.4069 20.2617 15.5429 19.3789C14.6585 18.4828 14.0554 17.3133 13.8436 16.0711C13.7155 15.3828 13.7569 14.6805 13.7507 13.9844C13.7538 13.4203 13.7421 12.8555 13.7585 12.2914C14.653 11.9484 15.4897 11.4484 16.2046 10.8094C16.3897 10.6508 16.5538 10.4273 16.8171 10.4055C18.4452 10.1375 20.0265 9.59844 21.485 8.82812ZM16.6616 12.5195C16.2421 12.5898 15.871 12.8898 15.7163 13.2867C15.5374 13.7203 15.6335 14.2492 15.9546 14.5914C16.2593 14.9328 16.7624 15.0797 17.203 14.9555C17.621 14.8422 17.9679 14.4961 18.0811 14.0773C18.1991 13.6547 18.0718 13.1742 17.7577 12.8672C17.478 12.582 17.0554 12.4492 16.6616 12.5195ZM22.9108 12.518C22.3327 12.6148 21.864 13.1602 21.8765 13.75C21.8718 14.2297 22.171 14.693 22.6093 14.8867C23.0686 15.1031 23.6538 14.9969 24.0077 14.632C24.3725 14.2781 24.4788 13.693 24.2616 13.2336C24.0405 12.725 23.4554 12.4164 22.9108 12.518ZM17.7554 17.3734C19.0319 18.375 20.9702 18.3742 22.246 17.3727C21.996 17.0453 21.7624 16.7063 21.5038 16.3859C21.1811 16.5883 20.8358 16.7687 20.4561 16.832C19.7741 16.9695 19.064 16.775 18.4983 16.3852C18.2382 16.7055 18.0061 17.0461 17.7554 17.3734Z" fill="#FDC8A2"/>
<path d="M7.26669 30.8539C7.43075 30.5274 7.95497 30.5672 8.08466 30.9024C8.18153 31.268 8.07997 31.6539 8.14716 32.025C8.20341 32.2961 8.46747 32.4985 8.74325 32.4953C9.37216 32.5164 10.0026 32.4836 10.6323 32.5047C10.9081 32.5 11.1714 32.7032 11.2276 32.975C11.2597 33.1532 11.2511 33.3352 11.2526 33.5157C11.2425 34.6383 11.2597 35.761 11.2456 36.8828C11.2558 37.2469 10.9058 37.5344 10.5518 37.4992C9.11747 37.5 7.6831 37.5016 6.24872 37.4985C5.32216 37.4977 4.40028 37.1438 3.71982 36.5133C3.05107 35.9055 2.61669 35.0485 2.5245 34.1492C2.48153 33.7664 2.50419 33.3797 2.53857 32.9969C2.912 32.675 3.27997 32.3328 3.74482 32.1469C3.74794 32.2641 3.75107 32.3821 3.75419 32.5008C4.562 32.4977 5.36982 32.5024 6.17685 32.5C6.41825 32.5117 6.67607 32.4086 6.78778 32.1836C6.99169 31.7571 7.06747 31.2813 7.26669 30.8539Z" fill="#FDC8A2"/>
<path d="M31.8885 31.0211C31.9057 30.7703 32.1705 30.586 32.4119 30.6305C32.5658 30.6508 32.6955 30.7602 32.7549 30.9016C32.9432 31.3157 33.0119 31.7758 33.215 32.1836C33.3229 32.4125 33.583 32.5055 33.8221 32.4992C34.6307 32.5063 35.44 32.4961 36.2494 32.5C36.2502 32.3844 36.251 32.2696 36.2525 32.1547C36.7229 32.325 37.0846 32.6766 37.4604 32.9914C37.5627 33.8422 37.4799 34.7375 37.0635 35.5C36.4518 36.6852 35.1674 37.4774 33.8338 37.4961C32.4518 37.5086 31.0697 37.4922 29.6877 37.5039C29.4307 37.4977 29.126 37.5219 28.9338 37.3157C28.7471 37.1446 28.7502 36.8742 28.7471 36.6414C28.7518 35.5469 28.7518 34.4524 28.7471 33.3586C28.7518 33.1922 28.7463 33.0196 28.8096 32.8633C28.9018 32.643 29.1338 32.5063 29.3689 32.5063C29.9979 32.4758 30.6283 32.5242 31.2564 32.4938C31.5322 32.4961 31.8002 32.2977 31.8502 32.0227C31.9057 31.6907 31.8494 31.3532 31.8885 31.0211Z" fill="#FDC8A2"/>
<path d="M13.748 10.618C13.9363 10.6242 14.1238 10.6305 14.3121 10.6399C14.1309 10.7516 13.9441 10.8531 13.7535 10.9477C13.7512 10.8375 13.7496 10.7281 13.748 10.618Z" fill="#714130"/>
<path d="M11.831 12.6922C12.0295 12.5625 12.267 12.5242 12.4951 12.4821C12.5029 13.3274 12.5021 14.1719 12.4959 15.0172C12.3435 14.9875 12.1881 14.9641 12.042 14.9102C11.6029 14.7399 11.2771 14.3039 11.2521 13.8313C11.2193 13.3836 11.4498 12.9281 11.831 12.6922Z" fill="#FDB683"/>
<path d="M27.5047 12.4821C27.6773 12.5149 27.8531 12.5422 28.0164 12.6125C28.4766 12.8196 28.7883 13.3258 28.7461 13.8328C28.725 14.2641 28.45 14.661 28.0719 14.861C27.8953 14.9524 27.6961 14.9797 27.5039 15.0172C27.4977 14.1719 27.4969 13.3274 27.5047 12.4821Z" fill="#FDB683"/>
<path d="M5.31465 25.8289C6.25371 26.2258 7.17637 26.6609 8.11465 27.0594C8.13652 27.8484 8.12012 28.6383 8.12402 29.4274C7.91465 29.3977 7.70293 29.3633 7.49121 29.3828C6.89121 29.4375 6.3334 29.836 6.09668 30.3914C5.97949 30.6727 5.8959 30.9656 5.79356 31.2524C5.11231 31.2485 4.43105 31.25 3.7498 31.25C3.75137 31.5492 3.75059 31.8477 3.74434 32.1469C3.27949 32.3328 2.91152 32.675 2.53809 32.9969C2.61934 32.0258 2.90449 31.0797 3.32168 30.2016C3.98809 28.7445 4.64121 27.282 5.31465 25.8289Z" fill="#FDB683"/>
<path d="M31.8839 27.0633C32.8237 26.6657 33.7471 26.2305 34.687 25.8313C35.1753 26.8829 35.6518 27.9399 36.1268 28.9969C36.3221 28.9188 36.5175 28.8391 36.7104 28.7532C36.8901 29.1711 37.0807 29.5852 37.23 30.0165C37.0581 30.0977 36.8862 30.1774 36.7136 30.2555C37.0956 31.1243 37.3823 32.0415 37.4604 32.9915C37.0846 32.6766 36.7229 32.325 36.2526 32.1547C36.2518 31.8532 36.2503 31.5516 36.2487 31.2508C35.5682 31.2493 34.8878 31.2493 34.2073 31.2524C34.1003 30.9469 34.0112 30.6336 33.8761 30.3391C33.6401 29.8219 33.1182 29.4571 32.5565 29.3891C32.3292 29.3649 32.1011 29.3954 31.8745 29.4196C31.88 28.6336 31.8651 27.8485 31.8839 27.0633Z" fill="#FDB683"/>
<path d="M11.3719 18.7773C12.0812 18.7258 12.793 18.7554 13.5031 18.7539C13.6844 19.0406 13.8687 19.3258 14.0766 19.5945C15.1094 20.9367 16.6141 21.9047 18.2625 22.2922C20.0484 22.7226 21.9922 22.4679 23.6 21.5758C24.8031 20.925 25.8008 19.9273 26.4969 18.7539C27.1875 18.7539 27.8797 18.7281 28.5695 18.7734C30.0859 18.8914 31.5164 19.7273 32.3852 20.9719C32.7563 21.4976 32.9891 22.1008 33.2594 22.6804C33.557 23.3492 33.8758 24.0078 34.1602 24.6828C33.4055 25.0351 32.6398 25.3656 31.8781 25.7023C31.8609 25.05 31.8945 24.3961 31.868 23.7437C31.8703 23.4687 31.675 23.1969 31.3969 23.1508C31.0641 23.0984 30.7258 23.1281 30.3906 23.1242C28.0734 23.1258 25.7555 23.1242 23.4375 23.125C23.0453 23.1265 22.6523 23.1117 22.2609 23.139C21.6352 23.1828 21.025 23.4242 20.5414 23.8234C20.3477 23.9836 20.175 24.1672 20 24.3476C19.5906 23.8883 19.1 23.4828 18.5055 23.2937C17.9328 23.089 17.3164 23.125 16.7188 23.1242C14.3484 23.125 11.9789 23.1258 9.60859 23.1242C9.27344 23.1281 8.93516 23.0984 8.60313 23.1508C8.32422 23.1961 8.12891 23.4687 8.13203 23.7437C8.10547 24.3961 8.13906 25.0484 8.12187 25.7015C7.36016 25.3633 6.59687 25.0297 5.83984 24.682C6.25703 23.7219 6.70156 22.7742 7.13281 21.8203C7.34141 21.3429 7.64687 20.9187 7.95625 20.5023C7.80234 20.3687 7.65 20.2344 7.49687 20.1C7.73828 19.8453 7.99375 19.6047 8.25469 19.3703C8.38672 19.5328 8.52422 19.6906 8.65781 19.8515C9.45078 19.2695 10.3844 18.8601 11.3719 18.7773Z" fill="#DE5540"/>
<path d="M9.37461 24.375C11.9012 24.3742 14.427 24.3766 16.9527 24.3742C17.3762 24.3742 17.8184 24.3469 18.216 24.5211C18.7066 24.7156 19.0785 25.1352 19.2715 25.6203C15.9723 25.6305 12.6738 25.6227 9.37461 25.625C9.37383 25.2078 9.37383 24.7914 9.37461 24.375Z" fill="#F1DDC1"/>
<path d="M20.7266 25.6203C20.9953 24.8969 21.718 24.3688 22.4961 24.3774C25.2055 24.3719 27.9148 24.3766 30.6234 24.375C30.6242 24.7914 30.6242 25.2078 30.6242 25.625C27.325 25.6227 24.0258 25.6305 20.7266 25.6203Z" fill="#F1DDC1"/>
<path d="M19.3768 26.8766C19.7924 26.8727 20.208 26.8727 20.6236 26.8766C20.626 30.4172 20.626 33.9578 20.6244 37.4985C20.208 37.5016 19.7924 37.5016 19.3768 37.4985C19.3744 33.9578 19.3744 30.4172 19.3768 26.8766Z" fill="#915C49"/>
</svg>
