<svg width="166" height="166" viewBox="0 0 166 166" fill="none" xmlns="http://www.w3.org/2000/svg">
<path d="M2.76952 8.43617C2.62038 5.38203 5.38596 2.61969 8.43686 2.76883C57.5009 2.76234 106.562 2.76883 155.626 2.76558C157.117 2.78828 158.706 2.59699 160.08 3.31351C162.013 4.2116 163.297 6.30281 163.232 8.43293C163.225 47.1187 163.255 85.8077 163.219 124.49C109.739 124.506 56.2624 124.5 2.78573 124.494C2.74358 85.8077 2.776 47.122 2.76952 8.43617ZM15.6734 14.0549C14.7235 14.3305 14.0199 15.235 13.9453 16.2174C13.7865 17.6148 13.8935 19.0219 13.8805 20.4258C13.8805 49.1743 13.8805 77.9227 13.8805 106.668C13.8967 108.146 13.7638 109.638 14.0199 111.103C14.2047 112.102 14.8532 113.191 15.9425 113.353C17.3205 113.548 18.7178 113.425 20.1023 113.441C62.0367 113.438 103.968 113.441 145.899 113.441C147.287 113.421 148.681 113.548 150.062 113.353C151.145 113.188 151.793 112.102 151.978 111.103C152.247 109.531 152.098 107.929 152.118 106.344C152.127 76.6226 152.108 46.9015 152.127 17.1803C152.101 16.2985 152.027 15.3031 151.336 14.6644C150.698 13.9738 149.702 13.8993 148.824 13.8733C104.944 13.8863 61.0608 13.8863 17.181 13.8733C16.6753 13.8928 16.163 13.9187 15.6734 14.0549Z" fill="#0A2C5E"/>
<path d="M45.8481 61.1088C46.8532 60.7327 48.1598 60.7975 48.912 61.6437C49.703 62.3732 49.8781 63.4853 49.8749 64.5098C49.8652 76.8366 49.8652 89.1634 49.8749 101.493C49.943 102.816 49.4339 104.278 48.176 104.895C47.1741 105.267 45.8643 105.199 45.1121 104.35C44.2659 103.53 44.1978 102.275 44.1719 101.169C44.1913 88.9494 44.1719 76.7296 44.1816 64.5098C44.1589 63.2032 44.5707 61.7086 45.8481 61.1088Z" fill="#0A2C5E"/>
<path d="M15.6737 14.0549C16.1632 13.9187 16.6755 13.8928 17.1813 13.8733C61.0611 13.8863 104.944 13.8863 148.824 13.8733C149.702 13.8993 150.698 13.9738 151.337 14.6644C152.027 15.3031 152.102 16.2985 152.128 17.1804C152.108 46.9015 152.128 76.6226 152.118 106.344C152.098 107.929 152.248 109.531 151.978 111.103C151.794 112.102 151.145 113.188 150.062 113.353C148.681 113.548 147.287 113.421 145.899 113.441C103.968 113.441 62.0369 113.438 20.1025 113.441C18.7181 113.425 17.3207 113.548 15.9428 113.353C14.8534 113.191 14.205 112.102 14.0202 111.103C13.764 109.638 13.897 108.146 13.8807 106.668C13.8807 77.9227 13.8807 49.1743 13.8807 20.4258C13.8937 19.0219 13.7867 17.6148 13.9456 16.2174C14.0202 15.235 14.7237 14.3305 15.6737 14.0549ZM87.6891 22.2673C86.8559 22.517 86.2496 23.2011 85.9027 23.976C82.3395 31.1088 78.7764 38.2416 75.2035 45.3679C74.9084 45.9775 74.6231 46.6421 74.7301 47.3359C74.8468 48.5842 75.9168 49.6541 77.165 49.7708C78.3127 49.9362 79.4832 49.2521 79.9695 48.2113C83.5878 41.0137 87.1704 33.7998 90.7854 26.5989C91.2037 25.8208 91.4825 24.887 91.155 24.0246C90.7238 22.624 89.0735 21.7843 87.6891 22.2673ZM63.791 23.5869C60.3478 27.0625 56.8624 30.4993 53.4225 33.9781C52.2909 35.0091 52.3007 36.9545 53.4452 37.9725C57.0699 41.5973 60.6914 45.2285 64.313 48.8533C65.01 49.6022 66.0994 49.9913 67.1012 49.706C68.4143 49.3882 69.3513 48.0136 69.1406 46.6745C68.9979 45.4166 67.8826 44.6579 67.0818 43.802C64.5043 41.1758 61.8489 38.6242 59.3005 35.9688C62.2574 32.8693 65.3699 29.9157 68.356 26.8421C69.1762 26.0088 69.3546 24.6504 68.7969 23.6291C68.2101 22.4651 66.7284 21.8815 65.5028 22.3095C64.7993 22.5235 64.3032 23.0973 63.791 23.5869ZM96.9034 25.2955C97.0137 26.4692 98.0285 27.2052 98.7807 27.993C101.417 30.6549 104.124 33.2584 106.705 35.9753C104.101 38.6793 101.397 41.2925 98.7612 43.9673C98.009 44.7649 96.9683 45.4944 96.858 46.6745C96.6505 48.0136 97.5843 49.3882 98.8974 49.706C99.9025 49.9913 100.989 49.6022 101.689 48.8533C105.314 45.2285 108.945 41.6038 112.563 37.9693C113.688 36.9415 113.704 35.0156 112.579 33.9749C109.039 30.3825 105.443 26.8421 101.883 23.2627C101.277 22.6207 100.457 22.102 99.5361 22.1766C97.9604 22.1766 96.6408 23.7393 96.9034 25.2955ZM45.8487 61.1088C44.5713 61.7086 44.1595 63.2032 44.1822 64.5098C44.1725 76.7296 44.192 88.9494 44.1725 101.169C44.1984 102.275 44.2665 103.53 45.1127 104.35C45.8649 105.199 47.1748 105.267 48.1766 104.894C49.4346 104.278 49.9436 102.816 49.8755 101.493C49.8658 89.1634 49.8658 76.8366 49.8755 64.5098C49.8787 63.4853 49.7037 62.3732 48.9126 61.6437C48.1604 60.7975 46.8538 60.7327 45.8487 61.1088ZM29.6313 63.7609C28.4868 64.0916 27.6276 65.2393 27.6762 66.4389C27.6633 67.7877 28.7916 69.0456 30.1468 69.1364C31.6609 69.2142 33.1782 69.1396 34.6956 69.1721C35.5872 69.1494 36.5598 69.2726 37.3574 68.7798C38.5538 68.1184 39.0725 66.5005 38.4825 65.262C38.0188 64.1856 36.8354 63.5501 35.6844 63.6344C33.6711 63.7025 31.6285 63.4788 29.6313 63.7609ZM57.5076 63.709C56.2496 63.9489 55.2737 65.1842 55.3451 66.4681C55.3516 67.6677 56.2399 68.7992 57.4136 69.0651C58.2566 69.2239 59.1222 69.1591 59.9782 69.1721C75.0025 69.1526 90.0268 69.185 105.051 69.1559C106.526 69.2272 107.907 67.9563 107.888 66.4713C107.969 64.9507 106.594 63.5728 105.071 63.6441C90.043 63.615 75.0122 63.6474 59.9814 63.6279C59.1579 63.6377 58.3279 63.5858 57.5076 63.709ZM115.543 63.722C114.317 63.9911 113.374 65.2036 113.455 66.4648C113.426 67.3954 113.99 68.261 114.755 68.7538C115.436 69.1818 116.269 69.1656 117.047 69.1721C123.207 69.1494 129.371 69.1883 135.531 69.1559C137.006 69.2207 138.342 67.9109 138.322 66.4421C138.4 64.9345 137.026 63.5825 135.528 63.6441C129.364 63.615 123.198 63.6474 117.034 63.6279C116.535 63.6344 116.032 63.6214 115.543 63.722ZM29.9555 74.7519C28.6619 74.9399 27.6341 76.1817 27.673 77.485C27.6471 78.8468 28.7948 80.1015 30.15 80.202C31.6609 80.283 33.1782 80.2085 34.6923 80.2377C35.5159 80.215 36.3912 80.322 37.1596 79.9523C38.3009 79.4336 38.9655 78.0589 38.6478 76.8463C38.4046 75.624 37.2277 74.6935 35.986 74.7097C33.9791 74.7162 31.9624 74.6352 29.9555 74.7519ZM57.5206 74.7713C56.2788 75.0048 55.2932 76.2206 55.3451 77.4883C55.29 78.9311 56.5998 80.2279 58.0328 80.2117C59.9782 80.2441 61.9267 80.2668 63.872 80.202C65.2532 80.1404 66.4171 78.863 66.388 77.4883C66.4463 75.9742 65.0554 74.6157 63.5413 74.7097C61.5344 74.7227 59.521 74.6157 57.5206 74.7713ZM74.059 74.7875C72.8432 75.0502 71.8867 76.2336 71.9548 77.4915C71.8932 79.0348 73.3716 80.3576 74.8955 80.2279C94.3486 80.2409 113.802 80.2279 133.255 80.2344C134.117 80.2312 134.986 80.2701 135.849 80.1988C136.776 80.1242 137.629 79.5341 138.034 78.6976C138.653 77.5272 138.254 75.9482 137.158 75.209C136.315 74.5736 135.213 74.7162 134.228 74.6968C114.551 74.7065 94.8771 74.7032 75.2002 74.6968C74.8144 74.6903 74.4351 74.7195 74.059 74.7875ZM29.2779 86.025C28.1431 86.5372 27.4493 87.8633 27.7314 89.0888C27.968 90.3565 29.1903 91.3324 30.4807 91.2935C32.3158 91.3065 34.1541 91.313 35.9892 91.2903C37.2277 91.3032 38.4014 90.3727 38.6478 89.1569C39.066 87.6363 37.8891 85.9374 36.3167 85.8045C34.8058 85.7105 33.2885 85.7948 31.7744 85.7623C30.9411 85.785 30.0593 85.6683 29.2779 86.025ZM56.8754 86.0606C55.9741 86.5145 55.3029 87.4775 55.3451 88.5085C55.29 89.7827 56.2788 90.9887 57.5238 91.2189C58.2274 91.3357 58.9471 91.2968 59.6572 91.3065C63.7618 91.2773 67.8696 91.3259 71.9743 91.2838C73.4365 91.3065 74.7528 89.9804 74.688 88.5117C74.7171 87.2894 73.7964 86.1417 72.6162 85.8628C72.0845 85.7559 71.5398 85.7656 71.0048 85.7591C66.9002 85.7753 62.7924 85.7656 58.6878 85.7623C58.075 85.7818 57.4298 85.7623 56.8754 86.0606ZM81.8175 86.0379C80.5693 86.5956 79.9176 88.1681 80.3942 89.4487C80.7606 90.5348 81.8564 91.3065 83.0042 91.287C90.1402 91.3195 97.2763 91.2838 104.412 91.3032C105.187 91.3 106.04 91.3097 106.685 90.8137C107.68 90.149 108.147 88.8132 107.758 87.6785C107.405 86.5307 106.247 85.7202 105.048 85.7753C98.0252 85.7494 90.9994 85.7818 83.9736 85.7591C83.2506 85.7721 82.4887 85.7234 81.8175 86.0379ZM115.186 85.9569C114.184 86.3816 113.406 87.3964 113.455 88.5117C113.387 89.7664 114.35 90.9434 115.559 91.2092C116.152 91.3195 116.762 91.3032 117.365 91.3097C123.415 91.2805 129.468 91.3227 135.518 91.2903C137.016 91.3616 138.387 90.0128 138.322 88.5117C138.361 87.2602 137.392 86.0768 136.163 85.8564C135.631 85.7591 135.087 85.7656 134.552 85.7591C128.606 85.7786 122.663 85.7656 116.72 85.7656C116.204 85.785 115.672 85.7753 115.186 85.9569ZM29.3006 97.0776C28.2501 97.538 27.5595 98.7019 27.686 99.8464C27.7735 101.234 29.0639 102.395 30.4516 102.356C32.2964 102.375 34.1444 102.379 35.9925 102.356C37.3607 102.372 38.6154 101.228 38.7127 99.8626C38.8845 98.4361 37.7595 97.0095 36.3264 96.8701C34.8123 96.7793 33.2917 96.8604 31.7711 96.8279C30.9476 96.8539 30.0755 96.7339 29.3006 97.0776ZM57.151 97.0063C55.6887 97.4926 54.9139 99.3244 55.5753 100.715C56.0259 101.788 57.1931 102.43 58.3409 102.362C66.4593 102.369 74.5777 102.366 82.6962 102.366C83.7661 102.434 84.8684 101.931 85.3969 100.971C86.1588 99.7135 85.6693 97.9108 84.3789 97.2073C83.7758 96.8182 83.0366 96.8441 82.3493 96.8279C74.461 96.8377 66.5728 96.8344 58.6845 96.8279C58.169 96.8474 57.6405 96.8312 57.151 97.0063ZM93.1393 96.9998C91.7516 97.4504 90.9475 99.1007 91.4501 100.472C91.8197 101.681 93.0874 102.45 94.3291 102.366C108.06 102.362 121.794 102.379 135.524 102.356C137.032 102.414 138.41 101.049 138.322 99.5352C138.332 98.0697 136.996 96.7761 135.531 96.8441C121.91 96.815 108.29 96.8474 94.6728 96.8279C94.1573 96.8409 93.6288 96.8247 93.1393 96.9998Z" fill="#153A77"/>
<path d="M87.689 22.2673C89.0734 21.7843 90.7237 22.624 91.1549 24.0246C91.4824 24.887 91.2036 25.8208 90.7853 26.5989C87.1703 33.7998 83.5877 41.0137 79.9694 48.2113C79.483 49.2521 78.3126 49.9362 77.1649 49.7708C75.9166 49.6541 74.8467 48.5842 74.73 47.3359C74.623 46.6421 74.9083 45.9775 75.2034 45.3679C78.7762 38.2416 82.3394 31.1088 85.9026 23.976C86.2495 23.2011 86.8558 22.517 87.689 22.2673Z" fill="white"/>
<path d="M63.7908 23.5869C64.3031 23.0973 64.7991 22.5235 65.5027 22.3095C66.7282 21.8815 68.2099 22.4651 68.7967 23.629C69.3544 24.6503 69.1761 26.0088 68.3558 26.8421C65.3697 29.9157 62.2572 32.8693 59.3004 35.9688C61.8487 38.6242 64.5041 41.1758 67.0816 43.8019C67.8824 44.6579 68.9978 45.4166 69.1404 46.6745C69.3512 48.0135 68.4142 49.3882 67.1011 49.706C66.0992 49.9913 65.0099 49.6022 64.3128 48.8533C60.6913 45.2285 57.0697 41.5973 53.445 37.9725C52.3005 36.9544 52.2908 35.0091 53.4223 33.9781C56.8622 30.4992 60.3476 27.0625 63.7908 23.5869Z" fill="white"/>
<path d="M96.9024 25.2955C96.6398 23.7393 97.9594 22.1766 99.5351 22.1766C100.456 22.102 101.276 22.6207 101.882 23.2627C105.442 26.8421 109.038 30.3825 112.578 33.9749C113.703 35.0156 113.687 36.9415 112.562 37.9692C108.944 41.6037 105.313 45.2285 101.688 48.8533C100.988 49.6022 99.9014 49.9913 98.8964 49.706C97.5833 49.3882 96.6495 48.0135 96.857 46.6745C96.9673 45.4944 98.008 44.7649 98.7602 43.9673C101.396 41.2925 104.1 38.6793 106.704 35.9753C104.123 33.2583 101.416 30.6549 98.7796 27.993C98.0275 27.2052 97.0127 26.4692 96.9024 25.2955Z" fill="white"/>
<path d="M29.6308 63.7609C31.628 63.4788 33.6706 63.7025 35.684 63.6344C36.835 63.5501 38.0184 64.1856 38.482 65.262C39.0721 66.5005 38.5533 68.1184 37.357 68.7798C36.5594 69.2726 35.5867 69.1494 34.6951 69.1721C33.1778 69.1397 31.6604 69.2142 30.1463 69.1364C28.7911 69.0456 27.6628 67.7877 27.6758 66.4389C27.6272 65.2393 28.4863 64.0916 29.6308 63.7609Z" fill="white"/>
<path d="M29.9554 74.7519C31.9624 74.6352 33.979 74.7162 35.9859 74.7097C37.2277 74.6935 38.4046 75.624 38.6477 76.8463C38.9655 78.0589 38.3008 79.4336 37.1596 79.9523C36.3912 80.322 35.5158 80.215 34.6923 80.2377C33.1782 80.2085 31.6608 80.283 30.15 80.202C28.7947 80.1015 27.647 78.8468 27.6729 77.485C27.634 76.1817 28.6618 74.9399 29.9554 74.7519Z" fill="white"/>
<path d="M29.2774 86.0249C30.0587 85.6683 30.9406 85.785 31.7738 85.7623C33.2879 85.7947 34.8053 85.7105 36.3161 85.8045C37.8886 85.9374 39.0655 87.6363 38.6473 89.1569C38.4009 90.3727 37.2272 91.3032 35.9887 91.2903C34.1536 91.313 32.3153 91.3065 30.4802 91.2935C29.1898 91.3324 27.9675 90.3565 27.7308 89.0888C27.4488 87.8633 28.1426 86.5372 29.2774 86.0249Z" fill="white"/>
<path d="M29.2994 97.0776C30.0743 96.7339 30.9465 96.8538 31.77 96.8279C33.2906 96.8603 34.8111 96.7793 36.3252 96.87C37.7583 97.0095 38.8833 98.436 38.7115 99.8626C38.6142 101.228 37.3595 102.372 35.9913 102.356C34.1433 102.379 32.2952 102.375 30.4504 102.356C29.0627 102.395 27.7724 101.234 27.6848 99.8464C27.5584 98.7019 28.249 97.5379 29.2994 97.0776Z" fill="white"/>
<path d="M57.5061 63.709C58.3263 63.5858 59.1563 63.6377 59.9798 63.6279C75.0106 63.6474 90.0414 63.615 105.069 63.6441C106.593 63.5728 107.967 64.9507 107.886 66.4713C107.906 67.9563 106.525 69.2272 105.05 69.1559C90.0252 69.185 75.0009 69.1526 59.9766 69.1721C59.1207 69.1591 58.255 69.224 57.412 69.0651C56.2384 68.7992 55.35 67.6677 55.3435 66.4681C55.2722 65.1842 56.2481 63.9489 57.5061 63.709Z" fill="#6DE8EA"/>
<path d="M57.5193 74.7713C59.5197 74.6157 61.5331 74.7227 63.54 74.7097C65.0541 74.6157 66.445 75.9742 66.3866 77.4883C66.4158 78.863 65.2519 80.1404 63.8707 80.202C61.9254 80.2668 59.9768 80.2441 58.0315 80.2117C56.5985 80.2279 55.2886 78.9311 55.3438 77.4883C55.2919 76.2206 56.2775 75.0048 57.5193 74.7713Z" fill="#6DE8EA"/>
<path d="M56.8743 86.0606C57.4287 85.7623 58.0739 85.7818 58.6867 85.7623C62.7913 85.7656 66.8992 85.7753 71.0038 85.7591C71.5387 85.7656 72.0834 85.7558 72.6151 85.8628C73.7953 86.1417 74.7161 87.2894 74.6869 88.5117C74.7517 89.9804 73.4354 91.3065 71.9732 91.2838C67.8686 91.3259 63.7607 91.2773 59.6561 91.3065C58.9461 91.2967 58.2263 91.3357 57.5227 91.2189C56.2777 90.9887 55.2889 89.7826 55.344 88.5085C55.3018 87.4774 55.973 86.5145 56.8743 86.0606Z" fill="#6DE8EA"/>
<path d="M57.1502 97.0062C57.6397 96.8312 58.1682 96.8474 58.6837 96.8279C66.5719 96.8344 74.4602 96.8376 82.3484 96.8279C83.0358 96.8441 83.775 96.8182 84.378 97.2073C85.6684 97.9108 86.158 99.7135 85.3961 100.971C84.8676 101.931 83.7653 102.434 82.6953 102.366C74.5769 102.366 66.4585 102.369 58.34 102.362C57.1923 102.43 56.0251 101.788 55.5744 100.715C54.913 99.3244 55.6879 97.4926 57.1502 97.0062Z" fill="#6DE8EA"/>
<path d="M115.542 63.722C116.032 63.6214 116.534 63.6344 117.033 63.6279C123.197 63.6474 129.363 63.615 135.527 63.6441C137.025 63.5825 138.399 64.9345 138.322 66.4421C138.341 67.9109 137.005 69.2207 135.53 69.1559C129.37 69.1883 123.207 69.1494 117.046 69.1721C116.268 69.1656 115.435 69.1818 114.754 68.7538C113.989 68.261 113.425 67.3953 113.454 66.4648C113.373 65.2036 114.316 63.9911 115.542 63.722Z" fill="#EFC929"/>
<path d="M74.0588 74.7875C74.4349 74.7194 74.8142 74.6903 75.2 74.6967C94.8769 74.7032 114.55 74.7065 134.227 74.6967C135.213 74.7162 136.315 74.5735 137.158 75.209C138.254 75.9482 138.653 77.5272 138.034 78.6976C137.628 79.5341 136.776 80.1242 135.848 80.1987C134.986 80.2701 134.117 80.2312 133.255 80.2344C113.802 80.2279 94.3484 80.2409 74.8953 80.2279C73.3714 80.3576 71.893 79.0348 71.9546 77.4915C71.8865 76.2335 72.843 75.0501 74.0588 74.7875Z" fill="#EFC929"/>
<path d="M81.818 86.0379C82.4892 85.7234 83.2511 85.7721 83.9741 85.7591C90.9999 85.7818 98.0257 85.7494 105.048 85.7753C106.248 85.7202 107.405 86.5307 107.759 87.6785C108.148 88.8132 107.681 90.149 106.686 90.8137C106.04 91.3097 105.188 91.3 104.413 91.3032C97.2768 91.2838 90.1407 91.3194 83.0047 91.287C81.8569 91.3065 80.7611 90.5348 80.3947 89.4487C79.9181 88.168 80.5698 86.5956 81.818 86.0379Z" fill="#EFC929"/>
<path d="M93.1386 96.9998C93.6281 96.8247 94.1566 96.8409 94.6721 96.8279C108.289 96.8474 121.91 96.815 135.53 96.8442C136.996 96.7761 138.331 98.0697 138.322 99.5352C138.409 101.049 137.031 102.414 135.524 102.356C121.793 102.379 108.059 102.362 94.3285 102.366C93.0867 102.45 91.819 101.682 91.4494 100.472C90.9469 99.1007 91.7509 97.4504 93.1386 96.9998Z" fill="#EFC929"/>
<path d="M115.186 85.9569C115.672 85.7753 116.204 85.785 116.719 85.7656C122.662 85.7656 128.605 85.7785 134.551 85.7591C135.086 85.7656 135.631 85.7591 136.163 85.8564C137.392 86.0768 138.361 87.2602 138.322 88.5117C138.387 90.0128 137.016 91.3616 135.518 91.2903C129.468 91.3227 123.415 91.2805 117.365 91.3097C116.762 91.3032 116.152 91.3194 115.559 91.2092C114.349 90.9434 113.386 89.7664 113.455 88.5117C113.406 87.3964 114.184 86.3816 115.186 85.9569Z" fill="#D33957"/>
<path d="M2.78497 124.494C56.2616 124.5 109.738 124.506 163.218 124.49C163.26 126.763 163.218 129.036 163.234 131.309C163.225 132.44 163.312 133.614 162.887 134.69C162.323 136.259 161.01 137.537 159.422 138.049C158.306 138.438 157.107 138.315 155.949 138.334C137.151 138.341 118.353 138.318 99.5578 138.344C88.5181 138.402 77.4785 138.406 66.4388 138.344C47.6439 138.318 28.8489 138.341 10.0507 138.334C8.87704 138.315 7.66122 138.438 6.53618 138.036C4.88267 137.491 3.54689 136.113 3.02489 134.457C2.68771 133.442 2.77849 132.359 2.76552 131.309C2.78173 129.039 2.73634 126.766 2.78497 124.494Z" fill="#C0DAF0"/>
<path d="M49.3825 152.804C50.7637 152.182 52.3005 152.237 53.753 151.909C54.9623 151.997 56.1717 152.117 57.3875 152.123C73.4914 152.114 89.5922 152.117 105.696 152.12C107.881 152.159 110.07 152.123 112.249 151.909C113.117 152.081 113.999 152.192 114.881 152.305C118.104 152.814 120.837 155.443 121.521 158.631C121.748 159.759 121.939 161.075 121.213 162.074C120.652 162.891 119.634 163.286 118.665 163.234C95.4281 163.234 72.1913 163.231 48.9578 163.234C48.1991 163.225 47.4405 163.26 46.685 163.199C45.466 163.069 44.4317 162.035 44.2988 160.819C44.0621 157.421 46.2441 154.069 49.3825 152.804Z" fill="#C0DAF0"/>
<path d="M66.4386 138.344C77.4783 138.406 88.5179 138.403 99.5576 138.344C99.6386 140.876 100.384 143.415 101.96 145.428C104.499 148.729 108.373 150.639 112.248 151.909C110.069 152.123 107.88 152.159 105.695 152.12C89.5911 152.117 73.4904 152.114 57.3864 152.123C56.1706 152.117 54.9613 151.997 53.752 151.909C57.7009 150.632 61.6532 148.661 64.1723 145.244C65.6638 143.263 66.3511 140.798 66.4386 138.344Z" fill="#9FBACE"/>
</svg>
