<svg width="20" height="20" viewBox="0 0 20 20" fill="none" xmlns="http://www.w3.org/2000/svg">
<path d="M5.41699 8.33335H8.75033M17.0837 11.6667V8.75002C17.0837 6.80419 17.0837 5.83169 16.6903 5.09502C16.3796 4.51364 15.9034 4.03746 15.322 3.72669C14.5853 3.33335 13.6128 3.33335 11.667 3.33335C11.667 2.89133 11.4914 2.4674 11.1788 2.15484C10.8663 1.84228 10.4424 1.66669 10.0003 1.66669C9.5583 1.66669 9.13438 1.84228 8.82181 2.15484C8.50925 2.4674 8.33366 2.89133 8.33366 3.33335C6.38783 3.33335 5.41533 3.33335 4.67866 3.72669C4.09728 4.03746 3.62109 4.51364 3.31033 5.09502C2.91699 5.83169 2.91699 6.80419 2.91699 8.75002V11.6667C2.91699 14.8092 2.91699 16.3809 3.89366 17.3567C4.87033 18.3325 6.44116 18.3334 9.58366 18.3334H10.417C13.5595 18.3334 15.1312 18.3334 16.107 17.3567C17.0828 16.38 17.0837 14.8092 17.0837 11.6667Z" stroke="#333333" stroke-width="1.5" stroke-linecap="round" stroke-linejoin="round"/>
<path d="M11.2503 9.16667C11.2503 9.16667 11.667 9.16667 12.0837 10C12.0837 10 13.407 7.91667 14.5837 7.5M5.41699 13.3333H8.75033M11.2503 14.1667C11.2503 14.1667 11.667 14.1667 12.0837 15C12.0837 15 13.407 12.9167 14.5837 12.5" stroke="#333333" stroke-width="1.5" stroke-linecap="round" stroke-linejoin="round"/>
</svg>
