<svg width="40" height="40" viewBox="0 0 40 40" fill="none" xmlns="http://www.w3.org/2000/svg">
<path d="M10.833 16.6667H17.4997M34.1663 23.3334V17.5C34.1663 13.6084 34.1663 11.6634 33.3797 10.19C32.7581 9.02727 31.8058 8.07491 30.643 7.45337C29.1697 6.66671 27.2247 6.66671 23.333 6.66671C23.333 5.78265 22.9818 4.93481 22.3567 4.30968C21.7316 3.68456 20.8837 3.33337 19.9997 3.33337C19.1156 3.33337 18.2678 3.68456 17.6427 4.30968C17.0175 4.93481 16.6663 5.78265 16.6663 6.66671C12.7747 6.66671 10.8297 6.66671 9.35634 7.45337C8.19357 8.07491 7.24121 9.02727 6.61967 10.19C5.83301 11.6634 5.83301 13.6084 5.83301 17.5V23.3334C5.83301 29.6184 5.83301 32.7617 7.78634 34.7134C9.73967 36.665 12.8813 36.6667 19.1663 36.6667H20.833C27.118 36.6667 30.2613 36.6667 32.213 34.7134C34.1647 32.76 34.1663 29.6184 34.1663 23.3334Z" stroke="#333333" stroke-width="1.5" stroke-linecap="round" stroke-linejoin="round"/>
<path d="M22.4997 18.3333C22.4997 18.3333 23.333 18.3333 24.1663 20C24.1663 20 26.813 15.8333 29.1663 15M10.833 26.6667H17.4997M22.4997 28.3333C22.4997 28.3333 23.333 28.3333 24.1663 30C24.1663 30 26.813 25.8333 29.1663 25" stroke="#333333" stroke-width="1.5" stroke-linecap="round" stroke-linejoin="round"/>
</svg>
