<svg width="20" height="20" viewBox="0 0 20 20" fill="none" xmlns="http://www.w3.org/2000/svg">
<path d="M2.5 3C2.5 2.86739 2.55268 2.74021 2.64645 2.64645C2.74021 2.55268 2.86739 2.5 3 2.5H17C17.1326 2.5 17.2598 2.55268 17.3536 2.64645C17.4473 2.74021 17.5 2.86739 17.5 3V14.5C17.5 14.5657 17.4871 14.6307 17.4619 14.6913C17.4368 14.752 17.4 14.8071 17.3536 14.8536C17.3071 14.9 17.252 14.9368 17.1913 14.9619C17.1307 14.9871 17.0657 15 17 15H13.55C13.4816 14.9999 13.414 15.0138 13.3512 15.0409C13.2884 15.068 13.2318 15.1077 13.185 15.1575L10.3642 18.155C10.3174 18.2047 10.261 18.2443 10.1984 18.2714C10.1357 18.2984 10.0682 18.3124 10 18.3124C9.93177 18.3124 9.86427 18.2984 9.80164 18.2714C9.73901 18.2443 9.68258 18.2047 9.63583 18.155L6.815 15.1575C6.76816 15.1077 6.71161 15.068 6.64883 15.0409C6.58604 15.0138 6.51838 14.9999 6.45 15H3C2.86739 15 2.74021 14.9473 2.64645 14.8536C2.55268 14.7598 2.5 14.6326 2.5 14.5V3Z" stroke="#333333" stroke-width="1.5"/>
<path d="M10.0003 5.83331L11.1878 7.97915L13.3337 9.16665L11.1878 10.3541L10.0003 12.5L8.81283 10.3541L6.66699 9.16665L8.81283 7.97915L10.0003 5.83331Z" stroke="#333333" stroke-width="1.5" stroke-linecap="round" stroke-linejoin="round"/>
</svg>
