<svg width="42" height="29" viewBox="0 0 42 29" fill="none" xmlns="http://www.w3.org/2000/svg">
<line x1="1" y1="17" x2="41" y2="17" stroke="#D42953" stroke-dasharray="2 2"/>
<path d="M1 0.5L3.38743 17.2591C3.88726 20.7671 4.83386 21.7329 5.55986 19.4605L7.47539 13.467C7.86632 12.2456 8.33822 11.9189 8.77941 12.558L11.3372 16.2933C11.8677 17.0744 12.4401 16.4211 12.859 14.5606L14.3668 7.85695C14.903 5.47091 15.6792 5.14425 16.2852 7.01899L19.0691 15.6542C19.5913 17.2733 20.2503 17.2733 20.7724 15.64L22.3333 10.7401C22.9058 8.95055 23.6373 9.12098 24.1707 11.1946L28.2223 26.8174C28.778 28.962 29.5375 29.0615 30.1155 27.0873L34.5218 12.0183C34.7899 11.0951 35.1082 10.6123 35.4293 10.6123H37.638C38.0709 10.6123 38.4841 11.4786 38.7885 13.0409L41 24.2894" stroke="#D42953" stroke-linecap="round" stroke-linejoin="round"/>
</svg>
