<svg width="32" height="32" viewBox="0 0 32 32" fill="none" xmlns="http://www.w3.org/2000/svg">
<path d="M8.00065 26.6666C7.26732 26.6666 6.63976 26.4057 6.11798 25.8839C5.59621 25.3621 5.33487 24.7341 5.33398 23.9999V21.3333C5.33398 20.9555 5.46198 20.639 5.71798 20.3839C5.97398 20.1288 6.29043 20.0008 6.66732 19.9999C7.04421 19.999 7.3611 20.127 7.61798 20.3839C7.87487 20.6408 8.00243 20.9573 8.00065 21.3333V23.9999H24.0007V21.3333C24.0007 20.9555 24.1287 20.639 24.3847 20.3839C24.6407 20.1288 24.9571 20.0008 25.334 19.9999C25.7109 19.999 26.0278 20.127 26.2847 20.3839C26.5415 20.6408 26.6691 20.9573 26.6673 21.3333V23.9999C26.6673 24.7333 26.4064 25.3613 25.8847 25.8839C25.3629 26.4066 24.7349 26.6675 24.0007 26.6666H8.00065ZM14.6673 10.4666L12.1673 12.9666C11.9007 13.2333 11.5842 13.3613 11.218 13.3506C10.8518 13.3399 10.5349 13.2008 10.2673 12.9333C10.0229 12.6666 9.89487 12.3555 9.88332 11.9999C9.87176 11.6444 9.99976 11.3333 10.2673 11.0666L15.0673 6.26659C15.2007 6.13326 15.3451 6.03903 15.5007 5.98392C15.6562 5.92881 15.8229 5.90081 16.0007 5.89992C16.1784 5.89903 16.3451 5.92703 16.5007 5.98392C16.6562 6.04081 16.8007 6.13503 16.934 6.26659L21.734 11.0666C22.0007 11.3333 22.1287 11.6444 22.118 11.9999C22.1073 12.3555 21.9793 12.6666 21.734 12.9333C21.4673 13.1999 21.1509 13.339 20.7847 13.3506C20.4184 13.3621 20.1015 13.2341 19.834 12.9666L17.334 10.4666V19.9999C17.334 20.3777 17.206 20.6946 16.95 20.9506C16.694 21.2066 16.3775 21.3341 16.0007 21.3333C15.6238 21.3324 15.3073 21.2044 15.0513 20.9493C14.7953 20.6941 14.6673 20.3777 14.6673 19.9999V10.4666Z" fill="#AAAAAA"/>
</svg>
